<svg width="226" height="357" viewBox="0 0 226 357" fill="none" xmlns="http://www.w3.org/2000/svg">
<mask id="mask0_1474_13364" style="mask-type:alpha" maskUnits="userSpaceOnUse" x="-10" y="0" width="236" height="370">
<rect x="-10" width="236" height="370" rx="50" fill="#FDC56B"/>
</mask>
<g mask="url(#mask0_1474_13364)">
<path fill-rule="evenodd" clip-rule="evenodd" d="M30.734 379.791C30.7271 378.99 30.4133 378.623 30.1481 377.866C29.5007 376.019 29.013 374.064 28.4329 372.19C27.2185 368.27 26.1385 364.301 24.8816 360.4C23.1758 355.106 22.7587 349.552 21.0086 344.251C18.5367 336.765 16.9157 328.84 13.7645 321.6C12.9628 319.758 12.4164 318.267 12.1238 316.274C11.8651 314.516 11.0886 313.253 10.6352 311.565C9.49354 307.315 8.61976 302.623 8.18618 298.258C7.53532 291.712 5.59651 285.383 5.29498 278.801C4.902 270.218 7.31534 261.539 8.56444 253.098C9.98063 243.529 10.4761 233.892 12.2966 224.384C13.5673 217.747 13.3433 211.015 14.4171 204.385C14.7815 202.135 15.2347 199.844 15.8142 197.64C16.7542 194.065 17.2301 190.934 17.4471 187.238C17.8661 180.102 18.1261 172.636 19.62 165.639C20.0726 163.518 19.9949 161.456 20.3687 159.332C20.8044 156.858 21.8731 154.544 22.3277 152.071C22.883 149.052 23.1306 146.164 23.9624 143.189C25.0898 139.156 25.8104 135.064 26.7388 130.98C28.2219 124.46 30.1059 118.007 31.091 111.383C31.678 107.435 32.7812 103.554 33.739 99.6734C34.5711 96.3025 35.6322 93.3182 37.0719 90.1813C37.7407 88.7239 38.1621 87.2534 38.4783 85.6884C38.8972 83.6156 39.7534 81.9368 40.5021 79.975C41.1207 78.3555 41.3554 76.6404 41.9729 75.0261C42.9019 72.597 44.7314 70.7146 45.9578 68.4511C47.4906 65.6227 48.1876 62.5302 49.7165 59.6831C51.351 56.6405 52.5167 53.4898 54.4539 50.6084C57.091 46.6864 58.0944 41.7275 61.4743 38.3175C62.5993 37.1824 63.8631 36.0405 64.9447 34.7874C66.2538 33.2699 66.9474 31.3556 68.2349 29.863C68.9991 28.9772 69.5861 28.1407 70.2936 27.2288C70.8104 26.5627 72.0428 24.9006 72.6576 24.5756C73.6755 24.038 74.5426 24.8173 75.5559 24.8663C76.7401 24.9238 77.8944 24.5458 79.0669 24.6975C79.4814 24.7514 79.8516 25.0432 80.4341 25.0712C81.0077 25.0991 81.6828 24.9593 82.2576 24.9066C83.7431 24.7705 84.5816 25.1679 85.916 25.2266C87.1603 25.281 88.3561 24.888 89.4595 25.6476C90.3898 26.2875 91.6093 27.2018 91.6876 28.3819C91.76 29.4656 91.1825 30.6672 90.8626 31.6378C90.5087 32.7101 90.2264 33.5662 89.5799 34.4801C88.9226 35.4096 88.1928 35.8439 87.3277 36.4589C86.2005 37.2601 85.331 38.1838 84.1699 38.8766C82.9838 39.5847 82.3777 39.9495 80.9883 40.3223C79.8567 40.6262 78.8434 41.2765 77.6765 41.5569C76.6079 41.8139 75.665 41.8582 74.7847 42.5722C75.8886 42.2272 77.491 42.8984 78.4409 43.2857C80.0691 43.9491 81.904 44.1266 83.4192 44.6998C85.1273 45.3458 86.719 46.0232 88.3308 46.7737C89.4515 47.2959 89.2367 46.9199 90.0864 47.9771C90.5966 48.612 91.2141 48.9565 91.607 49.6421C93.1235 52.2876 92.1852 55.9207 93.0165 58.9082C93.2144 59.62 93.6111 59.7837 93.7275 60.7185C93.8272 61.5179 93.8458 62.3356 93.9201 63.138C94.0779 64.835 93.6488 65.7849 92.9264 67.2749C92.4355 68.2877 91.7695 69.1981 91.2862 70.2098C90.9129 70.9908 90.8179 71.8529 90.4721 72.7119C89.6001 74.8787 88.8468 77.4329 87.5107 79.3286C86.314 81.0266 86.2809 82.8763 85.5305 84.8106C84.6367 87.1146 83.7848 89.4564 82.9127 91.7555C81.8776 94.4859 81.8078 97.5764 81.0275 100.378C80.6924 101.579 80.7249 102.794 80.3278 104.007C79.5324 106.437 78.9173 108.692 78.7247 111.261C78.551 113.576 78.3882 116.311 79.1301 118.547C79.4231 119.43 79.9849 119.628 79.2459 120.592C78.2912 121.839 77.2069 122.035 75.7341 121.929C72.4781 121.694 69.2885 122.348 66.0071 122.276C63.8987 122.229 61.5762 121.82 59.3248 121.68C58.1829 121.608 57.391 121.273 56.2987 120.995C55.0312 120.673 53.5843 120.844 52.4013 120.645C51.0492 120.419 49.4355 120.633 47.9542 120.41C45.936 120.106 42.488 120.067 40.543 120.808C43.1951 123.931 47.1138 125.234 50.8248 126.569C52.326 127.11 53.9965 127.136 55.543 127.546C56.2868 127.743 57.048 128.21 57.7323 128.355C58.7744 128.575 59.8406 128.632 60.9335 128.924C62.0494 129.222 62.7386 129.004 63.8405 129.101C64.5107 129.16 65.0811 129.421 65.7319 129.576C66.602 129.784 67.5095 129.843 68.4101 130.098C70.6585 130.736 72.6205 131.434 74.7027 132.331C77.3717 133.482 81.2711 135.641 81.1722 138.95C81.0641 142.579 80.7962 146.611 81.7808 150.159C83.1299 155.019 85.5102 159.464 87.0897 164.235C87.7791 166.318 88.2191 168.471 88.7729 170.592C89.0266 171.564 89.3206 172.503 89.679 173.435C89.9165 174.053 88.9973 174.241 88.5663 174.392C87.8031 174.659 86.9921 174.852 86.2019 175.021C85.1261 175.251 84.078 175.206 82.986 175.256C81.5941 175.319 80.2235 175.564 78.8427 175.727C78.0869 175.798 77.3317 175.87 76.5761 175.943C75.6793 176.062 74.7821 176.178 73.8846 176.29C72.8057 176.403 71.7153 176.435 70.6401 176.576C69.4436 176.733 68.2809 177.081 67.0912 177.278C65.3237 177.571 63.5386 177.692 61.7659 177.939C60.3628 178.134 58.9836 178.447 57.5941 178.716C56.8179 178.866 56.0402 179.006 55.2606 179.137C54.3889 179.31 53.529 179.53 52.6808 179.796C51.4163 180.158 50.152 180.51 48.8659 180.789C47.6814 181.045 46.4788 181.199 45.2993 181.478C43.745 181.846 42.227 182.38 40.6779 182.775C39.7815 183.004 38.8814 183.228 37.9797 183.434C37.7067 183.497 37.1615 183.656 36.8543 183.684C38.3699 183.606 39.8966 183.684 41.4108 183.758C42.5752 183.814 43.6772 183.819 44.8412 183.782C46.4021 183.73 48.0081 183.619 49.566 183.785C50.2721 183.861 50.9147 183.832 51.6245 183.766C53.0573 183.633 54.5061 183.503 55.9277 183.273C56.2331 183.22 56.5384 183.164 56.8428 183.107C57.3904 183.046 57.9382 183.047 58.4865 183.109C59.2654 183.165 60.044 183.274 60.8264 183.233C61.8371 183.181 62.8245 183.354 63.8323 183.424C65.2978 183.526 66.7929 183.505 68.2601 183.44C69.2197 183.397 70.1675 183.254 71.1289 183.239C71.9543 183.259 72.7793 183.279 73.6046 183.299C74.5539 183.235 75.4947 183.106 76.4268 182.912C77.7758 182.7 79.1578 182.457 80.5213 182.352C81.5249 182.274 82.5161 182.416 83.4896 182.653C84.2632 182.842 85.0986 182.73 85.8826 182.868C86.5339 182.983 87.1619 183.121 87.8178 183.204C88.2844 183.263 88.7017 183.418 89.1416 183.569C89.3208 183.63 89.5064 183.659 89.6778 183.734C89.7843 183.78 89.8455 183.871 89.9332 183.924C90.1043 184.026 90.2966 184.102 90.4724 184.2C90.5729 184.256 90.6306 184.333 90.7271 184.388C90.8384 184.451 90.9177 184.456 91.0276 184.532C91.2577 184.69 91.5148 184.793 91.7481 184.945C92.1192 185.188 92.593 185.62 92.6674 186.082C92.6933 186.244 92.6475 186.401 92.6264 186.561C92.5924 186.818 92.6195 187.073 92.6364 187.331C92.7145 188.525 92.7607 189.722 92.8685 190.914C93.0181 192.572 93.2936 194.233 93.922 195.784C94.8522 198.079 95.4671 200.54 96.1982 202.914C97.1484 205.999 98.3513 208.943 99.4353 211.984C101.267 217.121 100.468 222.211 100.784 227.509C100.989 230.958 100.855 235.151 102.031 238.382C102.891 240.744 103.893 243.035 104.722 245.417C105.578 247.877 106.293 250.447 107.45 252.771C108.852 255.588 110.006 258.589 110.98 261.584C111.447 263.02 112.079 264.272 112.407 265.788C112.841 267.8 113.25 269.65 114.135 271.533C116.013 275.529 118.207 279.41 119.555 283.632C119.691 284.061 119.785 284.505 119.975 284.913C120.03 285.031 120.115 285.123 120.131 285.257C120.174 285.608 119.876 285.948 119.669 286.196C119.445 286.464 119.376 286.448 119.024 286.541C118.324 286.726 117.651 286.985 116.936 287.121C116.197 287.262 115.343 287.329 114.594 287.311C113.863 287.294 113.211 287.135 112.481 287.205C109.978 287.445 107.454 287.491 104.996 288.058C103.846 288.323 102.783 288.819 101.65 289.112C99.9165 289.56 97.9931 289.418 96.2197 289.606C94.9275 289.743 93.6618 289.985 92.364 290.087C90.6115 290.225 88.8591 290.367 87.1083 290.525C86.2102 290.606 85.3913 290.475 84.4968 290.455C83.8195 290.441 83.1006 290.509 82.4268 290.592C81.9108 290.656 81.3562 290.796 80.8508 290.92C80.6669 290.966 80.0824 291.034 79.9719 291.217C80.2593 291.409 80.7587 291.408 81.0764 291.456C82.144 291.616 83.1635 291.91 84.2526 291.831C84.9424 291.781 85.6299 291.689 86.3195 291.635C87.7809 291.522 89.2611 291.672 90.7213 291.743C92.1787 291.813 93.612 291.9 95.0671 291.942C96.6342 291.988 98.3564 292.443 99.9161 292.18C100.651 292.056 101.322 291.718 102.059 291.585C103.115 291.394 104.217 291.391 105.285 291.293C106.264 291.204 107.109 291.3 108.082 291.374C108.833 291.431 109.569 291.36 110.312 291.481C111.06 291.603 111.835 291.84 112.592 291.882C112.854 291.876 113.118 291.871 113.381 291.868C113.62 291.918 113.851 291.993 114.073 292.095C114.459 292.211 114.864 292.193 115.257 292.284C115.785 292.406 116.346 292.571 116.844 292.776C118.006 293.255 119.494 293.957 120.345 294.881C120.948 295.535 121.794 296.018 122.46 296.626C123.109 297.219 123.548 297.999 124.059 298.706C124.505 299.323 124.961 299.937 125.162 300.682C125.596 302.289 126.421 303.771 126.698 305.422C127.141 308.077 127.743 310.593 127.947 313.286C128.232 317.037 128.546 320.789 128.868 324.538C129.08 326.992 129.33 329.349 129.059 331.809C128.706 335.01 128.02 338.123 127.814 341.343C127.605 344.615 127.872 347.884 127.601 351.145C127.349 354.179 126.603 356.915 125.843 359.839C124.981 363.156 122.471 365.344 119.627 367.15C115.792 369.586 111.662 371.561 107.356 373.167C104.377 374.277 101.291 374.749 98.2331 375.589C94.7345 376.549 91.4904 378.101 88.0755 379.329C83.9067 380.829 79.6504 382.259 75.558 383.95C70.643 385.98 65.6243 385.991 60.4129 386.461C58.1197 386.668 55.2962 387.299 53.0786 386.299C51.5713 385.62 50.8346 384.724 49.0538 384.37C44.7481 383.512 40.7578 382.699 36.6832 381.14C33.8856 380.07 31.3545 379.738 30.734 379.791Z" fill="#58865F"/>
<path fill-rule="evenodd" clip-rule="evenodd" d="M-11.019 350.023C-10.6067 349.336 -10.6831 348.86 -10.5142 348.076C-10.1023 346.162 -9.49813 344.24 -9.015 342.339C-8.00443 338.361 -6.85459 334.412 -5.89053 330.429C-4.58213 325.022 -2.03953 320.067 -0.765556 314.632C1.03315 306.956 3.7866 299.351 4.87737 291.53C5.15503 289.541 5.46723 287.984 6.25758 286.131C6.95456 284.496 6.95159 283.013 7.44583 281.337C8.69009 277.116 10.3937 272.658 12.3024 268.708C15.1634 262.785 16.813 256.374 19.991 250.603C24.1357 243.076 30.7237 236.933 36.1949 230.385C42.3972 222.962 47.8498 215 54.3653 207.839C58.9133 202.841 62.2357 196.982 66.6122 191.887C68.0971 190.159 69.6796 188.44 71.324 186.863C73.9917 184.304 76.032 181.882 78.1457 178.843C82.228 172.974 86.3463 166.742 91.2727 161.553C92.7654 159.98 93.7756 158.181 95.2027 156.564C96.8658 154.681 98.9852 153.265 100.664 151.393C102.713 149.108 104.432 146.773 106.694 144.67C109.76 141.818 112.511 138.704 115.434 135.705C120.103 130.917 125.077 126.397 129.375 121.26C131.936 118.199 134.903 115.464 137.745 112.654C140.214 110.213 142.677 108.221 145.542 106.297C146.873 105.403 148 104.369 149.087 103.199C150.526 101.649 152.133 100.664 153.795 99.3814C155.168 98.3229 156.263 96.9825 157.633 95.9278C159.693 94.3407 162.236 93.6898 164.463 92.3992C167.247 90.7865 169.456 88.5125 172.246 86.8819C175.228 85.1397 177.867 83.0606 181.023 81.6139C185.32 79.6448 188.764 75.9386 193.426 74.794C194.978 74.4129 196.652 74.0985 198.229 73.5942C200.138 72.983 201.729 71.7122 203.606 71.111C204.72 70.7542 205.657 70.347 206.737 69.9385C207.525 69.6401 209.444 68.8655 210.138 68.9091C211.287 68.9819 211.62 70.0992 212.458 70.6698C213.439 71.3369 214.62 71.6169 215.541 72.3584C215.867 72.6206 216.03 73.0628 216.513 73.3907C216.987 73.7139 217.636 73.947 218.154 74.202C219.492 74.8612 220 75.6378 221.107 76.3844C222.14 77.0803 223.366 77.3692 223.91 78.5929C224.37 79.6243 224.933 81.0407 224.384 82.0882C223.88 83.0503 222.76 83.7738 221.981 84.4348C221.119 85.1648 220.432 85.7477 219.403 86.1897C218.357 86.6397 217.508 86.6292 216.449 86.7022C215.07 86.7973 213.846 87.1314 212.494 87.1164C211.112 87.1013 210.405 87.0961 209.025 86.689C207.901 86.3575 206.698 86.3834 205.556 86.0136C204.51 85.675 203.683 85.2207 202.559 85.3702C203.681 85.6521 204.698 87.061 205.306 87.8872C206.348 89.3028 207.821 90.4119 208.814 91.6917C209.934 93.1342 210.938 94.5427 211.921 96.0242C212.605 97.0546 212.618 96.6217 212.791 97.9669C212.894 98.7749 213.241 99.3909 213.219 100.181C213.132 103.229 210.435 105.838 209.585 108.82C209.382 109.531 209.635 109.877 209.246 110.736C208.914 111.47 208.503 112.177 208.148 112.9C207.397 114.43 206.535 115.016 205.141 115.91C204.194 116.518 203.15 116.947 202.21 117.557C201.484 118.029 200.953 118.715 200.21 119.267C198.335 120.66 196.359 122.445 194.23 123.365C192.323 124.189 191.33 125.749 189.68 127.008C187.715 128.507 185.766 130.059 183.822 131.565C181.514 133.354 179.842 135.954 177.714 137.936C176.801 138.786 176.195 139.839 175.223 140.667C173.276 142.324 171.575 143.927 170.07 146.017C168.713 147.902 167.147 150.15 166.613 152.444C166.402 153.35 166.778 153.812 165.644 154.249C164.179 154.814 163.152 154.415 161.951 153.556C159.296 151.657 156.234 150.55 153.473 148.775C151.699 147.635 149.931 146.074 148.084 144.779C147.147 144.122 146.647 143.423 145.86 142.616C144.947 141.68 143.624 141.07 142.718 140.283C141.683 139.384 140.195 138.725 139.048 137.761C137.485 136.449 134.564 134.616 132.518 134.233C133.15 138.281 135.813 141.437 138.282 144.513C139.28 145.758 140.691 146.652 141.796 147.809C142.328 148.365 142.733 149.161 143.242 149.642C144.015 150.374 144.895 150.979 145.675 151.798C146.471 152.635 147.173 152.808 148.062 153.467C148.603 153.867 148.954 154.387 149.428 154.859C150.061 155.49 150.805 156.014 151.44 156.702C153.025 158.419 154.334 160.039 155.642 161.891C157.318 164.266 159.517 168.142 157.706 170.913C155.72 173.952 153.386 177.252 152.374 180.792C150.989 185.642 150.699 190.676 149.556 195.57C149.057 197.706 148.309 199.773 147.674 201.871C147.383 202.832 147.144 203.786 146.963 204.768C146.843 205.419 145.961 205.1 145.515 205.004C144.724 204.834 143.932 204.575 143.17 204.306C142.132 203.941 141.261 203.356 140.304 202.829C139.083 202.156 137.786 201.65 136.524 201.068C135.842 200.734 135.16 200.401 134.478 200.069C133.651 199.703 132.825 199.333 132.001 198.96C131.021 198.494 130.075 197.951 129.084 197.511C127.981 197.02 126.808 196.711 125.69 196.258C124.03 195.585 122.444 194.757 120.803 194.042C119.504 193.476 118.165 193.023 116.839 192.527C116.099 192.25 115.362 191.964 114.629 191.668C113.795 191.361 112.946 191.1 112.084 190.884C110.817 190.533 109.554 190.173 108.312 189.74C107.168 189.34 106.062 188.844 104.91 188.466C103.392 187.969 101.819 187.632 100.291 187.16C99.407 186.888 98.5221 186.609 97.6453 186.315C97.38 186.225 96.8318 186.077 96.5552 185.94C97.8886 186.665 99.15 187.528 100.403 188.381C101.367 189.037 102.304 189.617 103.317 190.192C104.675 190.963 106.103 191.706 107.345 192.661C107.908 193.094 108.471 193.405 109.111 193.719C110.403 194.353 111.707 194.999 113.039 195.545C113.327 195.659 113.617 195.771 113.906 195.88C114.405 196.115 114.872 196.401 115.307 196.74C115.943 197.194 116.549 197.694 117.238 198.068C118.128 198.55 118.88 199.213 119.703 199.799C120.9 200.651 122.186 201.413 123.471 202.124C124.312 202.588 125.195 202.961 126.023 203.45C126.717 203.897 127.41 204.345 128.103 204.793C128.947 205.234 129.817 205.615 130.713 205.936C131.974 206.459 133.28 206.973 134.498 207.595C135.394 208.053 136.166 208.691 136.873 209.401C137.434 209.966 138.205 210.306 138.802 210.833C139.297 211.271 139.761 211.717 140.277 212.13C140.644 212.424 140.919 212.774 141.216 213.132C141.336 213.278 141.48 213.4 141.587 213.553C141.654 213.648 141.658 213.757 141.706 213.848C141.798 214.025 141.923 214.19 142.021 214.365C142.078 214.465 142.087 214.562 142.141 214.659C142.203 214.77 142.268 214.816 142.322 214.938C142.435 215.193 142.601 215.415 142.721 215.667C142.91 216.067 143.089 216.683 142.911 217.116C142.849 217.268 142.728 217.378 142.627 217.503C142.463 217.705 142.353 217.937 142.233 218.166C141.676 219.225 141.092 220.269 140.561 221.343C139.823 222.835 139.191 224.396 138.918 226.047C138.513 228.49 137.753 230.91 137.138 233.316C136.339 236.443 135.828 239.583 135.166 242.742C134.047 248.081 130.709 252.005 128.213 256.69C126.588 259.739 124.285 263.245 123.602 266.615C123.103 269.078 122.761 271.555 122.225 274.02C121.672 276.565 120.94 279.13 120.714 281.716C120.44 284.851 119.858 288.013 119.125 291.076C118.774 292.545 118.66 293.943 118.148 295.407C117.469 297.35 116.852 299.142 116.624 301.209C116.14 305.598 115.986 310.053 114.932 314.359C114.825 314.796 114.673 315.224 114.622 315.671C114.607 315.8 114.632 315.923 114.576 316.046C114.429 316.367 113.997 316.502 113.692 316.605C113.36 316.717 113.309 316.667 112.961 316.563C112.268 316.356 111.558 316.225 110.877 315.968C110.173 315.703 109.41 315.314 108.78 314.908C108.166 314.511 107.693 314.035 107.033 313.714C104.773 312.613 102.596 311.335 100.203 310.535C99.085 310.161 97.919 310.029 96.7993 309.688C95.0867 309.166 93.5205 308.04 91.9097 307.275C90.736 306.717 89.5297 306.264 88.3696 305.673C86.8028 304.876 85.2338 304.083 83.6581 303.303C82.8499 302.903 82.2197 302.364 81.4667 301.881C80.8966 301.515 80.2477 301.198 79.6295 300.918C79.1561 300.703 78.6103 300.532 78.1142 300.375C77.9336 300.317 77.3992 300.071 77.2094 300.169C77.3543 300.483 77.7812 300.742 78.0271 300.949C78.8539 301.644 79.5701 302.426 80.5405 302.927C81.1549 303.245 81.7894 303.525 82.4057 303.839C83.7115 304.505 84.8957 305.405 86.1043 306.228C87.3107 307.049 88.4882 307.87 89.7072 308.666C91.0201 309.523 92.2516 310.81 93.7194 311.4C94.4109 311.678 95.1599 311.739 95.8573 312.01C96.8581 312.399 97.7998 312.971 98.7618 313.445C99.643 313.88 100.314 314.403 101.106 314.974C101.716 315.415 102.381 315.739 102.952 316.23C103.526 316.724 104.063 317.33 104.687 317.762C104.914 317.893 105.141 318.027 105.367 318.162C105.545 318.329 105.702 318.514 105.839 318.716C106.108 319.017 106.463 319.213 106.75 319.495C107.137 319.875 107.53 320.309 107.847 320.744C108.588 321.759 109.491 323.134 109.735 324.366C109.908 325.239 110.378 326.092 110.628 326.959C110.873 327.803 110.84 328.698 110.906 329.567C110.965 330.327 111.034 331.089 110.816 331.829C110.348 333.426 110.278 335.121 109.653 336.673C108.644 339.17 107.845 341.63 106.614 344.033C104.899 347.382 103.208 350.746 101.527 354.112C100.426 356.315 99.4092 358.456 97.8941 360.414C95.9227 362.96 93.7124 365.256 91.8562 367.896C89.9703 370.579 88.492 373.506 86.5591 376.146C84.7604 378.603 82.6955 380.547 80.5216 382.644C78.0553 385.024 74.7717 385.58 71.4035 385.636C66.861 385.712 62.3068 385.242 57.7961 384.364C54.6757 383.756 51.7966 382.548 48.7503 381.668C45.2649 380.661 41.6875 380.292 38.1336 379.558C33.7952 378.661 29.4182 377.659 25.0449 376.965C19.7929 376.132 15.5059 373.522 10.8155 371.203C8.75159 370.182 6.01355 369.247 4.64374 367.237C3.71284 365.871 3.55181 364.722 2.2178 363.49C-1.00742 360.512 -3.98686 357.736 -6.64878 354.279C-8.47628 351.906 -10.4619 350.302 -11.019 350.023Z" fill="#42774D"/>
</g>
</svg>
