<svg width="720" height="350" viewBox="0 0 720 350" fill="none" xmlns="http://www.w3.org/2000/svg">
<path fill-rule="evenodd" clip-rule="evenodd" d="M11.1903 173.147C12.509 167.733 45.5849 160.596 50.8504 159.029C91.3131 146.586 132.455 135.761 174.066 126.609C219.561 116.694 265.865 110.652 311.958 108.616C344.918 107.422 377.11 111.341 410.398 105.051C436.958 99.4485 462.92 91.7424 487.773 82.0845C497.678 78.4665 512.962 70.3577 524.076 71.2924C533.521 72.0875 542.642 81.6173 549.451 85.4644C567.105 95.2606 586.325 103.629 606.823 110.444C646.227 123.569 687.228 134.574 729.53 143.38C733.239 144.071 761.529 146.933 761.081 150.413C760.861 152.108 683.844 192.717 607.511 224.424C539.703 252.598 448.956 265.796 435.039 269.14C388.181 280.386 336.45 282.704 289.256 287.438C249.935 291.69 210.953 299.993 173.546 312.083C121.394 329.286 71.8266 351.183 26.1812 377.184C16.3193 382.621 6.84201 388.57 -3.36555 393.638C-6.21579 395.043 -12.9536 398.95 -15.9824 396.593C-24.3058 390.103 -16.7818 367.175 -15.945 358.929C-12.1224 322.441 6.58494 209.673 11.1903 173.147Z" fill="#F38144"/>
<path fill-rule="evenodd" clip-rule="evenodd" d="M703.861 137.604C712.622 139.682 720.887 141.501 728.222 142.936C703.674 155.495 678.855 167.847 653.568 179.474C644.274 182.483 635.015 185.54 625.858 188.777C610.234 193.736 594.876 199.246 579.847 205.284C567.002 210.665 554.561 216.611 542.605 223.083C526.33 228.244 509.794 232.812 493.068 236.769C381.942 262.927 267.247 259.136 157.593 293.453C109.167 309.082 63.6537 330.056 22.8763 355.534C9.36162 363.781 -4.2059 377.421 -18.3247 385.131C-17.8625 377.903 -16.7714 370.646 -15.0576 363.401C-7.07972 356.692 1.39544 350.286 10.3216 344.217C53.0018 317.575 100.634 295.647 151.307 279.312C261.668 244.782 377.057 248.397 488.888 222.051C566.005 203.894 636.109 171.908 703.861 137.604ZM679.589 131.519C606.693 168.888 526.151 187.318 443.529 201.265C349.187 217.194 252.162 227.214 161.442 254.61C112.568 269.835 66.2978 290.117 24.2514 314.746C14.1964 320.494 4.39633 326.427 -5.23121 332.576C-6.17344 333.192 -9.17606 334.91 -11.4281 336.206C-10.5742 329.839 -9.5718 322.869 -8.49623 315.437C-1.6562 311.225 5.28842 307.102 12.3379 303.067C56.2015 277.395 104.468 256.258 155.446 240.399C247.389 212.637 345.679 202.313 441.284 186.17C516.244 173.519 589.546 157.273 656.514 125.308C658.878 125.956 661.244 126.59 663.612 127.208C668.924 128.673 674.271 130.122 679.587 131.506L679.589 131.519ZM611.977 111.658C619.833 114.312 627.753 116.858 635.738 119.296C495.61 173.274 343.829 177.388 196.031 209.886C148.839 220.424 103.078 235.458 60.0475 254.561C38.8829 263.892 17.5501 277.644 -4.13342 286.041L-2.64715 276.232L-1.3827 267.936C16.1595 259.838 33.4534 249.182 50.69 241.588C95.4978 221.695 143.152 206.044 192.296 195.078C333.096 164.117 477.711 159.765 611.977 111.658ZM566.378 93.5239C567.944 94.2744 569.516 95.012 571.094 95.7367L571.197 95.7843L571.335 95.8476L572.232 96.2553L573.673 96.9091C574.471 97.2638 575.27 97.6228 576.073 97.9721L577.599 98.6413L578.375 98.978L578.552 99.0475L578.711 99.1204C580.301 99.7999 581.898 100.478 583.505 101.141L584.87 101.694L586.045 102.17C523.022 129.663 451.628 139.984 382.461 149.873C308.251 160.484 233.838 171.128 160.642 187.749C118.05 197.301 76.6244 210.55 37.3411 227.182C31.4817 229.69 21.6681 232.897 13.2663 236.599C9.6176 237.967 6.31573 239.841 3.57643 242.099C3.23258 242.454 2.85054 242.791 2.43432 243.107L5.52379 222.921C13.6478 219.461 22.708 216.455 28.2811 214.075C69.1964 196.746 112.344 182.94 156.706 172.983C230.722 156.18 305.96 145.385 380.97 134.658C443.69 125.69 508.446 116.734 566.378 93.5239ZM537.51 76.165L538.342 76.7439L538.457 76.8161L539.182 77.3261L539.342 77.4387L540.006 77.9202L540.194 78.0498L540.83 78.5186L540.947 78.6079L542.249 79.5711L542.914 80.0612L544.107 80.9511L544.211 81.034L544.43 81.1978L545.007 81.6197L545.643 82.0886L545.796 82.1981L545.883 82.2575L546.144 82.4445L546.392 82.6253L546.481 82.6933L546.589 82.7666L546.873 82.9717L547.133 83.1459L547.199 83.1958L547.291 83.2499L547.596 83.4688L547.855 83.6387L547.912 83.6726L547.971 83.7195L548.322 83.9477L548.567 84.1112L548.639 84.1558L549.046 84.4137L549.266 84.5419L549.302 84.5664L549.946 84.9449L551.314 85.7184L551.596 85.8795L552.235 86.228C499.85 116.763 435.794 119.514 373.999 124.356C300.03 130.151 229.871 138.905 157.326 156.866C121.196 165.385 85.6897 175.847 51.129 188.157C38.6257 192.789 26.029 197.531 13.8497 202.689C11.8446 203.705 9.91185 204.8 8.06244 205.969C9.08497 199.212 10.0345 192.85 10.8761 187.036C21.5739 182.656 32.5224 178.54 43.3926 174.514C78.9985 161.815 115.581 151.022 152.808 142.233C227.022 123.859 298.782 114.846 374.446 108.919C430.773 104.517 489.445 103.144 537.51 76.165Z" fill="#F8A271"/>
<path fill-rule="evenodd" clip-rule="evenodd" d="M185.936 126.636C186.901 126.901 184.35 119.175 183.92 117.584C182.207 111.243 178.944 102.5 172.442 99.6574C162.812 95.4507 151.422 99.2577 141.474 97.6106C130.501 95.794 121.11 87.7673 111.288 83.0478C100.949 78.0805 90.3282 81.4311 79.6462 83.6475C70.0653 85.778 60.25 86.6659 50.4423 86.2897C45.0013 86.0159 39.6038 85.3076 34.202 84.6426C30.9618 83.7984 27.5388 83.9869 24.4108 85.1816C15.8973 89.9967 18.8525 104.381 8.89194 107.78C0.335022 110.7 -10.0732 108.749 -18.8344 107.932C-19.8557 107.836 -26.9611 106.55 -27.526 108.006C-28.091 109.462 -26.257 112.465 -25.6486 113.655C-22.4367 119.138 -18.7162 124.306 -14.5363 129.092L8.67894 166.861L89.6503 195.491L158.949 173.406L185.936 126.636Z" fill="#894C5B"/>
<path fill-rule="evenodd" clip-rule="evenodd" d="M90.0684 109.953C147.229 112.282 192.943 129.426 192.195 148.244C191.448 167.061 144.469 180.403 87.3131 178.095C30.1569 175.788 -15.5567 158.622 -14.8136 139.804C-14.0705 120.987 32.9209 107.615 90.0684 109.953Z" fill="#F5E0BC"/>
<path fill-rule="evenodd" clip-rule="evenodd" d="M11.1864 96.5498C1.54733 97.0583 -10.4254 123.968 -8.55669 131.46C-3.58508 151.32 28.9086 193.044 58.7252 194.644C66.174 195.048 82.6273 177.152 82.2666 174.761C81.6234 170.524 20.2908 105.785 11.1864 96.5498Z" fill="#D3A298"/>
<path fill-rule="evenodd" clip-rule="evenodd" d="M81.3865 175.001C71.1521 182.389 48.2018 165.236 43.4345 161.633C27.9103 150.697 15.5498 135.856 7.60321 118.609C5.25647 113.064 1.69723 102.473 7.93782 98.0798C14.6087 93.3819 25.4949 98.0189 31.8398 101.026C51.5698 110.378 67.7927 130.087 79.6698 147.913C84.1982 154.71 85.5846 171.976 81.3865 175.001Z" fill="white"/>
<path fill-rule="evenodd" clip-rule="evenodd" d="M15.9697 121.165C15.9993 123.827 16.1967 126.485 16.5607 129.122C17.133 132.412 18.4895 135.516 20.5154 138.17C21.8811 139.767 23.6639 140.953 25.6645 141.595C27.6652 142.238 29.805 142.311 31.8451 141.808C32.8084 141.593 33.7341 141.236 34.5916 140.747C34.4881 142.378 34.5858 144.016 34.8827 145.623C35.4329 148.355 36.8124 150.85 38.833 152.768C40.1854 154.125 41.8686 155.105 43.7162 155.612C45.5638 156.119 47.5118 156.135 49.3673 155.658C49.7561 159.04 50.984 162.271 52.9395 165.058C54.0856 166.904 55.7496 168.372 57.724 169.279C59.6983 170.186 61.896 170.493 64.0432 170.16C65.4866 171.841 67.4232 173.025 69.5777 173.542C71.7323 174.06 73.9951 173.885 76.0447 173.043C78.0943 172.201 79.8263 170.734 80.9945 168.851C82.1627 166.968 82.7078 164.765 82.5521 162.555C82.4565 161.164 82.3087 159.778 82.0827 158.404C81.8569 157.01 81.487 155.642 80.9789 154.324C80.333 152.139 79.0999 150.173 77.4141 148.641C75.7283 147.108 73.6543 146.067 71.418 145.632C71.0704 145.558 70.7141 145.502 70.3577 145.458C70.3897 144.173 70.3475 142.888 70.2316 141.608C69.9712 138.622 69.1717 135.708 67.8718 133.007C67.0647 131.529 65.9705 130.228 64.6533 129.178C63.3361 128.129 61.8225 127.353 60.2015 126.897C59.2095 126.626 58.1875 126.48 57.1594 126.463V126.415C57.0364 123.107 55.8524 119.927 53.7824 117.344C51.7123 114.762 48.8662 112.914 45.6647 112.074C42.5875 111.079 39.2842 111.02 36.1734 111.904C34.9588 107.492 32.1899 103.667 28.3771 101.135C25.4953 99.174 22.0657 98.1773 18.5816 98.2887C16.9462 98.3781 15.3459 98.799 13.8781 99.5259C12.4103 100.253 11.1056 101.27 10.0432 102.517C8.98074 103.763 8.18276 105.213 7.69772 106.777C7.21267 108.342 7.05071 109.988 7.2216 111.617C7.41225 113.954 8.37557 116.161 9.95962 117.89C11.5437 119.619 13.6582 120.771 15.9697 121.165Z" fill="#FDC56B"/>
<path d="M17.4706 111.379L18.9209 111.438L18.8247 113.783L17.3744 113.724L17.4706 111.379Z" fill="#42774D"/>
<path fill-rule="evenodd" clip-rule="evenodd" d="M17.7356 111.39L17.6833 113.732L18.835 113.78L18.9307 111.437L17.7356 111.39Z" fill="#42774D"/>
<path d="M30.2459 115.506L31.3916 117.549L30.1256 118.259L28.9799 116.216L30.2459 115.506Z" fill="#42774D"/>
<path d="M30.2459 115.506L31.3916 117.549L30.1256 118.259L28.9799 116.216L30.2459 115.506Z" fill="#42774D"/>
<path d="M21.4083 123.053L22.5352 123.968L21.0588 125.786L19.9319 124.871L21.4083 123.053Z" fill="#42774D"/>
<path d="M35.6352 129.002L37.0098 130.898L35.8344 131.75L34.4599 129.853L35.6352 129.002Z" fill="#42774D"/>
<path d="M35.6352 129.002L37.0098 130.898L35.8344 131.75L34.4599 129.853L35.6352 129.002Z" fill="#42774D"/>
<path d="M51.4774 125.689L52.6504 126.544L51.268 128.44L50.0951 127.585L51.4774 125.689Z" fill="#42774D"/>
<path d="M42.7512 143.978L43.3799 146.239L41.9814 146.628L41.3527 144.367L42.7512 143.978Z" fill="#42774D"/>
<path d="M42.7512 143.978L43.3799 146.239L41.9814 146.628L41.3527 144.367L42.7512 143.978Z" fill="#42774D"/>
<path d="M56.1964 143.518L57.335 144.418L55.8794 146.259L54.7409 145.359L56.1964 143.518Z" fill="#42774D"/>
<path d="M57.666 159.556L59.8125 160.494L59.2314 161.824L57.0849 160.886L57.666 159.556Z" fill="#42774D"/>
<path d="M74.094 155.457L75.2227 157.515L73.95 158.213L72.8214 156.155L74.094 155.457Z" fill="#42774D"/>
<path d="M74.094 155.457L75.2227 157.515L73.95 158.213L72.8214 156.155L74.094 155.457Z" fill="#42774D"/>
<path d="M71.3553 166.241L73.3086 167.534L72.5075 168.745L70.5542 167.452L71.3553 166.241Z" fill="#42774D"/>
<path fill-rule="evenodd" clip-rule="evenodd" d="M70.5544 167.452L71.2627 167.917L71.2106 167.669L70.9976 166.778L70.5544 167.452Z" fill="#42774D"/>
<path d="M67.0134 146.639L67.4053 148.036L65.1499 148.668L64.758 147.271L67.0134 146.639Z" fill="#42774D"/>
<path fill-rule="evenodd" clip-rule="evenodd" d="M65.3596 147.101L64.7556 147.27L65.151 148.669L65.5596 148.552L65.3596 147.101Z" fill="#42774D"/>
<path d="M64.5116 133.369L65.4746 134.455L63.7219 136.009L62.759 134.923L64.5116 133.369Z" fill="#42774D"/>
<path d="M45.7976 114.276L46.2402 115.658L44.0053 116.374L43.5626 114.992L45.7976 114.276Z" fill="#42774D"/>
<path fill-rule="evenodd" clip-rule="evenodd" d="M43.9351 114.869L43.5614 114.991L43.996 116.377L44.1523 116.325L43.9351 114.869Z" fill="#42774D"/>
<path d="M23.69 100.378L23.7979 101.825L21.4619 101.999L21.3541 100.552L23.69 100.378Z" fill="#42774D"/>
<path fill-rule="evenodd" clip-rule="evenodd" d="M23.228 100.408L21.3507 100.547L21.4593 101.999L23.2803 101.864L23.228 100.408Z" fill="#42774D"/>
<path fill-rule="evenodd" clip-rule="evenodd" d="M61.7498 87.54C52.1108 88.0485 40.1381 114.958 42.0068 122.45C46.9784 142.31 79.4721 184.035 109.289 185.638C116.737 186.038 133.191 168.146 132.83 165.752C132.2 161.501 70.8674 96.7749 61.7498 87.54Z" fill="#D3A298"/>
<path fill-rule="evenodd" clip-rule="evenodd" d="M131.965 165.995C121.73 173.383 98.7757 156.23 94.0084 152.628C78.4857 141.692 66.1267 126.85 58.1815 109.604C55.8304 104.059 52.2711 93.468 58.5117 89.0788C65.1869 84.3766 76.0688 89.0135 82.4137 92.0208C102.144 101.373 118.367 121.081 130.244 138.908C134.79 145.7 136.158 162.971 131.965 165.995Z" fill="white"/>
<path fill-rule="evenodd" clip-rule="evenodd" d="M66.5298 112.155C66.5595 114.818 66.7568 117.475 67.1208 120.113C67.6962 123.403 69.0524 126.507 71.0755 129.165C72.4427 130.76 74.2255 131.944 76.2257 132.586C78.2258 133.229 80.3649 133.303 82.405 132.802C83.3679 132.585 84.2935 132.226 85.1517 131.738C85.0475 133.37 85.1468 135.01 85.4471 136.618C85.9967 139.349 87.3745 141.843 89.3931 143.763C90.7464 145.118 92.4299 146.097 94.2774 146.603C96.1248 147.11 98.0722 147.125 99.9274 146.648C100.317 150.031 101.545 153.264 103.5 156.053C104.647 157.897 106.311 159.364 108.285 160.271C110.259 161.177 112.457 161.483 114.603 161.15C116.047 162.83 117.984 164.013 120.138 164.53C122.292 165.047 124.554 164.872 126.603 164.031C128.652 163.19 130.384 161.724 131.553 159.843C132.723 157.961 133.269 155.759 133.116 153.549C133.016 152.159 132.873 150.768 132.643 149.395C132.417 148.001 132.047 146.635 131.539 145.318C130.893 143.133 129.661 141.167 127.975 139.635C126.289 138.102 124.215 137.062 121.978 136.627C121.63 136.553 121.274 136.496 120.922 136.453C120.954 135.17 120.912 133.885 120.796 132.607C120.532 129.62 119.731 126.705 118.432 124.002C117.624 122.528 116.53 121.23 115.214 120.186C113.897 119.141 112.385 118.37 110.766 117.918C109.774 117.645 108.752 117.499 107.724 117.483V117.44C107.6 114.133 106.416 110.953 104.346 108.37C102.276 105.788 99.4302 103.94 96.2291 103.099C93.153 102.106 89.8518 102.047 86.7422 102.929C85.521 98.5127 82.7423 94.6874 78.9197 92.1604C76.0389 90.2007 72.6108 89.2056 69.1286 89.3182C67.4923 89.4058 65.891 89.8255 64.4222 90.5517C62.9533 91.2779 61.6476 92.2954 60.5844 93.5422C59.5213 94.7891 58.723 96.2394 58.2382 97.8046C57.7533 99.3698 57.5922 101.017 57.7643 102.647C57.9649 104.979 58.9346 107.179 60.5213 108.9C62.1079 110.621 64.2215 111.766 66.5298 112.155Z" fill="#FDC56B"/>
<path d="M68.0536 102.371L69.5039 102.429L69.4102 104.769L67.9599 104.711L68.0536 102.371Z" fill="#42774D"/>
<path d="M80.8237 106.5L81.9678 108.544L80.7012 109.253L79.5571 107.209L80.8237 106.5Z" fill="#42774D"/>
<path d="M80.8237 106.5L81.9678 108.544L80.7012 109.253L79.5571 107.209L80.8237 106.5Z" fill="#42774D"/>
<path d="M71.9896 114.044L73.1162 114.959L71.6365 116.78L70.5099 115.865L71.9896 114.044Z" fill="#42774D"/>
<path d="M86.2137 119.989L87.5908 121.89L86.4155 122.741L85.0384 120.841L86.2137 119.989Z" fill="#42774D"/>
<path d="M86.2137 119.989L87.5908 121.89L86.4155 122.741L85.0384 120.841L86.2137 119.989Z" fill="#42774D"/>
<path d="M102.054 116.68L103.227 117.535L101.847 119.428L100.674 118.573L102.054 116.68Z" fill="#42774D"/>
<path d="M93.3305 134.975L93.958 137.231L92.5596 137.62L91.932 135.364L93.3305 134.975Z" fill="#42774D"/>
<path d="M93.3305 134.975L93.958 137.231L92.5596 137.62L91.932 135.364L93.3305 134.975Z" fill="#42774D"/>
<path d="M106.772 134.509L107.91 135.409L106.455 137.25L105.316 136.35L106.772 134.509Z" fill="#42774D"/>
<path d="M108.239 150.547L110.39 151.486L109.809 152.817L107.658 151.877L108.239 150.547Z" fill="#42774D"/>
<path d="M124.675 146.447L125.804 148.505L124.531 149.203L123.402 147.145L124.675 146.447Z" fill="#42774D"/>
<path d="M124.675 146.447L125.804 148.505L124.531 149.203L123.402 147.145L124.675 146.447Z" fill="#42774D"/>
<path d="M121.928 157.23L123.886 158.524L123.085 159.735L121.128 158.441L121.928 157.23Z" fill="#42774D"/>
<path fill-rule="evenodd" clip-rule="evenodd" d="M121.14 158.46L121.849 158.925L121.797 158.677L121.584 157.808L121.14 158.46Z" fill="#42774D"/>
<path d="M117.594 137.63L117.986 139.027L115.727 139.661L115.335 138.263L117.594 137.63Z" fill="#42774D"/>
<path fill-rule="evenodd" clip-rule="evenodd" d="M115.927 138.092L115.328 138.261L115.719 139.661L116.153 139.548L115.927 138.092Z" fill="#42774D"/>
<path d="M115.091 124.358L116.054 125.444L114.298 127.001L113.335 125.915L115.091 124.358Z" fill="#42774D"/>
<path d="M96.3745 105.265L96.8174 106.647L94.5825 107.363L94.1397 105.981L96.3745 105.265Z" fill="#42774D"/>
<path fill-rule="evenodd" clip-rule="evenodd" d="M94.5123 105.876L94.1429 105.993L94.5775 107.38L94.7295 107.327L94.5123 105.876Z" fill="#42774D"/>
<path d="M74.2681 91.3679L74.376 92.8154L72.0357 92.9898L71.9279 91.5423L74.2681 91.3679Z" fill="#42774D"/>
<path fill-rule="evenodd" clip-rule="evenodd" d="M73.8063 91.3984L71.9332 91.5375L72.0375 92.989L73.8584 92.8542L73.8063 91.3984Z" fill="#42774D"/>
<path fill-rule="evenodd" clip-rule="evenodd" d="M109.172 74.4697C99.533 74.9782 87.5602 101.887 89.4289 109.38C94.4006 129.24 126.894 170.964 156.706 172.568C164.16 172.968 180.608 155.076 180.252 152.681C179.622 148.444 118.29 83.7133 109.172 74.4697Z" fill="#D3A298"/>
<path fill-rule="evenodd" clip-rule="evenodd" d="M179.372 152.924C169.138 160.312 146.188 143.159 141.416 139.556C125.895 128.618 113.537 113.777 105.589 96.5327C103.242 90.9874 99.683 80.3966 105.919 76.0073C112.594 71.3052 123.481 75.9422 129.821 78.9538C149.551 88.3017 165.77 108.01 177.651 125.836C182.21 132.629 183.579 149.899 179.372 152.924Z" fill="white"/>
<path fill-rule="evenodd" clip-rule="evenodd" d="M113.951 99.0896C113.98 101.75 114.178 104.407 114.542 107.042C115.113 110.334 116.47 113.439 118.496 116.095C119.863 117.691 121.645 118.876 123.646 119.518C125.646 120.161 127.786 120.235 129.826 119.732C130.788 119.514 131.713 119.157 132.572 118.672C132.469 120.303 132.567 121.941 132.864 123.548C133.415 126.279 134.794 128.773 136.814 130.692C138.167 132.048 139.851 133.027 141.698 133.533C143.546 134.039 145.493 134.055 147.348 133.578C147.736 136.962 148.964 140.194 150.92 142.982C152.068 144.827 153.732 146.294 155.706 147.2C157.68 148.107 159.877 148.413 162.024 148.08C163.467 149.761 165.403 150.944 167.557 151.462C169.712 151.98 171.974 151.805 174.023 150.964C176.073 150.122 177.805 148.656 178.973 146.774C180.142 144.892 180.688 142.689 180.533 140.479C180.437 139.088 180.289 137.698 180.064 136.329C179.839 134.934 179.469 133.566 178.96 132.248C178.314 130.063 177.081 128.098 175.395 126.565C173.709 125.032 171.635 123.992 169.399 123.557C169.051 123.483 168.695 123.426 168.339 123.383C168.37 122.099 168.328 120.815 168.213 119.537C167.952 116.549 167.153 113.634 165.853 110.932C165.045 109.457 163.95 108.159 162.632 107.115C161.315 106.07 159.802 105.299 158.182 104.848C157.191 104.575 156.169 104.429 155.14 104.413V104.37C155.018 101.063 153.835 97.8824 151.766 95.2997C149.697 92.717 146.851 90.8688 143.65 90.0285C140.572 89.0358 137.27 88.9769 134.159 89.8591C132.943 85.447 130.174 81.6225 126.362 79.0901C123.48 77.1298 120.05 76.1347 116.567 76.248C114.931 76.3349 113.329 76.7542 111.86 77.4802C110.391 78.2063 109.085 79.2239 108.022 80.471C106.959 81.7181 106.162 83.1685 105.678 84.734C105.194 86.2995 105.033 87.9472 105.207 89.5766C105.406 91.9063 106.373 94.1041 107.955 95.8256C109.537 97.5471 111.646 98.695 113.951 99.0896Z" fill="#FDC56B"/>
<path d="M115.471 89.2979L116.921 89.3574L116.825 91.7022L115.374 91.6427L115.471 89.2979Z" fill="#42774D"/>
<path fill-rule="evenodd" clip-rule="evenodd" d="M115.734 89.3086L115.682 91.6553L116.834 91.6988L116.925 89.3564L115.734 89.3086Z" fill="#42774D"/>
<path d="M128.243 93.4258L129.391 95.4727L128.125 96.1826L126.977 94.1358L128.243 93.4258Z" fill="#42774D"/>
<path d="M128.243 93.4258L129.391 95.4727L128.125 96.1826L126.977 94.1358L128.243 93.4258Z" fill="#42774D"/>
<path d="M119.406 100.977L120.533 101.892L119.054 103.714L117.927 102.799L119.406 100.977Z" fill="#42774D"/>
<path d="M133.632 106.917L135.009 108.817L133.833 109.669L132.456 107.769L133.632 106.917Z" fill="#42774D"/>
<path d="M133.632 106.917L135.009 108.817L133.833 109.669L132.456 107.769L133.632 106.917Z" fill="#42774D"/>
<path d="M149.475 103.609L150.647 104.464L149.265 106.36L148.092 105.505L149.475 103.609Z" fill="#42774D"/>
<path d="M140.75 121.898L141.379 124.159L139.98 124.548L139.352 122.287L140.75 121.898Z" fill="#42774D"/>
<path d="M140.75 121.898L141.379 124.159L139.98 124.548L139.352 122.287L140.75 121.898Z" fill="#42774D"/>
<path d="M154.195 121.435L155.333 122.336L153.88 124.173L152.741 123.273L154.195 121.435Z" fill="#42774D"/>
<path d="M155.665 137.475L157.812 138.413L157.23 139.743L155.084 138.805L155.665 137.475Z" fill="#42774D"/>
<path d="M172.095 133.378L173.222 135.432L171.949 136.13L170.823 134.076L172.095 133.378Z" fill="#42774D"/>
<path d="M172.095 133.378L173.222 135.432L171.949 136.13L170.823 134.076L172.095 133.378Z" fill="#42774D"/>
<path d="M169.353 144.161L171.308 145.452L170.508 146.663L168.553 145.372L169.353 144.161Z" fill="#42774D"/>
<path fill-rule="evenodd" clip-rule="evenodd" d="M168.554 145.37L169.258 145.835L169.21 145.587L168.997 144.696L168.554 145.37Z" fill="#42774D"/>
<path d="M165.012 124.558L165.404 125.955L163.145 126.589L162.753 125.192L165.012 124.558Z" fill="#42774D"/>
<path fill-rule="evenodd" clip-rule="evenodd" d="M163.359 124.998L162.755 125.168L163.15 126.567L163.559 126.454L163.359 124.998Z" fill="#42774D"/>
<path d="M162.511 111.287L163.474 112.373L161.718 113.93L160.755 112.844L162.511 111.287Z" fill="#42774D"/>
<path d="M143.796 92.1949L144.239 93.5771L142.004 94.2931L141.562 92.9108L143.796 92.1949Z" fill="#42774D"/>
<path fill-rule="evenodd" clip-rule="evenodd" d="M141.934 92.792L141.56 92.9094L141.995 94.2957L142.151 94.2479L141.934 92.792Z" fill="#42774D"/>
<path d="M121.689 78.2966L121.797 79.7441L119.461 79.9176L119.353 78.47L121.689 78.2966Z" fill="#42774D"/>
<path fill-rule="evenodd" clip-rule="evenodd" d="M121.227 78.3271L119.35 78.4663L119.458 79.9178L121.279 79.783L121.227 78.3271Z" fill="#42774D"/>
<path fill-rule="evenodd" clip-rule="evenodd" d="M-15.6135 140.93C-15.5527 142.081 21.6823 168.4 83.5145 170.798C160.409 173.775 192.186 142.338 192.303 143.337C193.399 152.994 181.739 195.765 157.641 218.229C133.265 240.957 75.6052 242.17 48.383 229.528C8.38414 210.954 2.78667 183.371 -15.6135 140.93Z" fill="#D3A298"/>
<path fill-rule="evenodd" clip-rule="evenodd" d="M183.928 148.803C188.491 142.254 191.042 134.028 196.696 128.461C197.565 127.591 201.985 124.31 201.52 122.763C201.272 121.959 199.416 122.385 198.912 122.468C195.714 123.007 192.593 124.206 189.416 124.897C185.174 125.407 181.086 126.801 177.418 128.991C173.732 131.555 172.411 137.713 170.056 141.398C169.582 142.145 168.274 144.931 167.261 145.096C166.249 145.262 165.458 144.114 164.467 144.105C159.991 144.058 155.554 143.875 151.082 143.567C140.809 142.595 130.446 143.547 120.522 146.374C117.697 147.3 115.333 148.934 115.429 152.163C115.459 153.123 116.541 157.321 115.603 157.925C112.06 159.529 108.275 160.53 104.404 160.889C95.2545 163.046 85.9242 164.346 76.5338 164.77C66.7166 164.974 64.2395 154.118 55.2393 152.002C54.6787 151.867 54.3397 153.949 54.1659 154.349C53.4488 156.057 52.4275 158.781 50.1677 158.694C45.6425 158.104 41.1979 157.008 36.9173 155.426C28.1344 153.338 19.5945 150.334 11.4378 146.465C4.44901 142.554 -2.07741 137.869 -8.01839 132.498C-10.5477 130.377 -12.8945 128.113 -15.2803 125.836C-15.4542 125.671 -17.627 123.393 -18.0225 124.015C-18.3658 124.558 -17.1837 126.301 -16.9578 126.727C-15.5019 129.486 -13.9157 132.181 -12.2512 134.827C-9.23567 140.411 -5.11911 145.325 -0.150345 149.273C4.81842 153.221 10.5361 156.12 16.6571 157.795C34.2293 163.05 52.1533 167.048 70.2932 169.759C95.238 173.499 120.655 172.679 145.306 167.338C155.263 164.883 165.18 163.184 172.281 158.899C176.84 156.405 180.812 152.963 183.928 148.803Z" fill="#894C5B"/>
<path fill-rule="evenodd" clip-rule="evenodd" d="M-12.1362 134.993C-7.58917 141.425 -1.51004 146.621 5.55113 150.112C21.7915 159.39 49.3613 168.486 92.4675 168.964C164.512 169.755 183.704 149.325 189.792 137.618C190.214 136.806 190.941 136.196 191.813 135.92C192.685 135.645 193.631 135.727 194.442 136.149C195.253 136.571 195.864 137.298 196.14 138.17C196.415 139.042 196.333 139.987 195.911 140.799C189.392 153.315 169.401 176.708 92.3936 175.861C47.5969 175.366 18.9928 165.74 2.11803 156.101C-6.06549 151.993 -13.0614 145.859 -18.2031 138.283C-18.4366 137.884 -18.5875 137.442 -18.647 136.984C-18.7065 136.526 -18.6734 136.06 -18.5495 135.615C-18.4257 135.17 -18.2137 134.754 -17.9261 134.392C-17.6385 134.03 -17.2812 133.73 -16.8753 133.509C-16.4694 133.288 -16.0232 133.151 -15.5632 133.105C-15.1033 133.06 -14.6391 133.108 -14.1979 133.245C-13.7567 133.383 -13.3476 133.608 -12.995 133.907C-12.6423 134.205 -12.3533 134.572 -12.145 134.984L-12.1362 134.993Z" fill="#F5E0BC"/>
<path d="M173.287 165.218C169.945 186.512 166.143 210.067 142.84 226.285" stroke="#894C5B" stroke-width="2.17291" stroke-linecap="round" stroke-linejoin="round"/>
<path d="M8.92435 162.198C12.2576 183.493 22.1096 209.224 36.377 221.236" stroke="#894C5B" stroke-width="2.17291" stroke-linecap="round" stroke-linejoin="round"/>
<path d="M91.1028 177.496C91.3852 179.513 90.603 220.385 91.0593 235.817" stroke="#894C5B" stroke-width="2.17291" stroke-linecap="round" stroke-linejoin="round"/>
<path d="M152.186 172.851C151.055 187.719 146.553 202.135 139.022 215.005C136.119 221.15 132.174 226.746 127.362 231.545" stroke="#894C5B" stroke-width="2.17291" stroke-linecap="round" stroke-linejoin="round"/>
<path d="M30.3737 170.02C31.5266 185.644 36.05 200.833 43.6328 214.542C46.2191 220.278 49.8537 225.481 54.3496 229.883" stroke="#894C5B" stroke-width="2.17291" stroke-linecap="round" stroke-linejoin="round"/>
<path d="M129.672 175.913C128.726 195.93 123.617 215.529 114.67 233.46" stroke="#894C5B" stroke-width="2.17291" stroke-linecap="round" stroke-linejoin="round"/>
<path d="M51.9813 174.618C53.1862 194.819 58.5682 214.55 67.7871 232.565" stroke="#894C5B" stroke-width="2.17291" stroke-linecap="round" stroke-linejoin="round"/>
<path d="M110.23 177.359C109.584 196.771 107.381 216.1 103.642 235.159" stroke="#894C5B" stroke-width="2.17291" stroke-linecap="round" stroke-linejoin="round"/>
<path d="M72.4288 176.895C73.1688 196.36 75.4737 215.733 79.3213 234.829" stroke="#894C5B" stroke-width="2.17291" stroke-linecap="round" stroke-linejoin="round"/>
<path d="M149.298 175.224C144.987 179.161 136.26 178.7 132.01 176.845" stroke="#894C5B" stroke-width="2.17291" stroke-linecap="round" stroke-linejoin="round"/>
<path d="M148.178 183.385C145.601 184.575 142.808 185.223 139.971 185.288C137.134 185.354 134.314 184.836 131.685 183.767" stroke="#894C5B" stroke-width="2.17291" stroke-linecap="round" stroke-linejoin="round"/>
<path d="M146.875 190.721C141.634 192.899 135.75 192.947 130.474 190.855" stroke="#894C5B" stroke-width="2.17291" stroke-linecap="round" stroke-linejoin="round"/>
<path d="M144.918 196.883C139.954 198.767 134.46 198.7 129.542 196.696" stroke="#894C5B" stroke-width="2.17291" stroke-linecap="round" stroke-linejoin="round"/>
<path d="M142.236 203.13C140.033 204.18 137.616 204.706 135.175 204.664C132.734 204.623 130.336 204.016 128.169 202.891" stroke="#894C5B" stroke-width="2.17291" stroke-linecap="round" stroke-linejoin="round"/>
<path d="M139.278 210.304C135.206 211.876 130.679 211.783 126.675 210.043" stroke="#894C5B" stroke-width="2.17291" stroke-linecap="round" stroke-linejoin="round"/>
<path d="M135.772 216.791C133.883 217.494 131.865 217.787 129.853 217.65C127.841 217.514 125.882 216.951 124.104 216" stroke="#894C5B" stroke-width="2.17291" stroke-linecap="round" stroke-linejoin="round"/>
<path d="M131.656 223.258C128.434 223.842 125.109 223.372 122.174 221.92" stroke="#894C5B" stroke-width="2.17291" stroke-linecap="round" stroke-linejoin="round"/>
<path d="M127.191 228.786C124.65 229.351 121.99 228.953 119.725 227.669" stroke="#894C5B" stroke-width="2.17291" stroke-linecap="round" stroke-linejoin="round"/>
<path d="M127.225 176.97C125.287 178.628 122.905 179.681 120.375 180C117.844 180.318 115.276 179.887 112.988 178.76" stroke="#894C5B" stroke-width="2.17291" stroke-linecap="round" stroke-linejoin="round"/>
<path d="M126.389 185.14C124.343 186.347 122.03 187.028 119.656 187.124C117.283 187.219 114.923 186.726 112.786 185.687" stroke="#894C5B" stroke-width="2.17291" stroke-linecap="round" stroke-linejoin="round"/>
<path d="M125.404 192.483C123.328 193.582 121.024 194.182 118.676 194.235C116.328 194.288 113.999 193.792 111.876 192.788" stroke="#894C5B" stroke-width="2.17291" stroke-linecap="round" stroke-linejoin="round"/>
<path d="M123.864 198.668C121.885 199.623 119.715 200.116 117.518 200.111C115.321 200.106 113.153 199.602 111.179 198.638" stroke="#894C5B" stroke-width="2.17291" stroke-linecap="round" stroke-linejoin="round"/>
<path d="M122.319 205.135C120.567 206.202 118.551 206.758 116.5 206.741C114.448 206.724 112.442 206.135 110.707 205.039" stroke="#894C5B" stroke-width="2.17291" stroke-linecap="round" stroke-linejoin="round"/>
<path d="M120.554 212.349C118.931 213.146 117.142 213.55 115.334 213.527C113.526 213.505 111.748 213.056 110.146 212.219" stroke="#894C5B" stroke-width="2.17291" stroke-linecap="round" stroke-linejoin="round"/>
<path d="M118.059 218.994C116.529 219.713 114.84 220.029 113.154 219.911C111.467 219.793 109.839 219.246 108.424 218.32" stroke="#894C5B" stroke-width="2.17291" stroke-linecap="round" stroke-linejoin="round"/>
<path d="M115.32 225.581C112.649 226.187 109.848 225.74 107.498 224.334" stroke="#894C5B" stroke-width="2.17291" stroke-linecap="round" stroke-linejoin="round"/>
<path d="M112.604 231.158C111.562 231.447 110.469 231.503 109.403 231.323C108.337 231.142 107.323 230.73 106.434 230.115" stroke="#894C5B" stroke-width="2.17291" stroke-linecap="round" stroke-linejoin="round"/>
<path d="M55.1127 176.9C57.05 178.559 59.4315 179.614 61.9621 179.933C64.4926 180.252 67.0611 179.821 69.3496 178.695" stroke="#894C5B" stroke-width="2.17291" stroke-linecap="round" stroke-linejoin="round"/>
<path d="M55.9504 185.07C57.996 186.278 60.3087 186.96 62.6822 187.057C65.0557 187.153 67.416 186.66 69.5527 185.622" stroke="#894C5B" stroke-width="2.17291" stroke-linecap="round" stroke-linejoin="round"/>
<path d="M56.9207 192.418C58.9966 193.518 61.3008 194.117 63.6495 194.17C65.9982 194.222 68.3265 193.724 70.4492 192.718" stroke="#894C5B" stroke-width="2.17291" stroke-linecap="round" stroke-linejoin="round"/>
<path d="M58.46 198.599C60.4391 199.554 62.6089 200.047 64.8062 200.042C67.0035 200.036 69.1711 199.533 71.1455 198.568" stroke="#894C5B" stroke-width="2.17291" stroke-linecap="round" stroke-linejoin="round"/>
<path d="M60.0042 205.065C61.756 206.134 63.7718 206.692 65.8239 206.675C67.8759 206.658 69.8823 206.067 71.6162 204.97" stroke="#894C5B" stroke-width="2.17291" stroke-linecap="round" stroke-linejoin="round"/>
<path d="M61.7686 212.279C63.3921 213.076 65.1805 213.479 66.9888 213.455C68.7971 213.432 70.5744 212.983 72.1768 212.145" stroke="#894C5B" stroke-width="2.17291" stroke-linecap="round" stroke-linejoin="round"/>
<path d="M64.2648 218.925C65.7944 219.645 67.4828 219.962 69.1693 219.844C70.8557 219.727 72.4841 219.18 73.8994 218.256" stroke="#894C5B" stroke-width="2.17291" stroke-linecap="round" stroke-linejoin="round"/>
<path d="M67.0018 225.512C69.6721 226.12 72.4736 225.674 74.8242 224.27" stroke="#894C5B" stroke-width="2.17291" stroke-linecap="round" stroke-linejoin="round"/>
<path d="M69.7187 231.088C70.7609 231.376 71.8538 231.432 72.9201 231.252C73.9864 231.072 75.0001 230.66 75.8896 230.045" stroke="#894C5B" stroke-width="2.17291" stroke-linecap="round" stroke-linejoin="round"/>
<path d="M107.631 178.646C105.558 180.134 103.095 180.981 100.546 181.082C97.9964 181.183 95.4735 180.534 93.2896 179.216" stroke="#894C5B" stroke-width="2.17291" stroke-linecap="round" stroke-linejoin="round"/>
<path d="M107.758 186.381C105.712 187.588 103.399 188.269 101.025 188.365C98.6519 188.461 96.2917 187.967 94.1554 186.928" stroke="#894C5B" stroke-width="2.17291" stroke-linecap="round" stroke-linejoin="round"/>
<path d="M106.773 193.728C104.697 194.827 102.393 195.426 100.045 195.479C97.6966 195.532 95.3682 195.036 93.2449 194.032" stroke="#894C5B" stroke-width="2.17291" stroke-linecap="round" stroke-linejoin="round"/>
<path d="M106.323 199.88C104.344 200.835 102.174 201.328 99.9771 201.323C97.7797 201.318 95.6123 200.814 93.6379 199.85" stroke="#894C5B" stroke-width="2.17291" stroke-linecap="round" stroke-linejoin="round"/>
<path d="M105.14 205.899C103.388 206.966 101.373 207.523 99.3221 207.506C97.2711 207.489 95.2657 206.899 93.5319 205.804" stroke="#894C5B" stroke-width="2.17291" stroke-linecap="round" stroke-linejoin="round"/>
<path d="M104.372 213.216C102.75 214.015 100.962 214.419 99.1545 214.396C97.3467 214.374 95.5698 213.925 93.9681 213.086" stroke="#894C5B" stroke-width="2.17291" stroke-linecap="round" stroke-linejoin="round"/>
<path d="M103.557 219.918C101.963 220.658 100.212 220.997 98.4567 220.906C96.7017 220.814 94.9958 220.295 93.4874 219.393" stroke="#894C5B" stroke-width="2.17291" stroke-linecap="round" stroke-linejoin="round"/>
<path d="M102.517 226.776C99.5889 227.536 96.4868 227.241 93.7553 225.941" stroke="#894C5B" stroke-width="2.17291" stroke-linecap="round" stroke-linejoin="round"/>
<path d="M101.528 232.51C98.9006 233.178 96.1226 232.915 93.6666 231.767" stroke="#894C5B" stroke-width="2.17291" stroke-linecap="round" stroke-linejoin="round"/>
<path d="M74.9245 178.265C76.997 179.752 79.4605 180.599 82.0096 180.7C84.5588 180.802 87.0817 180.153 89.2656 178.834" stroke="#894C5B" stroke-width="2.17291" stroke-linecap="round" stroke-linejoin="round"/>
<path d="M74.7932 185.999C76.8391 187.206 79.152 187.888 81.5255 187.983C83.899 188.079 86.2592 187.585 88.3955 186.547" stroke="#894C5B" stroke-width="2.17291" stroke-linecap="round" stroke-linejoin="round"/>
<path d="M75.78 193.346C77.8561 194.445 80.1599 195.045 82.5083 195.097C84.8568 195.15 87.1852 194.655 89.3086 193.65" stroke="#894C5B" stroke-width="2.17291" stroke-linecap="round" stroke-linejoin="round"/>
<path d="M76.2325 199.498C78.2115 200.453 80.3814 200.946 82.5787 200.941C84.776 200.936 86.9436 200.432 88.918 199.468" stroke="#894C5B" stroke-width="2.17291" stroke-linecap="round" stroke-linejoin="round"/>
<path d="M77.4114 205.517C79.1639 206.584 81.1793 207.141 83.231 207.124C85.2826 207.107 87.2888 206.518 89.0234 205.422" stroke="#894C5B" stroke-width="2.17291" stroke-linecap="round" stroke-linejoin="round"/>
<path d="M78.1797 212.818C79.8029 213.615 81.5911 214.019 83.3994 213.996C85.2077 213.974 86.9852 213.525 88.5879 212.688" stroke="#894C5B" stroke-width="2.17291" stroke-linecap="round" stroke-linejoin="round"/>
<path d="M78.9848 219.538C80.5781 220.278 82.3283 220.616 84.0826 220.525C85.837 220.433 87.5423 219.914 89.0498 219.012" stroke="#894C5B" stroke-width="2.17291" stroke-linecap="round" stroke-linejoin="round"/>
<path d="M80.0348 226.394C82.9624 227.155 86.0644 226.859 88.7959 225.56" stroke="#894C5B" stroke-width="2.17291" stroke-linecap="round" stroke-linejoin="round"/>
<path d="M81.0271 232.128C83.6548 232.796 86.4327 232.533 88.8887 231.385" stroke="#894C5B" stroke-width="2.17291" stroke-linecap="round" stroke-linejoin="round"/>
<path d="M33.1406 173.553C35.5358 175.178 38.3083 176.161 41.1922 176.407C44.0762 176.654 46.975 176.156 49.6113 174.961" stroke="#894C5B" stroke-width="2.17291" stroke-linecap="round" stroke-linejoin="round"/>
<path d="M34.3137 181.701C36.7636 182.857 39.4339 183.472 42.1427 183.502C44.8515 183.533 47.5352 182.979 50.0107 181.879" stroke="#894C5B" stroke-width="2.17291" stroke-linecap="round" stroke-linejoin="round"/>
<path d="M35.6487 189.015C38.1193 190.062 40.7767 190.596 43.46 190.586C46.1432 190.575 48.7964 190.02 51.2588 188.954" stroke="#894C5B" stroke-width="2.17291" stroke-linecap="round" stroke-linejoin="round"/>
<path d="M37.5849 195.157C39.928 196.059 42.426 196.491 44.9361 196.427C47.4462 196.363 49.9189 195.804 52.2129 194.783" stroke="#894C5B" stroke-width="2.17291" stroke-linecap="round" stroke-linejoin="round"/>
<path d="M40.2155 201.367C42.3122 202.39 44.6265 202.888 46.9585 202.817C49.2906 202.745 51.5702 202.107 53.6006 200.958" stroke="#894C5B" stroke-width="2.17291" stroke-linecap="round" stroke-linejoin="round"/>
<path d="M43.1212 208.505C45.0448 209.256 47.102 209.605 49.1657 209.531C51.2294 209.456 53.256 208.959 55.1201 208.07" stroke="#894C5B" stroke-width="2.17291" stroke-linecap="round" stroke-linejoin="round"/>
<path d="M46.5369 214.955C48.3393 215.634 50.2706 215.903 52.19 215.741C54.1094 215.58 55.9685 214.992 57.6318 214.021" stroke="#894C5B" stroke-width="2.17291" stroke-linecap="round" stroke-linejoin="round"/>
<path d="M50.5408 221.369C53.622 221.911 56.7961 221.398 59.5498 219.913" stroke="#894C5B" stroke-width="2.17291" stroke-linecap="round" stroke-linejoin="round"/>
<path d="M54.8559 226.841C57.2872 227.377 59.8316 226.944 61.9482 225.633" stroke="#894C5B" stroke-width="2.17291" stroke-linecap="round" stroke-linejoin="round"/>
<path d="M169.859 169.994C167.783 171.94 165.244 173.324 162.484 174.016C159.724 174.709 156.833 174.687 154.084 173.953" stroke="#894C5B" stroke-width="2.17291" stroke-linecap="round" stroke-linejoin="round"/>
<path d="M168.412 178.398C166.35 179.912 163.936 180.877 161.399 181.201C158.861 181.526 156.283 181.2 153.906 180.254" stroke="#894C5B" stroke-width="2.17291" stroke-linecap="round" stroke-linejoin="round"/>
<path d="M166.281 186.777C164.234 188.153 161.86 188.964 159.399 189.128C156.937 189.291 154.477 188.801 152.266 187.707" stroke="#894C5B" stroke-width="2.17291" stroke-linecap="round" stroke-linejoin="round"/>
<path d="M164.24 193.904C162.194 195.103 159.847 195.691 157.478 195.598C155.108 195.506 152.815 194.737 150.868 193.383" stroke="#894C5B" stroke-width="2.17291" stroke-linecap="round" stroke-linejoin="round"/>
<path d="M161.494 201.181C159.402 202.099 157.082 202.368 154.835 201.953C152.588 201.537 150.517 200.457 148.891 198.852" stroke="#894C5B" stroke-width="2.17291" stroke-linecap="round" stroke-linejoin="round"/>
<path d="M157.764 207.89C155.826 208.521 153.752 208.612 151.767 208.153C149.781 207.693 147.959 206.701 146.495 205.282" stroke="#894C5B" stroke-width="2.17291" stroke-linecap="round" stroke-linejoin="round"/>
<path d="M153.096 214.252C151.37 214.616 149.581 214.548 147.888 214.054C146.195 213.559 144.651 212.654 143.392 211.419" stroke="#894C5B" stroke-width="2.17291" stroke-linecap="round" stroke-linejoin="round"/>
<path d="M147.799 219.706C146.499 219.91 145.17 219.802 143.921 219.392C142.671 218.981 141.537 218.281 140.611 217.347" stroke="#894C5B" stroke-width="2.17291" stroke-linecap="round" stroke-linejoin="round"/>
<path d="M142.087 224.152C141.275 224.345 140.427 224.323 139.626 224.086C138.825 223.85 138.101 223.408 137.524 222.805" stroke="#894C5B" stroke-width="2.17291" stroke-linecap="round" stroke-linejoin="round"/>
<path d="M13.5018 168.573C15.4531 170.48 17.8763 171.834 20.5231 172.496C23.1699 173.158 25.9451 173.105 28.5645 172.341" stroke="#894C5B" stroke-width="2.17291" stroke-linecap="round" stroke-linejoin="round"/>
<path d="M14.987 176.957C16.9352 178.44 19.243 179.377 21.6732 179.673C24.1035 179.968 26.5687 179.611 28.8154 178.639" stroke="#894C5B" stroke-width="2.17291" stroke-linecap="round" stroke-linejoin="round"/>
<path d="M17.1155 185.309C19.0532 186.657 21.3265 187.441 23.6832 187.576C26.0398 187.71 28.3876 187.188 30.4658 186.069" stroke="#894C5B" stroke-width="2.17291" stroke-linecap="round" stroke-linejoin="round"/>
<path d="M19.1499 192.415C21.095 193.588 23.3476 194.15 25.6156 194.027C27.8836 193.905 30.0626 193.104 31.8701 191.729" stroke="#894C5B" stroke-width="2.17291" stroke-linecap="round" stroke-linejoin="round"/>
<path d="M21.858 199.655C23.8648 200.546 26.1006 200.786 28.2507 200.34C30.4009 199.894 32.3571 198.785 33.8438 197.169" stroke="#894C5B" stroke-width="2.17291" stroke-linecap="round" stroke-linejoin="round"/>
<path d="M25.4967 206.316C27.3574 206.916 29.3503 206.975 31.2432 206.485C33.136 205.996 34.8508 204.978 36.1875 203.552" stroke="#894C5B" stroke-width="2.17291" stroke-linecap="round" stroke-linejoin="round"/>
<path d="M30.0138 212.622C31.6716 212.96 33.3886 212.866 34.9997 212.35C36.6109 211.833 38.0622 210.91 39.2139 209.671" stroke="#894C5B" stroke-width="2.17291" stroke-linecap="round" stroke-linejoin="round"/>
<path d="M35.1226 217.999C36.3711 218.183 37.6458 218.057 38.8337 217.631C40.0216 217.205 41.086 216.493 41.9326 215.557" stroke="#894C5B" stroke-width="2.17291" stroke-linecap="round" stroke-linejoin="round"/>
<path d="M40.6222 222.392C41.4025 222.571 42.2168 222.535 42.9783 222.288C43.7398 222.041 44.42 221.592 44.9463 220.988" stroke="#894C5B" stroke-width="2.17291" stroke-linecap="round" stroke-linejoin="round"/>
<path d="M188.125 159.081C187.01 161.299 185.235 163.117 183.044 164.285C180.853 165.452 178.354 165.912 175.892 165.6" stroke="#894C5B" stroke-width="2.17291" stroke-linecap="round" stroke-linejoin="round"/>
<path d="M185.455 169.058C184.319 170.715 182.642 171.925 180.711 172.48C178.78 173.035 176.716 172.901 174.873 172.1" stroke="#894C5B" stroke-width="2.17291" stroke-linecap="round" stroke-linejoin="round"/>
<path d="M181.771 177.907C180.607 178.638 179.269 179.047 177.895 179.092C176.521 179.137 175.159 178.816 173.949 178.164" stroke="#894C5B" stroke-width="2.17291" stroke-linecap="round" stroke-linejoin="round"/>
<path d="M178.643 185.404C177.592 185.739 176.47 185.78 175.398 185.524C174.325 185.267 173.344 184.722 172.558 183.948" stroke="#894C5B" stroke-width="2.17291" stroke-linecap="round" stroke-linejoin="round"/>
<path d="M175.29 192.358C174.362 192.57 173.393 192.512 172.497 192.192C171.601 191.872 170.815 191.302 170.232 190.55" stroke="#894C5B" stroke-width="2.17291" stroke-linecap="round" stroke-linejoin="round"/>
<path d="M171.314 199.058C170.707 199.017 170.114 198.851 169.573 198.571C169.032 198.292 168.554 197.904 168.168 197.433" stroke="#894C5B" stroke-width="2.17291" stroke-linecap="round" stroke-linejoin="round"/>
<path d="M168.437 203.798C167.369 203.674 166.336 203.343 165.394 202.824" stroke="#894C5B" stroke-width="2.17291" stroke-linecap="round" stroke-linejoin="round"/>
<path d="M165.253 208.219C164.857 208.247 164.46 208.188 164.09 208.045C163.719 207.902 163.385 207.68 163.11 207.394" stroke="#894C5B" stroke-width="2.17291" stroke-linecap="round" stroke-linejoin="round"/>
<path d="M-4.01989 157.883C-2.99455 160.054 -1.30441 161.841 0.805359 162.987C2.91513 164.132 5.3349 164.576 7.71387 164.254" stroke="#894C5B" stroke-width="2.17291" stroke-linecap="round" stroke-linejoin="round"/>
<path d="M-1.33781 167.822C-0.293921 169.452 1.30651 170.648 3.16583 171.187C5.02514 171.726 7.01675 171.571 8.77051 170.751" stroke="#894C5B" stroke-width="2.17291" stroke-linecap="round" stroke-linejoin="round"/>
<path d="M2.26441 176.626C3.37094 177.344 4.65542 177.739 5.97403 177.769C7.29264 177.798 8.59328 177.459 9.73047 176.791" stroke="#894C5B" stroke-width="2.17291" stroke-linecap="round" stroke-linejoin="round"/>
<path d="M5.33761 184.102C6.34424 184.424 7.42198 184.451 8.44379 184.181C9.4656 183.911 10.3888 183.354 11.1045 182.576" stroke="#894C5B" stroke-width="2.17291" stroke-linecap="round" stroke-linejoin="round"/>
<path d="M8.61717 190.994C9.50946 191.189 10.4396 191.116 11.2903 190.784C12.1411 190.451 12.8743 189.874 13.3975 189.125" stroke="#894C5B" stroke-width="2.17291" stroke-linecap="round" stroke-linejoin="round"/>
<path d="M12.4948 197.652C13.08 197.599 13.6474 197.423 14.1603 197.136C14.6732 196.849 15.12 196.458 15.4717 195.987" stroke="#894C5B" stroke-width="2.17291" stroke-linecap="round" stroke-linejoin="round"/>
<path d="M15.286 202.353C16.3004 202.214 17.2762 201.871 18.1543 201.345" stroke="#894C5B" stroke-width="2.17291" stroke-linecap="round" stroke-linejoin="round"/>
<path d="M18.3699 206.738C18.7521 206.758 19.1336 206.69 19.4854 206.539C19.8371 206.388 20.1499 206.159 20.3994 205.869" stroke="#894C5B" stroke-width="2.17291" stroke-linecap="round" stroke-linejoin="round"/>
<path fill-rule="evenodd" clip-rule="evenodd" d="M616.922 147.27C610.329 148.365 602.224 145.997 592.233 142.138C564.311 131.351 516.903 114.759 486.33 103.46C472.354 98.2971 470.941 96.2111 469.477 87.6759C469.103 83.5337 469.693 79.3611 471.201 75.4851C472.709 71.609 475.094 68.1346 478.168 65.334C495.553 50.4993 513.693 36.5742 532.517 23.6142C533.921 22.8407 539.105 18.5948 551.352 22.5365C580.582 31.9408 641.98 52.8311 669.124 64.2563C680.657 69.1149 680.331 74.0604 680.783 74.8601C681.598 80.0474 680.965 85.359 678.954 90.2095C675.043 96.0025 649.276 122.251 632.149 138.705C625.196 145.432 622.732 146.305 616.922 147.27Z" fill="#D3A298"/>
<path d="M474.193 84.4775L606.362 133.681C609.25 134.757 612.384 134.992 615.401 134.358C618.417 133.724 621.191 132.247 623.402 130.1L635.327 118.54" stroke="#894C5B" stroke-width="2.17291" stroke-linecap="round" stroke-linejoin="round"/>
<path d="M656.209 98.2886L678.477 76.6855" stroke="#894C5B" stroke-width="2.17291" stroke-linecap="round" stroke-linejoin="round"/>
<path fill-rule="evenodd" clip-rule="evenodd" d="M646.364 99.4629C646.364 99.6237 704.785 112.774 717.271 125.22C724.793 132.717 722.099 148.253 703.864 146.185C683.912 143.908 651.397 124.673 635.674 113.717" fill="#D3A298"/>
<path fill-rule="evenodd" clip-rule="evenodd" d="M706.218 122.369C709.229 122.96 711.32 125.233 710.885 127.445C710.423 128.643 709.517 129.616 708.355 130.163C707.194 130.71 705.867 130.789 704.649 130.383C701.637 129.792 699.547 127.519 699.982 125.307C700.444 124.11 701.35 123.136 702.511 122.589C703.673 122.042 705 121.964 706.218 122.369Z" fill="#894C5B"/>
<path fill-rule="evenodd" clip-rule="evenodd" d="M648.316 86.8947C647.012 85.0738 574.511 74.7264 573.568 78.077C572.875 81.0199 572.866 84.0825 573.542 87.0294C573.754 89.3465 574.471 91.5891 575.641 93.6003C577.479 95.9818 581.534 96.3425 584.102 97.6984C587.867 100.394 591.107 103.755 593.663 107.616C597.333 111.977 601.226 116.146 605.327 120.105C606.186 121.34 607.337 122.343 608.678 123.026C610.018 123.708 611.507 124.048 613.01 124.017C617.002 122.883 620.788 121.123 624.227 118.802C630.746 115.177 645.569 105.004 648.998 100.436C650.71 98.1808 649.211 88.1854 648.316 86.8947Z" fill="#E39E3C"/>
<path fill-rule="evenodd" clip-rule="evenodd" d="M609.988 116.29C603.642 110.074 597.636 103.519 591.997 96.6552C589.799 93.9432 587.116 91.6647 584.083 89.9366C580.024 87.7985 574.192 86.5643 573.449 81.1624C573.277 77.8254 574.312 74.5378 576.365 71.9014C580.674 65.5166 586.553 60.3463 593.435 56.8866C595.689 55.6451 598.011 54.5295 600.388 53.5447C606.316 51.098 613.565 47.8952 620.123 49.5379C626.385 51.1067 626.524 56.4912 629.219 61.1238C633.13 67.8512 639.27 73.3486 643.742 79.7457C645.615 82.4271 649.418 86.2427 648.579 89.8236C647.405 92.7965 645.353 95.3405 642.695 97.1159C637.724 101.21 632.499 104.984 627.05 108.415C623.469 110.766 619.836 113.152 616.038 115.151C613.787 116.298 611.609 117.537 609.988 116.29Z" fill="white"/>
<path fill-rule="evenodd" clip-rule="evenodd" d="M609.35 77.677C608.046 75.8561 535.545 65.5086 534.602 68.8593C533.908 71.8022 533.901 74.8653 534.58 77.8116C534.789 80.1288 535.504 82.372 536.675 84.3825C538.513 86.7641 542.572 87.1247 545.141 88.4806C548.904 91.1775 552.144 94.5382 554.701 98.3978C558.37 102.759 562.262 106.928 566.361 110.888C567.22 112.122 568.371 113.125 569.712 113.808C571.052 114.49 572.541 114.831 574.045 114.799C578.036 113.666 581.822 111.905 585.261 109.584C591.78 105.96 606.608 95.7859 610.032 91.2141C611.745 88.963 610.258 78.9677 609.35 77.677Z" fill="#E39E3C"/>
<path fill-rule="evenodd" clip-rule="evenodd" d="M571.026 107.072C564.68 100.855 558.674 94.301 553.034 87.4379C550.839 84.7236 548.154 82.4447 545.12 80.7192C541.061 78.5811 535.229 77.3469 534.49 71.9407C534.318 68.6056 535.351 65.3199 537.402 62.6841C541.713 56.2978 547.593 51.1262 554.477 47.6649C556.73 46.4232 559.052 45.3088 561.43 44.3273C567.353 41.8763 574.606 38.6778 581.16 40.3205C587.427 41.8893 587.566 47.2738 590.256 51.9021C594.167 58.6295 600.312 64.1313 604.779 70.5283C606.653 73.2097 610.455 77.0209 609.616 80.6062C608.441 83.5784 606.389 86.1221 603.732 87.8985C598.762 91.9923 593.536 95.7663 588.087 99.1977C584.502 101.549 580.869 103.935 577.075 105.934C574.824 107.081 572.647 108.32 571.026 107.072Z" fill="white"/>
<path d="M592.897 104.013C593.97 103.231 594.322 103.144 595.413 102.384" stroke="#894C5B" stroke-width="2.17291" stroke-linecap="round" stroke-linejoin="round"/>
<path d="M595.134 58.2998C600.028 64.1191 604.493 70.286 608.493 76.7521" stroke="#894C5B" stroke-width="2.17291" stroke-linecap="round" stroke-linejoin="round"/>
<path fill-rule="evenodd" clip-rule="evenodd" d="M531.873 46.092C528.049 44.9274 524.296 43.5387 520.635 41.9331C519.724 37.7048 519.123 33.4156 518.836 29.0998C519.127 26.7922 531.035 20.4082 535.676 18.7307C539.283 17.427 561.147 22.8289 561.694 25.7971C560.438 31.4463 558.436 36.9032 555.74 42.0243C551.177 45.2757 545.932 47.4441 540.404 48.3649C537.467 48.0157 534.595 47.2504 531.873 46.092Z" fill="white"/>
<path fill-rule="evenodd" clip-rule="evenodd" d="M522.235 29.3072C520.805 28.2598 534.468 22.4364 536.411 21.9714C541.313 20.8111 554.368 25.1569 557.184 26.9908C558.488 27.8252 547.853 34.457 544.511 34.9307C536.797 34.481 529.238 32.5728 522.235 29.3072Z" fill="#FCB63B" stroke="#894C5B" stroke-width="2.17291" stroke-linecap="round" stroke-linejoin="round"/>
<path d="M522.409 33.1094C522.509 35.6517 522.939 38.898 523.113 40.745" stroke="#F9F3DF" stroke-width="2.17291" stroke-linecap="round" stroke-linejoin="round"/>
<path d="M527.88 34.9961C527.637 36.8344 527.419 40.2849 527.311 42.1319" stroke="#F9F3DF" stroke-width="2.17291" stroke-linecap="round" stroke-linejoin="round"/>
<path d="M533.026 36.5508C532.67 38.3717 531.896 41.7397 531.679 43.578" stroke="#F9F3DF" stroke-width="2.17291" stroke-linecap="round" stroke-linejoin="round"/>
<path d="M538.142 37.7158C537.707 39.5193 536.768 43.2133 536.477 45.0429" stroke="#F9F3DF" stroke-width="2.17291" stroke-linecap="round" stroke-linejoin="round"/>
<path d="M542.944 38.4736C542.51 40.2728 541.771 43.9668 541.48 45.7964" stroke="#F9F3DF" stroke-width="2.17291" stroke-linecap="round" stroke-linejoin="round"/>
<path d="M547.732 37.2383C547.298 39.0461 546.316 42.6097 546.024 44.4393" stroke="#F9F3DF" stroke-width="2.17291" stroke-linecap="round" stroke-linejoin="round"/>
<path d="M552.604 34.8047C551.869 37.0732 551.33 40.0762 550.696 42.1926" stroke="#F9F3DF" stroke-width="2.17291" stroke-linecap="round" stroke-linejoin="round"/>
<path d="M557.516 31.4541C556.777 33.7878 555.577 37.3383 554.778 39.4113" stroke="#F9F3DF" stroke-width="2.17291" stroke-linecap="round" stroke-linejoin="round"/>
<path fill-rule="evenodd" clip-rule="evenodd" d="M537.739 20.6557C536.119 19.2656 534.972 17.4062 534.456 15.3351C533.939 13.2639 534.08 11.0835 534.858 9.09581C535.647 6.89612 536.957 4.92006 538.676 3.33622C540.394 1.75238 542.47 0.607749 544.727 0C551.442 0.870786 558.053 2.40367 564.466 4.57618C565.218 5.84082 559.055 9.03494 557.626 15.3494C557.331 18.9349 557.506 22.5435 558.147 26.0836C557.326 25.988 553.171 23.9976 547.061 22.3114C542.737 21.1337 538.778 20.9773 537.739 20.6557Z" fill="#894C5B"/>
<path fill-rule="evenodd" clip-rule="evenodd" d="M494.977 76.3557C491.152 75.1903 487.4 73.8016 483.738 72.1967C482.831 67.9679 482.231 63.679 481.943 59.3635C482.23 57.0559 494.142 50.6719 498.779 48.9944C502.39 47.6907 524.254 53.0925 524.802 56.0564C523.543 61.7061 521.541 67.1641 518.848 72.288C514.285 75.5396 509.039 77.7067 503.512 78.6242C500.573 78.2786 497.699 77.5147 494.977 76.3557Z" fill="white"/>
<path fill-rule="evenodd" clip-rule="evenodd" d="M485.349 59.5718C483.915 58.5245 497.583 52.701 499.521 52.236C504.428 51.0757 517.482 55.4215 520.298 57.2555C521.58 58.0899 510.964 64.7216 507.622 65.1953C499.909 64.7456 492.351 62.8374 485.349 59.5718Z" fill="#D26938" stroke="#894C5B" stroke-width="2.17291" stroke-linecap="round" stroke-linejoin="round"/>
<path d="M485.521 63.3691C485.621 65.9158 486.051 69.1621 486.229 71.0091" stroke="#F9F3DF" stroke-width="2.17291" stroke-linecap="round" stroke-linejoin="round"/>
<path d="M490.995 65.25C490.747 67.0883 490.53 70.5389 490.426 72.3858" stroke="#F9F3DF" stroke-width="2.17291" stroke-linecap="round" stroke-linejoin="round"/>
<path d="M496.143 66.8145C495.782 68.631 495.013 72.0034 494.791 73.8417" stroke="#F9F3DF" stroke-width="2.17291" stroke-linecap="round" stroke-linejoin="round"/>
<path d="M501.253 67.9805C500.818 69.784 499.88 73.4779 499.588 75.3075" stroke="#F9F3DF" stroke-width="2.17291" stroke-linecap="round" stroke-linejoin="round"/>
<path d="M506.057 68.7588C505.622 70.5536 504.879 74.2519 504.588 76.0815" stroke="#F9F3DF" stroke-width="2.17291" stroke-linecap="round" stroke-linejoin="round"/>
<path d="M510.845 67.502C510.41 69.3055 509.428 72.8733 509.137 74.6986" stroke="#F9F3DF" stroke-width="2.17291" stroke-linecap="round" stroke-linejoin="round"/>
<path d="M515.717 65.0684C514.982 67.3369 514.448 70.3398 513.809 72.4562" stroke="#F9F3DF" stroke-width="2.17291" stroke-linecap="round" stroke-linejoin="round"/>
<path d="M520.644 61.7178C519.905 64.0515 518.705 67.602 517.91 69.675" stroke="#F9F3DF" stroke-width="2.17291" stroke-linecap="round" stroke-linejoin="round"/>
<path fill-rule="evenodd" clip-rule="evenodd" d="M500.856 50.9233C499.234 49.5341 498.086 47.675 497.569 45.6037C497.052 43.5323 497.192 41.3514 497.97 39.3634C498.761 37.1644 500.071 35.1891 501.789 33.6055C503.508 32.0218 505.583 30.8767 507.839 30.2676C514.55 31.1415 521.157 32.6773 527.565 34.8525C528.321 36.1171 522.154 39.3113 520.729 45.6257C520.436 49.2111 520.61 52.8193 521.246 56.3599C520.429 56.2643 516.27 54.2739 510.16 52.5877C505.844 51.3969 501.89 51.2405 500.856 50.9233Z" fill="#894C5B"/>
<path fill-rule="evenodd" clip-rule="evenodd" d="M672.156 105.3C669.848 103.962 657.128 84.4403 652.473 78.0955C648.217 72.2836 643.966 66.4661 639.718 60.6427C636.242 55.8623 625.699 42.3424 626.051 40.7649C626.298 39.6828 645.372 46.5753 649.857 51.2948C653.912 55.5668 650.665 59.3824 652.134 63.9715C654.555 71.568 674.985 94.7747 678.287 99.8984C679.522 101.802 675.936 107.478 672.156 105.3Z" fill="white"/>
<path fill-rule="evenodd" clip-rule="evenodd" d="M605.386 177.426C596.768 168.103 586.46 160.499 575.009 155.019C565.766 151.635 556.156 149.354 546.378 148.222C528.436 146.441 510.357 146.531 492.434 148.491C480.057 149.83 468.097 151.807 457.645 158.921C431.479 176.761 415.304 203.557 422.279 236.086C423.939 244.945 427.926 253.203 433.83 260.014C449.371 277.306 475.146 284.037 497.466 285.945C529.764 288.705 567.99 283.368 593.157 261.287C616.711 240.644 626.476 203.366 605.386 177.426Z" fill="white"/>
<path d="M588.285 186.769C581.294 179.605 573.027 173.808 563.91 169.677C556.471 167.094 548.765 165.356 540.938 164.497C526.537 163.135 512.036 163.204 497.649 164.701C487.837 165.071 478.26 167.805 469.731 172.672C448.732 186.278 435.756 206.721 441.353 231.536C442.713 238.354 445.92 244.668 450.623 249.788C463.091 262.982 483.777 268.114 501.686 269.57C527.605 271.678 558.277 267.606 578.472 250.762C597.372 234.991 605.208 206.543 588.285 186.769Z" stroke="#614731" stroke-width="2.17291" stroke-linecap="round" stroke-linejoin="round"/>
<path fill-rule="evenodd" clip-rule="evenodd" d="M433.28 231.836C428.64 231.549 424.035 230.842 419.521 229.724C418.048 229.342 415.753 228.551 415.415 226.808C414.98 224.727 417.67 222.497 418.956 221.259C423.059 217.3 427.748 214.018 432.129 210.394C439.799 204.04 442.776 195.788 447.965 187.618C454.427 177.453 461.81 167.831 469.02 158.188C473.971 152.765 477.531 146.221 479.394 139.118C479.607 137.784 478.746 130.957 480.298 130.292C483.127 129.075 486.451 134.373 489.424 134.373C492.17 135.141 494.83 136.188 497.364 137.497C508.963 141.078 521.057 147.393 534.351 149.792C550.503 152.203 566.425 155.968 581.946 161.047C588.165 163.631 594.721 165.312 601.415 166.041C606.722 165.341 605.761 170.856 605.761 174.684C604.968 179.728 602.93 184.493 599.834 188.552C594.749 197.144 589.525 205.631 584.593 214.318C583.437 216.352 581.216 220.611 580.13 222.501C576.475 228.825 572.855 235.156 569.326 241.549C564.727 250.173 560.956 259.214 558.066 268.55C557.314 270.844 556.219 277.38 553.759 278.636C552.595 279.232 549.07 273.421 548.11 272.717C543.568 269.808 538.434 267.951 533.082 267.281C523.465 265.499 513.752 264.96 504.282 262.327C494.434 259.241 484.785 255.55 475.391 251.275C465.383 247.108 443.106 236.395 433.28 231.836Z" fill="#58865F"/>
<path fill-rule="evenodd" clip-rule="evenodd" d="M495.373 136.64C496.015 136.975 496.68 137.266 497.363 137.51C498.91 137.988 500.467 138.509 502.035 139.074C499.862 142.772 497.593 146.41 495.273 150.013C498.858 151.368 502.474 152.659 506.098 153.924C508.271 150.26 510.383 146.61 512.426 143.016C514.599 143.859 516.793 144.698 519.023 145.497C517.019 149.035 514.937 152.633 512.812 156.236C516.598 157.539 520.378 158.813 524.112 160.108C526.124 156.34 528.088 152.581 529.978 148.865C531.427 149.216 532.884 149.526 534.35 149.795L537.062 150.286C535.034 154.302 532.932 158.358 530.756 162.455C531.395 162.681 532.025 162.889 532.651 163.137C535.754 164.264 538.86 165.366 541.969 166.444C544.286 161.808 546.543 157.145 548.739 152.455C551.073 152.889 553.415 153.372 555.753 153.867C553.462 158.853 551.083 163.799 548.618 168.704C551.958 169.822 555.307 170.916 558.665 171.985C561.322 166.79 563.954 161.585 566.561 156.37C568.865 156.961 571.151 157.583 573.406 158.257C570.764 163.55 568.097 168.83 565.406 174.097C570.508 175.67 575.627 177.196 580.764 178.673C583.823 173.702 586.865 168.717 589.89 163.719C592.41 164.48 594.857 165.14 596.9 165.571C593.875 170.612 590.817 175.637 587.726 180.646L588.282 180.803C592.91 182.106 597.547 183.41 602.188 184.627L601.902 185.109L601.841 185.214L601.658 185.522L601.424 185.909L600.989 186.604L600.724 187.039L600.563 187.304L600.359 187.639L600.298 187.739L600.246 187.821L600.137 187.999L600.02 188.204L599.794 188.573L598.451 190.841C594.409 189.772 590.394 188.634 586.378 187.508C585.548 187.282 584.723 187.048 583.893 186.813C581.108 191.333 578.331 195.851 575.562 200.367C580.435 201.848 585.327 203.25 590.237 204.574L590.203 204.635L589.703 205.483L589.321 206.126L589.251 206.247L588.782 207.043L588.404 207.686L588.299 207.855L587.726 208.833L587.495 209.242L587.356 209.472L586.583 210.802C581.657 209.449 576.732 208.016 571.807 206.504C570.358 208.885 568.927 211.271 567.513 213.661C572.34 215.449 577.168 217.231 581.998 219.007L581.563 219.832L581.281 220.35L580.985 220.897L580.916 221.023L580.481 221.775L580.342 222.027L580.264 222.162L580.06 222.523C579.599 223.313 579.147 224.104 578.691 224.895L578.538 225.16C573.662 223.367 568.789 221.566 563.919 219.759C561.118 224.565 558.378 229.409 555.701 234.291C560.725 235.838 565.755 237.342 570.79 238.802L570.586 239.176L570.077 240.084L569.916 240.371L569.256 241.57L568.821 242.339L568.787 242.405C568.656 242.644 568.53 242.883 568.404 243.122L568.356 243.204L568.335 243.252L567.987 243.904L567.926 244.021L567.874 244.13C567.778 244.308 567.687 244.491 567.591 244.673L567.505 244.843L567.392 245.069C562.362 243.594 557.341 242.084 552.329 240.54C550.347 244.195 548.196 247.928 546.088 251.744C551.425 253.482 556.767 255.22 562.116 256.959L561.964 257.346L561.811 257.737L561.638 258.171L561.516 258.501L561.316 259.023L561.212 259.301L561.186 259.371L561.142 259.488L560.999 259.875L560.912 260.114L560.881 260.192L560.829 260.331L560.682 260.731L560.608 260.94L560.586 261.005L560.525 261.166L560.373 261.6L560.303 261.787V261.843L560.247 261.996L560.077 262.465L560.008 262.665L559.969 262.773L559.773 263.33L559.717 263.486C554.064 261.664 548.415 259.826 542.768 257.971C541.007 261.354 539.422 264.825 538.018 268.371C537.584 268.262 537.197 268.167 536.784 268.071L536.414 267.984L536.197 267.936H536.119H536.058L535.923 267.906L535.554 267.828H535.472C535.28 267.789 535.085 267.745 534.889 267.71L534.455 267.619L534.32 267.593H534.242L534.137 267.571L533.968 267.536H533.855C533.572 267.48 533.29 267.423 533.012 267.376L532.108 267.211L531.204 267.054H531.13C532.597 263.237 534.268 259.501 536.136 255.864C532.842 254.774 529.551 253.673 526.263 252.561C524.191 256.881 522.07 261.165 519.9 265.416C518.705 265.246 517.51 265.077 516.311 264.894H516.228L515.429 264.773H515.311L514.52 264.651L514.403 264.629L513.59 264.494H513.521L512.652 264.342C515.05 259.736 517.378 255.074 519.635 250.357C515.289 248.874 510.944 247.376 506.598 245.864C503.869 250.796 501.244 255.79 499.01 260.883L498.215 260.618L498.154 260.592L497.393 260.335L497.307 260.301L496.559 260.04L496.481 260.009L495.716 259.74C494.629 259.345 493.543 258.94 492.457 258.519C494.673 253.443 497.263 248.458 499.971 243.535C495.555 241.976 491.149 240.397 486.751 238.798C484.723 242.231 482.706 245.676 480.701 249.132C480.266 249.858 479.258 251.227 478.298 252.678L477.12 252.178L476.968 252.113L475.338 251.431L474.439 251.053L474.1 250.905L473.5 250.653L473 250.436L472.566 250.253L471.797 249.914C472.857 248.215 474.165 246.498 474.652 245.655C476.442 242.547 478.252 239.448 480.08 236.36C478.159 235.653 476.237 234.94 474.313 234.221C472.186 233.428 470.063 232.637 467.942 231.849L463.296 239.302C462.34 240.831 460.88 242.583 459.615 244.382L453.414 241.309C454.8 239.223 456.356 237.198 457.442 235.456C458.743 233.378 460.047 231.297 461.354 229.211C456.399 227.359 451.454 225.482 446.53 223.561C444.792 225.956 443.019 228.289 441.106 230.514C440.155 231.631 439.177 232.874 438.147 234.108L437.517 233.817L436.065 233.135L435.561 232.9L435.279 232.766L435.109 232.687L433.297 231.84L432.81 231.809H432.68L432.271 231.775H432.189L431.124 231.679C432.81 229.876 434.327 227.768 435.804 226.03C437.282 224.291 438.573 222.644 439.872 220.897L439.177 220.61C435.8 219.22 432.463 217.751 429.125 216.265C428.834 216.138 427.543 215.63 426.235 215.108C427.048 214.465 427.869 213.805 428.69 213.179L428.816 213.079L428.951 212.975L429.207 212.775L429.442 212.584L429.651 212.423L429.772 212.327L429.942 212.188L430.259 211.945L430.49 211.754L430.572 211.688L430.685 211.597L431.094 211.267L431.32 211.089L431.42 211.01L431.472 210.958L432.145 210.406L432.476 210.133C435.579 211.506 438.686 212.87 441.828 214.161C442.536 214.457 443.249 214.743 443.957 215.03C446.947 210.515 449.729 205.856 452.545 201.228C450.401 200.113 448.265 198.968 446.139 197.795C445.522 197.451 444.248 196.926 442.94 196.335L443.136 196L443.571 195.248L444.005 194.496L444.557 193.501L444.735 193.188L444.992 192.728L445.139 192.467L445.461 191.902L445.552 191.741L445.926 191.089L445.974 191.007L446.408 190.268C447.712 190.863 448.933 191.363 449.537 191.693C451.767 192.927 454.005 194.123 456.265 195.296V195.257C458.594 191.593 460.988 187.973 463.418 184.392C459.815 183.254 456.03 182.272 452.488 180.872C452.792 180.438 453.105 179.968 453.414 179.525L453.522 179.368L453.914 178.808L454.092 178.547L454.478 178L454.644 177.765C455.296 176.841 455.952 175.919 456.612 175.001C460.041 176.24 463.683 177.122 467.042 178.26L467.477 178.408C469.951 174.827 472.434 171.255 474.926 167.691L474.721 167.591C471.749 166.14 468.437 164.78 465.308 163.18L466.321 161.829C466.755 161.225 467.225 160.625 467.677 160.021L468.298 159.191L469.519 157.561C472.283 158.908 475.169 160.064 477.776 161.333C478.172 161.525 478.563 161.711 478.954 161.907C480.913 159.065 482.855 156.215 484.782 153.359C481.614 152.055 478.48 150.699 475.408 149.261C475.477 149.148 475.547 149.039 475.612 148.922L475.76 148.674L475.816 148.574L475.856 148.509L475.934 148.378L476.034 148.2L476.086 148.109L476.281 147.761L476.434 147.479L476.499 147.366L476.534 147.301L476.599 147.179L476.664 147.049L476.703 146.979L476.759 146.875L476.907 146.588C476.964 146.471 477.025 146.345 477.085 146.227L477.211 145.958L477.264 145.862V145.814L477.29 145.762L477.342 145.649L477.424 145.471L477.459 145.397C477.572 145.145 477.685 144.897 477.789 144.641L477.894 144.402L477.95 144.254L477.976 144.198C478.133 143.801 478.278 143.401 478.411 142.998C481.766 144.567 485.19 146.04 488.658 147.444C490.967 143.875 493.205 140.274 495.373 136.64ZM534.676 234.856C532.894 238.622 531.116 242.389 529.34 246.155C532.718 247.291 536.096 248.421 539.474 249.545C541.534 245.764 543.642 242.053 545.623 238.424C541.964 237.245 538.317 236.048 534.681 234.834L534.676 234.856ZM516.35 228.511C514.351 232.183 512.239 235.86 510.122 239.562C514.312 241.011 518.505 242.46 522.703 243.908C524.485 240.154 526.254 236.386 528.036 232.635C524.128 231.274 520.232 229.892 516.35 228.489V228.511ZM497.141 221.258L490.401 232.557C494.747 234.13 499.093 235.687 503.438 237.229C505.559 233.491 507.689 229.784 509.722 226.09C505.501 224.509 501.308 222.89 497.141 221.236V221.258ZM545.48 212.905C544.28 215.264 543.084 217.628 541.89 219.998C540.474 222.822 539.077 225.665 537.701 228.524C541.467 229.773 545.234 230.99 549 232.175C551.715 227.168 554.503 222.207 557.366 217.29C553.402 215.815 549.44 214.347 545.48 212.883V212.905ZM479.085 213.774C478.575 214.644 478.057 215.501 477.533 216.347L471.744 225.678L476.803 227.564C479.121 228.433 481.438 229.292 483.756 230.141L490.618 218.633C486.751 217.037 482.906 215.407 479.085 213.744V213.774ZM528.379 206.669C525.499 211.884 522.617 217.108 519.731 222.34C523.497 223.69 527.271 225.011 531.052 226.303C532.573 223.145 534.113 220.006 535.671 216.886C536.746 214.754 537.823 212.623 538.9 210.493C535.398 209.19 531.89 207.905 528.379 206.639V206.669ZM458.755 204.396C456.039 208.833 453.366 213.305 450.528 217.664C455.365 219.554 460.219 221.388 465.087 223.2C467.265 219.698 469.438 216.191 471.605 212.679C471.967 212.1 472.321 211.52 472.666 210.941L469.063 209.302C465.601 207.692 462.165 206.048 458.755 204.37V204.396ZM509.683 200.02C506.685 205.157 503.691 210.233 500.74 215.2C504.845 216.816 508.969 218.391 513.112 219.924C515.98 214.709 518.86 209.494 521.752 204.279C517.733 202.83 513.71 201.4 509.683 199.989V200.02ZM490.388 193.458C487.676 198.151 485.173 202.945 482.565 207.686C486.433 209.363 490.317 210.996 494.217 212.584C497.114 207.71 500.039 202.752 502.991 197.708C501.253 197.111 499.514 196.52 497.776 195.935L490.388 193.458ZM552.099 199.998C550.954 202.215 549.813 204.438 548.674 206.669C552.765 208.178 556.853 209.689 560.938 211.202C562.294 208.91 563.66 206.625 565.036 204.348C560.699 202.934 556.382 201.474 552.086 199.968L552.099 199.998ZM470.241 186.678C467.599 190.589 464.991 194.501 462.466 198.455C465.615 200.005 468.788 201.512 471.983 202.975C473.374 203.614 474.778 204.248 476.168 204.874C478.698 200.324 481.11 195.717 483.674 191.194L470.241 186.678ZM535.428 193.888C534.229 196.093 533.025 198.295 531.817 200.494C535.25 201.736 538.682 202.988 542.112 204.248L545.502 197.638C542.109 196.393 538.741 195.132 535.398 193.857L535.428 193.888ZM562.211 180.39C559.925 184.843 557.634 189.296 555.336 193.749C559.795 195.302 564.271 196.797 568.765 198.234C571.494 193.755 574.239 189.286 577 184.827C572.04 183.37 567.1 181.88 562.181 180.359L562.211 180.39ZM517.389 186.722C516.024 189.121 514.652 191.511 513.273 193.892C517.251 195.28 521.223 196.684 525.189 198.103C526.423 195.858 527.656 193.607 528.888 191.35C525.017 189.82 521.174 188.267 517.358 186.691L517.389 186.722ZM499.171 178.969C497.432 181.815 495.729 184.618 494.078 187.343L500.005 189.338C502.198 190.074 504.389 190.817 506.576 191.567C508.025 189.064 509.473 186.549 510.922 184.023C507.848 182.728 504.786 181.415 501.735 180.086L499.171 178.969ZM545.462 174.984C543.266 179.248 541.034 183.491 538.766 187.713C542.068 188.964 545.384 190.193 548.713 191.398C550.97 187.023 553.224 182.647 555.475 178.269C552.109 177.177 548.761 176.072 545.432 174.953L545.462 174.984ZM527.453 168.66C525.289 172.641 523.086 176.626 520.843 180.616C524.61 182.169 528.404 183.691 532.225 185.183C534.45 181.04 536.645 176.883 538.809 172.711C535.967 171.716 533.133 170.716 530.309 169.669C529.341 169.318 528.379 168.972 527.423 168.63L527.453 168.66ZM481.283 170.738C478.966 174.061 476.657 177.385 474.356 180.711L487.315 185.057C489.08 182.145 490.905 179.143 492.769 176.087C488.902 174.32 485.063 172.527 481.253 170.707L481.283 170.738ZM509.218 162.359C507.089 165.918 504.946 169.464 502.817 172.967L504.503 173.702C507.78 175.127 511.07 176.535 514.373 177.926C516.545 174.061 518.688 170.195 520.8 166.327C516.947 164.985 513.076 163.653 509.188 162.329L509.218 162.359ZM491.4 155.966C489.393 158.979 487.365 161.972 485.316 164.945C489.005 166.683 492.709 168.404 496.429 170.108C498.445 166.783 500.483 163.406 502.513 160.025C498.754 158.682 495.042 157.34 491.37 155.936L491.4 155.966ZM481.27 130.13H481.436H481.553H481.662H481.714L481.835 130.152L481.944 130.178H481.996H482.066H482.122L482.227 130.213H482.283L482.348 130.235L482.409 130.261L482.509 130.3L482.57 130.33L482.626 130.352L482.7 130.391L482.883 130.478C483.287 130.69 483.676 130.93 484.047 131.195L480.966 130H481.227L481.27 130.13Z" fill="#42774D"/>
<path fill-rule="evenodd" clip-rule="evenodd" d="M463.001 223.926C461.519 225.199 463.535 237.706 465.247 239.471C467.642 241.931 557.34 246.32 558.135 244.942C559.23 243.026 562.146 230.888 560.712 228.971C560.051 228.102 533.746 227.407 509.97 226.212C486.633 225.06 463.7 223.344 463.001 223.926Z" fill="#F5E0BC"/>
<path fill-rule="evenodd" clip-rule="evenodd" d="M557.276 230.818C541.283 232.409 465.849 227.976 463.841 225.494C461.485 222.583 461.042 209.893 465.266 209.128C468.773 208.494 549.397 211.514 559.792 215.938C565.837 218.515 562.282 230.318 557.276 230.818Z" fill="white"/>
<path fill-rule="evenodd" clip-rule="evenodd" d="M461.273 209.864C461.208 210.177 459.279 195.653 460.465 194.862C466.062 191.125 544.187 156.893 549.502 159.013C553.935 160.778 565.147 199.377 565.425 202.472C565.638 204.94 567.063 213.892 563.487 216.6C560.188 219.09 469.383 209.968 461.273 209.864Z" fill="#F5E0BC"/>
<path d="M462.508 196.162C468.379 196.24 545.057 201.812 562.675 202.585" stroke="#614731" stroke-width="2.17291" stroke-linecap="round" stroke-linejoin="round"/>
<path fill-rule="evenodd" clip-rule="evenodd" d="M472.794 211.233C467.775 211.359 462.199 219.968 464.185 222.498C465.187 223.664 466.443 224.586 467.856 225.193C469.269 225.8 470.802 226.076 472.338 226C475.137 226.129 477.874 225.15 479.956 223.275C481.781 221.233 476.805 211.137 472.794 211.233Z" fill="#D26938"/>
<path fill-rule="evenodd" clip-rule="evenodd" d="M472.265 224.883C470.909 225.096 470.227 222.823 470.022 222.019C469.658 220.075 469.846 218.068 470.566 216.226C470.787 215.387 471.194 214.609 471.756 213.949C472.982 212.697 473.786 214.244 474.029 215.37C474.337 217.124 474.483 218.904 474.464 220.685C474.525 222.475 473.612 224.674 472.265 224.883Z" fill="#94627F"/>
<path fill-rule="evenodd" clip-rule="evenodd" d="M470.143 216.391C470.096 216.648 469.739 216.513 469.735 216.513C469.545 216.424 469.363 216.318 469.192 216.196C468.781 215.933 468.421 215.599 468.127 215.209C468.031 215.066 467.853 214.775 467.997 214.614C468.14 214.453 468.618 214.583 468.809 214.683C469.318 214.935 470.239 215.848 470.143 216.391Z" fill="#94627F"/>
<path fill-rule="evenodd" clip-rule="evenodd" d="M475.051 216.972C475.095 217.233 475.451 217.098 475.455 217.098C475.645 217.008 475.827 216.901 475.999 216.781C476.407 216.515 476.768 216.182 477.064 215.794C477.163 215.651 477.337 215.36 477.198 215.199C477.059 215.038 476.572 215.168 476.381 215.264C475.877 215.534 474.951 216.446 475.051 216.972Z" fill="#94627F"/>
<path fill-rule="evenodd" clip-rule="evenodd" d="M470.847 214.423C470.751 214.579 470.503 214.397 470.503 214.392C470.377 214.286 470.261 214.168 470.156 214.04C469.905 213.766 469.703 213.449 469.56 213.106C469.517 212.984 469.443 212.75 469.595 212.671C469.747 212.593 470.086 212.819 470.212 212.936C470.547 213.241 471.047 214.092 470.847 214.423Z" fill="#94627F"/>
<path fill-rule="evenodd" clip-rule="evenodd" d="M474.349 215.017C474.445 215.173 474.692 214.991 474.697 214.991C474.821 214.883 474.936 214.766 475.04 214.639C475.29 214.364 475.491 214.048 475.635 213.705C475.683 213.583 475.753 213.348 475.6 213.27C475.448 213.192 475.109 213.418 474.983 213.531C474.649 213.839 474.149 214.687 474.349 215.017Z" fill="#94627F"/>
<path fill-rule="evenodd" clip-rule="evenodd" d="M469.14 218.086C469.14 218.347 468.779 218.308 468.775 218.308C468.568 218.268 468.366 218.209 468.171 218.134C467.708 217.976 467.275 217.739 466.893 217.434C466.758 217.321 466.515 217.086 466.61 216.886C466.706 216.687 467.206 216.708 467.419 216.756C467.971 216.878 469.096 217.543 469.14 218.086Z" fill="#94627F"/>
<path fill-rule="evenodd" clip-rule="evenodd" d="M476.06 218.687C476.06 218.948 476.421 218.909 476.425 218.909C476.631 218.867 476.833 218.807 477.029 218.731C477.493 218.576 477.925 218.341 478.307 218.036C478.441 217.918 478.68 217.688 478.589 217.488C478.498 217.288 477.99 217.31 477.781 217.358C477.225 217.479 476.103 218.14 476.06 218.687Z" fill="#94627F"/>
<path fill-rule="evenodd" clip-rule="evenodd" d="M469.107 220.285C469.172 220.537 468.794 220.563 468.789 220.568C468.579 220.562 468.37 220.539 468.164 220.498C467.678 220.427 467.209 220.272 466.777 220.038C466.625 219.951 466.343 219.764 466.404 219.551C466.465 219.338 466.956 219.268 467.173 219.277C467.755 219.303 468.968 219.755 469.107 220.285Z" fill="#94627F"/>
<path fill-rule="evenodd" clip-rule="evenodd" d="M476.084 220.885C476.019 221.137 476.401 221.163 476.401 221.163C476.613 221.159 476.824 221.137 477.031 221.098C477.515 221.024 477.982 220.868 478.413 220.637C478.565 220.546 478.848 220.359 478.791 220.146C478.735 219.933 478.235 219.863 478.022 219.877C477.453 219.898 476.227 220.355 476.084 220.885Z" fill="#94627F"/>
<path fill-rule="evenodd" clip-rule="evenodd" d="M469.467 222.468C469.58 222.703 469.21 222.798 469.206 222.803C468.999 222.836 468.79 222.852 468.58 222.85C468.09 222.865 467.601 222.797 467.133 222.65C466.964 222.585 466.655 222.455 466.673 222.216C466.69 221.977 467.159 221.838 467.377 221.807C467.937 221.755 469.228 221.973 469.467 222.468Z" fill="#94627F"/>
<path fill-rule="evenodd" clip-rule="evenodd" d="M475.733 223.058C475.616 223.297 475.985 223.393 475.99 223.393C476.198 223.426 476.409 223.442 476.62 223.441C477.11 223.46 477.6 223.392 478.067 223.241C478.232 223.18 478.545 223.05 478.528 222.806C478.51 222.563 478.036 222.428 477.824 222.402C477.259 222.346 475.968 222.567 475.733 223.058Z" fill="#94627F"/>
<path fill-rule="evenodd" clip-rule="evenodd" d="M520.546 229.937C525.565 229.811 531.137 221.202 529.155 218.673C528.153 217.507 526.897 216.585 525.484 215.978C524.071 215.371 522.538 215.095 521.002 215.17C518.203 215.042 515.465 216.023 513.384 217.9C511.554 219.938 516.535 230.011 520.546 229.937Z" fill="#D26938"/>
<path fill-rule="evenodd" clip-rule="evenodd" d="M521.075 216.287C522.431 216.078 523.113 218.347 523.317 219.151C523.68 221.095 523.492 223.101 522.774 224.944C522.551 225.782 522.144 226.56 521.583 227.221C520.354 228.473 519.55 226.925 519.311 225.8C519.001 224.046 518.855 222.266 518.876 220.485C518.815 218.712 519.723 216.496 521.075 216.287Z" fill="#94627F"/>
<path fill-rule="evenodd" clip-rule="evenodd" d="M523.198 224.796C523.246 224.539 523.602 224.674 523.606 224.674C523.795 224.764 523.975 224.87 524.145 224.991C524.557 225.253 524.918 225.587 525.21 225.978C525.31 226.121 525.488 226.412 525.345 226.573C525.201 226.734 524.723 226.604 524.532 226.504C524.024 226.234 523.102 225.322 523.198 224.796Z" fill="#94627F"/>
<path fill-rule="evenodd" clip-rule="evenodd" d="M518.287 224.184C518.244 223.924 517.883 224.058 517.879 224.058C517.69 224.149 517.51 224.255 517.34 224.375C516.931 224.641 516.571 224.975 516.275 225.362C516.175 225.505 515.997 225.797 516.14 225.957C516.284 226.118 516.762 225.988 516.953 225.892C517.461 225.64 518.383 224.723 518.287 224.184Z" fill="#94627F"/>
<path fill-rule="evenodd" clip-rule="evenodd" d="M522.512 226.748C522.608 226.591 522.851 226.774 522.856 226.778C522.981 226.886 523.097 227.003 523.203 227.13C523.453 227.406 523.655 227.722 523.799 228.065C523.842 228.186 523.912 228.421 523.764 228.499C523.616 228.577 523.273 228.351 523.147 228.234C522.795 227.93 522.291 227.078 522.512 226.748Z" fill="#94627F"/>
<path fill-rule="evenodd" clip-rule="evenodd" d="M518.992 226.152C518.896 225.996 518.648 226.178 518.644 226.178C518.521 226.29 518.404 226.409 518.296 226.535C518.044 226.809 517.843 227.125 517.701 227.469C517.657 227.591 517.588 227.821 517.736 227.904C517.883 227.986 518.227 227.76 518.353 227.643C518.687 227.33 519.192 226.483 518.992 226.152Z" fill="#94627F"/>
<path fill-rule="evenodd" clip-rule="evenodd" d="M524.202 223.084C524.181 222.823 524.563 222.862 524.568 222.862C524.774 222.905 524.976 222.964 525.172 223.041C525.635 223.195 526.068 223.431 526.449 223.736C526.584 223.849 526.823 224.084 526.732 224.284C526.64 224.483 526.136 224.462 525.923 224.414C525.367 224.292 524.25 223.632 524.202 223.084Z" fill="#94627F"/>
<path fill-rule="evenodd" clip-rule="evenodd" d="M517.297 222.485C517.297 222.224 516.936 222.267 516.932 222.263C516.726 222.307 516.524 222.366 516.328 222.441C515.864 222.596 515.432 222.831 515.05 223.136C514.915 223.254 514.672 223.484 514.768 223.684C514.863 223.884 515.363 223.867 515.576 223.814C516.115 223.693 517.24 223.032 517.297 222.485Z" fill="#94627F"/>
<path fill-rule="evenodd" clip-rule="evenodd" d="M524.25 220.885C524.18 220.633 524.562 220.607 524.567 220.603C524.777 220.608 524.986 220.632 525.193 220.672C525.678 220.744 526.147 220.9 526.579 221.133C526.727 221.22 527.013 221.406 526.953 221.619C526.892 221.832 526.401 221.902 526.183 221.893C525.597 221.867 524.371 221.415 524.25 220.885Z" fill="#94627F"/>
<path fill-rule="evenodd" clip-rule="evenodd" d="M517.254 220.284C517.324 220.032 516.941 220.006 516.937 220.006C516.727 220.01 516.518 220.032 516.311 220.071C515.826 220.145 515.357 220.3 514.925 220.532C514.773 220.623 514.49 220.81 514.551 221.023C514.612 221.236 515.103 221.305 515.32 221.292C515.89 221.27 517.115 220.819 517.254 220.284Z" fill="#94627F"/>
<path fill-rule="evenodd" clip-rule="evenodd" d="M523.877 218.713C523.764 218.478 524.133 218.382 524.133 218.378C524.342 218.345 524.552 218.329 524.763 218.33C525.254 218.315 525.743 218.384 526.211 218.534C526.376 218.595 526.689 218.726 526.671 218.943C526.654 219.16 526.18 219.321 525.967 219.351C525.402 219.421 524.116 219.199 523.877 218.713Z" fill="#94627F"/>
<path fill-rule="evenodd" clip-rule="evenodd" d="M517.61 218.109C517.723 217.87 517.354 217.775 517.35 217.775C517.143 217.741 516.933 217.725 516.724 217.727C516.233 217.708 515.744 217.776 515.277 217.927C515.112 217.987 514.799 218.118 514.816 218.361C514.833 218.605 515.307 218.739 515.52 218.765C516.085 218.826 517.371 218.605 517.61 218.109Z" fill="#94627F"/>
<path fill-rule="evenodd" clip-rule="evenodd" d="M551.629 231.589C556.648 231.467 562.224 222.854 560.242 220.329C559.239 219.163 557.983 218.242 556.571 217.634C555.158 217.026 553.625 216.749 552.089 216.822C549.29 216.693 546.552 217.674 544.471 219.551C542.659 221.594 547.639 231.689 551.629 231.589Z" fill="#D26938"/>
<path fill-rule="evenodd" clip-rule="evenodd" d="M552.177 217.943C553.533 217.73 554.215 220.003 554.42 220.807C554.783 222.75 554.597 224.757 553.881 226.6C553.657 227.438 553.251 228.215 552.69 228.877C551.46 230.128 550.656 228.577 550.413 227.456C550.103 225.7 549.957 223.919 549.978 222.136C549.917 220.35 550.83 218.151 552.177 217.943Z" fill="#94627F"/>
<path fill-rule="evenodd" clip-rule="evenodd" d="M554.3 226.436C554.348 226.18 554.704 226.311 554.708 226.311C554.898 226.401 555.08 226.507 555.252 226.628C555.66 226.893 556.02 227.227 556.316 227.614C556.416 227.758 556.59 228.049 556.451 228.214C556.312 228.379 555.825 228.244 555.634 228.144C555.108 227.892 554.204 226.971 554.3 226.436Z" fill="#94627F"/>
<path fill-rule="evenodd" clip-rule="evenodd" d="M549.391 225.835C549.344 225.578 548.987 225.713 548.983 225.713C548.793 225.804 548.612 225.91 548.44 226.03C548.029 226.293 547.669 226.627 547.375 227.017C547.275 227.16 547.101 227.451 547.24 227.612C547.379 227.773 547.866 227.643 548.057 227.547C548.588 227.291 549.487 226.378 549.391 225.835Z" fill="#94627F"/>
<path fill-rule="evenodd" clip-rule="evenodd" d="M553.592 228.403C553.687 228.247 553.935 228.429 553.939 228.429C554.063 228.539 554.177 228.658 554.283 228.786C554.535 229.06 554.738 229.376 554.882 229.72C554.926 229.842 554.995 230.076 554.843 230.155C554.691 230.233 554.352 230.007 554.226 229.889C553.891 229.577 553.392 228.733 553.592 228.403Z" fill="#94627F"/>
<path fill-rule="evenodd" clip-rule="evenodd" d="M550.089 227.804C549.994 227.647 549.746 227.834 549.746 227.834C549.62 227.94 549.503 228.058 549.399 228.186C549.148 228.461 548.947 228.777 548.803 229.12C548.76 229.242 548.686 229.477 548.838 229.555C548.99 229.633 549.329 229.407 549.455 229.294C549.79 228.986 550.294 228.134 550.089 227.804Z" fill="#94627F"/>
<path fill-rule="evenodd" clip-rule="evenodd" d="M555.305 224.736C555.283 224.48 555.661 224.519 555.665 224.519C555.871 224.559 556.074 224.617 556.269 224.693C556.741 224.85 557.182 225.086 557.573 225.392C557.704 225.505 557.947 225.74 557.851 225.935C557.756 226.131 557.256 226.118 557.047 226.07C556.469 225.948 555.344 225.284 555.305 224.736Z" fill="#94627F"/>
<path fill-rule="evenodd" clip-rule="evenodd" d="M548.383 224.142C548.405 223.881 548.022 223.92 548.022 223.92C547.815 223.962 547.611 224.021 547.414 224.098C546.951 224.254 546.518 224.489 546.136 224.794C546.006 224.911 545.762 225.141 545.858 225.341C545.954 225.541 546.453 225.519 546.662 225.471C547.218 225.35 548.339 224.689 548.383 224.142Z" fill="#94627F"/>
<path fill-rule="evenodd" clip-rule="evenodd" d="M555.332 222.54C555.267 222.284 555.645 222.258 555.65 222.258C555.86 222.261 556.069 222.285 556.275 222.327C556.762 222.396 557.231 222.552 557.662 222.788C557.814 222.875 558.096 223.062 558.035 223.275C557.975 223.488 557.484 223.557 557.266 223.544C556.701 223.522 555.476 223.057 555.332 222.54Z" fill="#94627F"/>
<path fill-rule="evenodd" clip-rule="evenodd" d="M548.355 221.942C548.42 221.69 548.038 221.664 548.038 221.664C547.826 221.668 547.615 221.69 547.407 221.729C546.924 221.803 546.456 221.959 546.025 222.19C545.873 222.281 545.591 222.464 545.647 222.677C545.704 222.89 546.204 222.959 546.417 222.95C546.986 222.929 548.211 222.472 548.355 221.942Z" fill="#94627F"/>
<path fill-rule="evenodd" clip-rule="evenodd" d="M554.976 220.359C554.863 220.12 555.233 220.029 555.237 220.025C555.445 219.992 555.656 219.976 555.867 219.977C556.357 219.96 556.847 220.028 557.314 220.177C557.48 220.238 557.788 220.368 557.775 220.612C557.762 220.855 557.284 220.99 557.067 221.02C556.506 221.077 555.215 220.855 554.976 220.359Z" fill="#94627F"/>
<path fill-rule="evenodd" clip-rule="evenodd" d="M548.715 219.759C548.828 219.524 548.458 219.429 548.454 219.429C548.246 219.393 548.035 219.377 547.824 219.381C547.334 219.362 546.844 219.43 546.377 219.581C546.212 219.642 545.903 219.772 545.916 220.016C545.929 220.259 546.407 220.394 546.624 220.42C547.185 220.48 548.476 220.255 548.715 219.759Z" fill="#94627F"/>
<path fill-rule="evenodd" clip-rule="evenodd" d="M488.259 227.586C493.27 227.304 498.563 218.525 496.516 216.057C495.476 214.925 494.193 214.044 492.762 213.482C491.332 212.92 489.792 212.69 488.259 212.81C485.458 212.773 482.754 213.839 480.732 215.779C478.951 217.878 484.27 227.812 488.259 227.586Z" fill="#D26938"/>
<path fill-rule="evenodd" clip-rule="evenodd" d="M488.345 213.933C489.692 213.681 490.448 215.932 490.679 216.727C491.106 218.657 490.984 220.669 490.327 222.533C490.129 223.378 489.747 224.168 489.21 224.849C488.019 226.153 487.167 224.615 486.889 223.498C486.522 221.753 486.316 219.978 486.276 218.196C486.163 216.41 487.002 214.18 488.345 213.933Z" fill="#94627F"/>
<path fill-rule="evenodd" clip-rule="evenodd" d="M490.742 222.35C490.781 222.094 491.142 222.215 491.146 222.215C491.339 222.298 491.524 222.398 491.698 222.515C492.118 222.764 492.489 223.086 492.793 223.467C492.898 223.606 493.085 223.902 492.946 224.058C492.806 224.214 492.328 224.11 492.133 224.019C491.616 223.78 490.664 222.893 490.742 222.35Z" fill="#94627F"/>
<path fill-rule="evenodd" clip-rule="evenodd" d="M485.817 221.906C485.761 221.65 485.409 221.793 485.383 221.793C484.769 222.126 484.236 222.589 483.818 223.149C483.727 223.297 483.558 223.583 483.705 223.749C483.853 223.914 484.327 223.749 484.518 223.657C485.04 223.388 485.93 222.445 485.817 221.906Z" fill="#94627F"/>
<path fill-rule="evenodd" clip-rule="evenodd" d="M490.102 224.362C490.194 224.202 490.446 224.362 490.446 224.362C490.574 224.468 490.695 224.583 490.806 224.706C491.066 224.974 491.277 225.284 491.432 225.623C491.48 225.74 491.558 225.97 491.41 226.057C491.263 226.144 490.915 225.927 490.785 225.814C490.441 225.51 489.92 224.68 490.102 224.362Z" fill="#94627F"/>
<path fill-rule="evenodd" clip-rule="evenodd" d="M486.581 223.854C486.481 223.702 486.238 223.889 486.233 223.894C486.113 224.007 486.001 224.129 485.899 224.259C485.656 224.541 485.465 224.863 485.334 225.21C485.294 225.332 485.229 225.567 485.386 225.645C485.542 225.723 485.868 225.484 485.994 225.362C486.316 225.041 486.794 224.176 486.581 223.854Z" fill="#94627F"/>
<path fill-rule="evenodd" clip-rule="evenodd" d="M491.691 220.623C491.66 220.363 492.043 220.393 492.047 220.389C492.254 220.425 492.457 220.478 492.656 220.545C493.125 220.688 493.567 220.911 493.959 221.206C494.098 221.314 494.346 221.536 494.259 221.74C494.172 221.944 493.668 221.94 493.455 221.897C492.895 221.792 491.752 221.167 491.691 220.623Z" fill="#94627F"/>
<path fill-rule="evenodd" clip-rule="evenodd" d="M484.759 220.24C484.759 219.979 484.389 220.032 484.385 220.032C484.181 220.08 483.982 220.145 483.79 220.227C483.332 220.399 482.907 220.647 482.534 220.962C482.403 221.083 482.169 221.322 482.269 221.518C482.369 221.713 482.873 221.679 483.081 221.626C483.629 221.483 484.733 220.788 484.759 220.24Z" fill="#94627F"/>
<path fill-rule="evenodd" clip-rule="evenodd" d="M491.657 218.424C491.584 218.172 491.962 218.133 491.966 218.133C492.176 218.13 492.385 218.146 492.592 218.181C493.08 218.244 493.553 218.391 493.991 218.616C494.148 218.698 494.426 218.876 494.382 219.089C494.339 219.302 493.839 219.389 493.622 219.385C493.044 219.363 491.805 218.95 491.657 218.424Z" fill="#94627F"/>
<path fill-rule="evenodd" clip-rule="evenodd" d="M484.654 218.048C484.711 217.791 484.329 217.778 484.329 217.778C484.118 217.788 483.908 217.817 483.703 217.865C483.22 217.951 482.757 218.121 482.334 218.369C482.186 218.461 481.899 218.656 481.973 218.865C482.047 219.073 482.538 219.13 482.751 219.112C483.32 219.073 484.528 218.582 484.654 218.048Z" fill="#94627F"/>
<path fill-rule="evenodd" clip-rule="evenodd" d="M491.223 216.257C491.102 216.022 491.467 215.918 491.471 215.914C491.678 215.874 491.887 215.853 492.097 215.848C492.586 215.816 493.077 215.867 493.548 216C493.718 216.057 494.035 216.179 494.022 216.4C494.009 216.622 493.544 216.791 493.331 216.835C492.77 216.926 491.476 216.744 491.223 216.257Z" fill="#94627F"/>
<path fill-rule="evenodd" clip-rule="evenodd" d="M484.937 215.857C485.046 215.618 484.672 215.531 484.668 215.531C484.459 215.503 484.248 215.493 484.038 215.5C483.547 215.5 483.061 215.583 482.599 215.748C482.434 215.813 482.13 215.957 482.165 216.183C482.199 216.409 482.669 216.543 482.882 216.569C483.434 216.622 484.703 216.356 484.937 215.857Z" fill="#94627F"/>
<path fill-rule="evenodd" clip-rule="evenodd" d="M504.963 214.141C499.952 214.423 494.659 223.206 496.706 225.67C497.745 226.803 499.029 227.684 500.46 228.247C501.891 228.809 503.431 229.038 504.963 228.917C507.765 228.958 510.471 227.891 512.49 225.949C514.255 223.854 508.97 213.932 504.963 214.141Z" fill="#D26938"/>
<path fill-rule="evenodd" clip-rule="evenodd" d="M504.881 227.801C503.529 228.053 502.773 225.806 502.543 225.006C502.119 223.076 502.243 221.065 502.899 219.2C503.095 218.356 503.476 217.566 504.016 216.888C505.203 215.585 506.054 217.123 506.332 218.236C506.703 219.98 506.91 221.755 506.95 223.538C507.058 225.324 506.22 227.549 504.881 227.801Z" fill="#94627F"/>
<path fill-rule="evenodd" clip-rule="evenodd" d="M502.48 219.378C502.441 219.634 502.08 219.517 502.076 219.517C501.885 219.43 501.701 219.33 501.524 219.217C501.106 218.965 500.735 218.641 500.429 218.261C500.324 218.122 500.142 217.826 500.276 217.67C500.411 217.513 500.898 217.622 501.094 217.713C501.606 217.948 502.558 218.835 502.48 219.378Z" fill="#94627F"/>
<path fill-rule="evenodd" clip-rule="evenodd" d="M507.408 219.822C507.46 220.078 507.817 219.935 507.817 219.935C508.004 219.84 508.183 219.728 508.351 219.6C508.751 219.323 509.1 218.977 509.381 218.579C509.477 218.436 509.642 218.145 509.498 217.979C509.355 217.814 508.873 217.979 508.686 218.075C508.169 218.34 507.3 219.288 507.408 219.822Z" fill="#94627F"/>
<path fill-rule="evenodd" clip-rule="evenodd" d="M503.123 217.388C503.031 217.549 502.779 217.388 502.775 217.388C502.646 217.285 502.527 217.17 502.419 217.044C502.157 216.78 501.945 216.471 501.793 216.132C501.745 216.01 501.667 215.78 501.815 215.697C501.962 215.615 502.31 215.828 502.44 215.941C502.784 216.219 503.314 217.053 503.123 217.388Z" fill="#94627F"/>
<path fill-rule="evenodd" clip-rule="evenodd" d="M506.647 217.874C506.747 218.031 506.986 217.84 506.99 217.84C507.377 217.472 507.683 217.028 507.89 216.536C507.929 216.414 507.994 216.18 507.842 216.101C507.69 216.023 507.355 216.262 507.233 216.384C506.907 216.688 506.434 217.553 506.647 217.874Z" fill="#94627F"/>
<path fill-rule="evenodd" clip-rule="evenodd" d="M501.533 221.107C501.559 221.364 501.181 221.338 501.177 221.338C500.97 221.303 500.766 221.251 500.568 221.181C500.099 221.04 499.658 220.818 499.264 220.525C499.13 220.412 498.878 220.191 498.969 219.986C499.06 219.782 499.556 219.786 499.768 219.83C500.346 219.934 501.472 220.56 501.533 221.107Z" fill="#94627F"/>
<path fill-rule="evenodd" clip-rule="evenodd" d="M508.472 221.487C508.472 221.748 508.837 221.695 508.841 221.695C509.046 221.648 509.247 221.583 509.441 221.5C509.899 221.331 510.324 221.082 510.697 220.765C510.823 220.644 511.057 220.405 510.957 220.209C510.857 220.014 510.358 220.048 510.149 220.105C509.597 220.244 508.498 220.939 508.472 221.487Z" fill="#94627F"/>
<path fill-rule="evenodd" clip-rule="evenodd" d="M501.58 223.302C501.654 223.554 501.276 223.594 501.272 223.594C501.061 223.597 500.85 223.581 500.642 223.546C500.153 223.483 499.68 223.336 499.242 223.111C499.09 223.029 498.808 222.85 498.851 222.638C498.895 222.425 499.394 222.338 499.612 222.342C500.181 222.364 501.419 222.777 501.58 223.302Z" fill="#94627F"/>
<path fill-rule="evenodd" clip-rule="evenodd" d="M508.571 223.681C508.511 223.937 508.893 223.95 508.897 223.955C509.597 223.903 510.277 223.702 510.892 223.364C511.04 223.268 511.327 223.073 511.248 222.864C511.17 222.655 510.688 222.599 510.47 222.616C509.91 222.655 508.693 223.146 508.571 223.681Z" fill="#94627F"/>
<path fill-rule="evenodd" clip-rule="evenodd" d="M502.001 225.471C502.122 225.706 501.753 225.81 501.753 225.815C501.545 225.855 501.335 225.878 501.123 225.884C500.634 225.915 500.143 225.862 499.672 225.728C499.502 225.671 499.189 225.55 499.198 225.328C499.206 225.106 499.676 224.937 499.889 224.893C500.449 224.798 501.744 224.985 502.001 225.471Z" fill="#94627F"/>
<path fill-rule="evenodd" clip-rule="evenodd" d="M508.282 225.875C508.178 226.115 508.547 226.197 508.551 226.197C508.76 226.227 508.971 226.237 509.181 226.228C509.673 226.228 510.161 226.145 510.624 225.98C510.785 225.915 511.094 225.776 511.059 225.545C511.024 225.315 510.559 225.185 510.342 225.163C509.785 225.106 508.503 225.371 508.282 225.875Z" fill="#94627F"/>
<path fill-rule="evenodd" clip-rule="evenodd" d="M536.957 216.182C531.946 216.465 526.653 225.248 528.7 227.712C529.738 228.845 531.022 229.727 532.453 230.29C533.884 230.852 535.424 231.081 536.957 230.958C539.759 231 542.464 229.933 544.484 227.99C546.27 225.895 540.963 215.961 536.957 216.182Z" fill="#D26938"/>
<path fill-rule="evenodd" clip-rule="evenodd" d="M536.876 229.842C535.525 230.094 534.768 227.847 534.538 227.047C534.114 225.118 534.238 223.109 534.894 221.246C535.089 220.4 535.47 219.608 536.011 218.929C537.198 217.626 538.049 219.164 538.328 220.277C538.699 222.021 538.905 223.796 538.945 225.579C539.053 227.365 538.215 229.577 536.876 229.842Z" fill="#94627F"/>
<path fill-rule="evenodd" clip-rule="evenodd" d="M534.476 221.421C534.437 221.682 534.076 221.56 534.072 221.56C533.88 221.475 533.696 221.374 533.52 221.26C533.103 221.008 532.733 220.686 532.425 220.308C532.32 220.165 532.138 219.874 532.273 219.713C532.407 219.552 532.894 219.665 533.09 219.756C533.602 220.017 534.554 220.886 534.476 221.421Z" fill="#94627F"/>
<path fill-rule="evenodd" clip-rule="evenodd" d="M539.402 221.863C539.454 222.119 539.811 221.976 539.811 221.976C539.998 221.881 540.177 221.769 540.345 221.641C540.745 221.365 541.094 221.021 541.375 220.625C541.471 220.477 541.636 220.19 541.488 220.02C541.34 219.851 540.866 220.02 540.68 220.116C540.18 220.386 539.289 221.32 539.402 221.863Z" fill="#94627F"/>
<path fill-rule="evenodd" clip-rule="evenodd" d="M535.114 219.429C535.023 219.59 534.771 219.429 534.766 219.429C534.639 219.324 534.52 219.209 534.41 219.086C534.148 218.82 533.936 218.51 533.784 218.169C533.737 218.047 533.658 217.817 533.806 217.734C533.954 217.652 534.301 217.865 534.427 217.978C534.779 218.278 535.31 219.095 535.114 219.429Z" fill="#94627F"/>
<path fill-rule="evenodd" clip-rule="evenodd" d="M538.64 219.921C538.74 220.073 538.979 219.882 538.983 219.882C539.105 219.77 539.217 219.648 539.318 219.517C539.559 219.234 539.75 218.912 539.883 218.565C539.922 218.443 539.987 218.204 539.835 218.13C539.683 218.056 539.348 218.291 539.226 218.413C538.901 218.713 538.427 219.582 538.64 219.921Z" fill="#94627F"/>
<path fill-rule="evenodd" clip-rule="evenodd" d="M533.528 223.15C533.554 223.41 533.176 223.38 533.172 223.38C532.965 223.345 532.761 223.293 532.563 223.223C532.094 223.082 531.653 222.86 531.259 222.567C531.125 222.459 530.873 222.233 530.964 222.028C531.055 221.824 531.551 221.833 531.764 221.872C532.324 221.976 533.467 222.624 533.528 223.15Z" fill="#94627F"/>
<path fill-rule="evenodd" clip-rule="evenodd" d="M540.464 223.53C540.464 223.791 540.829 223.735 540.833 223.739C541.038 223.692 541.239 223.626 541.433 223.544C541.891 223.371 542.316 223.121 542.689 222.805C542.815 222.687 543.049 222.448 542.949 222.253C542.85 222.057 542.35 222.088 542.141 222.144C541.589 222.283 540.49 222.983 540.464 223.53Z" fill="#94627F"/>
<path fill-rule="evenodd" clip-rule="evenodd" d="M533.571 225.348C533.645 225.595 533.267 225.635 533.263 225.639C533.052 225.638 532.841 225.622 532.633 225.591C532.145 225.529 531.671 225.382 531.233 225.157C531.081 225.07 530.799 224.896 530.842 224.679C530.886 224.461 531.386 224.379 531.603 224.383C532.172 224.405 533.411 224.822 533.571 225.348Z" fill="#94627F"/>
<path fill-rule="evenodd" clip-rule="evenodd" d="M540.563 225.726C540.502 225.979 540.884 225.996 540.889 225.996C541.098 225.987 541.306 225.958 541.51 225.909C541.993 225.821 542.458 225.65 542.883 225.405C543.031 225.309 543.318 225.118 543.24 224.905C543.161 224.692 542.679 224.64 542.462 224.657C541.897 224.697 540.684 225.192 540.563 225.726Z" fill="#94627F"/>
<path fill-rule="evenodd" clip-rule="evenodd" d="M533.998 227.518C534.12 227.748 533.75 227.857 533.75 227.857C533.543 227.899 533.332 227.923 533.12 227.926C532.631 227.959 532.14 227.906 531.669 227.77C531.499 227.713 531.186 227.591 531.195 227.374C531.204 227.157 531.673 226.979 531.886 226.94C532.446 226.844 533.741 227.026 533.998 227.518Z" fill="#94627F"/>
<path fill-rule="evenodd" clip-rule="evenodd" d="M540.278 227.916C540.174 228.155 540.543 228.238 540.547 228.242C540.756 228.268 540.967 228.277 541.177 228.268C541.669 228.269 542.157 228.185 542.62 228.02C542.781 227.955 543.09 227.816 543.055 227.586C543.02 227.355 542.555 227.221 542.338 227.199C541.782 227.147 540.5 227.403 540.278 227.916Z" fill="#94627F"/>
<path fill-rule="evenodd" clip-rule="evenodd" d="M628.406 233.348C624.291 232.374 625.221 222.296 625.764 219.876C628.506 207.708 637.932 195.896 645.898 186.648C647.463 184.822 654.642 175.966 657.91 178.43C659.974 179.986 658.405 184.079 657.806 185.918C655.46 192.696 652.765 199.348 649.731 205.848C645.112 216.373 641.157 226.086 636.198 236.355C632.822 243.348 622.883 272.899 618.037 279.713C612.948 286.867 601.362 277.693 605.095 271.148C609.928 262.669 623.348 241.574 628.406 233.348Z" fill="#614731"/>
<path fill-rule="evenodd" clip-rule="evenodd" d="M382.942 231.13C366.089 223.06 414.231 166.429 415.605 161.275C416.848 156.542 415.201 154.895 414.262 150.676C414.006 147.333 414.891 144.002 416.774 141.228C419.156 136.705 421.892 132.377 424.957 128.286C426.022 126.848 427.564 124.475 429.494 124.044C431.828 123.527 430.181 127.678 429.872 128.416C428.303 132.141 425.761 135.418 424.275 139.185C423.905 140.128 422.897 142.758 424.14 143.531C425.509 144.361 427.856 141.436 428.516 140.672C431.289 137.495 433.066 133.692 435.635 130.381C436.408 129.377 437.925 127.143 439.489 127.317C441.402 127.525 439.602 131.663 439.298 132.388C437.629 136.395 434.783 139.746 432.91 143.64C432.406 144.687 431.063 146.973 432.123 148.081C433.427 149.454 436.091 146.56 436.808 145.795C439.645 142.267 442.266 138.571 444.657 134.727C445.226 133.944 446.721 131.519 448.081 132.036C451.349 133.284 445.591 143.136 444.778 144.57C442.218 150.247 438.632 155.404 434.2 159.78C431.767 161.823 425.943 162.053 423.245 163.357C420.168 164.821 397.448 238.07 382.942 231.13Z" fill="#614731"/>
</svg>
