<svg width="30" height="30" viewBox="0 0 30 30" fill="none" xmlns="http://www.w3.org/2000/svg">
<path d="M9.68751 9.6875L8.75001 5.9375H5.93752M9.68751 9.6875H24.0625L22.016 18.3851C21.7503 19.5144 20.7426 20.3125 19.5825 20.3125H14.4244C13.29 20.3125 12.2979 19.5487 12.0076 18.4522L9.68751 9.6875Z" stroke="#352817" stroke-width="1.5" stroke-linecap="round" stroke-linejoin="round"/>
<path d="M12.5 25C13.1904 25 13.75 24.4404 13.75 23.75C13.75 23.0596 13.1904 22.5 12.5 22.5C11.8096 22.5 11.25 23.0596 11.25 23.75C11.25 24.4404 11.8096 25 12.5 25Z" fill="#352817"/>
<path d="M21.25 25C21.9404 25 22.5 24.4404 22.5 23.75C22.5 23.0596 21.9404 22.5 21.25 22.5C20.5597 22.5 20 23.0596 20 23.75C20 24.4404 20.5597 25 21.25 25Z" fill="#352817"/>
</svg>
