<svg width="1166" height="250" viewBox="0 0 1166 250" fill="none" xmlns="http://www.w3.org/2000/svg">
<path d="M71.7102 164.201L68.6279 169.844C64.5878 177.316 61.7777 178.74 59.6055 178.409C58.0971 178.179 57.3391 177.076 57.624 175.205C57.7619 174.3 58.1084 173.242 58.7934 171.988L96.3555 87.9414C87.4812 89.8615 78.4654 90.2784 66.7413 88.6157L65.5013 91.0816C71.7162 92.0285 73.7189 93.8771 73.2317 97.075C73.0754 98.1008 72.6686 99.1501 72.1043 100.422L63.3541 120.575C62.6724 117.754 60.549 115.887 56.446 115.262C30.802 111.355 10.5934 140.257 7.74363 158.963C5.8867 171.151 11.5524 177.324 19.7585 178.574C29.6541 180.082 37.0939 174.609 45.414 161.738L45.141 162.314C43.5821 165.657 42.6489 168.54 42.2629 171.075C41.9595 173.066 42.013 174.741 42.4653 176.23C43.2923 180.122 46.3679 182.628 51.3761 183.391C57.2893 184.292 64.735 182.833 69.6676 173.151L74.0031 164.55L71.7102 164.201ZM52.2772 145.867C42.9683 164.823 32.9541 174.225 28.2477 173.508C25.4118 173.076 24.6882 170.126 25.5615 164.394C29.1375 140.922 46.9631 116.719 57.7638 118.365C60.4187 118.769 61.6554 120.378 62.0497 123.463L52.2772 145.867Z" fill="#362918"/>
<path d="M147.217 136.708C147.982 130.038 142.765 126.245 135.428 125.403C109.597 122.439 87.2936 148.694 84.8029 170.402C83.481 181.923 91.2208 188.893 102.257 190.159C115.536 191.683 126.744 184.491 132.973 176.789L131.144 175.596C123.718 182.485 116.271 184.211 111.844 183.703C106.084 183.042 102.584 179.814 103.641 170.597C103.961 167.808 104.531 164.986 105.35 162.131C122.661 159.571 145.478 151.868 147.217 136.708ZM132.435 127.394C133.648 127.533 134.332 128.533 133.963 131.747C132.92 140.843 127.663 148.103 120.696 153.14C116.75 155.944 111.646 158.123 106.039 159.875C111.701 142.647 124.916 126.531 132.435 127.394Z" fill="#362918"/>
<path d="M199.216 98.0647C190.424 100.55 181.637 101.566 169.89 100.671L168.752 103.207C174.954 103.744 177.072 105.459 176.793 108.682C176.709 109.655 176.366 110.789 175.885 112.095L150.736 175.408C149.484 178.546 148.745 181.423 148.518 184.038C147.928 190.848 151.026 195.405 158.748 196.074C164.829 196.6 172.048 194.591 176.46 184.681L180.351 175.828L177.98 175.623L175.269 181.453C171.579 189.404 168.705 190.748 166.881 190.59C165.361 190.459 164.411 189.396 164.601 187.207C164.669 186.417 164.881 185.394 165.351 184.209L199.216 98.0647Z" fill="#362918"/>
<path d="M217.418 113.624C217.125 118.254 220.229 121.386 226.016 121.752C233.081 122.2 239.23 117.819 239.658 111.057C239.963 106.245 236.862 103.052 230.954 102.678C223.827 102.227 217.892 106.132 217.418 113.624ZM196.325 179.195C194.876 182.773 194.005 185.898 193.831 188.639C193.419 195.157 196.834 199.165 204.51 199.651C210.784 200.048 217.958 197.811 222.196 187.866L225.942 178.93L223.567 178.779L220.931 184.667C217.376 192.515 214.706 194.119 212.452 193.977C210.869 193.876 210.005 193.027 210.117 191.26C210.179 190.285 210.495 189.144 211.14 187.655L226.655 150.292C227.597 147.967 228.303 145.504 228.458 143.067C228.801 137.646 226.357 132.782 218.073 132.258C210.885 131.803 204.056 134.367 199.963 143.954L195.951 153.241L198.326 153.391L201.168 147.149C204.234 140.249 206.783 137.659 209.829 137.851C211.169 137.936 211.911 138.778 211.803 140.484C211.741 141.459 211.42 142.661 210.776 144.149L196.325 179.195Z" fill="#362918"/>
<path d="M283.425 137.637C286.23 137.735 288.029 138.714 289.254 140.344C283.284 141.663 277.668 146.841 277.432 153.612C277.274 158.126 280.292 160.918 284.318 161.059C291.332 161.304 296.886 154.413 297.12 147.703C297.358 140.871 291.561 135.478 282.412 135.159C256.183 134.244 238.791 161.852 238.07 182.531C237.614 195.584 245.695 202.035 257.346 202.441C270.216 202.89 279.66 194.791 285.136 186.616L282.669 185.552C276.705 193.711 271.124 196.143 265.817 195.958C260.083 195.757 256.429 191.966 256.735 183.182C257.552 159.759 270.859 137.199 283.425 137.637Z" fill="#362918"/>
<path d="M322.553 117.201C322.523 121.84 325.8 124.791 331.598 124.829C338.678 124.875 344.568 120.152 344.612 113.378C344.644 108.556 341.367 105.544 335.447 105.505C328.306 105.459 322.602 109.694 322.553 117.201ZM305.213 183.863C303.968 187.517 303.276 190.686 303.258 193.433C303.216 199.963 306.853 203.771 314.543 203.821C320.83 203.862 327.866 201.222 331.534 191.053L334.767 181.919L332.387 181.903L330.089 187.931C326.985 195.967 324.41 197.721 322.152 197.706C320.565 197.696 319.654 196.896 319.666 195.126C319.672 194.15 319.924 192.992 320.483 191.469L333.855 153.286C334.663 150.911 335.229 148.413 335.245 145.971C335.28 140.539 332.564 135.822 324.264 135.768C317.062 135.721 310.39 138.668 306.847 148.472L303.367 157.971L305.747 157.987L308.23 151.594C310.901 144.531 313.299 141.8 316.351 141.82C317.693 141.829 318.482 142.627 318.471 144.336C318.464 145.313 318.212 146.532 317.653 148.054L305.213 183.863Z" fill="#362918"/>
<path d="M347.536 183.481C347.863 196.966 355.358 203.928 368.232 203.616C395.568 202.954 408.06 174.201 407.597 155.103C407.271 141.618 399.716 134.719 386.903 135.029C359.567 135.691 347.074 164.383 347.536 183.481ZM386.291 137.486C388.853 137.424 390.423 139.217 390.59 146.112C391.172 170.153 378.362 200.868 368.965 201.095C366.097 201.165 364.635 198.758 364.487 192.656C363.933 169.775 376.65 137.719 386.291 137.486Z" fill="#362918"/>
<path d="M484.737 175.721L482.769 182.269C480.617 189.745 478.34 192.398 475.416 192.585C473.832 192.686 473.177 191.994 473.087 190.593C473.021 189.557 473.24 188.198 473.618 186.461L485.722 129.85C480.615 131.277 474.494 132.157 467.741 132.71L466.682 138.16C460.591 167.294 449.034 194.147 441.359 194.637C439.775 194.738 438.925 193.875 438.797 191.865C438.715 190.585 438.968 188.796 439.555 186.495L448.616 152.157C449.544 148.489 449.947 145.222 449.772 142.481C449.356 135.964 445.582 132.413 437.846 132.906C431.816 133.291 424.837 136.061 421.912 146.767L419.389 156.102L421.704 155.954L423.572 149.78C426.032 141.367 428.611 139.612 430.743 139.476C432.083 139.39 433.222 139.99 433.35 142C433.409 142.914 433.239 144.087 432.845 145.58L423.072 183.144C422.186 186.503 421.825 189.462 421.984 191.959C422.4 198.477 426.349 201.894 433.841 201.416C444.683 200.724 452.376 193.811 460.776 169.239L458.247 182.305C457.653 185.462 457.333 188.112 457.481 190.427C457.605 192.376 458.084 194.119 458.969 195.531C460.663 198.114 463.87 199.499 468.439 199.207C475.017 198.787 481.523 195.314 484.369 185.286L487.112 175.57L484.737 175.721Z" fill="#362918"/>
<path d="M508.695 192.458C509.26 190.132 510.535 186.324 510.11 182.073C509.551 176.485 506.587 172.611 502.093 173.06C497.478 173.522 495.48 178.077 495.935 182.631C497.034 193.624 507.468 196.138 517.914 195.094C532.429 193.642 540.591 184.484 539.517 173.734C538.921 167.783 535.903 162.748 530.17 155.102C525.524 149.126 521.698 145.214 521.139 139.627C520.459 132.825 523.653 128.58 529.727 127.973C531.549 127.79 533.164 127.997 534.13 128.452C532.411 130.894 530.966 134.841 531.397 139.153C531.889 144.073 534.907 147.267 538.976 146.86C544.199 146.338 546.045 140.878 545.645 136.87C544.612 126.545 534.579 124.972 525.469 125.883C511.258 127.304 503.709 135.849 504.766 146.417C505.488 153.644 509.776 158.49 514.319 164.047C519.426 170.345 522.414 175.69 522.955 181.095C523.635 187.897 519.657 192.282 513.645 192.883C511.458 193.102 510.092 192.932 508.695 192.458Z" fill="#362918"/>
<path d="M574.084 176.384C573.889 177.5 573.854 178.554 573.98 179.547C574.242 181.613 575.241 182.537 576.977 182.317C579.54 181.993 581.606 178.413 583.177 171.578L584.655 165.343L587.012 165.045L585.058 174.49C584.073 179.319 582.218 182.913 579.493 185.274C576.758 187.553 573.654 188.912 570.182 189.351C566.461 189.822 563.53 189.228 561.388 187.567C559.235 185.823 557.939 183.216 557.499 179.743C557.175 177.18 557.304 174.224 557.888 170.874L569.161 103.676C569.386 102.135 569.446 100.952 569.342 100.125C569.132 98.4716 568.319 97.3566 566.902 96.7801C565.568 96.193 563.371 96.0931 560.312 96.4805L560.851 93.7663C566.545 92.9614 571.613 91.8577 576.055 90.4552C580.498 89.0527 584.805 87.2474 588.977 85.0391L574.084 176.384Z" fill="#362918"/>
<path d="M640.431 110.494C635.304 111.291 632.614 115.045 633.449 120.413C634.5 127.168 640.8 131.932 647.347 134.311C646.2 144.805 642.457 156.876 637.088 168.027L624.712 126.59C621.591 116.451 617.03 114.134 610.336 115.175C604.003 116.16 598.988 119.658 597.048 130.214L595.37 139.678L597.722 139.312L598.964 133.004C600.607 124.904 601.751 123.12 603.439 122.857C605.188 122.585 606.016 123.939 607.495 128.28L626.389 185.813C621.605 191.993 616.791 196.386 612.1 199.586C607.605 194.912 602.706 192.4 597.579 193.197C592.453 193.995 589.471 197.856 590.137 202.138C590.822 206.54 594.473 208.567 599.84 207.732C601.891 207.413 604.882 206.392 608.243 204.572C618.981 198.948 628.032 188.831 634.399 178.143C644.681 160.854 652.779 135.875 650.368 120.376C649.271 113.319 646.16 109.603 640.431 110.494Z" fill="#362918"/>
<path d="M768.83 139.958L766.472 140.286L765.13 146.574C763.306 155.148 760.866 157.091 758.75 157.386C757.299 157.588 756.231 156.998 755.969 155.124C755.843 154.217 755.925 153.035 756.197 151.456L763.257 113.25C763.854 110.023 764.046 106.977 763.675 104.317C762.866 98.5141 759.322 94.756 751.04 95.9108C741.127 97.2932 734.277 103.856 728.184 124.241L736.99 64.5306C729.094 68.8977 720.573 71.873 708.863 73.6291L708.439 76.3381C714.605 75.4783 717.053 76.6777 717.508 79.942C717.643 80.9092 717.622 82.0831 717.436 83.4031L704.407 169.4L721.878 166.964L723.962 152.746C728.633 126.582 736.969 104.159 744.042 103.173C745.795 102.928 746.62 103.984 746.856 105.677C747.058 107.127 746.844 109.129 746.449 111.156L739.988 146.136C739.32 149.742 739.11 153.099 739.506 155.94C740.349 161.985 744.005 165.666 752.166 164.528C758.15 163.694 764.894 160.35 767.011 149.455L768.83 139.958Z" fill="#362918"/>
<path d="M835.458 97.5558C834.878 90.867 829.01 88.1899 821.652 88.8276C795.749 91.0726 779.127 121.246 781.013 143.015C782.015 154.568 790.989 159.856 802.056 158.897C815.372 157.742 824.922 148.46 829.49 139.671L827.46 138.867C821.556 147.098 814.603 150.274 810.164 150.658C804.387 151.159 800.314 148.694 799.513 139.451C799.27 136.654 799.266 133.775 799.499 130.814C815.953 124.855 836.776 112.758 835.458 97.5558ZM819.116 91.3754C820.332 91.27 821.202 92.1136 821.481 95.3364C822.272 104.457 818.568 112.62 812.745 118.945C809.437 122.479 804.87 125.631 799.725 128.467C801.839 110.456 811.576 92.0289 819.116 91.3754Z" fill="#362918"/>
<path d="M905.944 130.891L903.962 137.068C901.437 145.157 898.695 147.086 896.499 147.163C894.852 147.221 894.204 146.144 894.148 144.558C894.112 143.521 894.313 142.293 894.632 140.938L909.026 84.7343C903.636 86.0229 897.982 86.7711 890.972 87.1394L889.423 93.4842C888.74 87.9506 885.603 85.5568 881.272 85.7088C863.156 86.345 843.533 117.143 844.326 139.712C844.66 149.228 849.382 154.986 858.836 154.654C866.766 154.375 873.738 149.428 879.074 136.171C878.499 138.94 878.162 141.516 878.24 143.712C878.327 146.213 878.888 148.27 880.107 149.937C881.966 152.437 885.187 153.729 889.518 153.577C895.435 153.369 902.235 150.504 905.533 140.067L908.323 130.808L905.944 130.891ZM883.453 118.245L883.953 115.113C879.364 135.733 871.776 147.481 866.591 147.664C864.151 147.749 863.039 145.651 862.84 139.978C862.052 117.531 875.211 90.5021 883.811 90.2001C886.495 90.1059 888.104 92.4313 888.247 96.5181C888.271 97.1891 888.233 97.8622 888.196 98.5353L883.453 118.245Z" fill="#362918"/>
<path d="M963.957 52.2221C955.385 55.3843 946.703 57.0806 934.923 57.1026L933.985 59.7192C940.21 59.7721 942.456 61.3171 942.428 64.5519C942.42 65.5284 942.166 66.6859 941.788 68.0255L921.642 133.103C920.638 136.33 920.125 139.255 920.103 141.88C920.045 148.715 923.487 153.017 931.238 153.083C937.342 153.135 944.383 150.57 948.01 140.347L951.2 131.218L948.82 131.198L946.571 137.222C943.511 145.436 940.751 146.999 938.92 146.984C937.394 146.971 936.365 145.985 936.383 143.788C936.39 142.995 936.521 141.958 936.898 140.741L963.957 52.2221Z" fill="#362918"/>
<path d="M999.381 91.3876L1013.77 92.0047L1014.25 89.5203L1000.22 88.9188L1007.08 68.4422C1001.61 69.3681 995.916 69.6127 988.837 69.4313L982.597 88.1631L971.133 87.6715L970.416 90.1455L981.758 90.6319L967.387 133.696C966.477 136.406 965.94 138.949 965.838 141.327C965.53 148.522 969.279 153.693 978.06 154.069C986.902 154.448 993.628 150.033 997.474 140.118L1000.29 132.968L997.908 132.866L995.795 137.969C992.734 145.229 988.935 148.365 985.459 148.216C983.202 148.12 981.789 146.898 981.899 144.337C981.93 143.605 982.088 142.757 982.372 141.853L999.381 91.3876Z" fill="#362918"/>
<path d="M1077.72 139.173L1075.35 138.959L1072.62 144.781C1068.91 152.719 1066.09 154.059 1063.96 153.867C1062.5 153.736 1061.6 152.919 1061.77 151.034C1061.85 150.123 1062.19 148.989 1062.82 147.514L1078.34 111.897C1079.65 108.889 1080.53 105.966 1080.77 103.291C1081.3 97.455 1078.7 92.9924 1070.37 92.2427C1060.4 91.3452 1052.24 96.1876 1041.69 114.664L1063.78 58.4965C1055.1 60.9632 1046.13 61.9326 1034.33 60.9925L1033.3 63.5353C1039.5 64.0935 1041.61 65.8157 1041.32 69.0983C1041.23 70.071 1040.95 71.2095 1040.47 72.4533L1008.31 153.27L1025.88 154.851L1031.13 141.474C1041.6 117.046 1054.79 97.0915 1061.91 97.7318C1063.67 97.8905 1064.23 99.1057 1064.08 100.808C1063.95 102.267 1063.29 104.168 1062.44 106.053L1048.23 138.663C1046.77 142.024 1045.8 145.246 1045.54 148.103C1045 154.182 1047.73 158.595 1055.93 159.334C1061.95 159.876 1069.28 158.145 1073.8 148.012L1077.72 139.173Z" fill="#362918"/>
<path d="M1145.44 102.01C1140.3 101.273 1136.63 104.075 1135.86 109.452C1134.89 116.219 1139.52 122.618 1145.08 126.809C1140.91 136.508 1133.8 146.956 1125.41 156.047L1125.7 112.803C1125.68 102.195 1121.99 98.6443 1115.29 97.6814C1108.94 96.7705 1103.13 98.6481 1098.18 108.174L1093.81 116.733L1096.16 117.072L1099.2 111.403C1103.14 104.138 1104.75 102.767 1106.45 103.009C1108.2 103.261 1108.59 104.798 1108.74 109.381L1109.97 169.925C1103.59 174.435 1097.7 177.227 1092.28 178.915C1089.35 173.13 1085.4 169.294 1080.26 168.557C1075.13 167.82 1071.15 170.639 1070.53 174.929C1069.9 179.339 1072.79 182.345 1078.17 183.117C1080.23 183.412 1083.38 183.311 1087.13 182.554C1099.04 180.318 1110.66 173.292 1119.88 164.934C1134.77 151.41 1149.82 129.894 1152.05 114.367C1153.06 107.298 1151.17 102.834 1145.44 102.01Z" fill="#362918"/>
</svg>
