<svg fill="none" height="59" width="32" xmlns="http://www.w3.org/2000/svg"><path clip-rule="evenodd" d="M-9.701-27.64c-.059-.13-.221-.163-.387-.196-.128-.026-.257-.052-.342-.123-.198-.166-.266-.48-.33-.78a2.577 2.577 0 0 0-.129-.462 6.88 6.88 0 0 0-.358-.681l-.093-.162a9.657 9.657 0 0 0-.056-.098 2.637 2.637 0 0 1-.212-.42c-.028-.078-.029-.159-.03-.24 0-.026 0-.052-.002-.077a.28.28 0 0 0-.023-.1.712.712 0 0 1-.011-.032c-.008-.022-.01-.044-.014-.065a.327.327 0 0 0-.018-.076.861.861 0 0 1-.07-.298.367.367 0 0 0-.026-.107.268.268 0 0 1-.024-.143c.004-.019.01-.03.015-.042a.12.12 0 0 0 .016-.057.314.314 0 0 0-.026-.118c-.01-.028-.02-.056-.023-.085-.004-.024-.004-.048-.004-.071a.35.35 0 0 0-.013-.112.32.32 0 0 0-.016-.038.13.13 0 0 1-.015-.088c.002-.017.007-.03.011-.042a.195.195 0 0 0 .014-.063c0-.028.007-.046.013-.063a.201.201 0 0 0 .01-.042c.01-.077-.008-.14-.028-.206a1.289 1.289 0 0 1-.02-.073 1.085 1.085 0 0 1-.016-.267c.002-.046.02-.087.038-.128a.549.549 0 0 0 .034-.094c.029-.124.012-.275-.004-.415-.005-.047-.01-.093-.013-.137a.18.18 0 0 1 .04-.133c.012-.02.027-.042.04-.073a.473.473 0 0 0 .026-.236c0-.014-.001-.028-.003-.041-.005-.072-.01-.138.014-.202l.015-.034c.01-.02.02-.041.023-.06.002-.01-.001-.022-.004-.034a.09.09 0 0 1-.004-.035.064.064 0 0 1 .017-.033.063.063 0 0 0 .016-.032.173.173 0 0 0 .001-.046c-.001-.021-.002-.039.015-.067.01-.016.024-.03.038-.043a.212.212 0 0 0 .042-.052c.026-.052.029-.112.031-.171a.538.538 0 0 1 .015-.127.067.067 0 0 1 .017-.02.089.089 0 0 0 .017-.021.146.146 0 0 0 .014-.066c0-.01 0-.022.002-.038.009-.054.039-.104.07-.155.026-.044.052-.089.065-.136l.003-.013a.5.5 0 0 1 .097-.218 3.42 3.42 0 0 0 .33-.46c.216-.35.456-.686.743-.98a4.053 4.053 0 0 1 1.055-.776c.329-.168.701-.335 1.055-.424.196-.05.356-.033.543-.013l.11.011c.21.02.42.013.63.006.206-.007.41-.013.614.004.598.052 1.289.431 1.751.81.47.383.693.781.89 1.348.242.695.09 1.09-.131 1.67-.04.101-.08.209-.122.325-.039.107-.074.214-.109.322-.028.087-.056.173-.086.259-.02.059-.035.116-.05.173l-.02.07a.402.402 0 0 1-.065.122.657.657 0 0 0-.045.072 4.296 4.296 0 0 1-.059.109c-.04.072-.08.144-.11.221-.037.09-.09.172-.143.254-.067.103-.133.207-.166.322v.002c-.025.082-.048.158-.09.234l-.05.092c-.04.078-.08.156-.133.22-.062.074-.13.143-.197.212-.062.064-.124.127-.18.194a1.026 1.026 0 0 0-.137.25l-.043.096-.031.07a.565.565 0 0 1-.12.2.235.235 0 0 1-.052.032c-.02.01-.04.021-.055.037a.104.104 0 0 0-.023.037l-.01.024c-.05.086-.106.165-.173.24-.047.053-.09.11-.134.165a1.75 1.75 0 0 1-.248.277 1.323 1.323 0 0 0-.22.222c-.026.035-.05.07-.072.106-.032.05-.063.097-.1.141l-.044.052c-.112.13-.22.257-.345.379-.11.107-.223.225-.318.342-.046.058-.1.124-.154.175a4.22 4.22 0 0 0-.218.224l-.012.013c-.018.02-.038.038-.058.057l-.03.027a.192.192 0 0 1-.045.032.234.234 0 0 0-.035.022c-.012.01-.022.021-.032.034a.263.263 0 0 1-.04.04l-.029.021a.64.64 0 0 0-.035.026c-.06.047-.126.092-.193.14-.143.098-.292.201-.395.328-.036.045-.044.09-.052.138a.62.62 0 0 1-.015.07.465.465 0 0 1-.147.201 1.285 1.285 0 0 1-.244.164 4.378 4.378 0 0 0-.068.039c-.03.018-.291.209-.291.209a2.708 2.708 0 0 1-.52-.45c-.045-.05-.08-.112-.115-.172a.998.998 0 0 0-.115-.173c-.239-.05-.106-.104-.022-.024a.457.457 0 0 1 .022.024c.103.022.275.043.548.053zM-25.877-2.882c-.365.113-.732.24-1.101.366-.898.308-1.804.62-2.724.749a19.942 19.942 0 0 1-2.253.19c-.134.006-.267.01-.396-.015-.05-.01-.087-.006-.137-.002l-.018.002c-.084.007-.17.006-.255.004-.06 0-.122-.002-.182 0a.217.217 0 0 0-.065.016c-.015.005-.03.01-.043.011-.055.005-.112-.002-.168-.008a1.21 1.21 0 0 0-.123-.01c-.072 0-.144.008-.215.017-.059.007-.117.014-.175.016a.507.507 0 0 0-.052.006c-.033.005-.067.01-.093.004-.03-.006-.04-.018-.052-.03a.113.113 0 0 0-.034-.028c-.018-.01-.04-.011-.06-.013a.181.181 0 0 1-.058-.011c-.027-.012-.05-.03-.073-.05-.037-.028-.073-.058-.123-.059-.022 0-.033.002-.043.004-.014.003-.023.005-.053-.005a.044.044 0 0 0-.031-.036 2.262 2.262 0 0 0-.066-.014l-.029-.006-.017-.003-.047-.009c-.124-.023-.247-.045-.352-.127a.825.825 0 0 1-.113-.114c-.039-.045-.078-.09-.128-.125-.153-.109-.309-.214-.464-.319a22.23 22.23 0 0 1-.464-.318c-.453-.322-1.034-.9-1.15-1.462a3.433 3.433 0 0 1-.052-.577c-.006-.161-.011-.322-.035-.48-.024-.159-.05-.313-.077-.466-.074-.43-.146-.845-.147-1.304 0-.175 0-.351.01-.528l.001-.029a.618.618 0 0 1 .03-.203.91.91 0 0 1 .072-.133 1.54 1.54 0 0 0 .075-.135c.038-.076.08-.16.142-.214a.419.419 0 0 1 .037-.028c.021-.015.036-.026.063-.067.018-.027.034-.057.05-.086.026-.048.053-.097.087-.138.022-.026.047-.046.073-.066.023-.018.046-.037.069-.061a.745.745 0 0 1 .131-.122c.064-.042.115-.09.169-.138.025-.023.05-.047.078-.07a.851.851 0 0 1 .158-.097c.036-.019.072-.037.105-.058.07-.045.147-.078.224-.11.036-.015.073-.03.109-.047l.05-.028a.37.37 0 0 1 .07-.037c.08-.03.153-.053.236-.072l.042-.01c.15-.036.3-.072.453-.094a8.334 8.334 0 0 1 .661-.073.854.854 0 0 0 .171-.018l.07-.022c.035-.012.071-.024.113-.03.075-.012.152-.012.229-.01.056 0 .112 0 .168-.004.06-.005.119.002.177.009.05.006.1.011.151.01.097-.003.192-.004.287-.005.224-.002.445-.004.676-.03a3.44 3.44 0 0 1 .367-.016h.118a2.52 2.52 0 0 0 .223-.017c.09-.01.18-.018.273-.015a.71.71 0 0 0 .133-.014c.034-.005.069-.01.104-.013.038-.001.076.004.114.01.034.005.07.01.104.01.021 0 .042-.003.062-.005a.534.534 0 0 1 .102-.004c.22.019.435.117.644.213.097.044.194.088.289.124.22.08.446.136.672.192l.009.002.06.015c.097.024.195.048.293.075.043.012.086.012.129.013.04 0 .081 0 .122.011l.082.019.082.018c.088.02.136.055.197.099l.033.024c.021.014.046.026.07.037.035.017.07.034.097.06.016.016.026.03.035.044a.132.132 0 0 0 .065.06.59.59 0 0 0 .096.028c.05.012.1.025.148.06l.045.036a.852.852 0 0 0 .06.047c.06.043.127.07.194.096.044.018.088.035.131.058.038.02.06.039.085.061.01.01.021.02.034.03.021.018.04.039.059.06.023.025.047.051.075.072.076.055.174.079.265.1l.016.005c.038.01.06.023.084.039l.017.01.028.015.018.01.038.018c.124.06.241.117.338.223l.027.03c.14.155.282.31.404.483.149.211.28.434.412.656.073.121.145.243.22.363.058.093.134.183.211.274.137.162.277.329.332.528.073.263.075.623-.005.899-.094.324-.36.522-.635.687-.079.047-.154.103-.229.159-.11.082-.22.164-.34.216-.028.012-.06.015-.094.017-.041.003-.084.006-.118.03a.295.295 0 0 0-.09.113c-.018.032-.036.065-.066.095-.143.142-.339.246-.53.347-.095.05-.189.1-.275.153-.046.03-.103.07-.165.117a4.268 4.268 0 0 1-.233.162c.24-.058.659-.147 1.395-.289zm-1.711.412c-.001-.023-.001-.046.316-.123-.116.073-.23.129-.316.123zM3.238 26.343a.766.766 0 0 1 .07-.126zm.455-.79c-.058.091-.174.286-.385.664.222-.33.726-.62 1.106-.839l.21-.123c.497-.298 1.312-.285 1.975-.275.184.003.356.006.506.002l.475-.016h.002l.564-.018c.18-.005.36-.009.54-.01l.082-.003c.068-.005.14-.01.199.01.043.013.08.032.115.05.058.03.114.06.193.066.031.003.064 0 .096-.001a.394.394 0 0 1 .154.01l.026.01a.55.55 0 0 0 .15.035c.127.01.253.037.378.064.109.023.218.045.326.058l.077.006c.064.004.128.008.184.033a.314.314 0 0 1 .047.028c.023.016.046.032.07.037.029.006.058.009.087.011.039.004.079.007.12.02.037.013.078.02.118.028.041.008.082.015.119.028l.004.002.004.002a.111.111 0 0 1 .012.007l.006.004.006.004a.184.184 0 0 0 .027.017c.042.018.082.023.124.027l.054.006c.062.01.126.016.19.022.082.007.164.014.244.031.03.007.056.016.083.026l.04.014a1.399 1.399 0 0 0 .207.037c.092.01.185.021.268.059.073.033.15.07.22.111.065.039.135.074.204.109.056.029.113.057.167.088.034.019.063.043.09.068l.055.044c.04.03.075.062.11.094l.068.06c.047.04.1.077.152.113.06.042.12.084.173.132.065.058.138.106.211.154.097.064.194.128.272.215a6.6 6.6 0 0 1 .432.55c.28.387.531.798.735 1.232.32.687.527 1.446.476 2.21-.037.546-.096 1.143-.302 1.65-.018.043-.031.079-.043.11-.053.141-.062.166-.25.303a5.91 5.91 0 0 0-.639.532c-.263.261-.448.3-.784.369l-.155.032c-.595.13-1.282.247-1.887.184a9.612 9.612 0 0 1-2.578-.643 3.022 3.022 0 0 1-.317-.131c-.028-.014-.052-.019-.077-.024a.517.517 0 0 1-.041-.01l-.056-.017-.062-.018H8.67c-.132-.04-.269-.08-.392-.135a1.317 1.317 0 0 1-.234-.145c-.056-.041-.117-.071-.18-.101-.046-.023-.092-.046-.137-.073l-.108-.066c-.195-.12-.395-.243-.597-.34a1.764 1.764 0 0 1-.45-.29c-.064-.063-.138-.108-.213-.154a1.311 1.311 0 0 1-.194-.137c-.038-.034-.074-.072-.11-.11-.04-.044-.082-.087-.127-.125-.044-.038-.094-.074-.143-.11l-.06-.044a.23.23 0 0 1-.057-.08c-.013-.026-.026-.05-.044-.066-.016-.014-.038-.024-.06-.034-.019-.009-.037-.017-.053-.028a4.477 4.477 0 0 1-.19-.139l-.038-.03a.951.951 0 0 1-.184-.17c-.022-.029-.041-.057-.06-.084-.043-.064-.084-.123-.154-.165a.745.745 0 0 1-.223-.245c-.031-.046-.062-.092-.098-.135a4.499 4.499 0 0 1-.346-.46c-.066-.103-.13-.204-.229-.28-.025-.019-.05-.036-.076-.054a.671.671 0 0 1-.15-.123c-.06-.074-.106-.16-.152-.245-.028-.054-.057-.108-.09-.159-.039-.061-.08-.121-.12-.182-.148-.218-.295-.435-.372-.691a.325.325 0 0 1-.009-.084c0-.035-.002-.07-.015-.101a.452.452 0 0 0-.088-.116.355.355 0 0 1-.063-.08c-.133-.283-.085-.56-.009-.859.058-.224.254-.662.387-.833a.937.937 0 0 1 .237-.196 1.1 1.1 0 0 0 .225-.18zm0 0a.43.43 0 0 0 .046-.066c.003-.007-.009.008-.046.067zm6.31 24.968a4.71 4.71 0 0 1-.01.192l-.008.138c-.012.258-.095.497-.178.738-.049.14-.097.28-.132.423-.039.16-.069.322-.099.484-.017.094-.034.188-.053.28-.02.093-.046.182-.074.272-.02.066-.04.133-.057.201-.028.113-.06.225-.093.337-.025.087-.05.174-.073.262-.023.084-.039.17-.055.254-.016.082-.032.163-.053.244a4.66 4.66 0 0 0-.056.259l-.01.045-.018.09c-.016.072-.03.153-.049.222-.012.05-.05.102-.086.15-.015.02-.029.04-.04.058a19.895 19.895 0 0 1-.67.988c-.08.111-.158.222-.258.31-.039.035-.058.066-.084.107l-.011.017c-.045.07-.098.137-.151.203a3.358 3.358 0 0 0-.113.146c-.013.02-.02.04-.026.06-.005.016-.01.03-.017.043a.846.846 0 0 1-.108.126c-.03.03-.059.06-.084.093-.044.056-.08.118-.117.18-.03.05-.06.102-.094.15a.49.49 0 0 0-.029.046.298.298 0 0 1-.051.075.086.086 0 0 1-.057.022c-.012.001-.026.003-.042.01a.17.17 0 0 0-.049.041c-.013.015-.026.03-.042.038a.317.317 0 0 1-.083.028c-.046.011-.091.022-.123.062a.168.168 0 0 0-.023.036c-.006.013-.01.021-.036.038a.047.047 0 0 0-.048.004l-.051.044-.075.066c-.093.083-.184.166-.31.198a.854.854 0 0 1-.159.02c-.06.004-.12.008-.179.027-.179.054-.357.114-.535.173-.178.06-.356.12-.535.174-.53.163-1.343.273-1.86.022a3.428 3.428 0 0 1-.486-.308 4.123 4.123 0 0 0-.406-.267c-.139-.077-.276-.149-.41-.22h-.002c-.387-.204-.761-.4-1.127-.68a9.861 9.861 0 0 1-.413-.328l-.027-.023c-.051-.043-.102-.086-.138-.144-.026-.044-.044-.092-.062-.139l-.007-.018-.008-.022a1.033 1.033 0 0 0-.017-.04l-.029-.06a.677.677 0 0 1-.084-.26v-.03c.002-.026.002-.045-.014-.091a1.348 1.348 0 0 0-.038-.092c-.022-.05-.045-.101-.057-.153-.007-.034-.007-.065-.007-.097 0-.03 0-.06-.007-.093a.727.727 0 0 1-.017-.178 1.41 1.41 0 0 0-.006-.218 3.183 3.183 0 0 1-.008-.105c-.003-.06.008-.123.02-.185.006-.04.013-.08.017-.118.007-.082.028-.162.049-.242l.029-.117a.54.54 0 0 0 .008-.057c.003-.024.005-.048.014-.078.025-.082.05-.154.086-.231l.011-.025c.065-.146.13-.292.208-.431a7.853 7.853 0 0 1 .33-.548l.013-.018a.9.9 0 0 0 .092-.15c.01-.024.018-.047.025-.07a.677.677 0 0 1 .045-.107c.036-.067.084-.128.131-.188.035-.044.07-.089.1-.135a.908.908 0 0 1 .115-.136c.034-.036.069-.072.1-.113.056-.078.113-.154.17-.229.135-.18.268-.356.388-.556.147-.243.327-.475.544-.658l.016-.014c.11-.093.223-.187.32-.294.108-.119.231-.247.37-.33.213-.128.427-.246.644-.367l.088-.049c.267-.148.538-.278.811-.408l.222-.107c.027-.013.052-.027.077-.042a.869.869 0 0 1 .096-.052c.065-.028.136-.048.206-.067l.086-.025c.193-.058.398-.142.578-.237.078-.041.159-.078.24-.114.089-.04.178-.08.262-.127.042-.023.083-.048.123-.072.073-.044.144-.087.222-.123.034-.016.068-.035.1-.053.048-.027.096-.054.148-.073.11-.042.227-.07.342-.099a7.84 7.84 0 0 0 .155-.04l.046-.015h.002c.058-.02.117-.038.179-.043.025-.001.047.003.07.007l.019.003a1.855 1.855 0 0 0 .342-.003c.054-.004.108-.008.16-.01l.467-.014c.164-.005.328-.007.492-.008.174-.001.348-.003.522-.008l.028-.001c.126-.004.238-.008.346.058l.006.004.013.007.018.01c.068.039.157.09.166.157a.151.151 0 0 1-.004.044c-.003.017-.007.035-.004.054.002.016.006.03.01.046.004.02.009.041.01.063.01.141.016.301-.002.443-.02.164-.02.33-.02.494.001.11.002.22-.004.33-.01.187.025.393.058.577.014.084.016.172.014.26zm13.093-2.814c-.214-1.017-.432-2.057-.378-3.101 0-.01 0-.019.002-.028v-.013c.004-.044.008-.09-.001-.132a.38.38 0 0 1-.006-.107v-.012a.352.352 0 0 0-.006-.101c-.008-.033-.022-.06-.036-.087a.806.806 0 0 1-.088-.444c.003-.046.003-.092.004-.138 0-.065 0-.13.01-.195a.394.394 0 0 1 .03-.114c.024-.051.035-.107.047-.163l.008-.04c.027-.126.05-.255.04-.382-.002-.027.003-.057.007-.086a.376.376 0 0 0 .008-.068 2.602 2.602 0 0 0-.014-.253.382.382 0 0 1 0-.078c.002-.027.004-.055 0-.082a.548.548 0 0 1-.007-.195c.003-.017.008-.033.012-.05l.015-.064c.005-.02.005-.043.005-.064s.001-.043.006-.062c.004-.02.01-.039.015-.058.008-.027.016-.054.021-.083a.22.22 0 0 1 .015-.042c.004-.011.009-.022.012-.034a.088.088 0 0 0 0-.029.13.13 0 0 1 0-.02.501.501 0 0 1 .043-.156.742.742 0 0 0 .051-.182.88.88 0 0 1 .028-.095c.009-.028.018-.056.025-.085a.467.467 0 0 0 .004-.023l.004-.016c.006-.032.011-.064.027-.094.027-.05.075-.096.116-.136l.005-.005c.02-.019.041-.035.063-.051.02-.016.04-.03.059-.048l.07-.073a1.19 1.19 0 0 1 .143-.136 4.793 4.793 0 0 1 1.26-.692c.047-.017.097-.024.146-.03a.677.677 0 0 0 .153-.033c.005-.001.006-.005.008-.009.002-.004.004-.008.009-.01a.331.331 0 0 1 .096.004c.012.002.02.003.04.001h.045a.19.19 0 0 0 .065-.005c.014-.004.023-.01.032-.015a.135.135 0 0 1 .03-.015.289.289 0 0 1 .05-.012l.018-.003.008-.001.005-.002a.254.254 0 0 1 .06-.003c.03 0 .057.001.087-.014a.96.96 0 0 0 .089-.052l.065-.04.027-.015c.047-.027.09-.052.146-.06.041-.006.082.006.123.017.038.01.075.02.113.018h.006c.024-.001.033-.002.057.005l.007.002c.015.006.024.009.041.002a.031.031 0 0 0 .006-.008c.003-.006.006-.012.008-.013a.135.135 0 0 1 .053-.024.292.292 0 0 0 .066-.025l.025-.011c.022-.01.055-.015.084-.02a.563.563 0 0 0 .038-.005l.137-.029.058-.013h.001c.036-.008.072-.017.107-.022.026-.004.052-.002.077 0 .03.003.06.006.093-.001a.519.519 0 0 0 .033-.009.258.258 0 0 1 .068-.013c.01 0 .019.001.027.003a.14.14 0 0 0 .04.002 1.32 1.32 0 0 0 .165-.035.29.29 0 0 0 .034-.012c.02-.008.036-.015.06-.014a.52.52 0 0 1 .15.038c.052.02.112.006.171-.008a.566.566 0 0 1 .093-.018.736.736 0 0 1 .23.034l.027.006a.418.418 0 0 1 .079.024c.004.002.008.006.011.01a.04.04 0 0 0 .013.01c.05.025.128.047.183.044a.79.79 0 0 1 .309.064c.045.016.09.032.134.043.105.028.211.041.316.054.179.022.354.044.518.137.327.186.638.403.912.664.078.075.143.125.226.188a.386.386 0 0 1 .07.074.599.599 0 0 0 .042.05l.002.003c.083.086.169.176.206.296.03.09.075.197.125.28a.758.758 0 0 0 .066.092c.041.051.079.097.094.181.009.044.025.073.042.104l.027.052c.01.023.013.048.016.072a.21.21 0 0 0 .022.084c.004.009.02.022.034.036.014.013.027.025.033.033a.718.718 0 0 1 .054.086c.016.034.022.071.027.108.004.028.008.055.017.082.015.044.04.085.065.127.02.034.04.067.055.102.041.097.076.2.099.304l.012.053c.014.061.029.124.027.184-.002.05-.016.1-.03.15a.46.46 0 0 0-.026.203c.013.076.012.151.011.228 0 .06-.001.12.005.181.005.043.017.09.028.135l.018.074.017.102c.01.074.022.153.046.211.01.024.02.042.03.06.015.028.029.055.039.096a.16.16 0 0 1 0 .09.365.365 0 0 0-.008.044.383.383 0 0 0 .009.092.641.641 0 0 1 .008.06c.004.077.011.145.028.222.024.109.04.19.036.297v.005a.44.44 0 0 1-.03.172c-.021.054-.037.12-.048.176-.01.049-.014.099-.018.148a.914.914 0 0 1-.036.213c-.013.039-.028.077-.044.116l-.04.104c-.007.022-.012.044-.018.067-.007.027-.013.055-.024.084a.837.837 0 0 0-.04.177.722.722 0 0 1-.092.271 1.077 1.077 0 0 0-.062.133c-.021.058-.037.114-.053.171v.001l-.013.047c-.015.051-.02.105-.026.159a.927.927 0 0 1-.027.163 1.365 1.365 0 0 1-.146.325.769.769 0 0 0-.048.103c-.012.03-.024.06-.04.088-.006.011-.015.023-.023.035l-.004.006a.194.194 0 0 0-.036.074.223.223 0 0 1-.014.038.686.686 0 0 1-.067.1.565.565 0 0 0-.074.118c-.015.035-.015.073-.015.112 0 .025 0 .05-.005.075-.023.12-.056.24-.088.36-.029.104-.057.208-.079.313l-.032.158c-.056.277-.112.554-.237.81-.213.435-.58.804-.938 1.12-.192.17-.352.355-.512.54-.183.212-.365.423-.593.607-.172.139-.328.292-.483.445a8.265 8.265 0 0 1-.379.357c-.048.042-.107.097-.171.158-.233.219-.546.512-.771.561-.232.05-.635-.173-.926-.334a4.115 4.115 0 0 0-.232-.123c-.411-.19-.605-.362-.846-.77-.09-.151-.186-.3-.283-.447l-.135-.2a11.158 11.158 0 0 1-.31-.475.952.952 0 0 1-.082-.19l-.012-.035a1.464 1.464 0 0 0-.046-.11l-.013-.028-.005-.014a.487.487 0 0 0-.053-.087c-.015-.02-.03-.04-.042-.063l-.026-.047c-.029-.05-.058-.102-.08-.154a1.515 1.515 0 0 1-.034-.085 1.362 1.362 0 0 0-.037-.092l-.018-.038a.508.508 0 0 1-.047-.128l-.004-.019-.004-.022-.004-.018-.005-.023c-.003-.02-.003-.037-.002-.054v-.031c0-.04-.012-.084-.023-.125-.005-.019-.01-.038-.013-.056l-.005-.022a.381.381 0 0 0-.012-.052.308.308 0 0 0-.04-.07c-.014-.021-.028-.041-.037-.064a.401.401 0 0 1-.01-.173l.003-.058v-.055a.551.551 0 0 1 .006-.122l.009-.024c.006-.014.011-.026.004-.045 0-.002-.005-.005-.01-.008a.055.055 0 0 1-.01-.009c-.013-.02-.016-.06-.018-.093a.456.456 0 0 0-.004-.038l-.007-.04-.015-.078a15.43 15.43 0 0 0-.147-.662 19.927 19.927 0 0 1-.12-.522zM-8.882-2.513c.054.03.108.06.164.088.08.04.16.074.243.096l.013.004c.178.048.374.1.535.186.096.05.196.096.295.142.15.069.301.138.442.226.121.076.27.138.402.188.02.008.04.012.061.016l.015.003.03.008a.155.155 0 0 1 .048.026c.013.009.025.018.039.022.064.02.148-.039.211-.085l.036-.025c.105-.07.149-.173.198-.29l.01-.024c.068-.161.14-.32.213-.48.067-.149.134-.297.198-.447l.183-.43c.02-.047.038-.097.057-.146a1.89 1.89 0 0 1 .13-.298.504.504 0 0 1 .022-.032c.013-.02.027-.038.036-.063.022-.058.03-.12.037-.182l.011-.08.025-.132c.022-.115.044-.231.053-.346.004-.055 0-.11-.005-.165-.003-.037-.006-.075-.006-.112 0-.085-.009-.167-.018-.25a4.004 4.004 0 0 1-.014-.144c-.008-.099-.006-.199-.005-.299.001-.086.002-.173-.003-.259a3.282 3.282 0 0 1 .027-.625l.003-.023.01-.062c.013-.072.025-.145.026-.218.001-.036-.002-.07-.006-.106a1.03 1.03 0 0 1-.007-.09l-.003-.24c-.004-.305-.007-.608-.03-.914l-.01-.141a19.696 19.696 0 0 0-.06-.698 1.772 1.772 0 0 0-.145-.474 3.078 3.078 0 0 1-.126-.391l-.012-.044a2.652 2.652 0 0 0-.37-.77 6.422 6.422 0 0 1-.336-.576c-.046-.086-.092-.173-.141-.26-.025-.044-.043-.09-.06-.136-.022-.056-.044-.111-.077-.163a1.9 1.9 0 0 1-.08-.146c-.035-.07-.07-.138-.115-.199-.025-.034-.052-.06-.08-.086a1.056 1.056 0 0 1-.052-.053c-.035-.038-.066-.093-.096-.144a8.144 8.144 0 0 0-.37-.551 5.625 5.625 0 0 0-.285-.346l-.038-.043a1.884 1.884 0 0 0-.174-.176c-.023-.02-.044-.032-.065-.045a.513.513 0 0 1-.048-.03l-.094-.076a1.411 1.411 0 0 0-.2-.147 1.318 1.318 0 0 1-.1-.066c-.051-.036-.103-.072-.159-.094a2.919 2.919 0 0 0-.102-.04c-.067-.023-.131-.047-.196-.082a.753.753 0 0 0-.17-.06.527.527 0 0 1-.086-.033c-.03-.013-.058-.026-.091-.034a.807.807 0 0 0-.16-.013c-.035 0-.07 0-.103-.004a.196.196 0 0 1-.088-.025l-.042-.02a.659.659 0 0 0-.253-.026h-.07c-.03 0-.058-.002-.086-.004a.84.84 0 0 0-.152 0c-.07.007-.132.036-.195.066l-.026.013c-.16.073-.317.154-.472.237-.407.214-.742.471-1.09.737-.122.094-.245.188-.373.282-.13.095-.27.175-.41.255a3.432 3.432 0 0 0-.487.314c-.444.364-.685 1.147-.76 1.696-.025.184-.045.37-.066.555-.02.188-.041.376-.067.563-.008.061-.03.117-.051.173a.85.85 0 0 0-.049.153c-.023.13.014.247.051.368.01.03.02.061.028.092l.01.032.009.033a.047.047 0 0 1-.018.045c.005.03.01.038.02.049a.176.176 0 0 1 .023.036c.023.045.014.091.005.137a.318.318 0 0 0-.01.087c.002.019.01.037.017.056.008.02.016.04.016.06A.113.113 0 0 1-14-8.19c-.006.016-.012.031-.004.06a.288.288 0 0 0 .047.08c.012.015.022.03.03.043.03.052.063.101.097.15.04.059.08.117.113.181.02.037.035.076.05.116.02.052.04.104.07.15a.178.178 0 0 0 .03.033c.015.014.032.03.044.05.029.052.056.105.083.16.039.076.077.153.123.225l.011.017c.026.04.046.072.06.12.039.128.106.245.173.362l.015.026.025.043a18.622 18.622 0 0 0 .578.958l.035.06c.029.053.06.11.1.142.037.03.08.062.122.093l.06.045.04.03.064.046c.074.054.147.107.217.165.065.052.132.101.2.15.07.05.14.101.208.157.07.057.137.116.205.175.089.077.177.154.269.227.053.044.105.09.156.135.07.063.14.125.217.181.077.057.155.113.234.168.134.095.267.19.396.292.115.092.221.194.327.296.184.176.367.353.597.472l.126.068zM-32.518 8.326c.019.142.166.22.315.298.115.061.231.123.292.215.144.215.12.536.097.842-.013.171-.026.338-.008.48.03.257.092.51.152.762l.041.174.025.104c.038.154.076.313.085.469a.72.72 0 0 1-.038.234 2.197 2.197 0 0 0-.021.08.266.266 0 0 0-.007.102l.002.033c0 .022-.002.044-.005.065a.328.328 0 0 0-.004.079.85.85 0 0 1-.018.306.375.375 0 0 0-.005.11.269.269 0 0 1-.018.144l-.003.004-.004.007a.127.127 0 0 1-.02.024c-.01.012-.022.024-.03.05-.014.04-.012.08-.01.12.002.03.003.06-.001.088-.004.025-.01.049-.017.072-.01.036-.02.07-.02.11l.005.04c.004.028.008.05-.01.09-.007.014-.015.025-.023.036a.193.193 0 0 0-.03.057c-.009.026-.02.041-.03.056a.202.202 0 0 0-.023.038c-.031.07-.031.137-.031.206l-.001.075a1.08 1.08 0 0 1-.062.261.362.362 0 0 1-.072.112c-.02.025-.042.05-.059.08-.063.11-.09.261-.115.4a3.586 3.586 0 0 1-.025.133c-.014.066-.042.09-.076.118a.408.408 0 0 0-.06.057.474.474 0 0 0-.092.22l-.006.026-.003.014a.465.465 0 0 1-.07.19c-.007.01-.016.018-.024.028-.015.017-.031.034-.04.05a.1.1 0 0 0-.005.034c0 .008 0 .016-.002.023l-.001.003-.001.004a.033.033 0 0 1-.003.005c-.006.015-.016.021-.025.028-.009.006-.017.012-.024.026-.009.016-.012.03-.015.043a.099.099 0 0 1-.033.06.23.23 0 0 1-.047.031c-.02.01-.04.021-.056.038-.04.042-.06.1-.079.156-.014.041-.028.082-.05.116a.021.021 0 0 1-.006.006l-.015.01-.013.007a.054.054 0 0 0-.01.008.14.14 0 0 0-.031.057c-.004.01-.008.022-.015.036a.442.442 0 0 1-.11.13c-.037.035-.075.07-.1.112l-.009.013a.497.497 0 0 1-.154.18c-.164.105-.3.217-.447.348a5.709 5.709 0 0 1-.99.729c-.384.214-.8.362-1.233.444-.362.068-.767.123-1.131.107-.204-.008-.353-.07-.53-.143a9.872 9.872 0 0 0-.096-.04c-.196-.078-.4-.131-.604-.185-.199-.052-.397-.103-.587-.178-.558-.219-1.113-.778-1.45-1.272-.342-.502-.441-.946-.47-1.547-.035-.734.223-1.071.6-1.564h.001c.066-.087.136-.178.208-.277.071-.096.14-.195.207-.294l.144-.207c.039-.054.071-.108.104-.162h.001c.01-.018.02-.035.032-.052.024-.04.06-.069.097-.098.022-.018.044-.036.064-.056.029-.031.059-.06.09-.09.057-.058.115-.115.166-.179.06-.075.134-.139.209-.203.092-.08.185-.16.25-.262.047-.073.091-.139.154-.2l.072-.073c.061-.064.123-.128.191-.174.08-.053.163-.1.247-.147.078-.043.156-.087.23-.136.074-.048.141-.128.204-.203l.066-.077.05-.058a.565.565 0 0 1 .172-.157.22.22 0 0 1 .06-.018.208.208 0 0 0 .063-.019.106.106 0 0 0 .03-.029 1.442 1.442 0 0 1 .251-.202c.061-.037.118-.078.176-.12.101-.072.202-.145.317-.195a1.3 1.3 0 0 0 .374-.233c.044-.037.087-.074.135-.105l.049-.032c.146-.095.289-.188.447-.27.135-.073.277-.154.401-.24.061-.042.13-.09.198-.123.095-.048.18-.098.27-.152l.018-.01c.019-.012.04-.023.062-.033l.045-.023c.018-.01.035-.013.051-.017a.22.22 0 0 0 .041-.012c.015-.005.028-.014.042-.024.015-.01.03-.02.047-.026a3.896 3.896 0 0 1 .3-.105c.166-.055.338-.112.472-.204a.27.27 0 0 0 .09-.117c.01-.02.02-.042.034-.063a.463.463 0 0 1 .198-.152c.09-.044.187-.066.284-.089.024-.005.048-.01.072-.017.035-.009.34-.117.339-.117.133.15.285.393.37.577.03.063.046.13.062.199.016.068.032.137.062.199.214.116.072.13.015.028a.398.398 0 0 1-.015-.028c-.093-.05-.25-.12-.51-.207zm16.15 36.499c.152-.076.3-.15.427-.082-.222.16-.37.248-.465.293.067.012.133.04.198.066.064.027.129.053.195.066.2.038.487.058.687.037 0 0 .089-.311.102-.344l.03-.075c.038-.09.076-.18.092-.276a.463.463 0 0 0-.008-.249l-.03-.065a.271.271 0 0 1-.044-.141c.004-.162.058-.334.11-.5.025-.079.05-.156.067-.23l.004-.015.006-.02a.581.581 0 0 0 .013-.043c.005-.018.005-.037.006-.056 0-.015.001-.03.005-.045a.217.217 0 0 1 .014-.04c.007-.016.014-.032.017-.052l.002-.012.004-.024c.004-.028.009-.057.01-.083l.005-.047c.009-.095.017-.185.032-.283.012-.073.014-.157.016-.232.002-.15.02-.313.04-.465.024-.174.032-.341.04-.513l.004-.066a1.3 1.3 0 0 0-.007-.174 1.3 1.3 0 0 1 .03-.436c.026-.122.026-.246.026-.37 0-.07 0-.142.005-.214a1.4 1.4 0 0 0-.018-.322c-.004-.014-.007-.026-.005-.043a.21.21 0 0 1 .02-.06.234.234 0 0 0 .022-.06.565.565 0 0 0-.028-.232l-.005-.02a2.56 2.56 0 0 0-.038-.156v-.001c-.023-.093-.049-.193-.045-.28a4.02 4.02 0 0 1 .024-.263c.01-.096.022-.193.025-.288.003-.084-.013-.171-.029-.259a3.123 3.123 0 0 1-.017-.1 1.073 1.073 0 0 0-.073-.242c-.044-.111-.055-.233-.066-.354-.009-.098-.018-.197-.044-.29a2.067 2.067 0 0 1-.047-.236l-.009-.057a3.045 3.045 0 0 0-.012-.071.664.664 0 0 1-.009-.086.407.407 0 0 0-.022-.135l-.027-.063a2.387 2.387 0 0 1-.068-.173c-.028-.086-.059-.17-.09-.255-.038-.108-.076-.215-.112-.323a15.701 15.701 0 0 1-.103-.331c-.18-.594-.303-1-.919-1.4-.503-.328-.923-.506-1.53-.521-.597-.015-1.375.108-1.879.434-.171.11-.33.241-.487.372-.163.135-.326.27-.503.382l-.037.023-.057.036c-.16.1-.296.184-.42.343a5.163 5.163 0 0 0-.574.981c-.186.4-.31.823-.358 1.261-.046.409-.03.82.012 1.229.02.195.033.372.023.567-.005.086.023.152.055.229l.006.014c.02.046.026.097.032.149.007.058.015.116.04.164l.022.031c.012.016.02.03.029.061a.082.082 0 0 1 0 .028c-.002.01-.003.02-.002.025.016.038.04.073.066.109.035.048.07.097.081.156a.212.212 0 0 1-.002.065.23.23 0 0 0-.003.058c.004.033.016.046.03.062.009.01.018.02.027.036.007.014.007.025.006.036 0 .011 0 .022.008.036.005.01.015.018.025.026.009.008.018.015.024.025a.233.233 0 0 1 .017.059.407.407 0 0 0 .01.037.46.46 0 0 0 .112.167l.01.01.019.022c.059.068.1.119.123.203.009.032.01.058.012.082.003.045.006.08.05.13l.095.1c.098.1.205.21.258.326.014.03.022.063.03.095a.363.363 0 0 0 .048.123c.045.064.117.155.177.202l.06.045c.057.04.11.079.15.146.008.014.013.027.017.04a.196.196 0 0 0 .028.057c.016.023.023.041.029.059a.216.216 0 0 0 .016.04.129.129 0 0 0 .065.06c.011.004.023.01.036.02.033.021.056.05.08.08.014.018.03.037.047.054.02.021.045.037.07.053a.325.325 0 0 1 .093.078c.016.022.02.038.022.054a.138.138 0 0 0 .014.043.263.263 0 0 0 .106.098c.03.02.062.04.087.068a.85.85 0 0 0 .238.193c.024.015.042.032.06.05.016.014.032.03.05.042l.03.018c.026.016.047.029.079.065l.034.041.016.021c.05.063.1.126.17.17.134.085.288.147.437.207l.092.037.07.03.099.04c.238.098.477.196.704.32.124.068.252.175.383.285.236.198.482.405.741.415.11.004.228-.055.344-.112zm-.07.207c.01 0 .021.002.032.004-.22.106-.148-.017-.033-.004zm4.785-34.393c1.01.232 2.046.47 2.97.957l.037.02a.417.417 0 0 0 .119.053.375.375 0 0 1 .097.039l.013.007.005.002c.032.016.054.027.09.034a.348.348 0 0 0 .094.004.805.805 0 0 1 .44.107c.04.022.082.041.123.06.059.028.117.056.173.09a.355.355 0 0 1 .09.077.795.795 0 0 0 .132.113l.031.023c.102.077.21.152.329.195.026.01.051.027.076.045.02.013.04.027.057.035.076.033.157.067.236.092.026.008.048.021.07.034a.328.328 0 0 0 .075.034.536.536 0 0 1 .181.075l.038.03c.018.015.036.03.054.043a.312.312 0 0 0 .055.031c.02.01.039.019.054.031l.042.036a.85.85 0 0 0 .081.065.285.285 0 0 1 .02.02c.01.01.018.02.028.027.009.007.017.01.026.013l.007.003a.504.504 0 0 1 .136.11c.04.05.089.085.142.123.027.02.052.043.077.066a1.085 1.085 0 0 0 .095.079c.027.02.054.038.075.066a.579.579 0 0 1 .074.157l.004.012c.008.024.014.049.019.074.006.026.011.053.02.078.012.034.025.067.039.1.023.059.047.118.062.181a4.791 4.791 0 0 1 .1 1.434.72.72 0 0 1-.036.145c-.015.05-.03.101-.034.154 0 .004.002.008.005.01l.002.003c.002.003.003.005.002.008a.298.298 0 0 1-.043.088.125.125 0 0 0-.018.035c-.004.014-.012.027-.019.041-.01.02-.02.04-.023.061-.002.014 0 .024.001.035.002.01.003.02.002.033a.298.298 0 0 1-.011.05l-.006.02-.003.012c-.004.021-.013.04-.022.057-.012.026-.024.05-.023.083 0 .031.005.066.01.101l.009.078.002.031c.005.054.01.104-.007.158a.307.307 0 0 1-.068.105.364.364 0 0 0-.063.093l-.004.01c-.007.019-.01.028-.027.046l-.007.008c-.01.01-.016.017-.016.033 0 .002.002.006.006.01l.005.008a.015.015 0 0 1 .002.004.127.127 0 0 1 0 .058.356.356 0 0 0-.006.076v.022a.33.33 0 0 1-.018.085 6.167 6.167 0 0 0-.026.104v.001a8.865 8.865 0 0 1-.029.127c-.007.036-.014.072-.024.106a.316.316 0 0 1-.034.07.29.29 0 0 0-.037.085l-.002.012-.003.018a.267.267 0 0 1-.017.07c-.004.009-.01.016-.014.024a.14.14 0 0 0-.019.036c-.015.051-.03.11-.038.164l-.003.037c0 .02-.001.038-.013.06a.486.486 0 0 1-.097.12c-.04.038-.052.1-.064.159a.556.556 0 0 1-.023.09.713.713 0 0 1-.127.195l-.017.02c-.017.023-.037.05-.055.064a.039.039 0 0 1-.013.006c-.006.002-.011.003-.016.007a.42.42 0 0 0-.116.149c-.038.097-.113.174-.187.25v.001a1.785 1.785 0 0 0-.096.105c-.07.084-.125.174-.18.263-.096.154-.19.304-.343.413-.306.22-.634.412-.986.55-.1.039-.174.077-.266.126a.39.39 0 0 1-.096.032c-.021.005-.042.01-.063.017l-.005.002c-.113.04-.23.08-.353.063a1.39 1.39 0 0 0-.308-.005.776.776 0 0 0-.109.022c-.064.016-.122.03-.205.01a.31.31 0 0 0-.112-.006.25.25 0 0 1-.13-.013.214.214 0 0 0-.087-.017.241.241 0 0 0-.043.016.28.28 0 0 1-.047.017.664.664 0 0 1-.1.013.353.353 0 0 1-.11-.02c-.026-.009-.054-.017-.082-.02-.045-.005-.094 0-.142.006-.04.004-.078.009-.116.007a1.825 1.825 0 0 1-.354-.046l-.015-.003a.737.737 0 0 1-.18-.052c-.044-.023-.083-.056-.122-.09-.053-.045-.106-.091-.175-.11a1.238 1.238 0 0 1-.211-.085c-.054-.026-.109-.052-.167-.072a1.013 1.013 0 0 0-.138-.032 1.943 1.943 0 0 1-.07-.014c-.03-.007-.065-.017-.1-.027a.976.976 0 0 0-.212-.047c-.024 0-.045 0-.064.002a.363.363 0 0 1-.106-.005.16.16 0 0 1-.081-.037l-.008-.005a.337.337 0 0 0-.029-.02.367.367 0 0 0-.09-.032l-.021-.007a.441.441 0 0 1-.034-.01 1.265 1.265 0 0 0-.213-.068 1.123 1.123 0 0 1-.285-.092l-.002-.001c-.066-.033-.09-.045-.146-.102a1.317 1.317 0 0 0-.268-.196.937.937 0 0 1-.177-.12 2.255 2.255 0 0 1-.082-.085.785.785 0 0 0-.134-.127.698.698 0 0 1-.067-.058c-.047-.048-.094-.079-.145-.112a2.4 2.4 0 0 1-.056-.038c-.06-.041-.105-.1-.15-.16-.031-.038-.061-.077-.095-.111a2.382 2.382 0 0 0-.14-.124l-.032-.028a.93.93 0 0 0-.134-.09.962.962 0 0 1-.136-.092 1.361 1.361 0 0 1-.234-.27c-.02-.03-.046-.058-.072-.086-.022-.024-.044-.048-.063-.074a.136.136 0 0 1-.01-.012l-.013-.024-.017-.029a.198.198 0 0 0-.038-.04.218.218 0 0 1-.029-.03c-.024-.03-.044-.066-.063-.102-.023-.042-.045-.084-.076-.117-.026-.027-.06-.043-.094-.06a.425.425 0 0 1-.068-.037c-.1-.07-.193-.15-.288-.229-.083-.07-.166-.14-.253-.203l-.133-.1c-.227-.165-.453-.331-.631-.551-.306-.377-.487-.863-.624-1.322a5.404 5.404 0 0 0-.276-.692c-.115-.255-.23-.508-.302-.792a6.572 6.572 0 0 0-.2-.624c-.059-.163-.117-.327-.166-.495a6.286 6.286 0 0 0-.072-.225c-.1-.303-.235-.708-.185-.932.05-.232.423-.504.692-.7.085-.062.16-.117.21-.16.344-.293.582-.396 1.052-.444.176-.018.351-.042.525-.07l.254-.04c.182-.03.364-.06.546-.08.07-.008.135-.002.203.005l.04.004c.044.004.087.004.13.005h.036c.034.001.067-.005.1-.011.024-.005.05-.01.075-.011l.057-.005a1.696 1.696 0 0 1 .262-.002c.033.002.065.005.099.005h.038c.047 0 .09-.002.14.01l.082.02c.02.005.034.012.05.02l.028.013c.038.017.083.025.127.033l.052.01.01.002.013.004a.324.324 0 0 0 .05.01.302.302 0 0 0 .08-.007.32.32 0 0 1 .076-.006c.056.003.11.034.161.063l.05.027.035.016.014.007c.039.016.08.034.11.057a.131.131 0 0 1 .018.019c.01.01.019.02.04.022.002 0 .017-.01.023-.012.023-.003.06.01.09.023l.038.013.116.03c.222.055.447.1.671.145.172.035.345.07.516.109zm-18.022-36.205c.696.498 1.51.806 2.304 1.108l.087.033c.137.052.275.1.414.148.174.061.349.122.52.19l.092.038.03.015a.188.188 0 0 0 .07.028.04.04 0 0 0 .01-.004l.01-.003c.017.004.023.012.03.023l.013.016c.02.022.05.04.078.057.014.009.028.017.04.026l.04.029c.038.029.078.059.123.068.02.004.04.003.06.003a.252.252 0 0 1 .067.003.246.246 0 0 1 .04.014.655.655 0 0 0 .061.022.467.467 0 0 1 .116.052c.013.01.024.017.04.024l.04.015.025.01c.04.015.075.02.113.024l.03.004c.028.004.054.01.08.015a1.149 1.149 0 0 0 .207.027c.018 0 .036.002.053.003h.062c.028-.002.055-.003.083.001l.022.003c.037.006.074.011.11.02l.032.007a.786.786 0 0 0 .166.027c.155.005.31 0 .466-.004l.196-.005a8.37 8.37 0 0 1 .434.002c.386.014.59-.043.903-.243.046-.03.113-.066.189-.107.24-.13.571-.308.638-.49.066-.177.002-.523-.047-.78-.013-.071-.025-.136-.033-.188-.02-.142-.05-.28-.079-.42-.037-.174-.074-.348-.093-.528a3.823 3.823 0 0 0-.157-.676 4.444 4.444 0 0 1-.147-.593c-.06-.387-.153-.803-.359-1.141-.121-.2-.288-.361-.454-.522a4.496 4.496 0 0 1-.273-.281v-.001c-.07-.076-.138-.152-.212-.22-.015-.016-.033-.027-.051-.039-.026-.017-.051-.033-.069-.058-.02-.03-.034-.067-.048-.103-.012-.032-.024-.064-.04-.092a.189.189 0 0 0-.02-.025c-.01-.01-.019-.022-.027-.038a.448.448 0 0 1-.012-.029l-.013-.029c-.012-.022-.027-.044-.042-.065-.018-.026-.036-.052-.05-.08a1.108 1.108 0 0 0-.16-.244c-.03-.034-.066-.062-.1-.09-.035-.027-.07-.055-.098-.088l-.024-.026a.886.886 0 0 1-.163-.217c-.03-.053-.061-.106-.105-.146a1.717 1.717 0 0 0-.04-.037.652.652 0 0 1-.106-.107c-.015-.02-.031-.037-.047-.053a.684.684 0 0 1-.038-.043l-.06-.079-.055-.076a.768.768 0 0 0-.131-.118.973.973 0 0 1-.194-.188c-.041-.053-.059-.065-.11-.1a.95.95 0 0 0-.221-.107 1.027 1.027 0 0 1-.165-.078l-.043-.02c-.026-.01-.053-.022-.07-.036l-.026-.024a.127.127 0 0 0-.062-.04.297.297 0 0 0-.085-.015c-.016-.001-.033-.002-.052-.006a.809.809 0 0 1-.169-.062l-.076-.033-.054-.018a.791.791 0 0 1-.11-.043c-.046-.023-.088-.05-.13-.078-.051-.034-.102-.067-.16-.091-.052-.023-.09-.066-.13-.109a.527.527 0 0 0-.089-.086c-.04-.028-.091-.046-.14-.063l-.04-.014a1.452 1.452 0 0 0-.253-.067.64.64 0 0 0-.094-.006.518.518 0 0 1-.117-.011.389.389 0 0 1-.065-.025c-.027-.012-.055-.025-.086-.028a.572.572 0 0 0-.083-.002.275.275 0 0 0-.036.008c-.016.004-.033.009-.041.008-.025 0-.046-.011-.068-.022a.2.2 0 0 0-.056-.02c-.018-.003-.033-.004-.049-.005-.029-.002-.055-.004-.09-.017-.065-.026-.113-.02-.167-.015a.648.648 0 0 1-.091.006 1.121 1.121 0 0 1-.25-.04.628.628 0 0 0-.292.013l-.004.001-.053.007a.323.323 0 0 0-.083.015c-.08.03-.144.052-.23.073a3.75 3.75 0 0 0-.86.336c-.137.072-.23.183-.324.297-.055.066-.11.133-.176.194-.028.026-.059.05-.09.074a.652.652 0 0 0-.18.184.355.355 0 0 1-.11.107.037.037 0 0 1-.013.004.029.029 0 0 0-.012.003c-.016.01-.036.03-.052.045l-.008.008a.579.579 0 0 0-.132.151.45.45 0 0 0-.03.072c-.016.047-.032.095-.069.121a.403.403 0 0 0-.092.087c-.012.016-.014.03-.017.047l-.007.03a1.164 1.164 0 0 1-.05.13c-.004.01-.011.018-.018.026a.168.168 0 0 0-.014.018.213.213 0 0 0-.02.05c-.003.01-.006.02-.01.028a.237.237 0 0 1-.039.064.255.255 0 0 0-.034.053 1.125 1.125 0 0 0-.033.085 1.64 1.64 0 0 1-.017.046l-.04.107a.49.49 0 0 1-.014.03.274.274 0 0 0-.024.066l-.002.018a.26.26 0 0 1-.012.06.112.112 0 0 0-.007.047l.005.01.004.01c-.003.013-.01.018-.018.026l-.006.005a.103.103 0 0 0-.027.033l-.005.008a.29.29 0 0 1-.062.069c-.026.023-.052.047-.066.078-.02.041-.021.081-.023.125l-.002.027-.001.064c0 .03 0 .058-.003.084a.14.14 0 0 1-.028.063.193.193 0 0 0-.025.045.556.556 0 0 1-.009.022.259.259 0 0 0-.016.042c-.002.01-.002.02-.002.027 0 .01 0 .018-.003.03-.005.016-.016.031-.027.047l-.018.03c-.008.015-.013.02-.02.027a.232.232 0 0 0-.044.066c0 .003 0 .006.003.009.001.003.003.006.003.01-.01.041-.027.08-.045.119a.585.585 0 0 0-.044.115 3.988 3.988 0 0 0-.08 1.174c.005.053.018.104.03.155.008.028.015.056.02.085.005.02.006.042.008.064a.478.478 0 0 0 .007.064l.002.006c.01.047.02.1.043.14.014.024.033.042.053.06l.007.007a.543.543 0 0 1 .062.07c.018.021.035.042.055.061.038.037.073.07.102.116a.425.425 0 0 0 .088.099l.015.008c.007.004.013.007.02.014a.193.193 0 0 1 .017.022c.007.01.014.02.024.028l.05.054.03.035a.235.235 0 0 0 .04.03c.016.01.03.02.043.032l.035.037.03.033a.459.459 0 0 0 .139.08c.02.01.038.023.056.036a.308.308 0 0 0 .054.035c.061.03.123.066.181.102a.34.34 0 0 1 .043.035.322.322 0 0 0 .057.044c.092.049.17.121.245.196l.019.018a.624.624 0 0 1 .098.11c.018.028.038.05.064.071.04.034.085.063.129.092.032.02.064.041.095.064a.658.658 0 0 0 .296.13l.049.005c.025.002.05.004.076.014a.31.31 0 0 1 .071.04h.002l.006.005a.314.314 0 0 0 .078.044c.032.012.06.033.088.054l.03.023zM16.069 1.58c.03.035.059.073.084.116a62.433 62.433 0 0 0-.084-.116zm.528.748a1.1 1.1 0 0 1-.072-.284.939.939 0 0 0-.078-.297c-.1-.192-.416-.554-.594-.7-.238-.195-.47-.355-.784-.354a.358.358 0 0 0-.098.024.458.458 0 0 1-.143.032.268.268 0 0 1-.097-.029.331.331 0 0 0-.081-.027c-.263-.038-.52.004-.777.046-.074.012-.148.024-.222.034-.06.009-.122.012-.184.015-.096.006-.192.011-.284.036a.682.682 0 0 0-.176.084 1.443 1.443 0 0 1-.08.046 1.03 1.03 0 0 1-.347.09l-.075.01a4.396 4.396 0 0 0-.49.111c-.054.015-.11.024-.165.033a.744.744 0 0 0-.315.098c-.068.047-.138.06-.214.072-.032.006-.066.011-.101.02a.958.958 0 0 0-.234.095 4.262 4.262 0 0 0-.247.135c-.017.01-.032.024-.048.037-.018.016-.037.031-.056.04-.022.01-.05.011-.077.012-.034.002-.069.003-.098.02l-.072.038a2.44 2.44 0 0 1-.153.08c-.053.025-.11.044-.168.064a1.86 1.86 0 0 0-.146.053c-.072.031-.138.075-.204.119a1.22 1.22 0 0 1-.228.129 1.78 1.78 0 0 0-.454.286 6.545 6.545 0 0 1-.556.398l-.108.071c-.044.03-.084.062-.124.095-.054.044-.107.087-.167.121-.08.045-.16.09-.23.151-.104.09-.2.2-.293.306l-.076.086a.552.552 0 0 0-.026.033c-.015.02-.03.04-.054.06-.087.07-.166.148-.246.227l-.076.076a9.617 9.617 0 0 0-1.595 2c-.311.522-.494 1.195-.626 1.79l-.035.155c-.078.333-.12.518.006.866.091.252.16.545.213.803.047.228.065.246.172.354.023.023.05.05.082.085.373.4.89.704 1.37.966.673.367 1.447.5 2.206.495a7.683 7.683 0 0 0 1.427-.149c.228-.044.458-.093.68-.161.112-.035.21-.096.31-.157.073-.046.147-.092.227-.127.067-.029.13-.066.194-.103.056-.032.11-.063.166-.09l.08-.034c.044-.019.089-.038.134-.063l.063-.03a.556.556 0 0 0 .1-.053c.05-.037.1-.076.15-.116.06-.048.122-.096.184-.139.066-.047.132-.1.193-.153a.882.882 0 0 0 .165-.218c.03-.05.061-.1.097-.144a.64.64 0 0 1 .054-.059c.02-.02.04-.04.058-.064.049-.066.09-.137.13-.21.033-.055.065-.11.1-.163l.03-.047a.376.376 0 0 1 .075-.1l.027-.018c.01-.006.021-.012.03-.02a.797.797 0 0 0 .076-.097c.024-.034.048-.067.075-.096a.509.509 0 0 0 .069-.1.627.627 0 0 1 .046-.074c.015-.02.04-.034.063-.048a.32.32 0 0 0 .046-.03c.046-.041.077-.098.107-.155.012-.022.024-.045.037-.066.057-.093.123-.181.189-.27.076-.103.154-.207.217-.318.033-.057.06-.085.098-.124a.403.403 0 0 0 .09-.152c.012-.03.024-.06.04-.088.039-.069.089-.108.14-.148a.76.76 0 0 0 .095-.082c.043-.046.07-.116.094-.18.01-.027.02-.052.03-.074.074-.163.146-.328.218-.493.077-.179.152-.358.228-.538l.178-.42c.06-.14.134-.296.214-.463.288-.597.64-1.33.578-1.906a12.453 12.453 0 0 1-.023-.237c-.04-.438-.091-1.02-.298-1.361.26.355.387.543.444.632zm.038.066c.005.005-.003-.011-.038-.066.016.034.033.06.038.066z" fill="#f8a271" fill-rule="evenodd"/></svg>