<svg width="345" height="269" viewBox="0 0 345 269" fill="none" xmlns="http://www.w3.org/2000/svg">
<path fill-rule="evenodd" clip-rule="evenodd" d="M0.148438 566.711C0.750952 565.356 0.503433 564.498 0.636963 563.02C0.962647 559.413 1.63942 555.748 2.09863 552.148C3.05875 544.614 4.28136 537.104 5.15485 529.571C6.34033 519.347 9.89419 509.675 11.01 499.407C12.585 484.905 15.9291 470.317 16.1714 455.71C16.2333 451.993 16.4561 449.063 17.4904 445.483C18.4024 442.324 18.063 439.601 18.5932 436.412C19.9279 428.38 22.0526 419.808 24.6685 412.124C28.5891 400.603 30.1752 388.458 34.7119 377.143C40.629 362.387 51.3446 349.622 59.9179 336.364C69.6369 321.335 77.8579 305.485 88.2113 290.868C95.4383 280.665 100.221 269.157 107.111 258.814C109.449 255.305 111.968 251.794 114.633 248.527C118.956 243.227 122.157 238.318 125.355 232.262C131.531 220.565 137.69 208.191 145.569 197.553C147.957 194.329 149.407 190.796 151.664 187.507C154.294 183.674 157.867 180.596 160.528 176.78C163.777 172.121 166.408 167.447 170.089 163.074C175.078 157.148 179.428 150.809 184.122 144.643C191.617 134.799 199.735 125.377 206.472 114.976C210.486 108.777 215.318 103.087 219.905 97.2864C223.89 92.2474 227.965 88.035 232.793 83.8558C235.037 81.9141 236.874 79.7607 238.606 77.3676C240.9 74.198 243.628 72.027 246.393 69.2971C248.676 67.0441 250.385 64.3357 252.663 62.0904C256.089 58.7118 260.613 56.944 264.413 54.0721C269.162 50.4837 272.706 45.8101 277.463 42.1872C282.547 38.3162 286.925 33.9038 292.396 30.5362C299.843 25.9526 305.334 18.3706 313.639 15.2187C316.404 14.1693 319.407 13.2151 322.189 11.9338C325.557 10.3816 328.192 7.68953 331.504 6.16272C333.47 5.25667 335.1 4.29786 336.99 3.30452C338.371 2.5789 341.72 0.724457 343.005 0.648247C345.131 0.523184 345.994 2.50008 347.663 3.35924C349.613 4.36365 351.846 4.61182 353.705 5.76604C354.361 6.17445 354.761 6.94957 355.721 7.44331C356.665 7.92988 357.909 8.21192 358.918 8.56366C361.524 9.47297 362.631 10.7848 364.833 11.9065C366.887 12.9519 369.202 13.2066 370.478 15.3314C371.554 17.122 372.907 19.5965 372.135 21.6438C371.426 23.5243 369.532 25.1051 368.25 26.4945C366.832 28.0291 365.7 29.2543 363.911 30.2978C362.092 31.3596 360.53 31.5315 358.602 31.9041C356.089 32.3894 353.917 33.2785 351.431 33.5553C348.89 33.8387 347.59 33.9885 344.965 33.5514C342.826 33.1958 340.621 33.5143 338.441 33.0922C336.445 32.7059 334.823 32.0578 332.793 32.5854C334.917 32.8505 337.101 35.2091 338.403 36.5894C340.637 38.9545 343.591 40.6598 345.703 42.7865C348.085 45.1835 350.246 47.5441 352.385 50.0434C353.872 51.7819 353.799 50.9839 354.419 53.4155C354.792 54.8759 355.568 55.9291 355.704 57.3849C356.23 63.0023 351.865 68.4015 350.975 74.0697C350.763 75.42 351.306 75.9997 350.785 77.6633C350.34 79.0859 349.745 80.4772 349.255 81.8855C348.22 84.8642 346.77 86.135 344.411 88.0904C342.808 89.4198 340.989 90.4425 339.399 91.7758C338.172 92.805 337.352 94.1839 336.111 95.3655C332.981 98.3462 329.755 102.07 326.052 104.238C322.735 106.181 321.262 109.27 318.516 111.953C315.245 115.148 312.015 118.438 308.784 121.642C304.949 125.446 302.462 130.597 299.001 134.717C297.516 136.484 296.64 138.554 295.041 140.292C291.839 143.775 289.075 147.102 286.782 151.279C284.715 155.046 282.344 159.526 281.88 163.861C281.697 165.572 282.491 166.335 280.507 167.394C277.944 168.761 275.968 168.26 273.569 166.953C268.266 164.062 262.393 162.719 256.923 160.081C253.408 158.387 249.81 155.919 246.126 153.956C244.258 152.96 243.181 151.789 241.555 150.484C239.667 148.97 237.1 148.148 235.259 146.908C233.156 145.49 230.275 144.613 227.951 143.102C224.785 141.043 219.008 138.336 215.165 138.092C217.237 145.385 222.839 150.582 228.064 155.675C230.178 157.736 232.971 159.061 235.261 160.936C236.363 161.838 237.287 163.209 238.328 163.977C239.914 165.146 241.666 166.059 243.283 167.388C244.934 168.746 246.262 168.906 248.043 169.915C249.126 170.529 249.887 171.405 250.864 172.165C252.17 173.182 253.653 173.976 254.974 175.097C258.272 177.893 261.041 180.573 263.859 183.68C267.471 187.664 272.384 194.287 269.681 199.785C266.718 205.813 263.176 212.399 262.115 219.128C260.662 228.345 261.263 237.656 260.267 246.901C259.831 250.937 258.922 254.901 258.229 258.897C257.911 260.727 257.687 262.534 257.576 264.378C257.502 265.601 255.81 265.213 254.969 265.137C253.478 265.003 251.965 264.705 250.505 264.384C248.517 263.947 246.786 263.068 244.909 262.315C242.516 261.355 240.02 260.718 237.57 259.933C236.243 259.474 234.916 259.016 233.588 258.559C231.986 258.072 230.387 257.58 228.789 257.08C226.885 256.445 225.025 255.662 223.106 255.076C220.971 254.423 218.746 254.119 216.591 253.539C213.39 252.677 210.291 251.513 207.117 250.569C204.605 249.822 202.042 249.292 199.496 248.68C198.074 248.338 196.657 247.978 195.244 247.6C193.643 247.225 192.026 246.936 190.394 246.734C187.987 246.374 185.588 245.998 183.209 245.482C181.018 245.005 178.874 244.342 176.674 243.908C173.775 243.337 170.809 243.072 167.898 242.55C166.213 242.249 164.525 241.937 162.848 241.593C162.341 241.489 161.301 241.339 160.762 241.151C163.374 242.181 165.885 243.483 168.378 244.768C170.296 245.755 172.148 246.608 174.137 247.437C176.805 248.547 179.595 249.59 182.091 251.064C183.222 251.733 184.326 252.177 185.573 252.609C188.087 253.484 190.627 254.375 193.197 255.078C193.752 255.223 194.309 255.363 194.866 255.499C195.834 255.817 196.756 256.238 197.632 256.763C198.901 257.454 200.128 258.235 201.477 258.766C203.219 259.451 204.749 260.5 206.393 261.391C208.783 262.685 211.316 263.796 213.837 264.811C215.486 265.475 217.192 265.96 218.822 266.672C220.197 267.338 221.571 268.004 222.945 268.67C224.593 269.29 226.276 269.794 227.995 270.181C230.429 270.859 232.943 271.509 235.319 272.376C237.069 273.015 238.63 274.013 240.087 275.158C241.246 276.069 242.738 276.521 243.953 277.354C244.962 278.047 245.913 278.761 246.954 279.403C247.695 279.86 248.278 280.442 248.904 281.033C249.158 281.274 249.449 281.464 249.68 281.722C249.824 281.881 249.857 282.081 249.965 282.237C250.174 282.54 250.44 282.815 250.661 283.116C250.787 283.287 250.825 283.461 250.946 283.628C251.085 283.818 251.215 283.888 251.342 284.1C251.607 284.543 251.962 284.913 252.238 285.348C252.677 286.042 253.144 287.132 252.915 287.968C252.835 288.259 252.637 288.49 252.479 288.742C252.224 289.15 252.074 289.6 251.905 290.047C251.122 292.118 250.283 294.168 249.55 296.258C248.531 299.166 247.722 302.174 247.592 305.267C247.399 309.846 246.548 314.461 245.96 319.019C245.196 324.942 244.965 330.823 244.46 336.774C243.607 346.83 238.361 354.788 234.831 363.954C232.534 369.919 229.094 376.877 228.599 383.22C228.236 387.855 228.167 392.482 227.737 397.128C227.294 401.928 226.528 406.804 226.695 411.604C226.898 417.422 226.54 423.361 225.885 429.15C225.57 431.928 225.677 434.521 225.066 437.325C224.255 441.045 223.526 444.475 223.573 448.323C223.673 456.492 224.393 464.709 223.427 472.854C223.328 473.68 223.145 474.5 223.152 475.332C223.154 475.572 223.227 475.794 223.152 476.032C222.956 476.655 222.192 477 221.654 477.258C221.071 477.538 220.966 477.458 220.304 477.345C218.984 477.12 217.65 477.04 216.342 476.721C214.99 476.393 213.5 475.851 212.253 475.247C211.035 474.657 210.059 473.889 208.775 473.448C204.377 471.935 200.091 470.078 195.516 469.147C193.378 468.712 191.207 468.733 189.074 468.358C185.812 467.785 182.682 466.07 179.551 465.027C177.27 464.268 174.953 463.707 172.689 462.883C169.632 461.772 166.572 460.668 163.503 459.592C161.929 459.039 160.65 458.191 159.158 457.474C158.029 456.93 156.766 456.494 155.567 456.117C154.649 455.829 153.609 455.639 152.662 455.461C152.318 455.397 151.281 455.065 150.954 455.288C151.291 455.832 152.133 456.212 152.632 456.536C154.306 457.625 155.798 458.901 157.693 459.603C158.893 460.048 160.121 460.419 161.323 460.857C163.872 461.786 166.249 463.174 168.654 464.412C171.054 465.648 173.402 466.892 175.82 468.078C178.424 469.356 180.975 471.443 183.803 472.195C185.136 472.55 186.525 472.495 187.867 472.835C189.793 473.324 191.651 474.163 193.524 474.817C195.241 475.417 196.59 476.226 198.173 477.097C199.394 477.769 200.688 478.213 201.846 478.986C203.012 479.765 204.135 480.758 205.377 481.409C205.825 481.6 206.272 481.794 206.718 481.992C207.082 482.258 207.412 482.562 207.709 482.902C208.271 483.395 208.966 483.674 209.558 484.128C210.354 484.739 211.172 485.448 211.853 486.174C213.443 487.872 215.411 490.194 216.137 492.402C216.651 493.966 217.704 495.427 218.36 496.962C218.999 498.458 219.14 500.109 219.458 501.69C219.736 503.071 220.034 504.455 219.802 505.864C219.302 508.902 219.554 512.031 218.756 515.022C217.466 519.834 216.552 524.532 214.832 529.223C212.436 535.759 210.089 542.317 207.759 548.878C206.234 553.172 204.848 557.333 202.507 561.269C199.46 566.39 195.918 571.105 193.103 576.371C190.243 581.721 188.188 587.43 185.232 592.714C182.482 597.631 179.128 601.665 175.608 606.007C171.614 610.933 165.709 612.693 159.536 613.555C151.211 614.717 142.741 614.879 134.26 614.282C128.392 613.869 122.833 612.299 117.04 611.369C110.413 610.305 103.759 610.432 97.0673 609.883C88.8979 609.213 80.634 608.359 72.4463 608.07C62.6133 607.721 54.1526 603.894 45.0166 600.691C40.9963 599.281 35.7574 598.181 32.7891 594.797C30.7718 592.497 30.2175 590.425 27.4902 588.463C20.8964 583.719 14.7996 579.292 9.13275 573.543C5.24213 569.596 1.23427 567.097 0.148438 566.711Z" fill="#42774D"/>
</svg>
