<svg width="488" height="474" viewBox="0 0 488 474" fill="none" xmlns="http://www.w3.org/2000/svg">
<path fill-rule="evenodd" clip-rule="evenodd" d="M423.942 125.69C427.734 118.429 431.543 111.177 435.367 103.931C431.543 111.177 427.734 118.429 423.942 125.69M384.813 202.641C383.064 206.182 381.314 209.723 379.537 213.252C378.835 214.645 378.127 216.035 377.416 217.424C375.103 221.937 372.724 226.421 370.227 230.852C368.199 234.452 366.092 238.017 363.876 241.533C362.546 243.642 361.177 245.733 359.761 247.805C359.316 248.456 358.867 249.105 358.412 249.753C356.587 252.353 354.694 254.921 352.701 257.447C351.901 258.478 351.104 259.509 350.31 260.542C347.925 263.637 345.562 266.736 343.225 269.843C341.667 271.914 340.12 273.988 338.587 276.066C340.12 273.988 341.667 271.914 343.225 269.843C345.562 266.736 347.925 263.637 350.31 260.542C351.104 259.509 351.901 258.478 352.701 257.447C354.694 254.921 356.587 252.352 358.412 249.753C358.867 249.105 359.316 248.456 359.761 247.805C361.177 245.733 362.546 243.642 363.876 241.533C366.092 238.017 368.199 234.452 370.227 230.852C372.724 226.421 375.103 221.936 377.416 217.424C378.127 216.035 378.835 214.645 379.537 213.252C381.314 209.723 383.064 206.182 384.813 202.641C395.776 180.366 406.942 158.413 418.266 136.591C406.942 158.413 395.776 180.366 384.813 202.641M331.773 285.451C325.331 294.48 319.155 303.618 313.332 312.956C312.143 314.863 310.974 316.783 309.813 318.709C308.137 321.495 306.486 324.296 304.876 327.122C303.745 329.108 302.636 331.109 301.54 333.116C299.643 336.591 297.8 340.099 296.013 343.645C295.269 345.121 294.534 346.605 293.811 348.096C291.639 352.568 289.562 357.102 287.587 361.707C286.382 364.6 285.038 367.43 283.564 370.191C283.134 370.998 282.696 371.8 282.243 372.594C281.442 373.999 280.606 375.386 279.736 376.751C279.301 377.433 278.858 378.11 278.406 378.782C277.502 380.126 276.563 381.448 275.591 382.749C272.676 386.647 269.46 390.341 265.958 393.795C264.402 395.331 262.788 396.819 261.12 398.257C259.453 399.695 257.73 401.083 255.953 402.417C257.73 401.083 259.453 399.695 261.12 398.257C262.788 396.819 264.402 395.331 265.958 393.795C269.46 390.341 272.676 386.647 275.591 382.749C276.563 381.448 277.502 380.126 278.406 378.782C278.858 378.11 279.301 377.433 279.736 376.751C280.606 375.386 281.442 373.999 282.243 372.594C282.696 371.8 283.134 370.998 283.564 370.191C285.038 367.43 286.382 364.6 287.587 361.707C289.562 357.102 291.639 352.568 293.811 348.096C294.534 346.605 295.269 345.121 296.013 343.645C297.8 340.099 299.643 336.591 301.54 333.116C302.636 331.109 303.745 329.108 304.876 327.122C306.486 324.296 308.137 321.495 309.813 318.709C310.974 316.783 312.143 314.863 313.332 312.956C319.155 303.618 325.331 294.48 331.773 285.451C333.266 283.357 334.775 281.27 336.295 279.187C334.775 281.27 333.266 283.357 331.773 285.451M146.671 441.211C149.379 440.627 152.079 440.016 154.771 439.381C152.079 440.016 149.379 440.627 146.671 441.211M134.421 443.671C137.159 443.164 139.885 442.63 142.603 442.071C139.885 442.63 137.159 443.164 134.421 443.671M439.212 260.71C442.282 254.594 442.113 247.635 445.182 241.518C447.77 237.251 447.241 231.682 450.173 227.998C451.819 225.463 452.077 222.566 453.259 219.91C453.963 219.105 454.665 218.299 455.368 217.494C455.969 215.181 456.57 212.867 457.17 210.554C457.873 209.749 459.038 209.064 459.279 208.138C460.582 205.02 460.497 201.54 461.801 198.422C461.92 197.959 463.429 197.857 463.548 197.394C464.611 195.201 464.407 192.184 465.813 190.574C467.459 188.038 467.717 185.142 468.9 182.487C469.483 182.144 470.528 181.922 470.649 181.458C473.512 172.325 474.064 162.591 478.317 153.818C479.842 151.744 480.683 148.506 480.479 145.489C480.154 142.936 481.679 140.863 481.817 138.429C481.938 137.967 480.669 137.144 480.789 136.681C481.168 133.322 483.517 129.981 482.728 127.308C482.284 125.216 483.347 123.023 483.365 121.053C483.022 120.47 482.679 119.887 482.336 119.304L483.418 115.14C483.075 114.557 482.27 113.854 482.39 113.392C482.648 110.496 484.294 107.959 484.089 104.943C483.168 91.3702 483.291 77.5746 484.461 63.557C484.598 61.1237 485.199 58.8102 485.337 56.3759C485.457 55.9138 484.189 55.0907 484.309 54.6285C488.007 40.3819 488.481 25.301 486.569 10.8023C483.954 14.9083 481.157 19.0828 478.668 23.1409C481.157 19.0828 483.954 14.9083 486.569 10.8023C486.431 9.76124 486.284 8.72326 486.122 7.689C486.362 6.76334 486.602 5.83768 486.844 4.91244C486.638 3.35322 486.405 1.78976 486.162 0.224553C484.862 3.24069 483.518 6.23946 483.111 9.59703C482.736 10.5723 484.615 12.97 483.078 14.0594C478.17 16.6533 478.553 22.9524 475.896 26.9684C475.408 26.7806 473.945 26.221 473.945 26.221C471.215 31.886 469.948 38.1128 467.218 43.7778L465.267 43.0304C464.26 47.1187 460.701 49.1114 457.628 51.2902C456.767 52.079 456.995 54.4032 456.134 55.192C455.645 55.0052 454.67 54.631 454.183 54.4446C452.875 57.8581 449.087 57.5254 449.242 61.5009C446.991 60.0788 444.82 64.2807 443.099 65.8579C442.61 65.6711 441.635 65.2969 441.148 65.1105C440.285 65.8989 440.514 68.2235 439.652 69.0119L437.701 68.2645C436.84 69.0533 437.068 71.3775 436.206 72.1663C435.719 71.9799 434.744 71.6058 434.255 71.4189C433.394 72.2078 433.622 74.5319 432.761 75.3208C432.273 75.1343 431.298 74.7602 430.81 74.5734C429.575 76.3369 430.477 78.361 426.617 79.6787C425.756 80.4666 425.983 82.7917 425.122 83.5796C424.635 83.3932 423.659 83.0199 423.171 82.8322C421.936 84.5963 422.838 86.6208 418.978 87.9375C418.117 88.7264 418.532 90.5631 417.483 91.8389C416.622 92.6282 415.646 92.255 414.785 93.0429C413.736 94.3187 414.338 95.6685 413.29 96.9443C412.428 97.7331 411.453 97.359 410.592 98.1482C409.543 99.424 409.958 101.261 409.097 102.05L407.146 101.302C405.236 103.367 405.278 106.18 402.994 109.219C399.662 113.536 396.932 119.201 396.267 126.777C395.487 133.19 393.546 139.718 388.492 145.611C383.925 151.692 383.862 160.616 379.294 166.696C377.758 167.786 376.824 170.224 375.59 171.988C374.728 172.777 373.752 172.404 372.89 173.191C371.656 174.956 371.884 177.28 370.649 179.045C369.787 179.832 368.811 179.459 367.95 180.248C366.715 182.012 366.756 184.823 365.221 185.913C361.1 189.368 358.443 193.384 356.575 198.261C356.387 198.749 354.737 198.677 353.876 199.465C352.454 201.717 352.308 205.016 350.886 207.268C350.024 208.057 349.049 207.682 348.188 208.472C346.766 210.723 346.62 214.023 345.198 216.275C344.337 217.063 343.361 216.69 342.5 217.478C341.078 219.73 340.933 223.03 339.511 225.281C339.022 225.094 338.047 224.721 337.56 224.534C336.138 226.785 336.293 230.761 334.268 231.663C331.197 233.841 331.539 237.329 329.629 239.393L327.678 238.646C326.443 240.41 326.484 243.222 325.135 243.824C318.016 247.808 315.4 254.636 307.605 258.921C304.232 260.425 299.511 262.531 296.666 267.034C296.179 266.848 295.204 266.474 294.716 266.286C294.529 266.774 294.156 267.75 293.968 268.237L292.017 267.491C291.758 269.628 290.409 270.229 288.572 270.644L286.621 269.897C286.434 270.385 286.06 271.36 285.873 271.848C285.386 271.661 284.411 271.287 283.923 271.1C283.663 273.238 282.314 273.84 280.477 274.255L278.526 273.507C278.567 276.32 274.292 275.801 274.333 278.613L272.382 277.865C272.196 278.353 271.822 279.328 271.635 279.816C271.146 279.629 270.171 279.255 269.684 279.069L268.937 281.019L266.985 280.272C259.42 286.881 249.188 290.231 241.507 295.679C240.459 296.955 236.972 297.297 237.013 300.109C236.526 299.922 235.55 299.548 235.062 299.361L234.315 301.313L232.365 300.565C231.129 302.329 231.357 304.654 230.122 306.418C229.634 306.231 228.659 305.857 228.171 305.67C226.936 307.434 227.839 309.458 223.978 310.776C223.116 311.564 223.344 313.889 222.483 314.677C218.549 317.644 216.079 321.173 213.609 324.7C212.073 325.79 211.138 328.229 209.904 329.992C209.042 330.781 208.066 330.407 207.205 331.196C206.157 332.472 206.572 334.309 205.71 335.097C205.223 334.911 204.247 334.537 203.759 334.35C202.525 336.114 203.427 338.138 199.566 339.455C198.705 340.243 198.933 342.568 198.072 343.356C197.583 343.169 196.609 342.797 196.121 342.609C194.885 344.373 195.113 346.698 193.879 348.462L191.928 347.714C190.692 349.478 190.619 351.129 188.035 353.494C185.077 356.835 180.77 360.777 176.649 364.233C175.788 365.021 176.016 367.346 175.155 368.134C174.668 367.948 173.692 367.574 173.204 367.387C160.47 378.727 148.222 390.255 131.546 397.289C123.637 400.411 116.518 404.396 108.61 407.518C108.422 408.005 108.049 408.981 107.862 409.469C107.374 409.282 106.399 408.908 105.912 408.721C105.725 409.209 105.351 410.184 105.165 410.672L103.213 409.925C93.9972 416.461 84.668 421.835 74.7354 425.86C74.5486 426.348 74.1754 427.324 73.988 427.811C73.5007 427.625 72.525 427.251 72.0371 427.064C71.8507 427.551 71.4771 428.528 71.2898 429.015C69.2247 427.105 66.7547 430.633 64.6897 428.723C64.5028 429.212 64.1296 430.187 63.9423 430.674C63.4549 430.488 62.4796 430.114 61.9913 429.927L61.244 431.878L59.2931 431.13C59.1066 431.618 58.7325 432.593 58.5457 433.081C58.0587 432.894 57.0831 432.521 56.5948 432.334C56.4084 432.821 56.0351 433.797 55.8474 434.285C55.3595 434.097 54.3838 433.724 53.8969 433.537L53.1495 435.487L51.1986 434.74C51.0118 435.228 50.6376 436.204 50.4512 436.691C49.9638 436.505 48.9886 436.13 48.5003 435.944C48.3135 436.432 47.9402 437.407 47.7529 437.894L45.802 437.147C41.609 442.252 36.6592 442.034 31.5632 445.116L30.8158 447.066C30.3279 446.879 29.3522 446.506 28.8653 446.318C20.5518 454.878 8.78341 459.318 3.99722 470.35C3.99722 470.35 2.53462 469.789 2.04674 469.601C1.18522 470.39 1.41349 472.714 0.551971 473.503C0.377875 473.64 0.204173 473.776 0.0300774 473.913C14.7012 468.591 28.0065 463.767 43.4497 461.207C45.0777 460.642 48.6586 462.065 49.037 458.707C50.6481 460.113 52.6367 458.16 53.2187 457.817C59.0471 454.391 64.8746 450.965 71.3876 448.705C72.4327 448.483 73.9591 446.41 75.5693 447.815C75.69 447.352 75.9289 446.427 75.9289 446.427C76.9749 446.205 77.6598 447.37 78.7058 447.148C78.7058 447.148 78.9456 446.223 79.0655 445.759C80.4533 446.12 81.2595 446.823 83.5899 445.452C84.1728 445.11 85.4412 445.933 86.3659 446.172L88.1152 445.146C90.0851 445.163 91.6962 446.569 93.6673 446.586C94.2489 446.244 94.9522 445.439 95.4157 445.559C98.6539 446.399 101.55 446.657 104.806 445.527C106.555 444.5 108.97 446.608 111.404 446.745C111.867 446.866 112.57 446.061 113.153 445.718C115.586 445.856 117.317 446.799 120.333 446.594C122.424 446.15 124.034 447.555 126.005 447.572C126.588 447.231 127.29 446.424 127.753 446.545C130.65 446.803 133.185 448.448 136.081 448.706C136.545 448.826 137.367 447.559 137.829 447.679C141.531 448.64 144.77 449.48 148.267 447.425C149.312 447.202 150.117 447.905 151.043 448.145C151.625 447.803 152.208 447.46 152.791 447.117C153.717 447.358 154.521 448.061 155.567 447.839C157.315 446.81 158.943 446.245 160.452 446.144C165.541 447.464 170.306 446.232 175.413 445.582C176.921 445.479 178.532 446.885 179.234 446.08C180.983 445.052 183.056 446.578 184.805 445.551C185.507 444.745 187.581 446.271 188.745 445.586C190.957 444.678 193.631 443.89 195.139 443.788C199.423 444.406 202.114 441.648 206.056 441.683C206.981 441.924 207.786 442.627 208.832 442.404C211.506 441.616 214.179 440.829 216.733 440.504C219.286 440.179 222.183 440.437 224.514 439.067C225.559 438.844 226.245 440.01 227.29 439.787C228.335 439.565 229.741 437.954 230.787 437.732C231.832 437.509 232.517 438.675 233.563 438.452C239.613 436.072 244.155 433.794 251.113 433.624C264.806 432.241 275.434 423.641 289.042 418.777C293.927 417.082 296.396 413.278 300.938 411C310.604 406.102 316.366 397.227 325.245 389.654C325.947 388.849 328.382 388.986 329.666 387.839C345.695 371.751 367.632 369.05 386.281 358.087C387.566 356.939 388.51 355.209 390.138 354.643C391.646 354.542 392.109 354.661 394.799 351.903C400.886 345.581 405.823 337.974 409.836 330.126C410.418 329.783 411.464 329.561 411.584 329.098C413.128 325.054 413.283 320.649 414.826 316.606C414.947 316.143 416.455 316.04 416.575 315.578C417.879 312.459 417.794 308.981 419.559 305.982C421.085 303.909 421.223 301.475 422.286 299.282C422.406 298.82 423.915 298.717 424.035 298.254C425.218 295.598 425.013 292.583 426.66 290.046C428.185 287.973 428.323 285.539 429.386 283.346C429.506 282.884 430.552 282.661 431.134 282.319C431.494 280.931 431.855 279.542 432.216 278.154C432.798 277.812 433.844 277.589 433.963 277.126C436.33 271.815 436.263 266.365 439.212 260.71" fill="#516F59"/>
</svg>
