<?xml version="1.0" encoding="UTF-8" standalone="no"?>
<svg
   xmlns:dc="http://purl.org/dc/elements/1.1/"
   xmlns:cc="http://creativecommons.org/ns#"
   xmlns:rdf="http://www.w3.org/1999/02/22-rdf-syntax-ns#"
   xmlns:svg="http://www.w3.org/2000/svg"
   xmlns="http://www.w3.org/2000/svg"
   xmlns:sodipodi="http://sodipodi.sourceforge.net/DTD/sodipodi-0.dtd"
   xmlns:inkscape="http://www.inkscape.org/namespaces/inkscape"
   width="429.49301pt"
   height="486.32748pt"
   version="1.1"
   viewBox="0 0 429.49301 486.32748"
   id="svg147"
   sodipodi:docname="noun-boy-3201439.svg"
   inkscape:version="1.0.2 (e86c870879, 2021-01-15)">
  <metadata
     id="metadata151">
    <rdf:RDF>
      <cc:Work
         rdf:about="">
        <dc:format>image/svg+xml</dc:format>
        <dc:type
           rdf:resource="http://purl.org/dc/dcmitype/StillImage" />
      </cc:Work>
    </rdf:RDF>
  </metadata>
  <sodipodi:namedview
     pagecolor="#ffffff"
     bordercolor="#666666"
     borderopacity="1"
     objecttolerance="10"
     gridtolerance="10"
     guidetolerance="10"
     inkscape:pageopacity="0"
     inkscape:pageshadow="2"
     inkscape:window-width="1920"
     inkscape:window-height="990"
     id="namedview149"
     showgrid="false"
     inkscape:zoom="0.645"
     inkscape:cx="286.33551"
     inkscape:cy="417.56688"
     inkscape:window-x="0"
     inkscape:window-y="32"
     inkscape:window-maximized="1"
     inkscape:current-layer="g145" />
  <defs
     id="defs65">
    <symbol
       id="u"
       overflow="visible">
      <path
         d="m 24.688,-1.4688 c -1.2734,0.65625 -2.6016,1.1523 -3.9844,1.4844 -1.375,0.33203 -2.8125,0.5 -4.3125,0.5 -4.4805,0 -8.0273,-1.25 -10.641,-3.75 -2.6172,-2.5 -3.9219,-5.8906 -3.9219,-10.172 0,-4.2891 1.3047,-7.6875 3.9219,-10.188 2.6133,-2.5 6.1602,-3.75 10.641,-3.75 1.5,0 2.9375,0.16797 4.3125,0.5 1.3828,0.33594 2.7109,0.83594 3.9844,1.5 v 5.5469 c -1.293,-0.875 -2.5625,-1.5156 -3.8125,-1.9219 -1.2422,-0.40625 -2.5469,-0.60938 -3.9219,-0.60938 -2.4805,0 -4.4297,0.79297 -5.8438,2.375 -1.4062,1.5859 -2.1094,3.7656 -2.1094,6.5469 0,2.7734 0.70312,4.9492 2.1094,6.5312 1.4141,1.5859 3.3633,2.375 5.8438,2.375 1.375,0 2.6797,-0.20312 3.9219,-0.60938 1.25,-0.40625 2.5195,-1.0469 3.8125,-1.9219 z"
         id="path2" />
    </symbol>
    <symbol
       id="c"
       overflow="visible">
      <path
         d="m 18.062,-14.656 c -0.5625,-0.26953 -1.125,-0.46875 -1.6875,-0.59375 -0.55469,-0.125 -1.1094,-0.1875 -1.6719,-0.1875 -1.6562,0 -2.9336,0.53125 -3.8281,1.5938 -0.89844,1.0625 -1.3438,2.5859 -1.3438,4.5625 V 2.5e-4 H 3.0932 v -20.156 h 6.4375 v 3.3125 c 0.83203,-1.3125 1.7852,-2.2695 2.8594,-2.875 1.0703,-0.61328 2.3594,-0.92188 3.8594,-0.92188 0.20703,0 0.4375,0.01172 0.6875,0.03125 0.25781,0.02344 0.62891,0.0625 1.1094,0.125 z"
         id="path5" />
    </symbol>
    <symbol
       id="b"
       overflow="visible">
      <path
         d="m 23.203,-10.125 v 1.8281 H 8.156 c 0.15625,1.5117 0.69531,2.6484 1.625,3.4062 0.9375,0.75 2.2422,1.125 3.9219,1.125 1.3516,0 2.7383,-0.19531 4.1562,-0.59375 1.4258,-0.40625 2.8906,-1.0156 4.3906,-1.8281 v 4.9688 c -1.5234,0.57422 -3.043,1.0078 -4.5625,1.2969 -1.5234,0.28906 -3.0469,0.4375 -4.5781,0.4375 -3.6484,0 -6.4805,-0.92188 -8.5,-2.7656 -2.0234,-1.8516 -3.0312,-4.457 -3.0312,-7.8125 0,-3.2812 0.98828,-5.8633 2.9688,-7.75 1.9883,-1.8828 4.7227,-2.8281 8.2031,-2.8281 3.1641,0 5.6953,0.96094 7.5938,2.875 1.9062,1.9062 2.8594,4.4531 2.8594,7.6406 z m -6.6094,-2.1406 c 0,-1.2266 -0.35938,-2.2188 -1.0781,-2.9688 -0.71094,-0.75 -1.6406,-1.125 -2.7969,-1.125 -1.25,0 -2.2656,0.35547 -3.0469,1.0625 -0.77344,0.69922 -1.2578,1.7109 -1.4531,3.0312 z"
         id="path8" />
    </symbol>
    <symbol
       id="e"
       overflow="visible">
      <path
         d="m 12.125,-9.0625 c -1.3438,0 -2.3555,0.23047 -3.0312,0.6875 -0.67969,0.44922 -1.0156,1.1172 -1.0156,2 0,0.82422 0.26953,1.4648 0.8125,1.9219 0.55078,0.46094 1.3125,0.6875 2.2812,0.6875 1.207,0 2.2227,-0.42969 3.0469,-1.2969 0.83203,-0.875 1.25,-1.9609 1.25,-3.2656 V -9.06248 Z M 21.9688,-11.5 V 0 h -6.5 v -2.9844 c -0.86719,1.2188 -1.8398,2.1094 -2.9219,2.6719 -1.0742,0.55078 -2.3828,0.82812 -3.9219,0.82812 -2.0938,0 -3.793,-0.60156 -5.0938,-1.8125 -1.3047,-1.2188 -1.9531,-2.8008 -1.9531,-4.75 0,-2.3633 0.8125,-4.0977 2.4375,-5.2031 1.625,-1.1016 4.1758,-1.6562 7.6562,-1.6562 h 3.7969 v -0.5 c 0,-1.0195 -0.40234,-1.7656 -1.2031,-2.2344 -0.80469,-0.47656 -2.0586,-0.71875 -3.7656,-0.71875 -1.375,0 -2.6562,0.14062 -3.8438,0.42188 -1.1875,0.27344 -2.293,0.68359 -3.3125,1.2344 v -4.9062 c 1.3828,-0.33203 2.7695,-0.58594 4.1562,-0.76562 1.3945,-0.17578 2.7852,-0.26562 4.1719,-0.26562 3.6328,0 6.2578,0.71875 7.875,2.1562 1.6133,1.4375 2.4219,3.7656 2.4219,6.9844 z"
         id="path11" />
    </symbol>
    <symbol
       id="a"
       overflow="visible">
      <path
         d="m 10.125,-25.875 v 5.7188 h 6.6406 v 4.6094 H 10.125 v 8.5469 c 0,0.9375 0.1875,1.5742 0.5625,1.9062 0.375,0.32422 1.1133,0.48438 2.2188,0.48438 h 3.2969 V 8e-5 h -5.5156 c -2.543,0 -4.3438,-0.53125 -5.4062,-1.5938 -1.0624,-1.06255 -1.5938,-2.8633 -1.5938,-5.4062 v -8.5469 H 0.4845 v -4.6094 h 3.2031 v -5.7188 z"
         id="path14" />
    </symbol>
    <symbol
       id="k"
       overflow="visible">
      <path
         d="M 16.797,-17.203 V -28 h 6.4844 V 0 H 16.797 v -2.9219 c -0.88672,1.1875 -1.8672,2.0586 -2.9375,2.6094 -1.0625,0.55078 -2.293,0.82812 -3.6875,0.82812 -2.4922,0 -4.5312,-0.98438 -6.125,-2.9531 -1.5938,-1.96872 -2.3906,-4.5078 -2.3906,-7.625 0,-3.1016 0.79688,-5.6406 2.3906,-7.6094 1.5938,-1.9766 3.6328,-2.9688 6.125,-2.9688 1.3828,0 2.6133,0.28125 3.6875,0.84375 1.0703,0.55469 2.0508,1.418 2.9375,2.5938 z m -4.2344,13.047 c 1.375,0 2.4219,-0.5 3.1406,-1.5 0.72656,-1.0078 1.0938,-2.4766 1.0938,-4.4062 0,-1.9141 -0.36719,-3.375 -1.0938,-4.375 -0.71875,-1.0078 -1.7656,-1.5156 -3.1406,-1.5156 -1.375,0 -2.4297,0.50781 -3.1562,1.5156 -0.71875,1 -1.0781,2.4609 -1.0781,4.375 0,1.9297 0.35938,3.3984 1.0781,4.4062 0.72656,1 1.7812,1.5 3.1562,1.5 z"
         id="path17" />
    </symbol>
    <symbol
       id="j"
       overflow="visible">
      <path
         d="m 13.812,-4.1562 c 1.3828,0 2.4375,-0.5 3.1562,-1.5 0.72656,-1.0078 1.0938,-2.4766 1.0938,-4.4062 0,-1.9141 -0.36719,-3.375 -1.0938,-4.375 -0.71875,-1.0078 -1.7734,-1.5156 -3.1562,-1.5156 -1.375,0 -2.4336,0.50781 -3.1719,1.5156 -0.74219,1.0117 -1.1094,2.4688 -1.1094,4.375 0,1.9062 0.36719,3.3711 1.1094,4.3906 0.73828,1.0117 1.7969,1.5156 3.1719,1.5156 z m -4.2812,-13.047 c 0.88281,-1.1758 1.8672,-2.0391 2.9531,-2.5938 1.082,-0.5625 2.3203,-0.84375 3.7188,-0.84375 2.4883,0 4.5312,0.99219 6.125,2.9688 1.5938,1.9688 2.3906,4.5078 2.3906,7.6094 0,3.1172 -0.79688,5.6562 -2.3906,7.625 -1.59372,1.9688 -3.6367,2.9531 -6.125,2.9531 -1.3984,0 -2.6367,-0.27734 -3.7188,-0.82812 -1.0859,-0.5625 -2.0703,-1.4297 -2.9531,-2.6094 V -7e-5 H 3.0933 v -28 h 6.4375 z"
         id="path20" />
    </symbol>
    <symbol
       id="i"
       overflow="visible">
      <path
         d="m 0.45312,-20.156 h 6.4375 l 5.4219,13.688 4.5938,-13.688 h 6.4375 l -8.4688,22.062 c -0.85547,2.2383 -1.8516,3.8047 -2.9844,4.7031 -1.125,0.89453 -2.6211,1.3438 -4.4844,1.3438 H 3.68742 V 3.7185 h 2.0156 c 1.0938,0 1.8828,-0.17188 2.375,-0.51562 0.5,-0.34375 0.89062,-0.96875 1.1719,-1.875 L 9.4218,0.781 Z"
         id="path23" />
    </symbol>
    <symbol
       id="h"
       overflow="visible">
      <path
         d="m 0.1875,-26.859 h 6.9531 l 7.125,19.828 7.1094,-19.828 h 6.9531 L 18.3906,0 H 10.125 Z"
         id="path26" />
    </symbol>
    <symbol
       id="g"
       overflow="visible">
      <path
         d="m 19.375,-19.516 v 5.25 c -0.875,-0.60156 -1.7578,-1.0469 -2.6406,-1.3281 -0.875,-0.28906 -1.7891,-0.4375 -2.7344,-0.4375 -1.8047,0 -3.2031,0.52734 -4.2031,1.5781 -1,1.0547 -1.5,2.5156 -1.5,4.3906 0,1.8867 0.5,3.3555 1.5,4.4062 1,1.0547 2.3984,1.5781 4.2031,1.5781 1,0 1.9531,-0.14844 2.8594,-0.45312 0.90625,-0.30078 1.7422,-0.74219 2.5156,-1.3281 v 5.2656 c -1.0117,0.375 -2.0391,0.64844 -3.0781,0.82812 -1.0312,0.1875 -2.0703,0.28125 -3.1094,0.28125 -3.6367,0 -6.4805,-0.92969 -8.5312,-2.7969 -2.0547,-1.8633 -3.0781,-4.457 -3.0781,-7.7812 0,-3.3203 1.0234,-5.9141 3.0781,-7.7812 2.0508,-1.8633 4.8945,-2.7969 8.5312,-2.7969 1.0508,0 2.0859,0.09375 3.1094,0.28125 1.0312,0.1875 2.0547,0.46875 3.0781,0.84375 z"
         id="path29" />
    </symbol>
    <symbol
       id="d"
       overflow="visible">
      <path
         d="m 12.688,-16.031 c -1.4297,0 -2.5156,0.51562 -3.2656,1.5469 -0.75,1.0234 -1.125,2.4961 -1.125,4.4219 0,1.9375 0.375,3.4219 1.125,4.4531 0.75,1.0234 1.8359,1.5312 3.2656,1.5312 1.3945,0 2.4609,-0.50781 3.2031,-1.5312 0.75,-1.0312 1.125,-2.5156 1.125,-4.4531 0,-1.9258 -0.375,-3.3984 -1.125,-4.4219 -0.74219,-1.0312 -1.8086,-1.5469 -3.2031,-1.5469 z m 0,-4.6094 c 3.457,0 6.1602,0.9375 8.1094,2.8125 1.957,1.875 2.9375,4.4648 2.9375,7.7656 0,3.3125 -0.98047,5.9062 -2.9375,7.7812 -1.9492,1.8672 -4.6523,2.7969 -8.1094,2.7969 -3.4805,0 -6.2031,-0.92969 -8.1719,-2.7969 -1.9609,-1.875 -2.9375,-4.4688 -2.9375,-7.7812 0,-3.3008 0.97656,-5.8906 2.9375,-7.7656 1.9688,-1.875 4.6914,-2.8125 8.1719,-2.8125 z"
         id="path32" />
    </symbol>
    <symbol
       id="t"
       overflow="visible">
      <path
         d="m 18.828,-19.516 v 4.8906 c -1.375,-0.57031 -2.7031,-1.0039 -3.9844,-1.2969 -1.2812,-0.28906 -2.4961,-0.4375 -3.6406,-0.4375 -1.2188,0 -2.125,0.15625 -2.7188,0.46875 -0.59375,0.30469 -0.89062,0.77344 -0.89062,1.4062 0,0.52344 0.22266,0.92188 0.67188,1.2031 0.44531,0.27344 1.2539,0.46875 2.4219,0.59375 l 1.125,0.17188 c 3.3008,0.41797 5.5195,1.1055 6.6562,2.0625 1.1445,0.96094 1.7188,2.4648 1.7188,4.5156 0,2.1484 -0.79297,3.7617 -2.375,4.8438 -1.5859,1.0742 -3.9492,1.6094 -7.0938,1.6094 -1.3359,0 -2.7109,-0.10547 -4.125,-0.3125 -1.418,-0.20703 -2.875,-0.51953 -4.375,-0.9375 v -4.8906 c 1.2812,0.61719 2.5938,1.0781 3.9375,1.3906 1.3516,0.3125 2.7227,0.46875 4.1094,0.46875 1.2578,0 2.207,-0.17188 2.8438,-0.51562 0.63281,-0.34375 0.95312,-0.85938 0.95312,-1.5469 0,-0.57031 -0.21875,-1 -0.65625,-1.2812 -0.4375,-0.2812 -1.3086,-0.5 -2.6094,-0.65625 l -1.1406,-0.15625 c -2.8672,-0.35156 -4.875,-1.0156 -6.0312,-1.9844 -1.1484,-0.97656 -1.7188,-2.457 -1.7188,-4.4375 0,-2.1328 0.72656,-3.7188 2.1875,-4.75 1.4688,-1.0312 3.7109,-1.5469 6.7344,-1.5469 1.1875,0 2.4297,0.09375 3.7344,0.28125 1.3125,0.17969 2.7344,0.46094 4.2656,0.84375 z"
         id="path35" />
    </symbol>
    <symbol
       id="f"
       overflow="visible">
      <path
         d="M 3.0938,-28 H 9.5313 V 0 H 3.0938 Z"
         id="path38" />
    </symbol>
    <symbol
       id="s"
       overflow="visible">
      <path
         d="m 16.359,-28 v 4.2344 h -3.5625 c -0.91797,0 -1.5586,0.16797 -1.9219,0.5 -0.35547,0.32422 -0.53125,0.89844 -0.53125,1.7188 v 1.3906 h 5.5 v 4.6094 h -5.5 V 2e-4 h -6.4375 v -15.547 h -3.2031 v -4.6094 h 3.2031 v -1.3906 c 0,-2.1953 0.60938,-3.8203 1.8281,-4.875 1.2266,-1.0508 3.125,-1.5781 5.6875,-1.5781 z"
         id="path41" />
    </symbol>
    <symbol
       id="r"
       overflow="visible">
      <path
         d="m 21.766,-16.797 c 0.8125,-1.25 1.7812,-2.2031 2.9062,-2.8594 1.125,-0.6563 2.3594,-0.98438 3.7031,-0.98438 2.3125,0 4.0703,0.71484 5.2812,2.1406 1.207,1.4297 1.8125,3.5078 1.8125,6.2344 v 12.266 h -6.4688 v -10.5 c 0.0078,-0.15625 0.01563,-0.31641 0.01563,-0.48438 0.0078,-0.17578 0.01563,-0.42188 0.01563,-0.73438 0,-1.4258 -0.21094,-2.457 -0.625,-3.0938 -0.41797,-0.64453 -1.0938,-0.96875 -2.0312,-0.96875 -1.2305,0 -2.1797,0.50781 -2.8438,1.5156 -0.65625,1.0117 -1,2.4688 -1.0312,4.375 v 9.8906 h -6.4688 v -10.5 c 0,-2.2383 -0.19531,-3.6758 -0.57812,-4.3125 -0.38672,-0.64453 -1.0703,-0.96875 -2.0469,-0.96875 -1.2422,0 -2.1992,0.51172 -2.875,1.5312 -0.66797,1.0117 -1,2.4609 -1,4.3438 V 6e-5 h -6.4688 v -20.156 h 6.4688 v 2.9531 c 0.78906,-1.1328 1.6953,-1.9883 2.7188,-2.5625 1.0312,-0.58203 2.1641,-0.875 3.4062,-0.875 1.3828,0 2.6094,0.33984 3.6719,1.0156 1.0703,0.66797 1.8828,1.6094 2.4375,2.8281 z"
         id="path44" />
    </symbol>
    <symbol
       id="q"
       overflow="visible">
      <path
         d="M 23.344,-12.266 V 0 h -6.4688 v -9.3594 c 0,-1.7578 -0.04297,-2.9688 -0.125,-3.625 -0.07422,-0.66406 -0.20312,-1.1562 -0.39062,-1.4688 -0.26172,-0.41406 -0.60547,-0.73828 -1.0312,-0.96875 -0.42969,-0.23828 -0.91797,-0.35938 -1.4688,-0.35938 -1.3438,0 -2.4023,0.52344 -3.1719,1.5625 -0.77344,1.0312 -1.1562,2.4688 -1.1562,4.3125 v 9.9062 h -6.4375 v -28 h 6.4375 v 10.797 c 0.96875,-1.1758 2,-2.0391 3.0938,-2.5938 1.0938,-0.5625 2.3008,-0.84375 3.625,-0.84375 2.3203,0 4.082,0.71484 5.2812,2.1406 1.207,1.4297 1.8125,3.5078 1.8125,6.2344 z"
         id="path47" />
    </symbol>
    <symbol
       id="p"
       overflow="visible">
      <path
         d="m 3.375,-26.859 h 7.75 l 9.7656,18.422 v -18.422 h 6.5625 V 0 H 19.7187 L 9.9531,-18.422 V 0 H 3.375 Z"
         id="path50" />
    </symbol>
    <symbol
       id="o"
       overflow="visible">
      <path
         d="m 2.875,-7.8438 v -12.312 h 6.4844 v 2.0156 c 0,1.0938 -0.011719,2.4688 -0.03125,4.125 -0.011719,1.6484 -0.015625,2.7461 -0.015625,3.2969 0,1.6172 0.039062,2.7812 0.125,3.5 0.09375,0.71094 0.23828,1.2266 0.4375,1.5469 0.25781,0.42969 0.60156,0.75781 1.0312,0.98438 0.42578,0.21875 0.91406,0.32812 1.4688,0.32812 1.3438,0 2.3945,-0.51562 3.1562,-1.5469 0.76953,-1.0312 1.1562,-2.4609 1.1562,-4.2969 v -9.9531 h 6.4531 V 2e-4 h -6.4531 v -2.9219 c -0.96875,1.1797 -1.9961,2.0469 -3.0781,2.6094 -1.0859,0.55078 -2.2812,0.82812 -3.5938,0.82812 -2.3242,0 -4.0938,-0.71094 -5.3125,-2.1406 -1.2188,-1.4258 -1.8281,-3.5 -1.8281,-6.2188 z"
         id="path53" />
    </symbol>
    <symbol
       id="n"
       overflow="visible">
      <path
         d="M 23.344,-12.266 V 0 h -6.4688 v -9.3906 c 0,-1.7383 -0.04297,-2.9375 -0.125,-3.5938 -0.07422,-0.66406 -0.20312,-1.1562 -0.39062,-1.4688 -0.26172,-0.41406 -0.60547,-0.73828 -1.0312,-0.96875 -0.42969,-0.23828 -0.91797,-0.35938 -1.4688,-0.35938 -1.3438,0 -2.4023,0.52344 -3.1719,1.5625 -0.77344,1.0312 -1.1562,2.4688 -1.1562,4.3125 v 9.9062 h -6.4375 v -20.156 h 6.4375 v 2.9531 c 0.96875,-1.1758 2,-2.0391 3.0938,-2.5938 1.0938,-0.5625 2.3008,-0.84375 3.625,-0.84375 2.3203,0 4.082,0.71484 5.2812,2.1406 1.207,1.4297 1.8125,3.5078 1.8125,6.2344 z"
         id="path56" />
    </symbol>
    <symbol
       id="m"
       overflow="visible">
      <path
         d="m 3.375,-26.859 h 11.5 c 3.4141,0 6.0352,0.76172 7.8594,2.2812 1.832,1.5117 2.75,3.6719 2.75,6.4844 0,2.8125 -0.91797,4.9805 -2.75,6.5 -1.8242,1.5234 -4.4453,2.2812 -7.8594,2.2812 H 10.3125 V 3e-4 H 3.375 Z m 6.9375,5.0156 v 7.5 h 3.8281 c 1.3438,0 2.3789,-0.32031 3.1094,-0.96875 0.72656,-0.65625 1.0938,-1.582 1.0938,-2.7812 0,-1.1953 -0.36719,-2.1172 -1.0938,-2.7656 -0.73047,-0.65625 -1.7656,-0.98438 -3.1094,-0.98438 z"
         id="path59" />
    </symbol>
    <symbol
       id="l"
       overflow="visible">
      <path
         d="m 3.0938,-20.156 h 6.4375 v 19.797 c 0,2.6953 -0.64844,4.7539 -1.9375,6.1719 C 6.3008,7.2387 4.4219,7.9535 1.9532,7.9535 H -1.2187 V 3.7191 h 1.1094 c 1.2266,0 2.0664,-0.27734 2.5156,-0.82812 0.45703,-0.55469 0.6875,-1.6367 0.6875,-3.25 z m 0,-7.8438 h 6.4375 v 5.2656 H 3.0938 Z"
         id="path62" />
    </symbol>
  </defs>
  <g
     id="g145"
     transform="translate(-135.24837,-36.82484)">
    <path
       d="m 554.73,424.96 c -0.24609,-1.0859 -0.75,-2.0273 -1.3867,-2.8555 -15.293,-32.23 -44.77,-57.055 -80.965,-65.051 l -65.91,-15.988 -4.5156,-16.617 c 1.3477,-1.0078 2.707,-1.9883 4.0078,-3.082 27.363,-23.051 39.922,-49.66 44.812,-76.719 15.582,-2.207 24.953,-12.312 25.887,-28.48 0.99609,-17.34 -6.4648,-25.027 -13,-28.441 7.5547,-21.723 14.223,-54.328 2.793,-86.293 -3.2773,-9.2539 -9.9844,-16.34 -18.332,-19.414 -1.5859,-0.59766 -8.0859,-2.8438 -14.914,-2.7109 -6.1406,-13.824 -25.254,-45.707 -70.09,-42.219 l -25.676,0.02344 c -45.23,-3.4844 -64.418,28.352 -70.582,42.18 -6.9453,-0.19531 -13.352,2.1211 -14.836,2.6992 -8.3594,3.043 -15.09,10.102 -18.488,19.43 -11.387,31.969 -4.7031,64.574 2.8555,86.297 -6.5391,3.4141 -14.012,11.094 -13.016,28.453 0.93359,16.172 10.305,26.273 25.887,28.48 4.8945,27.062 17.449,53.672 44.812,76.719 1.293,1.0898 2.6445,2.0586 3.9805,3.0625 l -4.4727,16.641 -10.492,2.543 c -0.0234,0.008 -0.0469,0.0117 -0.0703,0.0156 l -55.188,13.383 c -36.344,8.0312 -65.891,32.891 -81.199,65.148 -0.27344,0.36328 -0.41797,0.80859 -0.625,1.2266 -0.0664,0.14844 -0.13281,0.29688 -0.19922,0.44141 -0.16016,0.38281 -0.41016,0.70703 -0.50391,1.125 -0.008,0.0391 0.004,0.0742 -0.004,0.11328 -6.4414,14.582 -10.051,30.559 -10.051,47.148 v 43.543 c 0,4.0742 3.3008,7.3672 7.3672,7.3672 h 76.914 c 0.0469,0.004 0.0781,0.0234 0.11328,0.0234 0.0391,0 0.0703,-0.0195 0.10547,-0.0234 l 260.54,0.004 c 0.0391,0 0.0703,0.0195 0.10938,0.0195 0.0391,0 0.0703,-0.0195 0.10547,-0.0234 h 76.871 c 4.0703,0 7.3672,-3.2969 7.3672,-7.3672 v -43.543 c 0,-16.559 -3.5938,-32.508 -10,-47.062 -0.0156,-0.0625 0.008,-0.12891 -0.008,-0.19531 z M 461.945,215.31 c -0.30859,5.3359 -1.8359,11.266 -9.1875,13.812 0.48047,-5.8945 0.67578,-11.773 0.62891,-17.621 1.0273,-1.8906 2.7578,-5.2578 4.832,-9.918 2.2109,1.7852 4.2031,5.4883 3.7266,13.727 z m -214.54,-108.9 c 1.8867,-5.1719 5.4102,-9.0312 9.8008,-10.637 3.6523,-1.4102 9.1992,-2.3477 11.785,-1.3672 1.9258,0.71875 4.0664,0.58984 5.8984,-0.33203 1.8359,-0.92969 3.1992,-2.5742 3.7578,-4.5547 0.48047,-1.6836 12.305,-41.195 58.223,-37.707 l 26.824,-0.02344 c 45.051,-3.582 57.23,36.066 57.719,37.727 0.5625,1.9805 1.9258,3.625 3.7578,4.5547 1.8438,0.92188 3.9648,1.0586 5.9023,0.32422 2.5742,-0.96484 8.0273,-0.04297 11.891,1.418 4.2227,1.5547 7.8125,5.4922 9.6055,10.551 9.1836,25.688 4.6211,52.676 -1.4766,72.066 -2.3828,-17.711 -10.152,-31.273 -23.211,-40.254 -27.289,-18.766 -68.555,-10.879 -77.867,-8.7578 -9.3125,-2.1094 -50.57,-10.008 -77.863,8.7578 -13.055,8.9688 -20.82,22.527 -23.207,40.227 -6.0977,-19.383 -10.672,-46.348 -1.5391,-71.992 z m -9.3086,108.9 c -0.47266,-8.2617 1.5273,-11.961 3.7422,-13.746 2.0625,4.6406 3.7852,7.9922 4.8164,9.8945 -0.0469,5.8633 0.14844,11.758 0.62891,17.664 -7.3516,-2.543 -8.8828,-8.4727 -9.1875,-13.812 z m 25.223,-33.508 c 1.6172,-14.328 7.2227,-24.617 17.156,-31.461 10.914,-7.5195 25.32,-9.6211 38.043,-9.6211 16.055,0 29.418,3.3516 29.66,3.4102 1.2031,0.30859 2.4766,0.30859 3.6914,0 0.42969,-0.10938 42.898,-10.852 67.668,6.1875 9.9492,6.8438 15.57,17.141 17.188,31.48 5.043,44.773 3.6641,91.301 -40.258,128.29 -26.914,22.668 -65.984,22.668 -92.895,0 h -0.004 c -43.914,-36.992 -45.293,-83.52 -40.25,-128.29 z m 37.984,172.56 c 2.6172,-0.63281 4.6758,-2.6484 5.3789,-5.2461 l 4.4609,-16.578 c 12.23,6.1562 25.543,9.3086 38.883,9.3047 13.328,0 26.637,-3.1484 38.863,-9.2969 l 4.5078,16.586 c 0.70312,2.5977 2.7617,4.5977 5.3711,5.2305 l 9.0938,2.207 c -0.004,0.0469 0,0.0781 -0.004,0.125 -1.3008,18.688 -27.246,33.891 -57.832,33.891 -30.59,0 -56.531,-15.203 -57.828,-33.883 -0.004,-0.0469 0,-0.082 -0.004,-0.12891 z m -70.141,17.012 46.66,-11.316 c 3.5078,25.559 34.539,45.266 72.199,45.266 37.66,0 68.691,-19.707 72.203,-45.27 l 46.828,11.355 c 29.145,6.4375 53.309,25.258 67.441,50.105 l -11.312,2.5469 c -30.707,6.9141 -52.156,33.727 -52.156,65.207 v 19.125 h -246.01 v -19.125 c 0,-31.48 -21.445,-58.293 -52.156,-65.207 l -11.336,-2.5508 c 14.164,-24.848 38.379,-43.672 67.641,-50.137 z m -81.168,100.85 c 0,-12.945 2.543,-25.449 7.082,-37.059 l 14.551,3.2773 c 23.938,5.3906 40.656,26.293 40.656,50.832 v 19.125 h -62.285 z m 400.01,36.172 h -62.238 v -19.125 c 0,-24.539 16.719,-45.441 40.656,-50.832 l 14.516,-3.2695 c 4.5273,11.605 7.0664,24.109 7.0664,37.051 z"
       id="path67" />
  </g>
</svg>
