<svg width="26" height="26" viewBox="0 0 26 26" fill="none" xmlns="http://www.w3.org/2000/svg">
<path d="M18.5401 9.81014C20.1748 9.81014 21.5001 8.4849 21.5001 6.85014C21.5001 5.21537 20.1748 3.89014 18.5401 3.89014C16.9053 3.89014 15.5801 5.21537 15.5801 6.85014C15.5801 8.4849 16.9053 9.81014 18.5401 9.81014Z" fill="#292D32"/>
<path d="M7.46 9.81014C9.09476 9.81014 10.42 8.4849 10.42 6.85014C10.42 5.21537 9.09476 3.89014 7.46 3.89014C5.82524 3.89014 4.5 5.21537 4.5 6.85014C4.5 8.4849 5.82524 9.81014 7.46 9.81014Z" fill="#292D32"/>
<path d="M18.5401 22.1099C20.1748 22.1099 21.5001 20.7847 21.5001 19.1499C21.5001 17.5152 20.1748 16.1899 18.5401 16.1899C16.9053 16.1899 15.5801 17.5152 15.5801 19.1499C15.5801 20.7847 16.9053 22.1099 18.5401 22.1099Z" fill="#292D32"/>
<path d="M7.46 22.1099C9.09476 22.1099 10.42 20.7847 10.42 19.1499C10.42 17.5152 9.09476 16.1899 7.46 16.1899C5.82524 16.1899 4.5 17.5152 4.5 19.1499C4.5 20.7847 5.82524 22.1099 7.46 22.1099Z" fill="#292D32"/>
</svg>
