<svg width="171" height="202" viewBox="0 0 171 202" fill="none" xmlns="http://www.w3.org/2000/svg">
<path fill-rule="evenodd" clip-rule="evenodd" d="M137.497 149.788C137.589 150.017 137.435 150.256 137.278 150.5C137.158 150.688 137.035 150.879 137.022 151.069C136.991 151.512 137.298 151.971 137.591 152.409C137.756 152.655 137.916 152.894 138.01 153.12C138.179 153.528 138.301 153.952 138.423 154.376C138.453 154.478 138.483 154.581 138.513 154.683C138.531 154.745 138.549 154.807 138.566 154.87L138.567 154.871L138.567 154.871C138.64 155.129 138.716 155.396 138.833 155.633C138.896 155.76 138.995 155.859 139.094 155.957L139.094 155.957C139.126 155.988 139.157 156.02 139.187 156.052C139.244 156.113 139.262 156.151 139.284 156.199C139.291 156.215 139.299 156.232 139.309 156.251C139.328 156.287 139.351 156.317 139.373 156.346C139.4 156.381 139.426 156.415 139.445 156.458C139.529 156.64 139.595 156.754 139.731 156.902C139.776 156.949 139.804 157.006 139.832 157.062C139.869 157.137 139.905 157.211 139.98 157.261C140.008 157.28 140.029 157.286 140.05 157.293C140.077 157.302 140.104 157.31 140.139 157.342C140.192 157.388 140.224 157.451 140.255 157.515C140.278 157.56 140.3 157.605 140.331 157.645C140.357 157.678 140.387 157.707 140.416 157.735L140.416 157.735C140.462 157.78 140.507 157.825 140.539 157.885C140.551 157.909 140.559 157.93 140.567 157.949C140.583 157.994 140.597 158.029 140.657 158.073C140.68 158.09 140.701 158.099 140.723 158.109C140.751 158.123 140.781 158.136 140.817 158.168C140.852 158.2 140.881 158.214 140.91 158.228C140.932 158.238 140.953 158.247 140.975 158.264C141.082 158.343 141.137 158.442 141.195 158.546C141.216 158.583 141.237 158.62 141.261 158.658C141.332 158.769 141.474 158.91 141.574 158.996C141.633 159.048 141.704 159.075 141.776 159.102C141.829 159.122 141.883 159.142 141.933 159.172C142.122 159.285 142.288 159.486 142.443 159.672L142.443 159.672L142.443 159.673L142.443 159.673C142.495 159.736 142.546 159.797 142.596 159.852C142.672 159.938 142.733 159.949 142.808 159.963C142.848 159.971 142.893 159.979 142.946 159.999C143.085 160.053 143.166 160.134 143.27 160.249C143.286 160.267 143.302 160.284 143.318 160.302C143.399 160.394 143.475 160.48 143.584 160.526C143.602 160.534 143.622 160.541 143.644 160.548C143.68 160.56 143.718 160.572 143.744 160.591C143.76 160.601 143.771 160.619 143.782 160.637C143.794 160.655 143.805 160.673 143.821 160.684C143.843 160.699 143.862 160.701 143.882 160.703C143.901 160.705 143.92 160.706 143.941 160.721C143.968 160.739 143.984 160.757 143.999 160.774C144.024 160.801 144.044 160.824 144.1 160.835C144.132 160.843 144.165 160.842 144.198 160.841C144.236 160.84 144.274 160.839 144.312 160.85C144.408 160.88 144.485 160.948 144.561 161.016C144.618 161.066 144.674 161.116 144.736 161.149C144.745 161.154 144.763 161.154 144.781 161.154C144.798 161.154 144.816 161.153 144.828 161.157C144.88 161.177 144.9 161.195 144.925 161.219C144.939 161.231 144.954 161.244 144.975 161.26C145.052 161.315 145.151 161.338 145.25 161.361C145.336 161.381 145.423 161.401 145.496 161.442L145.517 161.453C145.643 161.524 145.752 161.584 145.902 161.593C146.237 161.612 146.536 161.664 146.866 161.737C147.556 161.886 148.259 161.992 148.965 161.99C149.722 161.987 150.472 161.856 151.187 161.612C151.787 161.407 152.439 161.147 152.972 160.816C153.267 160.633 153.437 160.416 153.636 160.162L153.636 160.162C153.674 160.114 153.713 160.064 153.755 160.013C153.981 159.731 154.241 159.478 154.502 159.226C154.755 158.981 155.008 158.736 155.229 158.464C155.879 157.664 156.236 156.358 156.321 155.334C156.409 154.296 156.182 153.546 155.716 152.624C155.146 151.497 154.476 151.211 153.495 150.793C153.322 150.72 153.14 150.642 152.947 150.555C152.768 150.475 152.593 150.39 152.418 150.304L152.418 150.304L152.418 150.304L152.418 150.304C152.277 150.236 152.137 150.167 151.995 150.102C151.898 150.057 151.809 150.007 151.72 149.957L151.72 149.957L151.719 149.957L151.719 149.957L151.719 149.957C151.683 149.937 151.647 149.917 151.61 149.897C151.54 149.858 151.461 149.845 151.382 149.832L151.382 149.832C151.333 149.824 151.285 149.816 151.238 149.802C151.17 149.782 151.102 149.763 151.034 149.745C150.897 149.707 150.76 149.67 150.628 149.617C150.474 149.555 150.309 149.522 150.143 149.489L150.143 149.489C149.936 149.448 149.73 149.407 149.546 149.31L149.544 149.309C149.413 149.24 149.292 149.178 149.146 149.14C149.089 149.125 149.032 149.108 148.975 149.091C148.83 149.047 148.685 149.004 148.542 148.993C148.378 148.981 148.212 148.982 148.045 148.982L148.045 148.982C147.893 148.983 147.74 148.984 147.59 148.974C147.44 148.965 147.272 148.902 147.116 148.843L147.116 148.843L147.116 148.843C147.057 148.821 147.001 148.8 146.947 148.782C146.906 148.769 146.865 148.753 146.823 148.737C146.697 148.69 146.568 148.641 146.434 148.648C146.398 148.65 146.364 148.661 146.33 148.672C146.293 148.685 146.257 148.697 146.219 148.697C146.19 148.697 146.169 148.688 146.146 148.679C146.133 148.674 146.12 148.669 146.104 148.665C145.937 148.624 145.774 148.597 145.601 148.59C145.479 148.585 145.357 148.572 145.236 148.559C145.024 148.536 144.812 148.512 144.597 148.534C144.413 148.554 144.242 148.565 144.059 148.542C143.985 148.532 143.914 148.517 143.844 148.504L143.843 148.504C143.744 148.484 143.647 148.465 143.549 148.458L143.432 148.451C143.138 148.434 142.852 148.416 142.551 148.425C142.287 148.432 142.006 148.43 141.748 148.408C141.621 148.397 141.476 148.384 141.347 148.39C141.161 148.399 140.992 148.395 140.81 148.391L140.779 148.39C140.734 148.39 140.686 148.392 140.639 148.395L140.598 148.397L140.57 148.399C140.535 148.399 140.506 148.408 140.477 148.417C140.455 148.424 140.433 148.431 140.408 148.434C140.383 148.437 140.355 148.435 140.328 148.433L140.328 148.433C140.296 148.431 140.263 148.428 140.231 148.433C140.211 148.436 140.19 148.44 140.169 148.444C140.145 148.449 140.12 148.454 140.096 148.457C139.967 148.474 139.831 148.501 139.693 148.529C139.399 148.587 139.094 148.648 138.814 148.624C138.715 148.615 138.65 148.571 138.58 148.524C138.548 148.502 138.514 148.479 138.476 148.459C138.347 148.392 138.195 148.39 138.052 148.399C137.882 148.409 137.72 148.457 137.559 148.505L137.558 148.505C137.515 148.517 137.472 148.53 137.429 148.542C137.37 148.559 136.822 148.653 136.822 148.653C136.75 148.989 136.729 149.482 136.756 149.831C136.765 149.948 136.799 150.064 136.833 150.179C136.867 150.295 136.901 150.411 136.909 150.528C136.686 150.884 136.911 150.784 136.912 150.584C136.912 150.565 136.911 150.546 136.909 150.528C137.005 150.374 137.183 150.137 137.497 149.788ZM87.5417 140.193C86.9649 140.51 86.3702 140.813 85.7731 141.117C84.3186 141.857 82.8497 142.604 81.5905 143.587C80.6065 144.354 79.6598 145.17 78.7655 146.041C78.7312 146.074 78.6965 146.107 78.6618 146.141C78.496 146.3 78.3304 146.458 78.2075 146.648C78.1592 146.721 78.1113 146.763 78.047 146.819L78.0232 146.84C77.9131 146.935 77.8128 147.042 77.7127 147.149C77.6411 147.226 77.5696 147.302 77.4948 147.374C77.4651 147.402 77.4304 147.42 77.3985 147.436C77.3738 147.449 77.3508 147.46 77.3332 147.476C77.2615 147.538 77.2016 147.616 77.1419 147.694L77.1418 147.694C77.0986 147.75 77.0555 147.806 77.008 147.856C76.9223 147.947 76.8256 148.025 76.7289 148.103C76.6506 148.166 76.5723 148.229 76.4999 148.299C76.4804 148.317 76.4556 148.336 76.4302 148.356C76.3854 148.391 76.3386 148.427 76.315 148.465C76.2868 148.509 76.2885 148.537 76.2904 148.567C76.2917 148.589 76.2931 148.612 76.2838 148.642C76.2738 148.675 76.2506 148.704 76.2275 148.732C76.2058 148.759 76.1841 148.786 76.173 148.816C76.1548 148.863 76.1502 148.914 76.1457 148.965L76.1457 148.965C76.1386 149.045 76.1315 149.124 76.0727 149.188C76.0475 149.215 76.0306 149.227 76.0169 149.236C75.9964 149.251 75.9831 149.26 75.9597 149.308C75.9785 149.333 75.9805 149.361 75.9667 149.39C75.9466 149.423 75.9258 149.456 75.9051 149.488C75.8764 149.534 75.8465 149.579 75.8166 149.624C75.6959 149.804 75.5766 149.983 75.553 150.21C75.543 150.302 75.5508 150.394 75.5586 150.485C75.5674 150.587 75.5761 150.689 75.5604 150.794C75.5122 151.112 75.4559 151.43 75.3997 151.748C75.3434 152.065 75.2872 152.383 75.239 152.701C75.0958 153.644 75.1162 155.051 75.6732 155.866C75.86 156.14 76.0922 156.38 76.3246 156.62L76.3247 156.62L76.3248 156.62C76.5172 156.819 76.7098 157.019 76.8771 157.237C77.0449 157.456 77.204 157.674 77.3614 157.889L77.3614 157.889C77.804 158.494 78.2321 159.079 78.7976 159.627C79.0142 159.838 79.2338 160.046 79.4625 160.246L79.5 160.279C79.5893 160.359 79.6767 160.437 79.7877 160.483C79.8682 160.516 79.9528 160.535 80.0378 160.554C80.0865 160.565 80.1354 160.576 80.1836 160.589C80.2193 160.599 80.2564 160.611 80.2944 160.623L80.2947 160.623C80.434 160.667 80.5859 160.716 80.7291 160.704C80.7402 160.703 80.7501 160.701 80.7593 160.7L80.7711 160.698C80.7848 160.696 80.7967 160.694 80.8077 160.692C80.8517 160.683 80.8828 160.677 80.9662 160.693C81.0213 160.704 81.0767 160.719 81.1325 160.734C81.2234 160.76 81.3149 160.785 81.4063 160.791C81.466 160.796 81.5201 160.788 81.5752 160.781C81.6255 160.774 81.6765 160.767 81.7331 160.768C81.8335 160.772 81.9426 160.773 82.0414 160.752C82.1692 160.724 82.2892 160.716 82.4141 160.709C82.4723 160.705 82.5316 160.702 82.5932 160.696C82.6968 160.685 82.7999 160.65 82.9025 160.616C82.9682 160.594 83.0337 160.572 83.099 160.556C83.2387 160.523 83.3713 160.467 83.5026 160.411C83.5658 160.384 83.6286 160.357 83.6918 160.333C83.7262 160.32 83.7564 160.312 83.7861 160.305C83.8267 160.294 83.8664 160.284 83.915 160.261C84.0482 160.198 84.1631 160.136 84.2866 160.057L84.3497 160.016C84.5729 159.874 84.7968 159.73 85.0074 159.57C85.2845 159.359 85.5396 159.149 85.799 158.922C85.8275 158.896 85.8572 158.868 85.8877 158.839C85.9605 158.77 86.038 158.696 86.1142 158.65C86.1513 158.628 86.1875 158.609 86.2233 158.59C86.2818 158.56 86.3391 158.53 86.3977 158.487C86.5023 158.408 86.5931 158.312 86.6839 158.216C86.7503 158.146 86.8167 158.076 86.8884 158.012C86.9671 157.943 87.0284 157.863 87.0899 157.783C87.1423 157.715 87.1947 157.646 87.2581 157.584C87.377 157.468 87.4918 157.352 87.6061 157.236L87.6062 157.236L87.6063 157.236L87.6064 157.236L87.6065 157.236L87.6066 157.236L87.6067 157.236C87.8765 156.962 88.1432 156.692 88.4522 156.438C88.6173 156.301 88.7626 156.153 88.9103 156.002C88.9571 155.954 89.0042 155.906 89.0521 155.858C89.1444 155.766 89.2417 155.684 89.3388 155.602L89.3388 155.602C89.4577 155.502 89.5761 155.402 89.6841 155.283C89.7365 155.226 89.798 155.181 89.8596 155.135C89.9074 155.099 89.9553 155.064 89.999 155.023C90.0477 154.977 90.0857 154.923 90.1237 154.87L90.1237 154.87C90.1586 154.821 90.1934 154.772 90.2365 154.729C90.2622 154.704 90.2892 154.681 90.316 154.659C90.3605 154.621 90.4047 154.584 90.4426 154.537C90.6835 154.243 90.8182 153.861 90.9496 153.489C91.0109 153.315 91.0714 153.143 91.1417 152.984C91.3046 152.617 91.5064 152.27 91.7077 151.923L91.715 151.911L91.7677 151.82L91.768 151.819L91.7681 151.819L91.7686 151.818L91.7689 151.818L91.7689 151.818L91.769 151.818L91.769 151.818C91.8558 151.668 91.9425 151.518 92.0258 151.367C92.0634 151.299 92.1141 151.246 92.1645 151.192C92.2127 151.141 92.2606 151.09 92.2966 151.028L92.361 150.921L92.3913 150.871C92.4094 150.841 92.4275 150.811 92.4457 150.782C92.5269 150.649 92.5414 150.548 92.5597 150.421C92.5629 150.398 92.5663 150.375 92.5701 150.351C92.5774 150.307 92.5922 150.263 92.607 150.219C92.6283 150.156 92.6497 150.093 92.6491 150.028C92.649 149.99 92.6422 149.96 92.6359 149.933C92.6255 149.887 92.6163 149.847 92.6407 149.782C92.662 149.726 92.6907 149.677 92.7193 149.629C92.7646 149.552 92.8094 149.475 92.8225 149.375C92.8268 149.342 92.8292 149.309 92.8316 149.275L92.8316 149.275L92.8316 149.275C92.8346 149.232 92.8376 149.19 92.8445 149.146C92.8637 149.019 92.9109 148.905 92.9582 148.791L92.9583 148.79C92.9894 148.715 93.0205 148.64 93.044 148.56C93.0653 148.489 93.067 148.44 93.0691 148.382L93.0691 148.381C93.0699 148.358 93.0708 148.332 93.0731 148.304C93.0761 148.256 93.0729 148.209 93.0697 148.161L93.0697 148.161C93.0657 148.101 93.0617 148.041 93.07 147.982C93.0928 147.823 93.1812 147.672 93.2616 147.534L93.2762 147.509C93.3102 147.451 93.3194 147.406 93.3292 147.358C93.3347 147.332 93.3404 147.304 93.3506 147.273L93.3716 147.208L93.3838 147.171C93.4578 146.945 93.5274 146.733 93.511 146.487L93.5063 146.417C93.4827 146.059 93.459 145.699 93.3914 145.342C93.3084 144.906 93.1912 144.478 93.0739 144.049L93.0739 144.049C93.0096 143.815 92.9454 143.58 92.8868 143.344C92.841 143.16 92.8205 142.96 92.7997 142.755C92.7628 142.394 92.7249 142.021 92.5439 141.715C92.3061 141.311 91.8642 140.879 91.4264 140.648C90.9136 140.377 90.3506 140.469 89.8178 140.612C89.6656 140.653 89.5063 140.679 89.3475 140.704L89.3474 140.704C89.1143 140.742 88.8821 140.779 88.6744 140.866C88.6247 140.886 88.5828 140.924 88.5407 140.962C88.4872 141.01 88.4333 141.059 88.3625 141.073C88.2669 141.091 88.1912 141.07 88.1138 141.048C88.0533 141.032 87.9918 141.015 87.9189 141.016C87.5706 141.023 87.2093 141.141 86.8559 141.256C86.6803 141.314 86.5066 141.37 86.3374 141.413C86.2464 141.435 86.1267 141.456 85.9955 141.478L85.9955 141.478C85.8425 141.504 85.6738 141.533 85.5166 141.571C85.8743 141.345 86.4856 140.933 87.5417 140.193ZM84.9861 141.815C85.014 141.843 85.0419 141.872 85.5166 141.571C85.2876 141.627 85.0828 141.701 84.9861 141.815ZM86.1913 69.3301C86.2657 69.3583 86.3457 69.3794 86.4302 69.3943C86.3544 69.3741 86.2748 69.3527 86.1913 69.3301ZM87.7113 69.7114C87.5307 69.6745 87.1503 69.5863 86.4302 69.3943C87.1038 69.513 88.0652 69.2379 88.7902 69.0305L88.7904 69.0304L88.8166 69.0229C88.9518 68.9843 89.0784 68.9482 89.1929 68.9178C90.1557 68.6598 91.1147 67.6377 91.8943 66.8067L91.8944 66.8065L91.8958 66.805L91.897 66.8038L91.8972 66.8036C92.1122 66.5744 92.3136 66.3599 92.4975 66.1801C92.6923 65.9903 92.888 65.8019 93.0836 65.6135C93.3174 65.3883 93.5511 65.1632 93.7831 64.9361C94.004 64.7192 94.2232 64.5019 94.4396 64.2804C94.4699 64.2489 94.5056 64.2165 94.5427 64.1831C94.6293 64.1048 94.7227 64.0203 94.7688 63.9259C94.8027 63.8567 94.823 63.789 94.843 63.7223C94.8751 63.6152 94.9065 63.5107 94.9921 63.4065C95.0263 63.364 95.0675 63.3262 95.1087 63.2884C95.1754 63.2272 95.2421 63.166 95.2796 63.0849L95.2997 63.0423C95.338 62.9612 95.3665 62.9005 95.4359 62.8155C95.5735 62.6456 95.6909 62.4588 95.8078 62.2729L95.8079 62.2728C95.9099 62.1106 96.0115 61.9489 96.1258 61.7996C96.1524 61.7649 96.1813 61.7312 96.2102 61.6976L96.2103 61.6975C96.2819 61.6143 96.3534 61.531 96.3893 61.4316C96.3994 61.4042 96.4049 61.3723 96.4104 61.3399C96.4185 61.293 96.4267 61.2453 96.4492 61.2093C96.4752 61.1664 96.5064 61.1279 96.5381 61.0889L96.5381 61.0889L96.5382 61.0888C96.5809 61.0361 96.6244 60.9826 96.6565 60.916C96.6857 60.8549 96.7248 60.796 96.7636 60.7376L96.7636 60.7375C96.8036 60.6772 96.8432 60.6176 96.871 60.5569C96.8799 60.5365 96.8832 60.5153 96.8865 60.4938L96.8865 60.4936L96.8876 60.4868L96.8901 60.4719C96.892 60.4616 96.8943 60.4513 96.8977 60.441C96.9247 60.3675 96.9672 60.3135 97.0123 60.256C97.0258 60.2388 97.0395 60.2213 97.0531 60.2029L97.0614 60.1917L97.0685 60.1817C97.1308 60.0923 97.2 60.0072 97.2691 59.9222L97.2692 59.9221L97.2692 59.922C97.359 59.8116 97.4487 59.7013 97.523 59.5819C97.5504 59.5372 97.5699 59.4935 97.5893 59.4497L97.5894 59.4496C97.6075 59.4087 97.6257 59.3678 97.6503 59.3261C97.6998 59.2419 97.7607 59.1627 97.8217 59.0833L97.8218 59.0832C97.9189 58.9569 98.0163 58.8301 98.0687 58.6821C98.1157 58.551 98.1612 58.4132 98.1944 58.2777C98.2253 58.1505 98.2645 58.0231 98.3039 57.8954L98.304 57.8952L98.304 57.8951L98.304 57.895L98.3041 57.8949L98.3041 57.8948C98.3359 57.7915 98.3679 57.6879 98.3955 57.5839C98.4124 57.5191 98.4158 57.4549 98.4192 57.3912L98.4192 57.3911C98.4214 57.3509 98.4235 57.3108 98.429 57.271C98.4403 57.1857 98.4426 57.1046 98.445 57.0221C98.4465 56.9716 98.448 56.9206 98.4515 56.8678C98.4582 56.7616 98.4755 56.6532 98.4929 56.5441L98.4929 56.544C98.5126 56.4205 98.5325 56.2961 98.5372 56.1729C98.5436 56.0232 98.5712 55.8755 98.5988 55.7281C98.6355 55.5315 98.6722 55.3354 98.6582 55.1363C98.6307 54.738 98.5641 54.3387 98.4945 53.946C98.3508 53.1362 98.1415 52.3356 97.848 51.5663C97.3815 50.349 96.6893 49.1886 95.6842 48.3394C94.9644 47.7322 94.1562 47.0917 93.2824 46.7416C93.2072 46.7114 93.1467 46.6852 93.0953 46.663C92.8564 46.5596 92.8152 46.5418 92.4216 46.6087C91.9728 46.6838 91.4612 46.7541 90.9995 46.7631C90.3625 46.7755 90.093 46.9592 89.6063 47.2908C89.5363 47.3385 89.4618 47.3892 89.3811 47.443C88.5079 48.0226 87.5431 48.7331 86.8985 49.5548C85.9578 50.7529 85.2807 51.9586 84.6807 53.352C84.6583 53.4039 84.6355 53.4554 84.6128 53.5067C84.5327 53.6879 84.4536 53.8669 84.395 54.0542C84.3793 54.1049 84.3567 54.1407 84.3329 54.1781C84.3205 54.1977 84.3078 54.2178 84.2956 54.2407C84.2641 54.3028 84.2311 54.3659 84.1976 54.4298C84.0881 54.639 83.9742 54.8568 83.8957 55.0738C83.8412 55.2253 83.8179 55.38 83.7961 55.5369C83.7798 55.6547 83.743 55.7668 83.7061 55.8797L83.706 55.8798C83.6785 55.9638 83.6508 56.0482 83.6314 56.1357C83.6156 56.2062 83.5999 56.2774 83.5842 56.3489C83.4998 56.7321 83.413 57.1262 83.2916 57.4916C83.1989 57.7667 83.113 58.106 83.1134 58.3944C83.1132 58.5473 83.0809 58.6943 83.0487 58.8408L83.0487 58.8409L83.0487 58.841C83.0195 58.9741 82.9903 59.1069 82.9855 59.2432C82.9822 59.3311 82.9863 59.4207 82.9904 59.5102L82.9905 59.5102C82.9952 59.6138 83 59.7171 82.9932 59.8169C82.987 59.916 82.9722 60.0226 82.9579 60.1255L82.9579 60.1257L82.9579 60.126L82.9578 60.1266C82.9519 60.1689 82.9461 60.2105 82.941 60.2508C82.9345 60.3079 82.9535 60.3647 82.9717 60.419C82.9872 60.4653 83.0022 60.5099 83.0001 60.5514C82.9987 60.5878 82.9847 60.6271 82.9705 60.6672L82.9705 60.6672L82.9622 60.6907C82.9537 60.7154 82.946 60.7404 82.9419 60.7649C82.9212 60.892 82.9 61.0362 82.886 61.1663C82.8832 61.1948 82.8803 61.2219 82.8774 61.2482C82.8616 61.3957 82.8488 61.5151 82.8707 61.6792C82.8786 61.7406 82.8904 61.798 82.9018 61.8535C82.9284 61.983 82.953 62.1025 82.9207 62.2409C82.876 62.4299 82.9163 62.6177 82.9571 62.8079L82.9571 62.8081C82.9771 62.9015 82.9973 62.9956 83.0076 63.0908C83.0385 63.3769 83.0718 63.6643 83.1345 63.9456C83.1437 63.9866 83.1535 64.0275 83.1633 64.0683C83.2119 64.2713 83.26 64.4724 83.2355 64.6836C83.2296 64.7376 83.2203 64.7904 83.211 64.8429C83.1917 64.9522 83.1727 65.06 83.1853 65.1743C83.2036 65.3378 83.2553 65.4971 83.3067 65.6555C83.3392 65.7557 83.3716 65.8555 83.3954 65.9559C83.4241 66.0775 83.4499 66.2001 83.4757 66.3225C83.569 66.7648 83.6622 67.2065 83.8873 67.6065C83.9097 67.6465 83.9447 67.6821 83.9799 67.718L83.9799 67.718C84.0226 67.7614 84.0656 67.8051 84.087 67.8575C84.1169 67.9314 84.1212 68.0226 84.1251 68.1054C84.1283 68.1731 84.1313 68.2352 84.1477 68.2776C84.3411 68.7804 84.7406 69.0533 85.2007 69.3143C85.5465 69.5105 86.3233 69.792 86.6934 69.8329C86.8654 69.8527 87.0423 69.8133 87.2195 69.7739C87.3736 69.7396 87.528 69.7052 87.6797 69.7097C87.6903 69.7101 87.7009 69.7107 87.7113 69.7114ZM87.7113 69.7114C87.7777 69.7164 87.8359 69.7283 87.8486 69.7331C87.8612 69.7378 87.828 69.7353 87.7113 69.7114ZM64.3711 32.0954C64.2899 32.0211 64.205 31.9499 64.1215 31.8797C64.06 31.8279 63.9991 31.7768 63.941 31.7256C63.6071 31.4321 63.2122 31.2485 62.8155 31.0641L62.8154 31.064C62.5851 30.9569 62.3541 30.8495 62.1343 30.7202C61.8899 30.5772 61.6536 30.4207 61.4174 30.2644C61.2807 30.1739 61.1442 30.0835 61.0061 29.9958C60.87 29.9091 60.7269 29.8359 60.5835 29.7624C60.477 29.7079 60.3703 29.6533 60.2662 29.593C60.0922 29.4927 59.9154 29.3989 59.7384 29.3051C59.6009 29.2322 59.4632 29.1592 59.3265 29.0829C59.1958 29.0101 59.0709 28.9288 58.946 28.8475C58.8263 28.7696 58.7066 28.6917 58.5816 28.6211C58.4488 28.5459 58.3214 28.4638 58.1937 28.3816C58.1278 28.3391 58.0618 28.2966 57.995 28.255C57.9621 28.2346 57.9283 28.2132 57.8941 28.1916C57.8156 28.142 57.7354 28.0912 57.661 28.0491C57.5853 28.0058 57.4739 27.9904 57.3725 27.9764L57.372 27.9763L57.3707 27.9761C57.3287 27.9703 57.2885 27.9647 57.2532 27.9574C57.0437 27.9146 56.8339 27.8735 56.6238 27.8342C56.2024 27.7563 55.7804 27.6864 55.3578 27.6246C55.3157 27.6185 55.2736 27.6121 55.2315 27.6056L55.2293 27.6053C54.9974 27.5698 54.7659 27.5345 54.5366 27.552C54.4491 27.5586 54.3868 27.5458 54.305 27.529L54.3048 27.5289L54.2718 27.5222C54.1299 27.4935 53.9842 27.4796 53.8387 27.4658C53.7333 27.4557 53.6281 27.4457 53.5244 27.4301C53.4843 27.4239 53.4498 27.4069 53.4178 27.3912C53.3925 27.3787 53.3688 27.367 53.3452 27.3621C53.2534 27.344 53.1567 27.3443 53.0601 27.3445C52.9877 27.3447 52.9153 27.3449 52.8454 27.3374C52.7224 27.3238 52.6029 27.2951 52.4834 27.2664L52.4833 27.2664C52.3843 27.2426 52.2853 27.2188 52.1843 27.2035C52.1569 27.1997 52.1254 27.1914 52.093 27.1829C52.0394 27.1688 51.9833 27.1541 51.939 27.1575C51.8881 27.163 51.8667 27.1813 51.8442 27.2008C51.8276 27.2151 51.8103 27.23 51.78 27.2408C51.7474 27.2532 51.7097 27.2526 51.6719 27.2519C51.6381 27.2513 51.6043 27.2508 51.5742 27.2596C51.5261 27.2738 51.4831 27.3012 51.44 27.3286C51.3724 27.3716 51.3047 27.4147 51.2173 27.4069C51.1922 27.4046 51.1752 27.4009 51.1619 27.3971C51.1556 27.3953 51.1501 27.3935 51.1451 27.3918C51.1217 27.3841 51.1063 27.379 51.0547 27.3903C51.0444 27.4202 51.0235 27.4389 50.993 27.4458C50.9734 27.4476 50.954 27.4491 50.9347 27.4507L50.8773 27.4555C50.8433 27.459 50.8093 27.4618 50.7752 27.4644L50.7064 27.4693C50.4924 27.4841 50.2815 27.4988 50.0907 27.616C50.0112 27.6649 49.9436 27.7262 49.876 27.7875C49.7997 27.8568 49.7233 27.926 49.6299 27.9772C49.3481 28.1331 49.0621 28.2815 48.7761 28.43L48.7746 28.4308C48.4883 28.5795 48.2019 28.7282 47.9198 28.8842C47.0848 29.3448 45.9789 30.2165 45.6711 31.1536C45.5686 31.4665 45.5197 31.795 45.4707 32.1239C45.4297 32.3997 45.3886 32.6758 45.3158 32.9431C45.2451 33.2046 45.1708 33.4583 45.0974 33.7092L45.096 33.7136L45.0958 33.7144C44.8845 34.4358 44.6803 35.1328 44.5888 35.9178C44.5531 36.2184 44.5209 36.5197 44.5014 36.8216C44.5002 36.8415 44.4989 36.8613 44.4975 36.881C44.4897 36.9971 44.482 37.1109 44.5118 37.2238C44.5344 37.3087 44.5715 37.3875 44.6085 37.4662C44.6296 37.511 44.6507 37.5557 44.669 37.6014C44.6772 37.6221 44.6852 37.6435 44.6933 37.6654L44.7091 37.709C44.759 37.847 44.8134 37.9974 44.9108 38.1035C44.9241 38.1179 44.9358 38.1294 44.9463 38.1393C44.9542 38.1466 44.9614 38.153 44.9682 38.1591C45.0017 38.1888 45.0258 38.2102 45.0636 38.2855C45.0883 38.3356 45.1099 38.3889 45.1316 38.4425C45.167 38.5298 45.2028 38.6181 45.253 38.6948C45.2859 38.7443 45.3246 38.782 45.3638 38.8203C45.4006 38.8562 45.4379 38.8925 45.4712 38.9394C45.5294 39.0206 45.5937 39.1084 45.6714 39.1733C45.771 39.2572 45.8502 39.3473 45.9324 39.441C45.9544 39.466 45.9766 39.4913 45.9995 39.5168C46.017 39.5363 46.0349 39.556 46.0534 39.5757C46.1245 39.6515 46.215 39.7124 46.3051 39.7729C46.3626 39.8116 46.42 39.8501 46.4719 39.8923C46.582 39.9822 46.7066 40.052 46.8299 40.1211L46.8301 40.1212L46.8933 40.1568C46.9328 40.1792 46.9719 40.2019 47.0101 40.2255C47.0415 40.2453 47.066 40.2644 47.09 40.2831C47.1231 40.3089 47.1552 40.3339 47.2032 40.3589C47.3343 40.4258 47.454 40.4806 47.5923 40.5289L47.6364 40.5449C47.8935 40.6381 48.1523 40.7319 48.4178 40.8034C48.7536 40.8949 49.0753 40.9702 49.4151 41.0361L49.4425 41.0412L49.4798 41.0475L49.5275 41.0552L49.5282 41.0553C49.6296 41.0715 49.7383 41.0889 49.8232 41.1215C49.8641 41.1374 49.9015 41.155 49.9386 41.1724C49.9977 41.2 50.0558 41.2272 50.1253 41.2467C50.2516 41.2814 50.3834 41.2949 50.5154 41.3084L50.5156 41.3084L50.5157 41.3085L50.5158 41.3085C50.6116 41.3183 50.7074 41.3281 50.8012 41.346C50.904 41.3662 51.0049 41.3664 51.1058 41.3666C51.1917 41.3667 51.2777 41.3669 51.365 41.3794C51.5287 41.4027 51.6902 41.4226 51.8507 41.4424L51.8513 41.4425C52.2346 41.4898 52.6126 41.5364 53.0035 41.6266C53.4798 41.736 53.9813 41.7902 54.4679 41.7414L54.5052 41.7375C54.7516 41.7117 55.0031 41.6854 55.2513 41.6931C55.5264 41.7021 55.8324 41.7024 56.1002 41.6309C56.5148 41.5206 56.9155 41.3984 57.3233 41.274L57.3241 41.2738L57.3245 41.2737L57.4907 41.223C57.9927 41.0714 58.4771 40.8912 58.9647 40.7097L58.965 40.7096C59.0601 40.6742 59.1553 40.6387 59.2508 40.6034L59.3622 40.5625C59.4094 40.5453 59.4575 40.5321 59.5055 40.5189L59.5058 40.5188C59.5662 40.5022 59.6265 40.4857 59.6848 40.4614C59.7981 40.4149 59.9065 40.351 60.0141 40.2876C60.0585 40.2614 60.1028 40.2354 60.1472 40.2106C60.45 40.0421 60.7999 39.8889 61.1312 39.7804C61.2758 39.7339 61.4175 39.6772 61.5588 39.6207C61.7155 39.5581 61.8715 39.4957 62.0301 39.4476C62.0773 39.4334 62.1245 39.4202 62.1716 39.4074C62.1992 39.4 62.2268 39.3927 62.2543 39.3854L62.2668 39.3821C62.4069 39.345 62.5463 39.3082 62.6835 39.2552C62.7446 39.2319 62.8073 39.2132 62.8699 39.1945C62.9603 39.1675 63.0506 39.1405 63.1359 39.0999C63.3179 39.0136 63.4936 38.9035 63.6669 38.7949L63.6671 38.7947L63.6674 38.7945L63.6678 38.7943C63.7298 38.7554 63.7914 38.7168 63.853 38.6795C63.8718 38.6683 63.8909 38.6575 63.9102 38.6469C63.923 38.6399 63.9359 38.6329 63.9488 38.6261L63.975 38.6121L63.9755 38.6118L63.976 38.6115L63.9764 38.6113L63.9769 38.611L63.9774 38.6107C64.0707 38.5611 64.1644 38.5112 64.2439 38.4405C64.2767 38.4105 64.2979 38.3787 64.3197 38.3459C64.3323 38.3269 64.3451 38.3076 64.3605 38.2882C64.4703 38.1487 64.6117 38.023 64.7508 37.8993C64.8206 37.8372 64.8899 37.7757 64.9542 37.7132C65.1473 37.5273 65.3398 37.3404 65.5312 37.1541C65.7327 36.9575 65.9304 36.7567 66.1281 36.5558L66.1285 36.5555L66.1288 36.5551L66.1292 36.5548L66.1295 36.5544C66.3389 36.3417 66.5484 36.1289 66.7628 35.9208L66.7975 35.887C66.9527 35.7365 67.0901 35.6032 67.1382 35.3914C67.1406 35.3808 67.1434 35.3695 67.1463 35.3579L67.1562 35.3197C67.1901 35.1893 67.2345 35.019 67.1613 34.9282C67.1454 34.909 67.1239 34.8949 67.1016 34.8803C67.0764 34.8637 67.0501 34.8464 67.0299 34.8203C67.0135 34.7989 66.9991 34.7767 66.9848 34.7546C66.9649 34.7237 66.9451 34.6931 66.9202 34.6656C66.7572 34.4843 66.5657 34.2857 66.369 34.138C66.1417 33.9683 65.9382 33.7703 65.7345 33.5722L65.7344 33.5721C65.599 33.4404 65.4636 33.3086 65.321 33.1851C65.0782 32.9739 64.8659 32.684 64.677 32.4241C64.5904 32.3057 64.4836 32.1979 64.3711 32.0954ZM83.5006 19.289C84.5025 20.7666 85.5282 22.2793 86.884 23.4601C86.9014 23.475 86.9195 23.4898 86.9378 23.5046C86.9971 23.5527 87.0581 23.6021 87.0991 23.6641C87.1362 23.7208 87.1771 23.7572 87.2251 23.7998L87.24 23.813C87.288 23.8568 87.3206 23.8866 87.3572 23.9428C87.389 23.9909 87.4053 24.0402 87.4221 24.091C87.4325 24.1226 87.4432 24.1548 87.4579 24.1876C87.5577 24.4132 87.673 24.5672 87.866 24.7297C87.9266 24.7808 87.9838 24.8352 88.0408 24.8895C88.1216 24.9664 88.2024 25.0432 88.293 25.1107C88.3513 25.1537 88.4038 25.1838 88.471 25.2085C88.5631 25.2407 88.6464 25.2937 88.729 25.3462C88.749 25.3589 88.769 25.3716 88.789 25.384C88.977 25.5009 89.1633 25.6266 89.3079 25.7899C89.3385 25.8251 89.3822 25.8552 89.4243 25.8843C89.4591 25.9083 89.4928 25.9315 89.5173 25.9564C89.6175 26.0565 89.7223 26.1657 89.8123 26.2758C89.841 26.3115 89.8754 26.3399 89.9095 26.368C89.9461 26.3982 89.9823 26.4281 90.0108 26.4666C90.0739 26.5505 90.1541 26.655 90.244 26.7086C90.2685 26.7234 90.2935 26.7379 90.3186 26.7523C90.3369 26.7628 90.3552 26.7734 90.3733 26.7841L90.3967 26.7981L90.4175 26.811C90.4486 26.8297 90.4761 26.8555 90.5031 26.8808C90.5299 26.906 90.5563 26.9308 90.5853 26.9477C90.6158 26.9661 90.6462 26.9821 90.6767 26.9982L90.6768 26.9982C90.719 27.0204 90.7613 27.0427 90.8039 27.0714C90.8263 27.0857 90.85 27.095 90.8733 27.1042C90.883 27.1081 90.8927 27.1119 90.9022 27.116C90.9069 27.1181 90.9116 27.1202 90.9162 27.1225C90.9204 27.1245 90.9245 27.1267 90.9286 27.1289C90.9457 27.1396 90.9555 27.1511 90.9656 27.163C90.9729 27.1715 90.9804 27.1802 90.9909 27.1891C91.0545 27.2422 91.1574 27.2946 91.2351 27.3213C91.3411 27.358 91.4271 27.4127 91.521 27.4743C91.5694 27.5049 91.6205 27.5298 91.6719 27.5548C91.7172 27.5769 91.7628 27.5991 91.8072 27.6255C91.8267 27.6372 91.8454 27.6496 91.864 27.6618C91.9112 27.6931 91.9572 27.7236 92.013 27.7395C92.106 27.7661 92.2207 27.7623 92.3197 27.7591L92.3318 27.7587C92.3787 27.7578 92.4248 27.7504 92.4711 27.743C92.5141 27.7361 92.5572 27.7291 92.601 27.7274C92.6587 27.7259 92.7163 27.7269 92.774 27.7278C92.8872 27.7297 93.0004 27.7315 93.1135 27.7146C93.2757 27.6901 93.4362 27.6608 93.5959 27.6259C94.0298 27.5334 94.4557 27.4066 94.8691 27.2456C95.0736 27.1665 95.2778 27.0801 95.4756 26.9842C95.5526 26.9461 95.62 26.8928 95.6874 26.8395C95.7582 26.7835 95.829 26.7275 95.9109 26.6891C95.9182 26.6857 95.9248 26.688 95.9313 26.6904C95.9384 26.6929 95.9455 26.6955 95.9534 26.6909C95.9792 26.6749 96.0241 26.6216 96.0442 26.5973C96.0532 26.5858 96.0592 26.5768 96.0645 26.5687L96.0647 26.5685C96.0758 26.5517 96.0842 26.5391 96.1105 26.5172C96.1293 26.502 96.1469 26.4824 96.1646 26.4625C96.1906 26.4334 96.217 26.4038 96.2484 26.3871C96.2698 26.375 96.2877 26.3707 96.3061 26.3663C96.3226 26.3624 96.3395 26.3584 96.3596 26.3484C96.3848 26.3359 96.4091 26.3179 96.4332 26.2999C96.4485 26.2886 96.4636 26.2773 96.4789 26.2675C96.5089 26.2472 96.532 26.2224 96.5548 26.1978C96.5886 26.1615 96.6218 26.1259 96.6754 26.1068C96.7257 26.0886 96.7853 26.0743 96.8453 26.0599L96.8457 26.0598C96.8894 26.0493 96.9334 26.0388 96.974 26.0266C96.9912 26.0215 97.0081 26.0166 97.0248 26.0119C97.1143 25.9863 97.197 25.9627 97.2737 25.903C97.3293 25.8589 97.3643 25.7949 97.3994 25.7306C97.4314 25.6721 97.4636 25.6133 97.5115 25.5692L97.5184 25.5627L97.5186 25.5626C97.5487 25.5345 97.5604 25.5236 97.5803 25.4859L97.5857 25.4748C97.5981 25.4494 97.6054 25.4345 97.6327 25.4213C97.635 25.4205 97.6423 25.4226 97.6506 25.4249C97.6552 25.4262 97.6602 25.4276 97.6646 25.4286C97.6675 25.4292 97.6703 25.4297 97.6726 25.4299C97.6742 25.43 97.6755 25.43 97.6767 25.4298C97.7114 25.4246 97.7393 25.4117 97.7693 25.3929C97.8142 25.3647 97.843 25.3541 97.8794 25.3406L97.8971 25.334C97.9051 25.331 97.9136 25.3277 97.9228 25.3241C97.9621 25.3088 98.0069 25.2737 98.047 25.2423C98.0661 25.2273 98.0841 25.2132 98.1 25.2024L98.2988 25.0676C98.3271 25.0485 98.3563 25.0297 98.3855 25.0108L98.3857 25.0107L98.3858 25.0106L98.386 25.0105L98.3862 25.0104L98.3863 25.0103L98.3865 25.0101L98.3867 25.01L98.3869 25.0099C98.4394 24.9761 98.4923 24.942 98.5413 24.9048C98.577 24.8771 98.6044 24.8432 98.632 24.809C98.6647 24.7686 98.6976 24.7278 98.7451 24.6964C98.7602 24.6862 98.7777 24.6761 98.7956 24.6657L98.7957 24.6656C98.8311 24.6452 98.8681 24.6237 98.8923 24.5982C98.9042 24.5857 98.9133 24.573 98.9222 24.5605C98.9348 24.5428 98.9471 24.5255 98.9667 24.5096C99.0413 24.4529 99.1257 24.3927 99.2074 24.3465C99.2278 24.3348 99.2463 24.3268 99.2636 24.3194C99.2967 24.3051 99.3251 24.2929 99.3523 24.2605C99.4141 24.185 99.4472 24.1167 99.4847 24.0302C99.5208 23.9433 99.6111 23.8859 99.699 23.83L99.6991 23.8299C99.7467 23.7997 99.7935 23.77 99.8306 23.7362C99.9323 23.6429 99.9962 23.5323 100.065 23.4126C100.071 23.401 100.08 23.3866 100.089 23.3708L100.089 23.3706L100.089 23.3703C100.113 23.3302 100.143 23.2812 100.154 23.2451C100.157 23.2371 100.156 23.2283 100.156 23.2192C100.155 23.2098 100.154 23.2002 100.157 23.1911C100.187 23.1004 100.253 22.9765 100.323 22.9125C100.457 22.7906 100.535 22.6219 100.612 22.4545C100.646 22.3807 100.68 22.3071 100.719 22.2379C100.811 22.0747 100.921 21.9284 101.03 21.784L101.03 21.7839L101.03 21.7838L101.03 21.7838L101.03 21.7836L101.03 21.7835C101.217 21.5358 101.399 21.2935 101.48 20.981C101.641 20.3541 101.744 19.7098 101.748 19.0611C101.749 18.8757 101.765 18.734 101.786 18.5561C101.793 18.4957 101.785 18.4398 101.777 18.3831C101.772 18.3463 101.767 18.3092 101.766 18.2703L101.766 18.2645L101.766 18.2644C101.758 18.0592 101.75 17.8463 101.647 17.6562C101.569 17.5131 101.492 17.329 101.448 17.1661C101.429 17.0972 101.421 17.0353 101.414 16.9764C101.4 16.8643 101.387 16.7627 101.302 16.6433C101.259 16.5804 101.242 16.5263 101.224 16.468L101.224 16.4679C101.215 16.4376 101.205 16.4062 101.191 16.3719C101.175 16.3327 101.148 16.2997 101.121 16.2668C101.089 16.2277 101.057 16.1886 101.044 16.1389C101.039 16.1235 101.04 16.0882 101.04 16.0531L101.04 16.053C101.041 16.0222 101.042 15.9914 101.039 15.9743C101.03 15.9253 101.013 15.8493 100.997 15.8053C100.974 15.7432 100.935 15.6926 100.896 15.6419C100.867 15.6039 100.837 15.5659 100.815 15.5229C100.778 15.453 100.757 15.3722 100.735 15.2919C100.718 15.226 100.7 15.1604 100.675 15.1014C100.604 14.9341 100.518 14.7676 100.417 14.6163C100.4 14.591 100.383 14.5645 100.365 14.5376C100.307 14.4478 100.247 14.3538 100.171 14.2853C100.106 14.227 100.028 14.1851 99.9497 14.1431C99.8438 14.0864 99.7378 14.0296 99.6663 13.9323C99.5889 13.8258 99.4944 13.7366 99.399 13.6465L99.399 13.6465C99.3239 13.5756 99.2483 13.5042 99.1799 13.4234C99.1323 13.3664 99.0888 13.2958 99.0466 13.2274C99.0231 13.1894 99.0001 13.152 98.977 13.118C98.9471 13.074 98.9097 13.0257 98.8708 12.9754C98.7925 12.8741 98.7078 12.7647 98.6648 12.6653C98.6475 12.6253 98.6364 12.5909 98.626 12.5582L98.626 12.5582C98.609 12.5051 98.5934 12.4564 98.5544 12.3949C98.5087 12.3246 98.4824 12.309 98.4441 12.2864C98.4264 12.2759 98.4061 12.2639 98.3802 12.2442C98.3447 12.2169 98.3094 12.1695 98.2751 12.1234C98.2533 12.0941 98.2319 12.0654 98.2111 12.0427C98.1204 11.9453 98.0449 11.8544 97.9707 11.7428C97.8647 11.5825 97.7823 11.4657 97.6466 11.3424L97.6399 11.3364C97.5484 11.2551 97.5138 11.2244 97.39 11.1696C97.2992 11.1304 97.1994 11.0712 97.1168 11.0172C97.044 10.9708 96.9773 10.9169 96.9107 10.8631C96.8148 10.7856 96.7191 10.7082 96.6053 10.6537C96.5415 10.6227 96.475 10.5955 96.4087 10.5684C96.3496 10.5443 96.2906 10.5201 96.2335 10.4933C96.1968 10.476 96.1628 10.4562 96.1283 10.4361L96.1282 10.4361C96.0866 10.4118 96.0443 10.3872 95.9956 10.3659C95.8917 10.3206 95.8125 10.2643 95.7275 10.2037C95.697 10.182 95.6657 10.1597 95.6322 10.1372C95.5281 10.0664 95.4047 10.0297 95.282 9.99326C95.2005 9.96902 95.1193 9.94489 95.0444 9.91094C94.9471 9.86717 94.8585 9.81941 94.7677 9.77048L94.6945 9.73116C94.6136 9.68812 94.5408 9.63091 94.4675 9.57329C94.3932 9.51488 94.3183 9.45604 94.2339 9.41102C94.052 9.31435 93.8515 9.24867 93.6578 9.20431C93.5938 9.18912 93.533 9.16473 93.4724 9.14045C93.4208 9.11974 93.3693 9.09912 93.3164 9.08438C93.2944 9.07865 93.2695 9.07493 93.2446 9.07122C93.2252 9.06833 93.2058 9.06543 93.1878 9.06159C93.15 9.0533 93.1238 9.03958 93.0978 9.02596C93.0782 9.01566 93.0587 9.00543 93.0343 8.99764C92.9698 8.9778 92.9007 8.96906 92.8319 8.96036C92.7502 8.95005 92.669 8.93979 92.5964 8.91108C92.5349 8.88676 92.4873 8.84151 92.4397 8.79626C92.4079 8.76609 92.3762 8.73592 92.3403 8.71196C92.1637 8.59644 91.9771 8.49383 91.7904 8.39113C91.6279 8.30177 91.4652 8.21234 91.309 8.11428C91.2308 8.06521 91.153 8.01541 91.0753 7.96563C90.6657 7.70338 90.2572 7.4418 89.7908 7.29059C88.9975 7.03411 88.1036 7.04583 87.2831 7.11164C86.8445 7.14612 86.4237 7.12224 86.005 7.09849L86.0049 7.09848C85.5233 7.07116 85.0446 7.04398 84.5446 7.10591C84.1666 7.15269 83.7916 7.1619 83.4167 7.1711C83.119 7.17841 82.8214 7.18571 82.5225 7.21184C82.412 7.22147 82.2744 7.22805 82.1224 7.23532C81.5735 7.26158 80.8362 7.29686 80.5059 7.51714C80.167 7.74215 79.9613 8.50772 79.8129 9.05949L79.8129 9.05969L79.8129 9.05982C79.7662 9.23346 79.7252 9.38591 79.6876 9.49366C79.4314 10.2278 79.4127 10.6727 79.6288 11.4564C79.7095 11.7484 79.7777 12.0443 79.843 12.3406C79.8725 12.4751 79.9008 12.61 79.9292 12.745L79.9293 12.7455L79.9296 12.7469L79.9296 12.7472C79.9964 13.0651 80.0632 13.3834 80.146 13.6977C80.1775 13.8168 80.2295 13.9187 80.2841 14.0259L80.3128 14.0825C80.3433 14.1437 80.3687 14.2067 80.3941 14.2699C80.4038 14.294 80.4135 14.318 80.4234 14.342C80.4463 14.3976 80.4569 14.4544 80.4675 14.5114C80.4753 14.5537 80.4832 14.596 80.4961 14.638C80.5052 14.6673 80.5141 14.6971 80.523 14.7269C80.5515 14.8226 80.5804 14.9195 80.6179 15.0106C80.6378 15.0592 80.6603 15.106 80.6828 15.1528C80.7073 15.2039 80.7319 15.255 80.753 15.3084L80.7651 15.3397L80.7787 15.3761C80.8061 15.45 80.8309 15.5169 80.88 15.5874C80.894 15.607 80.9075 15.6268 80.921 15.6467C80.9345 15.6666 80.948 15.6864 80.962 15.7059C80.9827 15.7349 81.0034 15.7539 81.0254 15.774C81.0378 15.7853 81.0506 15.7969 81.0639 15.811C81.1128 15.8597 81.1526 15.9248 81.1911 15.9879C81.2086 16.0166 81.2259 16.0448 81.2437 16.071L81.2532 16.0846L81.2661 16.1028C81.2842 16.1279 81.3025 16.1535 81.3165 16.1804C81.3373 16.2227 81.3464 16.2683 81.3554 16.3137C81.3637 16.3557 81.372 16.3976 81.3896 16.4364C81.4301 16.5229 81.5119 16.5899 81.5905 16.6543C81.6172 16.6762 81.6435 16.6978 81.6678 16.7198C81.6891 16.7393 81.7115 16.7617 81.7345 16.7848C81.7849 16.8355 81.8387 16.8895 81.893 16.923C81.9075 16.9313 81.9207 16.9364 81.9328 16.941C81.9582 16.9508 81.9784 16.9585 81.9939 16.9905C81.9942 16.9909 81.9943 16.9915 81.9944 16.9924L81.9945 16.9952C81.9944 16.9992 81.9936 17.0053 81.9926 17.0115C81.9913 17.0209 81.9899 17.0308 81.9908 17.0354C82.0004 17.0747 82.0463 17.1257 82.0848 17.1685C82.1014 17.1871 82.1167 17.2041 82.1271 17.218L82.1677 17.275C82.183 17.2963 82.1982 17.3176 82.2131 17.3388L82.2279 17.3599L82.2467 17.3873C82.4702 17.7049 82.6797 18.0321 82.8892 18.3592C83.0548 18.6178 83.2205 18.8765 83.3931 19.1305L83.5006 19.289ZM107.397 118.765C107.425 118.663 107.454 118.559 107.486 118.457C107.532 118.311 107.585 118.169 107.656 118.042L107.668 118.021L107.668 118.021C107.821 117.745 107.99 117.44 108.077 117.138C108.129 116.959 108.191 116.782 108.254 116.605L108.254 116.605C108.349 116.336 108.443 116.067 108.502 115.789C108.554 115.548 108.655 115.291 108.75 115.067C108.765 115.034 108.784 115.003 108.804 114.973L108.804 114.972C108.818 114.95 108.832 114.928 108.844 114.904C108.86 114.875 108.865 114.844 108.869 114.815C108.873 114.788 108.877 114.762 108.889 114.74C108.94 114.635 109.113 114.604 109.246 114.58L109.246 114.58L109.246 114.58L109.247 114.58L109.248 114.58C109.273 114.575 109.298 114.571 109.319 114.566C109.533 114.52 109.712 114.589 109.916 114.668L109.958 114.684C110.238 114.792 110.52 114.893 110.803 114.994L110.804 114.994L110.804 114.995L110.804 114.995L110.804 114.995L110.804 114.995L110.805 114.995C111.069 115.089 111.333 115.184 111.595 115.284L112.346 115.572C112.427 115.604 112.51 115.64 112.594 115.676L112.594 115.676C112.767 115.752 112.943 115.829 113.118 115.871C113.14 115.876 113.162 115.879 113.184 115.883L113.184 115.883C113.224 115.889 113.263 115.895 113.305 115.913C113.403 115.955 113.488 116.019 113.574 116.084L113.574 116.084L113.574 116.084L113.574 116.084C113.611 116.112 113.648 116.14 113.687 116.166C113.75 116.209 113.814 116.251 113.879 116.293C114.047 116.403 114.218 116.514 114.37 116.641C114.444 116.701 114.507 116.772 114.569 116.844L114.569 116.844C114.612 116.892 114.654 116.94 114.7 116.985C114.805 117.087 114.897 117.196 114.988 117.307L114.989 117.307C115.041 117.37 115.094 117.434 115.15 117.496C115.262 117.623 115.387 117.741 115.513 117.858C115.621 117.961 115.73 118.063 115.83 118.171C116.067 118.428 116.354 118.681 116.635 118.885C116.674 118.913 116.715 118.941 116.756 118.969L116.756 118.969C116.86 119.041 116.966 119.114 117.057 119.198C117.102 119.24 117.141 119.286 117.18 119.333C117.214 119.372 117.247 119.411 117.284 119.448C117.381 119.546 117.48 119.643 117.577 119.74L117.577 119.74L117.577 119.74L117.578 119.74L117.578 119.74L117.578 119.74L117.578 119.74C117.95 120.108 118.32 120.474 118.671 120.867L118.834 121.05C119.102 121.35 119.366 121.646 119.625 121.958C119.802 122.172 119.93 122.447 120.039 122.702C120.13 122.917 120.252 123.123 120.372 123.325L120.411 123.392C120.66 123.812 120.821 124.29 120.922 124.767C121.004 125.153 121.118 125.51 121.233 125.871L121.233 125.871C121.284 126.031 121.336 126.192 121.385 126.356C121.41 126.44 121.446 126.517 121.482 126.594C121.525 126.687 121.567 126.779 121.592 126.882C121.615 126.974 121.647 127.065 121.678 127.156L121.678 127.156C121.721 127.281 121.764 127.406 121.786 127.535C121.798 127.607 121.797 127.672 121.797 127.737C121.797 127.778 121.797 127.82 121.799 127.864C121.805 127.952 121.835 128.057 121.862 128.155C121.874 128.194 121.884 128.232 121.893 128.267C121.975 128.604 122.043 128.926 122.101 129.271C122.144 129.523 122.167 129.78 122.189 130.035L122.198 130.133C122.211 130.279 122.212 130.411 122.207 130.558C122.205 130.612 122.195 130.651 122.186 130.692L122.186 130.692C122.178 130.722 122.171 130.752 122.167 130.789C122.158 130.856 122.153 130.925 122.148 130.995C122.137 131.136 122.126 131.278 122.09 131.416C122.073 131.482 122.062 131.55 122.051 131.619C122.034 131.726 122.017 131.833 121.978 131.929C121.954 131.989 121.929 132.046 121.904 132.101L121.904 132.101C121.854 132.213 121.806 132.32 121.773 132.442C121.746 132.54 121.693 132.636 121.644 132.723C121.616 132.773 121.599 132.821 121.582 132.869C121.563 132.921 121.545 132.972 121.514 133.022C121.467 133.099 121.403 133.167 121.34 133.235C121.299 133.278 121.258 133.322 121.222 133.367C121.169 133.432 121.16 133.463 121.147 133.505L121.147 133.505L121.147 133.505C121.141 133.526 121.134 133.549 121.12 133.581C121.066 133.712 120.955 133.823 120.852 133.925C120.822 133.955 120.793 133.983 120.766 134.012C120.733 134.047 120.701 134.085 120.669 134.122C120.613 134.189 120.556 134.256 120.488 134.312C120.396 134.389 120.286 134.43 120.174 134.472L120.127 134.49C119.845 134.6 119.557 134.695 119.269 134.79C118.519 135.036 117.799 135.143 117.054 135.254L117.054 135.254L117.054 135.254L117.054 135.254C116.793 135.293 116.53 135.332 116.261 135.378C115.988 135.424 115.721 135.502 115.454 135.581C115.134 135.675 114.814 135.768 114.485 135.807C113.505 135.92 112.248 135.283 111.479 134.719C111.221 134.53 110.967 134.334 110.713 134.138L110.713 134.138L110.713 134.138L110.713 134.137L110.713 134.137L110.712 134.137L110.712 134.137C110.455 133.939 110.198 133.74 109.937 133.549C109.851 133.486 109.756 133.445 109.661 133.405C109.577 133.37 109.492 133.334 109.415 133.282C109.226 133.157 109.124 132.97 109.02 132.78C108.993 132.732 108.966 132.683 108.938 132.635C108.919 132.603 108.9 132.568 108.881 132.535C108.861 132.511 108.835 132.499 108.804 132.503C108.772 132.46 108.77 132.444 108.767 132.42C108.765 132.403 108.763 132.383 108.751 132.348C108.721 132.266 108.654 132.223 108.586 132.179C108.544 132.151 108.501 132.124 108.467 132.086C108.446 132.062 108.432 132.031 108.418 131.999C108.404 131.966 108.389 131.932 108.364 131.908C108.341 131.885 108.32 131.876 108.3 131.867C108.273 131.854 108.248 131.843 108.221 131.799C108.199 131.76 108.189 131.701 108.179 131.645C108.174 131.613 108.169 131.583 108.161 131.557C108.132 131.459 108.112 131.359 108.092 131.259L108.092 131.259C108.067 131.138 108.043 131.018 108.003 130.902C107.981 130.835 107.95 130.768 107.919 130.702C107.879 130.615 107.838 130.528 107.816 130.438C107.811 130.414 107.811 130.388 107.812 130.36C107.813 130.324 107.814 130.286 107.803 130.247C107.774 130.149 107.74 130.051 107.705 129.953C107.656 129.814 107.607 129.674 107.573 129.531L107.565 129.497L107.565 129.497L107.565 129.497C107.546 129.417 107.531 129.355 107.489 129.279C107.377 129.08 107.312 128.857 107.248 128.635L107.224 128.551L107.209 128.503C107.087 128.094 106.974 127.682 106.868 127.268C106.815 127.061 106.764 126.854 106.716 126.646C106.708 126.61 106.696 126.57 106.683 126.529C106.653 126.431 106.62 126.323 106.628 126.237C106.635 126.154 106.646 126.064 106.658 125.974L106.663 125.933C106.667 125.904 106.671 125.876 106.674 125.848C106.677 125.822 106.681 125.796 106.684 125.77L106.693 125.709L106.704 125.627C106.726 125.473 106.748 125.319 106.76 125.163C106.772 125.02 106.793 124.879 106.813 124.738L106.813 124.738C106.835 124.59 106.856 124.442 106.868 124.293C106.879 124.138 106.888 123.984 106.896 123.83C106.907 123.629 106.918 123.428 106.936 123.226C106.947 123.109 106.952 122.991 106.957 122.873C106.963 122.711 106.97 122.549 106.992 122.388C107.014 122.225 107.038 122.062 107.063 121.899C107.106 121.62 107.148 121.342 107.176 121.062C107.2 120.809 107.201 120.556 107.202 120.304C107.203 119.865 107.204 119.429 107.33 119.002C107.354 118.925 107.375 118.845 107.397 118.765ZM65.7393 135.009C65.5864 134.815 65.6658 134.542 65.7468 134.263C65.809 134.048 65.8721 133.831 65.8309 133.645C65.7359 133.211 65.3106 132.858 64.9046 132.521C64.6773 132.332 64.4561 132.148 64.3023 131.958C64.021 131.612 63.7805 131.235 63.5405 130.859L63.5402 130.858L63.5398 130.858L63.5395 130.857L63.5391 130.856C63.4847 130.771 63.4302 130.686 63.3753 130.601C63.3421 130.549 63.3089 130.497 63.2755 130.444C63.1303 130.215 62.9805 129.978 62.7982 129.781C62.7038 129.679 62.5837 129.614 62.463 129.548C62.4216 129.526 62.3801 129.503 62.3396 129.479C62.2668 129.437 62.2387 129.405 62.2036 129.365L62.2035 129.365L62.1888 129.348C62.1819 129.34 62.1745 129.332 62.1663 129.323C62.1389 129.295 62.1091 129.273 62.0793 129.252C62.0437 129.226 62.0082 129.2 61.9765 129.163C61.8458 129.014 61.7503 128.923 61.5768 128.82C61.52 128.787 61.477 128.74 61.4344 128.694C61.3776 128.632 61.3217 128.572 61.2352 128.545C61.2042 128.535 61.1817 128.535 61.16 128.535C61.1316 128.534 61.1044 128.534 61.0609 128.513C60.9972 128.483 60.9493 128.432 60.9015 128.381C60.8667 128.344 60.8318 128.307 60.7909 128.278C60.7558 128.253 60.7189 128.233 60.6822 128.213C60.6258 128.183 60.57 128.154 60.5224 128.105C60.5126 128.095 60.5044 128.085 60.4969 128.076L60.4899 128.067L60.4783 128.052C60.4498 128.014 60.4273 127.984 60.3555 127.959C60.3288 127.949 60.3061 127.946 60.2831 127.942C60.2519 127.937 60.2201 127.933 60.1769 127.912C60.1344 127.892 60.1018 127.887 60.0702 127.882C60.0466 127.879 60.0235 127.875 59.9972 127.866C59.8724 127.82 59.7906 127.74 59.7056 127.658C59.6752 127.628 59.6445 127.599 59.6112 127.57C59.5115 127.481 59.3353 127.389 59.2148 127.333C59.1435 127.3 59.0677 127.294 58.9902 127.288C58.9342 127.284 58.8774 127.28 58.8206 127.266C58.6083 127.211 58.39 127.065 58.1884 126.929L58.1883 126.929C58.1212 126.884 58.0558 126.84 57.9932 126.801C57.8947 126.74 57.8331 126.747 57.7566 126.755C57.7161 126.76 57.6715 126.765 57.615 126.76C57.4643 126.748 57.3656 126.692 57.2334 126.612C57.2125 126.6 57.1921 126.587 57.1719 126.575C57.0676 126.51 56.9707 126.45 56.853 126.435C56.834 126.433 56.8123 126.432 56.79 126.431L56.7898 126.431C56.7515 126.43 56.7117 126.429 56.682 126.419C56.6776 126.418 56.6733 126.416 56.6692 126.414C56.6657 126.412 56.6624 126.409 56.6591 126.407C56.6562 126.405 56.6533 126.403 56.6505 126.401C56.6445 126.396 56.6387 126.391 56.6329 126.386C56.6165 126.372 56.6 126.358 56.581 126.352C56.5551 126.343 56.5363 126.347 56.5175 126.351L56.5059 126.353C56.4911 126.355 56.4755 126.356 56.4558 126.35C56.4254 126.34 56.4045 126.328 56.3853 126.316C56.354 126.297 56.3271 126.281 56.2707 126.284C56.2383 126.287 56.2073 126.297 56.176 126.307C56.1397 126.319 56.103 126.33 56.0633 126.33C55.9625 126.33 55.8685 126.286 55.7757 126.242C55.7077 126.21 55.6404 126.178 55.5714 126.164C55.5621 126.162 55.5455 126.167 55.5283 126.172C55.5116 126.177 55.4944 126.183 55.4825 126.182C55.4275 126.179 55.4031 126.167 55.373 126.153L55.3606 126.147L55.348 126.141L55.345 126.14C55.335 126.136 55.3239 126.131 55.3108 126.127C55.2211 126.096 55.1199 126.101 55.0177 126.107C54.9301 126.112 54.8419 126.117 54.7597 126.099L54.7344 126.093C54.5943 126.062 54.474 126.035 54.3282 126.069C54.0012 126.146 53.7004 126.18 53.3624 126.204C52.6583 126.257 51.9546 126.355 51.2774 126.557C50.5537 126.775 49.8724 127.113 49.2551 127.549C48.7379 127.915 48.1865 128.35 47.7698 128.819C47.5374 129.08 47.4354 129.338 47.3153 129.643L47.3153 129.643L47.3152 129.643L47.3152 129.643L47.2813 129.729C47.2706 129.756 47.2597 129.783 47.2484 129.811C47.111 130.145 46.9331 130.461 46.7553 130.776L46.7552 130.776C46.582 131.084 46.409 131.391 46.2737 131.714C45.8776 132.666 45.9063 134.019 46.1155 135.024C46.327 136.046 46.7574 136.7 47.4659 137.452C48.3328 138.372 49.0578 138.456 50.1185 138.579C50.3045 138.601 50.5008 138.623 50.7099 138.652C50.9143 138.68 51.1181 138.714 51.3222 138.748C51.4647 138.772 51.6073 138.796 51.7502 138.817C51.8623 138.834 51.9677 138.858 52.0746 138.882L52.0768 138.882C52.1103 138.89 52.1439 138.897 52.178 138.905C52.2555 138.921 52.3357 138.911 52.4153 138.902L52.4154 138.902C52.4643 138.896 52.5129 138.89 52.5606 138.89C52.6336 138.89 52.7064 138.889 52.779 138.887C52.9192 138.884 53.0591 138.88 53.1992 138.894C53.3636 138.909 53.5317 138.894 53.7 138.879C53.9099 138.86 54.1202 138.841 54.3236 138.882C54.4691 138.911 54.6037 138.936 54.7549 138.931L54.7967 138.931C54.8196 138.93 54.8427 138.93 54.8659 138.93L54.9317 138.93C55.0834 138.931 55.2359 138.931 55.3746 138.901C55.5345 138.867 55.6926 138.819 55.8511 138.772L55.8513 138.772L55.8514 138.772C55.9985 138.727 56.1459 138.683 56.2952 138.65C56.4419 138.616 56.6223 138.629 56.7895 138.641C56.8176 138.643 56.8454 138.645 56.8725 138.647C56.9041 138.649 56.9348 138.65 56.9644 138.651C56.973 138.651 56.9817 138.652 56.9904 138.652C56.9983 138.653 57.0062 138.653 57.0142 138.653C57.0411 138.655 57.0682 138.657 57.0955 138.659L57.096 138.659C57.2309 138.669 57.3686 138.679 57.4958 138.635C57.5294 138.623 57.5592 138.602 57.5889 138.581C57.6203 138.559 57.6515 138.537 57.6868 138.527C57.7134 138.519 57.7358 138.521 57.7594 138.523L57.7595 138.523C57.7742 138.524 57.7894 138.526 57.8064 138.525C57.9782 138.517 58.1433 138.497 58.31 138.454C58.4282 138.424 58.5482 138.403 58.668 138.381C58.8787 138.343 59.0889 138.305 59.2887 138.223C59.4596 138.153 59.6205 138.093 59.8017 138.065C59.8768 138.052 59.9507 138.045 60.0234 138.039L60.0235 138.038C60.1228 138.029 60.2198 138.02 60.3144 137.998L60.412 137.976L60.412 137.976L60.4121 137.976L60.4129 137.975C60.7057 137.908 60.9903 137.843 61.2814 137.747C61.5319 137.666 61.8028 137.588 62.0567 137.537C62.1818 137.511 62.324 137.482 62.445 137.44C62.6193 137.379 62.7832 137.335 62.9578 137.288L62.9581 137.288L62.9913 137.279C63.0006 137.276 63.0099 137.273 63.0194 137.27L63.0367 137.265C63.046 137.262 63.0553 137.258 63.0647 137.255C63.0781 137.251 63.0916 137.246 63.1052 137.241L63.1058 137.241C63.1336 137.231 63.1613 137.221 63.188 137.213C63.2205 137.202 63.245 137.185 63.2694 137.169C63.2894 137.156 63.3094 137.143 63.3336 137.132C63.3579 137.122 63.3851 137.116 63.4129 137.11C63.443 137.103 63.4738 137.097 63.5023 137.084C63.5177 137.076 63.5333 137.068 63.5491 137.06C63.5742 137.046 63.5997 137.033 63.6253 137.022C63.7445 136.968 63.8669 136.904 63.9915 136.838C64.2572 136.699 64.5327 136.554 64.8074 136.499C64.9045 136.479 64.9793 136.502 65.0597 136.528C65.097 136.54 65.1355 136.552 65.1781 136.56C65.3222 136.588 65.4675 136.548 65.6018 136.498C65.7646 136.439 65.9083 136.346 66.0514 136.253L66.0526 136.252C66.0756 136.237 66.0986 136.223 66.1216 136.208L66.1591 136.184C66.2107 136.152 66.7097 135.906 66.7086 135.906C66.6833 135.563 66.5627 135.084 66.4375 134.758C66.3952 134.648 66.3302 134.547 66.2654 134.446L66.2654 134.446C66.1999 134.344 66.1346 134.242 66.0932 134.132C66.2055 133.728 66.0188 133.887 66.0756 134.08C66.0808 134.097 66.0867 134.115 66.0932 134.132C66.045 134.306 65.9414 134.584 65.7393 135.009ZM39.898 71.468C40.172 71.3711 40.4413 71.2759 40.5094 71.0388C40.0461 71.1225 39.7595 71.2007 39.59 71.263C39.6559 71.1649 39.7005 71.0521 39.7452 70.9392C39.7892 70.8282 39.8332 70.7171 39.8974 70.6196C40.09 70.3272 40.4082 69.9496 40.673 69.7274C40.6719 69.7281 41.1629 69.9895 41.2196 70.0122L41.2505 70.0248L41.2825 70.0376L41.3496 70.064C41.5053 70.125 41.661 70.186 41.8001 70.2816C41.9186 70.3616 42.0373 70.4553 42.0984 70.588C42.1167 70.6277 42.1294 70.6663 42.1417 70.7038C42.1679 70.7838 42.1924 70.8583 42.2651 70.9255C42.4695 71.115 42.7462 71.2532 43.0136 71.3867L43.0137 71.3868C43.1411 71.4503 43.2663 71.5128 43.3805 71.5793C43.4017 71.5912 43.4241 71.6023 43.4463 71.6135C43.4654 71.6232 43.4843 71.633 43.5021 71.6435C43.5171 71.6518 43.531 71.6617 43.5442 71.6723C43.5496 71.6766 43.5549 71.681 43.5601 71.6855L43.5792 71.7024C43.5996 71.7205 43.6194 71.7381 43.6409 71.751C43.6488 71.7559 43.6568 71.7601 43.6648 71.7639C43.6792 71.7707 43.6936 71.7761 43.7081 71.7815C43.7239 71.7874 43.7398 71.7933 43.7558 71.8011C43.7678 71.807 43.7799 71.8139 43.792 71.8227L43.8193 71.842L43.8435 71.8589C43.8833 71.8865 43.9245 71.9152 43.96 71.944L44.0227 71.9943C44.15 72.0966 44.2719 72.1945 44.4107 72.2923C44.5159 72.3661 44.6219 72.4637 44.7164 72.5509C44.9049 72.7271 45.1267 72.9006 45.3399 73.0569C45.5838 73.2343 45.8001 73.4242 46.0222 73.6192L46.0224 73.6193L46.1077 73.6942C46.1828 73.7595 46.2484 73.8345 46.3156 73.9112L46.3157 73.9113C46.3624 73.9647 46.4099 74.0189 46.4618 74.0713C46.5899 74.2013 46.7335 74.2979 46.8898 74.3952C47.0725 74.5086 47.2252 74.6557 47.3784 74.8032L47.3785 74.8033C47.467 74.8885 47.5555 74.9738 47.6501 75.0529C47.7819 75.1636 47.8952 75.2854 48.0013 75.4212C48.0121 75.4345 48.0198 75.4477 48.0273 75.4604C48.032 75.4684 48.0366 75.4762 48.0418 75.4838C48.0498 75.4956 48.0594 75.5069 48.073 75.5177C48.102 75.5396 48.1379 75.552 48.1741 75.5646C48.2084 75.5764 48.243 75.5884 48.2723 75.6086C48.3838 75.6858 48.4564 75.8051 48.5269 75.921L48.5271 75.9214C48.5496 75.9583 48.5719 75.9949 48.5952 76.0297C48.6276 76.0775 48.6603 76.1303 48.6939 76.1846L48.6941 76.185C48.7811 76.3256 48.8743 76.4761 48.9854 76.5747C49.0989 76.6744 49.2194 76.7669 49.3397 76.8593L49.3398 76.8594L49.3399 76.8594L49.3399 76.8595L49.34 76.8595C49.4724 76.9612 49.6045 77.0627 49.7269 77.1733C49.8337 77.2687 49.923 77.3935 50.0118 77.5178C50.0459 77.5654 50.0799 77.613 50.1149 77.6588C50.2068 77.7782 50.265 77.9022 50.3265 78.0377C50.4118 78.2253 50.549 78.3837 50.6861 78.542C50.7974 78.6705 50.9086 78.7989 50.992 78.9428C51.0623 79.0623 51.1455 79.1723 51.229 79.2827L51.2291 79.2827C51.2739 79.3419 51.3187 79.4012 51.3617 79.4621C51.3897 79.5016 51.4235 79.538 51.4573 79.5744C51.5117 79.6331 51.5664 79.6919 51.5979 79.7647C51.6101 79.7924 51.6219 79.8199 51.6336 79.8475L51.6446 79.8733C51.6856 79.9697 51.7264 80.0659 51.7767 80.1628C51.848 80.3005 51.9166 80.4396 51.9852 80.5788L51.9854 80.5791C52.0718 80.7542 52.1582 80.9295 52.25 81.1021C52.3482 81.2874 52.4438 81.459 52.5344 81.6215L52.5361 81.6246L52.5364 81.6252C53.0555 82.5565 53.4102 83.193 53.1698 84.4329C52.9731 85.4459 52.692 86.1772 51.9859 86.9444C51.2902 87.6999 50.2073 88.5133 49.2027 88.7467C48.8609 88.8262 48.5105 88.8651 48.1596 88.904L48.1596 88.904L48.1594 88.904L48.1593 88.904C47.7989 88.944 47.438 88.9841 47.0855 89.0682C47.0218 89.0834 46.9606 89.0987 46.901 89.1136C46.5877 89.1922 46.3198 89.2593 45.9739 89.2229C45.3506 89.1582 44.6743 88.966 44.0754 88.7594C43.3593 88.5132 42.6875 88.159 42.0875 87.6966C41.527 87.2655 41.0367 86.7532 40.5827 86.2133C40.3654 85.9543 40.1618 85.7288 39.908 85.5083C39.7962 85.4116 39.7474 85.2979 39.691 85.1666L39.6803 85.1418C39.6469 85.0632 39.5908 84.9938 39.5351 84.925C39.4715 84.8463 39.4085 84.7685 39.381 84.6788L39.3783 84.6695L39.3754 84.6578C39.3714 84.6417 39.369 84.628 39.3668 84.6153C39.3609 84.5813 39.3562 84.5545 39.3265 84.5064C39.3237 84.5018 39.3191 84.497 39.3137 84.4921C39.3097 84.4886 39.3053 84.4851 39.3007 84.4816L39.2907 84.4741C39.2767 84.4637 39.2632 84.4537 39.259 84.4453C39.2301 84.381 39.2168 84.3078 39.2033 84.234L39.2033 84.2339C39.1849 84.1328 39.1663 84.0305 39.1074 83.9478C39.085 83.9172 39.0548 83.8949 39.0245 83.8727C39.0144 83.8652 39.0044 83.8578 38.9946 83.8501C38.9779 83.8369 38.9621 83.8229 38.9487 83.8064C38.9126 83.7632 38.9104 83.7321 38.9078 83.6956C38.9062 83.6736 38.9045 83.6496 38.8952 83.6197C38.8865 83.5947 38.8725 83.5817 38.8587 83.5689C38.8445 83.5557 38.8304 83.5426 38.822 83.5166C38.8163 83.4979 38.8182 83.4764 38.8201 83.4549C38.822 83.4341 38.8238 83.4133 38.8189 83.395C38.8097 83.3661 38.7878 83.3341 38.7663 83.3028C38.7532 83.2836 38.7403 83.2648 38.7306 83.2471C38.6743 83.1436 38.6669 83.0305 38.659 82.9083C38.6574 82.8842 38.6558 82.8597 38.6538 82.8349C38.6412 82.6814 38.6273 82.5687 38.5508 82.4404C38.5211 82.3912 38.4909 82.3576 38.4635 82.3271C38.4122 82.2702 38.371 82.2244 38.3627 82.1096C38.3577 82.0357 38.3553 81.9566 38.3528 81.8755C38.3455 81.633 38.3375 81.3712 38.2572 81.167C38.2358 81.1117 38.2056 81.0629 38.176 81.0149C38.1356 80.9494 38.096 80.8854 38.0808 80.8085C38.0558 80.6773 38.0289 80.4802 38.0422 80.349C38.0463 80.3051 38.0527 80.2627 38.059 80.221C38.0767 80.1034 38.0936 79.991 38.057 79.8625C38.0496 79.835 38.039 79.8141 38.028 79.7928C38.0137 79.7648 37.999 79.736 37.9906 79.6905C37.9822 79.6425 37.9673 79.6136 37.9525 79.5848C37.942 79.5645 37.9316 79.5444 37.9236 79.5176C37.9025 79.4461 37.9136 79.41 37.9275 79.3653C37.9336 79.3455 37.9402 79.324 37.9448 79.297C37.9571 79.23 37.9487 79.1668 37.9402 79.1032C37.9365 79.076 37.9329 79.0488 37.9308 79.0211C37.9298 79.0073 37.9292 78.9933 37.9292 78.9792C37.9287 78.9292 37.9386 78.8789 37.9485 78.8286C37.962 78.7599 37.9755 78.6909 37.963 78.6218C37.9545 78.5752 37.9387 78.5528 37.9224 78.5294L37.9223 78.5293C37.9157 78.5199 37.909 78.5104 37.9027 78.4991C37.8968 78.4886 37.8912 78.4765 37.8862 78.4616C37.8572 78.3766 37.874 78.296 37.891 78.2142C37.9039 78.1526 37.9168 78.0903 37.9105 78.0251C37.8923 77.8251 37.9109 77.6949 37.9563 77.5008C37.9673 77.4533 37.9677 77.4095 37.9681 77.3657L37.9681 77.3656C37.9684 77.3291 37.9687 77.2927 37.9752 77.2542C37.9792 77.2323 37.9835 77.2135 37.9876 77.1959C37.9993 77.145 38.0089 77.1034 38.0017 77.021C37.9974 76.9754 37.9915 76.9298 37.9855 76.8842C37.9676 76.7474 37.9498 76.6106 37.9781 76.4734C38.033 76.2061 38.1404 75.9419 38.2445 75.6858L38.2446 75.6856C38.2662 75.6324 38.2877 75.5795 38.3086 75.5269C38.3467 75.4296 38.3855 75.3324 38.4243 75.2352C38.5884 74.8239 38.7526 74.4121 38.8699 73.9843C38.9342 73.7491 38.9542 73.463 38.9749 73.169C39.0118 72.6426 39.0506 72.0906 39.3478 71.7588C39.4749 71.6177 39.6878 71.5424 39.898 71.468ZM39.557 71.3086C39.5686 71.2938 39.5795 71.2786 39.59 71.263C39.1962 71.4077 39.4344 71.4663 39.557 71.3086ZM87.8177 106.478L87.8178 106.478C88.738 104.952 89.6804 103.389 90.1831 101.667C90.1897 101.644 90.1957 101.62 90.2017 101.597C90.2202 101.524 90.2392 101.449 90.2786 101.386C90.3133 101.331 90.3288 101.28 90.3466 101.221L90.3542 101.196L90.3573 101.187C90.3757 101.129 90.3888 101.089 90.4223 101.036C90.4528 100.987 90.4907 100.951 90.5297 100.915L90.5297 100.915L90.5298 100.915C90.5545 100.892 90.5795 100.868 90.6035 100.841C90.7661 100.657 90.858 100.487 90.9247 100.243C90.9456 100.167 90.9708 100.093 90.996 100.019C91.0319 99.9134 91.0677 99.808 91.0909 99.698C91.1065 99.6264 91.1116 99.5665 91.1043 99.495C91.0957 99.3961 91.1091 99.2966 91.1223 99.1981L91.1267 99.1656L91.131 99.1317C91.1572 98.9139 91.1943 98.6917 91.2824 98.493C91.3018 98.4496 91.3105 98.3966 91.3189 98.3459C91.3257 98.3046 91.3322 98.2648 91.3441 98.2328C91.3931 98.1003 91.4484 97.959 91.5112 97.8309C91.5318 97.7897 91.5431 97.7466 91.5542 97.704C91.5661 97.6584 91.5779 97.6133 91.6009 97.5715C91.6514 97.4793 91.7128 97.3628 91.7239 97.2576C91.7269 97.2298 91.7295 97.2019 91.732 97.1738C91.7356 97.1351 91.7392 97.0963 91.7439 97.0577C91.748 97.0222 91.7597 96.9869 91.7712 96.9522C91.7829 96.917 91.7943 96.8824 91.7976 96.8487C91.7989 96.8353 91.7999 96.822 91.8008 96.8089C91.802 96.7905 91.803 96.7723 91.804 96.7542C91.8068 96.7031 91.8096 96.6522 91.8183 96.598C91.8215 96.5734 91.8202 96.5494 91.8189 96.5257C91.8183 96.5157 91.8178 96.5057 91.8176 96.4958C91.8174 96.4844 91.8176 96.473 91.8189 96.4616C91.8201 96.4412 91.8265 96.4277 91.8333 96.4134C91.8381 96.4031 91.8432 96.3925 91.8466 96.3787C91.868 96.3 91.8719 96.1843 91.8639 96.1027C91.8531 95.9924 91.8663 95.8903 91.8829 95.7798C91.8905 95.722 91.8918 95.6644 91.893 95.6065L91.893 95.6065L91.893 95.6064C91.894 95.5569 91.8951 95.5071 91.9001 95.4565C91.9025 95.4354 91.9057 95.4145 91.9089 95.3937L91.9089 95.3936C91.9177 95.3367 91.9262 95.2807 91.9168 95.2223C91.9032 95.1288 91.8541 95.0301 91.8107 94.9429L91.8016 94.9246C91.7816 94.8854 91.757 94.849 91.7325 94.8125L91.7324 94.8124C91.7065 94.774 91.6805 94.7355 91.66 94.6938C91.6323 94.6393 91.6074 94.5836 91.5826 94.5278L91.5825 94.5277L91.5825 94.5277C91.5378 94.4275 91.4931 94.3273 91.4319 94.2344C91.3413 94.0988 91.2475 93.9653 91.1496 93.8347C90.8834 93.479 90.588 93.1477 90.2689 92.8401C90.1104 92.6879 89.9478 92.5385 89.7768 92.3993C89.7098 92.3457 89.6329 92.3069 89.5561 92.268C89.4751 92.2271 89.3942 92.1862 89.325 92.1282C89.3184 92.1228 89.3179 92.1156 89.3174 92.1085C89.3172 92.1053 89.317 92.1021 89.3163 92.0992C89.3153 92.0956 89.3135 92.0923 89.3096 92.0897C89.2838 92.0721 89.217 92.0547 89.1857 92.0469C89.1776 92.0449 89.1707 92.0434 89.1644 92.0422L89.1496 92.0395C89.1303 92.0362 89.1154 92.0337 89.0845 92.0193C89.0625 92.0084 89.0369 92.0006 89.011 91.9927C88.9743 91.9816 88.937 91.9702 88.9084 91.9493C88.8892 91.9348 88.8781 91.9205 88.867 91.9061C88.8564 91.8925 88.8458 91.8788 88.8281 91.8647C88.8056 91.847 88.7785 91.8325 88.7516 91.8181C88.7348 91.8092 88.7182 91.8003 88.7029 91.7907C88.6714 91.7712 88.6385 91.7604 88.6061 91.7497C88.5597 91.7344 88.5141 91.7194 88.4746 91.6797C88.4375 91.6419 88.3996 91.5941 88.3616 91.5461C88.3473 91.5279 88.3329 91.5097 88.3185 91.4921C88.3046 91.4749 88.2906 91.4583 88.2768 91.4427C88.2646 91.429 88.2527 91.4154 88.2411 91.402C88.18 91.3317 88.1238 91.2671 88.0374 91.2231C87.9736 91.1901 87.9001 91.1853 87.8261 91.1804C87.7606 91.176 87.6947 91.1717 87.6347 91.1478C87.59 91.1292 87.5769 91.1213 87.5299 91.1196C87.5233 91.1191 87.5173 91.119 87.5117 91.1188C87.4876 91.1182 87.4716 91.1177 87.4501 91.0988C87.4482 91.0971 87.4467 91.0887 87.4452 91.0796C87.4435 91.07 87.4417 91.0596 87.4392 91.0558C87.4203 91.0258 87.3966 91.0067 87.3667 90.9873C87.3194 90.9552 87.2975 90.9337 87.2664 90.9029C87.2582 90.8949 87.2494 90.8862 87.2394 90.8766C87.209 90.8471 87.158 90.821 87.1123 90.7976C87.0911 90.7867 87.071 90.7764 87.0546 90.7666C87.0202 90.7463 86.9859 90.7257 86.9515 90.705C86.9173 90.6843 86.883 90.6637 86.8487 90.6435L86.8221 90.6273C86.8016 90.6146 86.7812 90.6016 86.7607 90.5886L86.76 90.5882L86.7599 90.5881C86.7069 90.5544 86.6536 90.5205 86.599 90.492C86.5586 90.4708 86.5159 90.4603 86.473 90.4496C86.4226 90.4371 86.3718 90.4245 86.3234 90.3947C86.3096 90.3859 86.2949 90.3755 86.2797 90.3647C86.2451 90.3402 86.208 90.314 86.1735 90.3023C86.1576 90.297 86.1425 90.2942 86.1276 90.2913C86.1189 90.2897 86.1103 90.2881 86.1017 90.286C86.0885 90.2828 86.0751 90.2786 86.061 90.2716C85.9782 90.2285 85.8879 90.1767 85.811 90.1219C85.7916 90.1084 85.7765 90.0948 85.7624 90.082L85.7624 90.082C85.736 90.0582 85.7131 90.0376 85.6726 90.0263C85.578 90.0018 85.5019 90 85.4082 90.0039C85.3131 90.0069 85.2228 89.9488 85.1354 89.8926C85.0881 89.8622 85.0416 89.8323 84.9958 89.813C84.8676 89.7594 84.7405 89.7478 84.6032 89.737C84.5904 89.736 84.5748 89.7342 84.5578 89.7323L84.5575 89.7323C84.51 89.727 84.4517 89.7205 84.4133 89.7252C84.4074 89.7259 84.4018 89.7284 84.3963 89.7313C84.3942 89.7324 84.3922 89.7335 84.3901 89.7347C84.3818 89.7394 84.3731 89.7442 84.3629 89.7455C84.268 89.7565 84.1282 89.7488 84.0399 89.711C83.8736 89.6416 83.6893 89.6417 83.5062 89.6418C83.4237 89.6419 83.3413 89.6419 83.261 89.6356C83.0744 89.6202 82.8956 89.5818 82.7191 89.544C82.4149 89.4787 82.1177 89.4149 81.7994 89.4731C81.1614 89.5893 80.5321 89.7654 79.9414 90.0344C79.7737 90.1114 79.6375 90.1563 79.4675 90.212C79.4093 90.2309 79.361 90.2619 79.3122 90.2933C79.2999 90.3012 79.2874 90.3092 79.2748 90.317C79.2559 90.3287 79.2365 90.3401 79.2161 90.3504L79.2076 90.3546C79.0247 90.447 78.8354 90.5425 78.7072 90.7151C78.6105 90.8448 78.4756 90.9927 78.3456 91.1007C78.2914 91.1458 78.2389 91.1785 78.189 91.2096L78.1889 91.2096C78.0924 91.2698 78.005 91.3243 77.9314 91.4517C77.8933 91.5188 77.851 91.5562 77.8049 91.597C77.794 91.6066 77.7829 91.6164 77.7716 91.6269C77.7583 91.6392 77.7447 91.6523 77.7308 91.667C77.7025 91.6981 77.6842 91.736 77.6658 91.7739C77.6439 91.8193 77.6219 91.8648 77.5826 91.8988C77.5707 91.9084 77.5411 91.9212 77.5108 91.9343C77.4806 91.9474 77.4496 91.9607 77.4348 91.9715C77.394 91.9992 77.332 92.0473 77.2982 92.0809C77.2517 92.1272 77.2226 92.1832 77.1933 92.2395C77.171 92.2825 77.1485 92.3257 77.1182 92.3648C77.0703 92.4267 77.0059 92.4799 76.9418 92.5328C76.8894 92.5761 76.8372 92.6192 76.7944 92.6667C76.6728 92.8026 76.5572 92.9497 76.462 93.1043C76.4467 93.1296 76.4304 93.1553 76.4139 93.1812L76.4135 93.1818C76.3556 93.2728 76.2952 93.3679 76.2644 93.4658C76.2391 93.5479 76.2339 93.6356 76.2286 93.7234C76.2214 93.8441 76.2142 93.965 76.1548 94.0716C76.091 94.1866 76.0496 94.3098 76.0079 94.434C75.975 94.5318 75.9419 94.6302 75.8976 94.7255C75.865 94.795 75.8178 94.8665 75.7722 94.9354C75.7488 94.9708 75.7258 95.0055 75.7055 95.039C75.6781 95.0844 75.6498 95.1383 75.6204 95.1944L75.6203 95.1947C75.561 95.3079 75.4968 95.4303 75.4246 95.5119C75.3965 95.5428 75.3707 95.5663 75.346 95.5888L75.3459 95.5889C75.3039 95.6271 75.2655 95.662 75.2254 95.7248C75.181 95.7953 75.1778 95.826 75.1732 95.8695L75.1732 95.8695C75.171 95.8901 75.1686 95.9135 75.1613 95.9454C75.1516 95.99 75.1227 96.0429 75.0947 96.0942L75.0947 96.0942C75.0777 96.1253 75.0611 96.1557 75.0493 96.1832C74.9994 96.3056 74.9488 96.4133 74.8778 96.527C74.7771 96.6915 74.7052 96.8151 74.6509 96.9894L74.6499 96.9927C74.6124 97.1138 74.599 97.1571 74.6015 97.2947C74.6027 97.3931 74.5907 97.5082 74.5775 97.6057C74.5659 97.6918 74.5449 97.7754 74.5238 97.859C74.4939 97.9778 74.464 98.0965 74.4614 98.2221C74.4609 98.2887 74.4641 98.3562 74.4673 98.4238L74.4673 98.424L74.4673 98.4242L74.4673 98.4244C74.4705 98.4921 74.4737 98.5597 74.4732 98.6264C74.4726 98.6649 74.4689 98.7026 74.465 98.7409L74.465 98.741L74.465 98.7412L74.465 98.7413C74.4601 98.7904 74.4551 98.8404 74.4565 98.8943C74.4593 99.0093 74.4412 99.1045 74.4218 99.2069L74.4217 99.2075L74.4216 99.2077C74.4147 99.2442 74.4076 99.2816 74.4012 99.3212C74.3814 99.4445 74.3999 99.5715 74.4182 99.6977L74.4183 99.6978C74.4305 99.782 74.4427 99.8658 74.4434 99.9479C74.4446 100.058 74.4379 100.161 74.431 100.268L74.4264 100.341C74.421 100.433 74.3997 100.524 74.3781 100.615L74.3781 100.615L74.3781 100.615C74.3565 100.706 74.3348 100.798 74.3289 100.893C74.317 101.098 74.3416 101.307 74.3825 101.503C74.3958 101.566 74.3994 101.63 74.403 101.695C74.4061 101.751 74.4091 101.807 74.4186 101.862C74.4198 101.871 74.4219 101.881 74.4244 101.891C74.4278 101.905 74.432 101.919 74.4363 101.933L74.4363 101.933C74.442 101.952 74.4476 101.971 74.4516 101.989C74.4593 102.025 74.458 102.054 74.4568 102.083C74.4558 102.106 74.4548 102.128 74.4582 102.154C74.4669 102.221 74.4882 102.288 74.5095 102.355L74.5095 102.355C74.5342 102.433 74.5589 102.511 74.5637 102.588C74.5669 102.653 74.546 102.714 74.5251 102.775C74.5106 102.818 74.496 102.86 74.4895 102.904C74.4586 103.111 74.4437 103.322 74.4289 103.532L74.4288 103.533L74.4288 103.533C74.4157 103.719 74.4026 103.904 74.3785 104.088C74.3666 104.183 74.3537 104.277 74.3408 104.372L74.3408 104.372C74.2756 104.85 74.2104 105.327 74.2693 105.81C74.3696 106.637 74.7547 107.442 75.1593 108.159C75.3755 108.543 75.5307 108.935 75.6852 109.325C75.8623 109.773 76.0385 110.218 76.3046 110.645C76.5053 110.967 76.6708 111.302 76.8363 111.637C76.9685 111.905 77.1007 112.173 77.2509 112.434C77.3068 112.531 77.3715 112.655 77.4431 112.791L77.4431 112.792L77.4432 112.792C77.697 113.277 78.0369 113.927 78.3744 114.134C78.7213 114.347 79.5029 114.213 80.0671 114.115C80.2453 114.085 80.4018 114.058 80.5161 114.047C81.2901 113.971 81.7016 113.801 82.3228 113.277C82.5551 113.082 82.7949 112.895 83.0365 112.713C83.1536 112.624 83.2719 112.536 83.3901 112.448L83.3903 112.448C83.6445 112.259 83.8989 112.07 84.1426 111.868C84.2359 111.791 84.3057 111.703 84.3784 111.611C84.3927 111.593 84.4071 111.575 84.4217 111.557C84.4685 111.499 84.519 111.445 84.5695 111.391L84.6115 111.346C84.6519 111.303 84.6986 111.27 84.7455 111.237L84.7455 111.237L84.7456 111.237C84.7811 111.212 84.8168 111.186 84.8499 111.157C84.8736 111.135 84.8979 111.114 84.9222 111.093L84.9229 111.092C84.9966 111.027 85.0713 110.961 85.1367 110.891C85.173 110.852 85.2063 110.812 85.2395 110.771C85.2754 110.728 85.3112 110.684 85.3508 110.643C85.3662 110.627 85.3813 110.612 85.396 110.597L85.3968 110.596C85.4543 110.539 85.5061 110.486 85.5509 110.411C85.5618 110.392 85.573 110.374 85.584 110.356L85.5845 110.355L85.5959 110.336C85.6007 110.328 85.6055 110.32 85.6101 110.312C85.6152 110.303 85.6201 110.295 85.6249 110.286C85.6425 110.256 85.6511 110.229 85.6603 110.2C85.6626 110.192 85.665 110.185 85.6676 110.177C85.6706 110.168 85.6738 110.159 85.6775 110.15C85.7018 110.084 85.7458 110.018 85.7881 109.954L85.7882 109.954C85.8055 109.928 85.8226 109.903 85.8379 109.878C85.8451 109.866 85.852 109.854 85.859 109.842C85.8737 109.816 85.8885 109.79 85.9065 109.767C85.9359 109.731 85.9732 109.703 86.0104 109.676C86.0455 109.651 86.0805 109.625 86.1085 109.592C86.1712 109.518 86.1978 109.416 86.2234 109.317C86.2277 109.3 86.2319 109.284 86.2363 109.267C86.2406 109.252 86.2449 109.236 86.2495 109.221C86.2529 109.211 86.2567 109.2 86.2607 109.188C86.2668 109.171 86.2734 109.153 86.2801 109.135C86.3052 109.068 86.3322 108.996 86.3387 108.932C86.3408 108.914 86.3398 108.9 86.339 108.886C86.3373 108.86 86.336 108.839 86.358 108.812C86.3615 108.808 86.3926 108.802 86.401 108.797C86.4327 108.772 86.459 108.71 86.4814 108.658C86.4915 108.634 86.5008 108.612 86.5095 108.596L86.6122 108.417C86.8096 108.077 87.0216 107.746 87.2336 107.415L87.2336 107.414L87.2337 107.414C87.3967 107.16 87.5597 106.905 87.716 106.647L87.8177 106.478ZM111.06 171.979C111.276 170.525 111.867 169.151 112.444 167.81L112.507 167.664C112.606 167.432 112.712 167.203 112.818 166.975C112.951 166.686 113.084 166.398 113.205 166.105L113.268 165.948C113.274 165.933 113.279 165.914 113.285 165.893L113.285 165.893C113.297 165.848 113.312 165.796 113.334 165.773C113.337 165.77 113.344 165.767 113.351 165.764C113.358 165.761 113.366 165.758 113.367 165.755C113.383 165.73 113.379 165.713 113.374 165.692C113.372 165.681 113.37 165.67 113.369 165.656C113.368 165.605 113.38 165.547 113.393 165.491C113.399 165.463 113.405 165.436 113.409 165.411C113.414 165.384 113.417 165.356 113.42 165.328C113.43 165.246 113.441 165.161 113.483 165.095C113.502 165.065 113.527 165.04 113.552 165.016C113.579 164.99 113.607 164.963 113.627 164.93C113.639 164.91 113.649 164.887 113.658 164.863C113.662 164.853 113.666 164.843 113.671 164.833C113.681 164.81 113.692 164.786 113.704 164.762L113.704 164.762C113.731 164.707 113.759 164.65 113.771 164.594C113.773 164.585 113.775 164.577 113.776 164.569C113.777 164.564 113.777 164.56 113.778 164.556C113.782 164.53 113.786 164.506 113.798 164.478C113.807 164.455 113.817 164.433 113.826 164.41L113.826 164.41C113.833 164.396 113.839 164.382 113.844 164.369C113.872 164.301 113.908 164.253 113.949 164.2C113.959 164.186 113.97 164.172 113.98 164.157C114.008 164.119 114.032 164.08 114.057 164.041L114.057 164.041C114.079 164.005 114.101 163.968 114.126 163.933C114.17 163.871 114.221 163.812 114.271 163.754C114.282 163.741 114.294 163.728 114.305 163.715C114.313 163.705 114.322 163.695 114.33 163.685C114.354 163.657 114.379 163.633 114.405 163.609C114.44 163.577 114.474 163.544 114.502 163.505L114.524 163.473C114.562 163.421 114.6 163.369 114.633 163.313L114.661 163.266C114.71 163.183 114.757 163.103 114.825 163.029C115.005 162.833 115.197 162.645 115.388 162.459L115.388 162.459C115.468 162.38 115.548 162.301 115.628 162.222C115.803 162.047 115.978 161.869 116.144 161.684C116.59 161.19 116.904 161.006 117.525 160.859C117.616 160.837 117.74 160.798 117.882 160.753C118.329 160.612 118.947 160.416 119.251 160.55C119.55 160.681 119.9 161.173 120.16 161.54C120.233 161.641 120.298 161.733 120.353 161.805C120.504 162 120.641 162.202 120.778 162.404L120.778 162.404C120.949 162.658 121.121 162.912 121.32 163.151C121.583 163.468 121.775 163.809 121.969 164.152L121.969 164.152C122.138 164.452 122.308 164.753 122.526 165.041C122.934 165.577 123.337 166.189 123.509 166.847C123.612 167.237 123.612 167.634 123.611 168.032C123.611 168.108 123.611 168.183 123.612 168.258C123.613 168.407 123.623 168.557 123.633 168.707C123.645 168.882 123.657 169.057 123.654 169.231C123.654 169.268 123.647 169.304 123.64 169.34C123.63 169.392 123.62 169.443 123.63 169.495C123.643 169.557 123.671 169.617 123.7 169.677C123.725 169.73 123.75 169.782 123.764 169.836C123.769 169.856 123.771 169.874 123.773 169.891L123.773 169.891C123.775 169.915 123.777 169.94 123.788 169.97C123.794 169.986 123.801 170.002 123.808 170.018L123.808 170.018C123.816 170.036 123.824 170.053 123.829 170.069C123.842 170.111 123.851 170.155 123.859 170.199C123.869 170.252 123.88 170.306 123.898 170.357C123.952 170.511 123.996 170.677 124.008 170.845C124.014 170.923 124.007 171 124 171.077C123.993 171.152 123.986 171.228 123.992 171.302L123.996 171.363L123.996 171.363C124.003 171.45 124.009 171.535 124.021 171.625C124.031 171.691 124.05 171.757 124.069 171.824C124.099 171.924 124.128 172.026 124.125 172.129C124.124 172.161 124.123 172.192 124.121 172.222L124.121 172.222C124.117 172.307 124.113 172.387 124.129 172.48C124.135 172.522 124.137 172.562 124.138 172.601L124.138 172.601L124.138 172.601C124.14 172.634 124.141 172.667 124.145 172.7C124.152 172.755 124.162 172.811 124.172 172.867C124.182 172.92 124.192 172.974 124.199 173.027C124.211 173.13 124.2 173.23 124.189 173.33L124.189 173.33C124.181 173.399 124.173 173.469 124.173 173.539C124.173 173.62 124.176 173.715 124.189 173.794C124.206 173.908 124.2 173.944 124.183 174.049L124.183 174.049C124.157 174.196 124.113 174.304 124.05 174.449C124.005 174.55 123.976 174.641 123.949 174.746C123.943 174.77 123.933 174.796 123.922 174.823C123.905 174.868 123.887 174.915 123.884 174.952C123.882 174.978 123.883 174.997 123.883 175.014C123.885 175.05 123.886 175.075 123.857 175.137C123.831 175.193 123.804 175.226 123.775 175.261C123.757 175.282 123.739 175.304 123.719 175.333C123.669 175.408 123.63 175.516 123.595 175.615L123.595 175.615C123.577 175.663 123.561 175.709 123.544 175.748C123.532 175.777 123.517 175.807 123.503 175.838L123.503 175.838C123.473 175.899 123.442 175.963 123.424 176.023C123.398 176.107 123.382 176.192 123.366 176.277L123.365 176.277C123.346 176.381 123.326 176.484 123.288 176.583C123.252 176.676 123.259 176.774 123.267 176.873C123.272 176.945 123.278 177.017 123.266 177.086C123.252 177.17 123.213 177.255 123.176 177.335C123.165 177.358 123.155 177.38 123.146 177.402C123.087 177.538 123.009 177.67 122.926 177.794C122.897 177.837 122.859 177.877 122.821 177.918C122.774 177.968 122.727 178.019 122.695 178.075C122.675 178.11 122.662 178.147 122.649 178.185C122.631 178.233 122.613 178.282 122.581 178.325C122.558 178.356 122.512 178.402 122.484 178.429C122.473 178.439 122.452 178.451 122.431 178.464C122.406 178.479 122.381 178.495 122.372 178.505C122.343 178.537 122.33 178.576 122.318 178.615C122.307 178.648 122.296 178.681 122.276 178.709C122.258 178.734 122.241 178.755 122.224 178.775C122.191 178.813 122.162 178.848 122.137 178.905C122.092 179.018 122.027 179.072 121.955 179.131C121.918 179.162 121.879 179.194 121.84 179.237C121.747 179.338 121.654 179.474 121.59 179.591C121.506 179.744 121.363 179.843 121.225 179.937L121.219 179.942C121.193 179.96 121.17 179.98 121.148 179.999C121.111 180.03 121.075 180.061 121.03 180.083C120.898 180.147 120.792 180.199 120.664 180.28C120.215 180.564 119.724 180.776 119.22 180.942C118.967 181.024 118.719 181.006 118.465 180.986C118.318 180.975 118.169 180.964 118.016 180.972C117.95 180.975 117.883 180.985 117.816 180.994C117.667 181.014 117.517 181.035 117.374 180.997C117.3 180.977 117.185 180.986 117.11 181.006C117.102 181.008 117.095 181.013 117.089 181.017C117.083 181.022 117.077 181.026 117.071 181.027C117.04 181.036 116.992 181.037 116.953 181.038C116.939 181.038 116.926 181.039 116.916 181.039C116.802 181.046 116.699 181.05 116.589 181.021C116.549 181.01 116.507 180.991 116.465 180.971C116.388 180.936 116.309 180.899 116.233 180.912C116.158 180.925 116.095 180.932 116.015 180.923C115.981 180.918 115.96 180.904 115.936 180.887C115.923 180.879 115.909 180.87 115.892 180.861C115.824 180.826 115.746 180.794 115.673 180.767C115.653 180.76 115.635 180.759 115.618 180.758L115.617 180.758C115.605 180.758 115.592 180.757 115.578 180.754C115.551 180.749 115.52 180.733 115.491 180.719C115.475 180.711 115.46 180.703 115.446 180.697C115.404 180.678 115.362 180.674 115.32 180.669C115.284 180.665 115.248 180.661 115.213 180.648C115.164 180.63 115.116 180.609 115.069 180.587L115.068 180.587C115.043 180.575 115.018 180.564 114.992 180.553L114.811 180.476C114.796 180.469 114.778 180.463 114.758 180.456L114.758 180.456C114.719 180.442 114.676 180.427 114.648 180.407C114.639 180.4 114.631 180.394 114.624 180.388L114.624 180.388C114.596 180.367 114.576 180.352 114.535 180.332C114.508 180.319 114.487 180.306 114.467 180.284C114.465 180.281 114.463 180.273 114.46 180.266L114.46 180.266L114.46 180.266C114.458 180.258 114.456 180.251 114.455 180.25C114.434 180.237 114.421 180.239 114.4 180.241L114.387 180.242C114.355 180.246 114.341 180.242 114.313 180.235L114.299 180.232C114.247 180.219 114.193 180.222 114.139 180.226C114.078 180.23 114.018 180.235 113.963 180.215C113.889 180.189 113.838 180.143 113.781 180.094C113.769 180.084 113.757 180.074 113.745 180.063C113.719 180.04 113.692 180.014 113.664 179.988C113.628 179.954 113.592 179.92 113.558 179.893C113.522 179.865 113.484 179.858 113.445 179.851L113.445 179.851C113.417 179.846 113.389 179.841 113.36 179.828C113.348 179.822 113.335 179.818 113.322 179.813C113.298 179.804 113.273 179.795 113.252 179.782C113.236 179.773 113.225 179.763 113.215 179.753L113.215 179.753C113.204 179.742 113.193 179.732 113.176 179.722C113.15 179.708 113.117 179.703 113.085 179.698L113.085 179.698C113.064 179.694 113.044 179.691 113.025 179.685C112.999 179.676 112.986 179.676 112.969 179.676C112.964 179.676 112.957 179.676 112.95 179.675C112.947 179.675 112.943 179.675 112.94 179.674C112.914 179.672 112.858 179.664 112.835 179.652C112.829 179.649 112.828 179.644 112.826 179.638C112.825 179.633 112.824 179.627 112.818 179.623C112.756 179.584 112.686 179.56 112.617 179.536L112.617 179.536C112.55 179.513 112.482 179.49 112.421 179.453C112.268 179.36 112.118 179.257 111.973 179.151C111.68 178.937 111.403 178.7 111.148 178.442C111.054 178.347 110.962 178.249 110.874 178.148C110.814 178.08 110.766 178.003 110.719 177.927C110.693 177.884 110.667 177.842 110.638 177.801C110.617 177.77 110.592 177.743 110.568 177.715C110.543 177.688 110.518 177.66 110.497 177.629L110.491 177.62L110.491 177.62C110.445 177.553 110.393 177.476 110.371 177.4C110.357 177.354 110.358 177.309 110.358 177.262C110.358 177.245 110.359 177.227 110.358 177.209C110.357 177.167 110.352 177.126 110.347 177.085C110.342 177.038 110.336 176.991 110.336 176.944C110.337 176.854 110.336 176.77 110.315 176.68C110.3 176.615 110.29 176.52 110.299 176.453C110.3 176.442 110.303 176.433 110.306 176.424C110.31 176.412 110.313 176.401 110.313 176.384C110.312 176.368 110.309 176.353 110.306 176.337C110.302 176.316 110.298 176.295 110.299 176.273C110.299 176.229 110.296 176.189 110.292 176.148C110.29 176.122 110.287 176.095 110.286 176.068C110.285 176.04 110.29 176.011 110.296 175.981C110.302 175.951 110.308 175.921 110.307 175.892C110.307 175.862 110.305 175.833 110.303 175.803C110.302 175.778 110.301 175.753 110.3 175.727C110.298 175.641 110.335 175.54 110.365 175.46C110.379 175.423 110.383 175.386 110.388 175.348L110.388 175.347C110.392 175.311 110.397 175.275 110.409 175.239C110.445 175.128 110.475 175.008 110.5 174.894C110.505 174.867 110.506 174.834 110.508 174.8C110.509 174.758 110.51 174.714 110.52 174.676C110.571 174.505 110.576 174.321 110.572 174.141L110.572 174.095L110.572 174.095C110.573 174.011 110.573 173.926 110.554 173.844C110.541 173.786 110.537 173.736 110.542 173.678C110.548 173.587 110.566 173.499 110.583 173.41L110.583 173.41C110.595 173.346 110.608 173.281 110.616 173.216C110.643 173.011 110.699 172.863 110.811 172.695C110.827 172.671 110.845 172.65 110.862 172.629C110.89 172.595 110.917 172.561 110.936 172.517C110.957 172.469 110.964 172.433 110.972 172.383L110.973 172.38L110.975 172.367C110.983 172.313 110.991 172.269 111.014 172.218C111.038 172.164 111.044 172.103 111.051 172.044C111.054 172.022 111.056 172 111.06 171.979ZM132.157 83.063C132.151 82.984 132.137 82.903 132.115 82.8205C132.128 82.8974 132.142 82.9782 132.157 83.063ZM131.863 81.5178C131.867 81.5297 131.872 81.5419 131.877 81.554C131.937 81.694 132.033 81.8201 132.129 81.9459C132.239 82.0897 132.348 82.2332 132.403 82.3969C132.521 82.7488 132.591 83.5719 132.559 83.9678C132.515 84.4942 132.435 84.9711 132.059 85.3575C132.027 85.3898 131.973 85.4184 131.913 85.4495C131.839 85.4879 131.757 85.5303 131.702 85.5886C131.664 85.6293 131.643 85.686 131.621 85.7427C131.604 85.7901 131.586 85.8375 131.558 85.8757C131.291 86.2441 130.932 86.5117 130.573 86.7796C130.469 86.8567 130.366 86.9339 130.265 87.0135C130.183 87.0774 130.105 87.1492 130.027 87.2213C129.905 87.3337 129.783 87.4466 129.643 87.5312C129.543 87.5906 129.437 87.6185 129.329 87.6467C129.278 87.66 129.227 87.6734 129.176 87.6902C128.975 87.7571 128.813 87.884 128.65 88.0124C128.616 88.039 128.582 88.0657 128.547 88.092C128.319 88.2666 128.071 88.4175 127.825 88.5649C127.742 88.6145 127.664 88.6727 127.587 88.7305C127.432 88.847 127.279 88.9618 127.089 89.0009C126.95 89.029 126.851 89.1012 126.745 89.1798C126.699 89.2134 126.652 89.248 126.599 89.281C126.457 89.3705 126.343 89.4089 126.202 89.4565C126.178 89.4645 126.153 89.4728 126.127 89.4817C126.002 89.5241 125.863 89.5658 125.738 89.6001C125.707 89.6087 125.672 89.612 125.637 89.6152C125.595 89.6191 125.554 89.623 125.52 89.6366C125.482 89.6521 125.448 89.6841 125.413 89.7173C125.371 89.7568 125.327 89.798 125.272 89.8155C125.229 89.8295 125.184 89.8432 125.139 89.8571C125.043 89.8865 124.945 89.9166 124.855 89.9514C124.762 89.9868 124.67 90.0346 124.577 90.0825C124.498 90.1237 124.418 90.165 124.337 90.1987C124.211 90.2514 124.078 90.2805 123.945 90.3098C123.799 90.342 123.652 90.3742 123.513 90.4377C123.251 90.5593 122.906 90.6234 122.617 90.6555C122.235 90.6977 121.842 90.784 121.46 90.8679C121.387 90.8839 121.314 90.8998 121.242 90.9154C121.154 90.9344 121.065 90.945 120.977 90.9555C120.859 90.9694 120.742 90.9833 120.628 91.017C120.476 91.0634 120.327 91.1067 120.167 91.1206C119.931 91.1417 119.68 91.1292 119.439 91.1172C119.372 91.1139 119.306 91.1106 119.241 91.108C119.216 91.1066 119.192 91.1035 119.169 91.1005C119.125 91.0947 119.083 91.0892 119.031 91.0961C118.84 91.121 118.649 91.1243 118.455 91.1277C118.394 91.1288 118.333 91.1298 118.271 91.1316C116.754 91.1714 115.373 91.0627 113.89 90.7122C112.872 90.4729 111.821 89.895 110.928 89.3474C110.845 89.2966 110.767 89.2502 110.694 89.2066C110.189 88.9041 109.909 88.7366 109.63 88.1648C109.428 87.7504 109.149 87.3149 108.892 86.941C108.666 86.6107 108.665 86.5668 108.659 86.3062C108.658 86.2505 108.656 86.1849 108.652 86.1046C108.602 85.1654 108.845 84.1639 109.095 83.2567C109.444 81.989 110.207 80.8751 111.119 79.9426C111.694 79.3541 112.334 78.8289 113.009 78.3577C113.336 78.1294 113.672 77.9034 114.022 77.7103C114.197 77.6143 114.391 77.5655 114.585 77.5165C114.73 77.4798 114.875 77.443 115.014 77.3862C115.129 77.3385 115.252 77.3038 115.374 77.2692C115.479 77.2394 115.583 77.2097 115.682 77.172C115.73 77.1537 115.775 77.1343 115.82 77.1151C115.897 77.0821 115.973 77.0496 116.058 77.0239C116.096 77.0122 116.133 76.9974 116.17 76.9825C116.23 76.9587 116.29 76.9346 116.356 76.9227C116.463 76.9039 116.571 76.8894 116.678 76.875C116.811 76.8572 116.943 76.8395 117.071 76.8139C117.208 76.7883 117.352 76.7713 117.491 76.7587C117.647 76.7445 117.803 76.7795 117.958 76.8144C118.056 76.8364 118.154 76.8584 118.251 76.8679C118.3 76.8728 118.344 76.8721 118.389 76.8713C118.437 76.8705 118.486 76.8697 118.538 76.8764C118.677 76.8939 118.815 76.9289 118.953 76.964C119.06 76.9911 119.167 77.0183 119.274 77.0374C119.307 77.0431 119.338 77.0503 119.368 77.0574C119.438 77.0738 119.504 77.0893 119.582 77.0826C119.601 77.0808 119.618 77.0757 119.636 77.0707C119.656 77.0649 119.676 77.059 119.698 77.0585C119.765 77.0583 119.836 77.0693 119.907 77.0803C119.977 77.0911 120.047 77.102 120.115 77.1028C120.189 77.1038 120.256 77.1208 120.322 77.1376C120.37 77.1498 120.418 77.162 120.468 77.1676C120.511 77.1731 120.558 77.1603 120.604 77.1475C120.635 77.1389 120.666 77.1304 120.696 77.1276C120.801 77.1189 120.908 77.1493 121.015 77.1796C121.057 77.1914 121.099 77.2032 121.141 77.2127C121.323 77.2536 121.511 77.2779 121.7 77.3024C121.92 77.3308 122.14 77.3594 122.353 77.4139C122.463 77.4413 122.531 77.441 122.623 77.4406C122.636 77.4406 122.649 77.4405 122.663 77.4406C122.753 77.4414 122.836 77.476 122.92 77.5107C122.972 77.5322 123.023 77.5536 123.076 77.5669C123.207 77.6009 123.315 77.5855 123.427 77.5697C123.495 77.5599 123.565 77.55 123.642 77.5515C123.75 77.5539 123.868 77.6048 123.977 77.6515C124.021 77.6703 124.063 77.6883 124.102 77.7024C124.394 77.8055 124.684 77.9129 124.974 78.022C125.287 78.1407 125.599 78.2617 125.912 78.3828C126.156 78.4775 126.4 78.5722 126.645 78.6657C126.888 78.7583 127.171 78.8521 127.473 78.9521C128.555 79.3106 129.884 79.7509 130.52 80.5156C130.6 80.6109 130.691 80.7156 130.787 80.8276C131.282 81.3985 131.939 82.1578 132.115 82.8205C131.985 82.0761 131.905 81.6937 131.863 81.5178ZM131.827 81.3914C131.826 81.3792 131.837 81.4092 131.863 81.5178C131.841 81.4579 131.828 81.4036 131.827 81.3914Z" fill="#F8A271"/>
</svg>
