<svg width="30" height="30" viewBox="0 0 30 30" fill="none" xmlns="http://www.w3.org/2000/svg">
<path d="M10.9375 5.9375H19.0625C21.8239 5.9375 24.0625 8.17607 24.0625 10.9375V19.0625C24.0625 21.8239 21.8239 24.0625 19.0625 24.0625H10.9375C8.17607 24.0625 5.9375 21.8239 5.9375 19.0625V10.9375C5.9375 8.17607 8.17607 5.9375 10.9375 5.9375Z" stroke="#352817" stroke-width="1.5" stroke-linecap="round" stroke-linejoin="round"/>
<path d="M9.6875 15.9375C9.6875 15.9375 11.25 19.0625 15 19.0625C18.75 19.0625 20.3125 15.9375 20.3125 15.9375" stroke="#352817" stroke-width="1.5" stroke-linecap="round" stroke-linejoin="round"/>
<path d="M17.5 13.75C18.1904 13.75 18.75 13.1904 18.75 12.5C18.75 11.8096 18.1904 11.25 17.5 11.25C16.8096 11.25 16.25 11.8096 16.25 12.5C16.25 13.1904 16.8096 13.75 17.5 13.75Z" fill="#352817"/>
<path d="M12.5 13.75C13.1904 13.75 13.75 13.1904 13.75 12.5C13.75 11.8096 13.1904 11.25 12.5 11.25C11.8096 11.25 11.25 11.8096 11.25 12.5C11.25 13.1904 11.8096 13.75 12.5 13.75Z" fill="#352817"/>
</svg>
