<svg width="230" height="130" viewBox="0 0 230 130" fill="none" xmlns="http://www.w3.org/2000/svg">
<path fill-rule="evenodd" clip-rule="evenodd" d="M54.6556 30.5413C55.0204 30.5634 55.2914 30.4661 55.6238 30.398C55.7755 30.3945 55.9632 30.633 56.115 30.6294C56.2413 30.5755 56.3653 30.5454 56.4881 30.5286L56.8446 28.3734C57.5286 24.1552 56.2862 22.8525 52.7461 22.8525C49.7648 22.8525 45.4168 24.2171 43.2432 25.2716L43.3361 25.3647C45.3555 24.5894 46.2552 25.2716 45.9759 27.0704L45.3525 30.8411C46.0925 30.7842 46.8319 30.7647 47.4919 30.6138C49.9416 30.194 52.2824 30.3225 54.6556 30.5413" fill="#F5E0BC"/>
<path fill-rule="evenodd" clip-rule="evenodd" d="M50.076 56.3465C51.5043 56.3465 52.995 56.1608 54.4233 55.8504L54.4853 55.7263C52.3733 54.6721 53.771 46.9807 54.4853 42.6385L56.4887 30.5279C56.3659 30.5447 56.2416 30.575 56.1153 30.6287C55.9636 30.6322 55.7761 30.3937 55.6244 30.3973C55.2917 30.4657 55.0208 30.5627 54.6562 30.5406C52.283 30.3218 49.9423 30.1933 47.4926 30.6131C46.8326 30.764 46.0931 30.7838 45.3531 30.8407L42.7467 46.6081C41.4739 54.2376 45.4172 56.3465 50.076 56.3465" fill="#F5E0BC"/>
<path fill-rule="evenodd" clip-rule="evenodd" d="M49.5649 18.6197C54.9725 18.9425 59.3987 16.241 59.7367 12.3851C59.979 9.61704 57.852 8.28518 55.9705 8.12098C53.9412 7.94352 51.5435 9.12887 50.1647 11.2001C51.4847 13.2085 50.7267 17.0272 49.5439 18.5678L49.5649 18.6197Z" fill="#F5E0BC"/>
<path fill-rule="evenodd" clip-rule="evenodd" d="M63.1958 30.8915C63.38 30.9781 63.6474 30.7296 63.8895 30.6937C64.0412 30.6901 64.2289 30.9283 64.3806 30.9251C65.1646 30.6948 66.0428 30.584 66.8082 30.8697L67.1695 30.7402C68.3649 31.2284 69.5276 31.6264 70.5782 32.4211C71.1051 32.894 71.4838 33.5222 71.8336 34.2117C71.9596 34.421 72.2701 34.7173 72.006 35.1173C72.4647 35.2585 72.475 35.7131 72.4496 35.9259C72.3661 36.2614 72.6766 36.5577 72.4089 36.8062L72.6545 36.922C72.658 37.0735 72.4192 37.2607 72.4227 37.4122C72.4945 37.8957 72.6276 38.4083 72.3345 38.8697L72.5801 38.9855C72.4679 39.2231 72.4936 39.4112 72.5051 39.6046C73.1911 37.6696 74.0955 35.199 75.167 32.4604C77.1054 27.5052 80.6056 25.2103 81.7559 24.4553C81.8719 24.3795 82.0192 24.3159 82.1689 24.2637C83.1046 24.7637 83.5551 26.592 83.5551 28.8064C83.5025 37.0337 78.9462 50.8924 74.2463 54.7194C74.2832 54.7784 74.3231 54.8367 74.3709 54.8933C74.6989 55.263 74.6156 55.781 74.7242 56.2738C74.9338 56.28 75.1443 56.2842 75.3568 56.2842C77.6081 56.2842 79.659 55.8785 81.5121 55.1566C81.7551 54.6428 81.9331 54.1354 82.1063 53.5665C82.1949 53.2714 82.3428 52.9763 82.4313 52.6223C82.4903 52.4451 82.6087 52.3272 82.6677 52.15C82.7268 52.0026 82.7268 51.8255 82.7858 51.6781C82.8449 51.5599 82.9632 51.4419 83.0223 51.324C83.1403 50.911 83.1997 50.5272 83.4063 50.1437C83.7313 49.4945 83.9382 48.7865 84.1451 48.0194C84.8246 45.5113 85.6222 43.2099 86.3312 40.7015C86.3905 40.5836 86.5086 40.4657 86.5676 40.3478C86.8336 39.3148 87.07 38.2822 87.454 37.3085C87.9561 35.9215 88.3106 34.5643 89.138 33.266C89.2269 33.1186 89.2269 32.9415 89.2859 32.7941C89.4335 32.5579 89.5519 32.3516 89.6404 32.086C89.6995 31.9678 89.8175 31.8498 89.8769 31.7319C90.0244 31.2891 90.2018 30.8761 90.3494 30.4334C90.4085 30.227 90.5859 30.1088 90.6744 29.9614C91.4106 28.491 91.9874 27.0032 92.6799 25.539C91.124 23.458 88.6891 22.3555 85.4811 22.3555C84.1557 22.3555 82.8903 22.5636 81.6801 23.0657C81.5269 23.1223 81.3725 23.1895 81.224 23.27C80.0442 23.8404 78.9172 24.7076 77.8404 25.9649C76.4794 27.3513 75.0088 29.3073 73.9591 31.9896C73.4821 33.2094 73.0376 34.3771 72.63 35.4702L76.4129 12.3689C77.0957 8.15102 75.7299 6.84863 72.1896 6.84863C69.2083 6.84863 64.8612 8.21322 62.6866 9.26798L62.7799 9.36084C64.7989 8.58554 65.6995 9.26798 65.4194 11.0668L62.2822 30.8178C62.5916 30.811 62.9015 30.8184 63.1958 30.8915" fill="#F5E0BC"/>
<path fill-rule="evenodd" clip-rule="evenodd" d="M90.3487 30.4338C90.2011 30.8763 90.0237 31.2895 89.8762 31.732C89.8171 31.8502 89.6987 31.9682 89.6397 32.0861C89.5512 32.3517 89.4328 32.5583 89.2852 32.7942C89.2262 32.9418 89.2262 33.1187 89.1373 33.2664C88.3102 34.5647 87.9557 35.9219 87.4533 37.3089C87.0693 38.2826 86.8329 39.3152 86.5669 40.3479C86.5079 40.4661 86.3898 40.584 86.3308 40.7019C85.6215 43.21 84.8239 45.5114 84.1444 48.0195C83.9375 48.7866 83.7309 49.4949 83.4059 50.1441C83.199 50.5276 83.1399 50.9111 83.0215 51.3241C82.9625 51.4423 82.8444 51.5602 82.7851 51.6782C82.7261 51.8259 82.7261 52.0027 82.667 52.1504C82.608 52.3276 82.4896 52.4455 82.4306 52.6227C82.3421 52.9767 82.1945 53.2718 82.1059 53.5669C81.9323 54.1355 81.7546 54.6432 81.5117 55.157C90.3434 51.7177 94.6725 41.0819 94.6725 32.7765C94.6725 29.7198 93.985 27.2854 92.6792 25.5391C91.9867 27.0036 91.4099 28.4914 90.6737 29.9615C90.5852 30.1092 90.4081 30.2271 90.3487 30.4338" fill="#F5E0BC"/>
<path fill-rule="evenodd" clip-rule="evenodd" d="M74.724 56.2745C74.6154 55.7817 74.6989 55.2637 74.3707 54.894C74.3231 54.8374 74.283 54.7791 74.2461 54.7201C73.4541 55.3651 72.6577 55.7268 71.8785 55.7268C69.2703 55.7268 70.2642 49.9584 70.4501 48.7798L71.4582 42.626C71.7031 41.9 72.058 40.8652 72.5048 39.6053C72.4933 39.4119 72.4677 39.2239 72.5801 38.9862L72.3345 38.8704C72.6273 38.409 72.4942 37.8964 72.4228 37.413C72.419 37.2614 72.6578 37.0742 72.6542 36.9227L72.4086 36.8069C72.6763 36.5584 72.3658 36.2621 72.4494 35.9266C72.4747 35.7138 72.4644 35.2592 72.006 35.118C72.2699 34.718 71.9597 34.4217 71.8333 34.2124C71.4835 33.5229 71.1048 32.8947 70.5779 32.4218C69.5274 31.6271 68.3647 31.2291 67.1695 30.741L66.8082 30.8704C66.0425 30.5847 65.1647 30.6956 64.3804 30.9258C64.2287 30.929 64.0412 30.6908 63.8892 30.6944C63.6475 30.7303 63.3797 30.9788 63.1956 30.8922C62.9016 30.8191 62.5913 30.8117 62.2823 30.8185L60.513 41.9569C59.2083 50.2001 65.7329 56.0137 74.724 56.2745" fill="#F5E0BC"/>
<path fill-rule="evenodd" clip-rule="evenodd" d="M122.877 22.3555C121.901 22.3555 120.952 22.4813 120.027 22.7652C119.775 22.8295 119.067 23.0223 118.576 23.2811C117.743 23.7195 113.472 26.2072 111.13 32.1932C110.414 34.0221 109.775 35.7295 109.22 37.2462L111.324 28.3724C112.287 24.2162 110.641 22.8519 107.101 22.8519C104.12 22.8519 99.7725 24.2162 97.5979 25.2707L97.6909 25.3638C99.7099 24.5885 100.641 25.2707 100.331 27.0695L96.8526 46.6079C95.8794 52.0668 97.3195 54.6893 100.002 55.7467C101.085 56.1733 102.368 56.3463 103.778 56.3463C105.517 56.3463 106.293 56.191 107.939 55.8502L108.064 55.7261C107.463 55.4793 107.149 54.7382 107.028 53.7062C106.739 51.2349 107.563 47.0837 108.249 43.9701C108.415 43.4607 109.977 38.6969 112.338 32.664C114.558 26.9884 118.713 24.6722 119.18 24.4267C119.313 24.3568 119.484 24.2887 119.658 24.2277C121.027 24.5717 121.51 26.0916 121.51 27.3486C121.51 30.4808 119.212 32.4037 116.914 32.4037C116.541 36.1254 119.212 37.8623 122.007 37.8623C127.534 37.8623 130.639 33.7061 130.639 29.5507C130.639 25.829 128.094 22.3555 122.877 22.3555" fill="#F5E0BC"/>
<path fill-rule="evenodd" clip-rule="evenodd" d="M130.649 49.6716C130.649 49.6421 130.56 49.5832 130.531 49.5537C130.383 48.5505 130.176 47.6063 129.674 46.7505C129.423 46.3502 129.341 45.9077 129.106 45.5127C129.185 47.8445 129.662 50.1447 130.667 52.0184C130.67 51.2337 130.666 50.4481 130.649 49.6716" fill="#F5E0BC"/>
<path fill-rule="evenodd" clip-rule="evenodd" d="M146.012 25.123C146.071 25.2115 146.189 25.2704 146.219 25.3591C146.272 25.5036 146.331 25.6418 146.393 25.7763C147.661 24.1838 149.09 23.2246 150.644 23.2246C153.694 23.2246 153.597 26.8723 153.098 29.9738C154.296 29.3842 155.556 28.9279 156.99 28.6923C157.413 28.5918 157.8 28.2493 158.223 28.1488C159.856 27.869 161.366 27.5312 163.031 27.3416C163.433 27.3018 163.789 27.3174 164.146 27.3124L164.867 23.1005C163.841 24.9615 162.569 25.5817 161.047 25.5817C157.879 25.5817 153.718 22.8525 148.749 22.8525C147.541 22.8525 146.35 23.0164 145.187 23.3186C145.362 23.6747 145.533 24.0364 145.687 24.4149C145.775 24.6508 145.923 24.8574 146.012 25.123" fill="#F5E0BC"/>
<path fill-rule="evenodd" clip-rule="evenodd" d="M146.392 25.7751C146.33 25.6403 146.271 25.5021 146.218 25.3576C146.188 25.2692 146.07 25.2102 146.011 25.1218C145.922 24.8562 145.775 24.6495 145.686 24.4137C145.532 24.0352 145.362 23.6735 145.186 23.3174C144.783 23.422 144.383 23.5417 143.987 23.6791C140.3 24.9588 136.957 27.6175 134.377 30.9053C131.131 35.0403 129.092 40.1712 129.092 44.8085C129.092 45.0432 129.097 45.2775 129.105 45.5119C129.34 45.9072 129.422 46.3494 129.673 46.7497C130.175 47.6055 130.382 48.5497 130.529 49.5529C130.559 49.5824 130.648 49.6413 130.648 49.6711C130.665 50.4476 130.669 51.2329 130.666 52.0179C132.018 54.5372 134.325 56.2832 137.911 56.2832C138.84 56.2832 139.747 56.165 140.631 55.9015C140.671 55.6772 140.716 55.4525 140.776 55.2279C140.966 54.2757 141.165 53.3345 141.376 52.3997C140.687 51.3983 140.334 49.6838 140.334 48.0341C140.334 40.6069 142.667 30.4534 146.392 25.7751" fill="#F5E0BC"/>
<path fill-rule="evenodd" clip-rule="evenodd" d="M161.574 42.3288L164.145 27.3125C163.789 27.3175 163.433 27.3016 163.031 27.3417C161.365 27.5312 159.855 27.8691 158.222 28.1488C157.799 28.2493 157.412 28.5919 156.99 28.6924C155.556 28.928 154.295 29.384 153.097 29.9736C153.057 30.2194 153.015 30.4623 152.972 30.6991L152.289 34.4824C152.092 35.5979 151.856 36.7219 151.589 37.8354C151.566 37.9037 151.545 37.9656 151.521 38.0358C151.433 38.2849 151.338 38.5482 151.239 38.8182C150.765 40.1055 150.165 41.6228 149.487 43.337C149.163 44.1554 148.824 45.0103 148.479 45.8932C146.972 49.7481 144.543 52.0702 142.947 53.2641C142.893 53.2679 142.84 53.2768 142.787 53.2768C142.22 53.2768 141.749 52.9431 141.376 52.401C141.164 53.3357 140.966 54.277 140.777 55.2292C140.716 55.4538 140.671 55.6784 140.631 55.9028C141.122 55.7563 141.607 55.5667 142.084 55.3241C142.252 55.2542 142.436 55.1664 142.616 55.0561C144.068 54.1671 147.663 51.5411 149.687 46.3642C150.031 45.4828 150.369 44.6297 150.692 43.8137C150.707 43.7769 150.72 43.7438 150.734 43.7073L150.146 46.2985C148.542 53.3561 152.144 55.8247 156.765 56.2244C157.241 56.2654 157.728 56.2848 158.221 56.2848C159.711 56.2848 161.202 56.161 162.63 55.8509L162.723 55.7268C159.525 55.8196 160.643 47.6631 161.574 42.3288" fill="#F5E0BC"/>
<path fill-rule="evenodd" clip-rule="evenodd" d="M197.996 33.9801C197.54 35.694 196.923 37.3528 196.283 39.0033C196.288 39.1392 196.288 39.2748 196.278 39.4092C196.245 40.5925 195.846 41.754 196.178 42.9591C196.181 43.1106 195.942 43.2978 195.946 43.4496C195.992 44.1459 196.1 44.8711 195.871 45.5132C195.904 45.6034 196.03 45.8127 196.001 45.874C195.708 46.3353 195.657 46.761 195.913 47.3314C195.917 47.483 195.768 47.638 195.681 47.8217C195.543 48.4313 195.799 49.0017 195.477 49.5244C195.468 49.5444 195.482 49.5833 195.503 49.6284L192.565 55.8474C193.567 56.1463 194.671 56.2872 195.822 56.3108C196.838 53.8092 197.763 51.59 198.823 49.2582C198.922 46.9915 199.277 44.479 199.653 42.3288L201.144 33.5211C201.614 30.7394 201.895 26.9879 199.886 24.7549C199.706 25.5933 199.54 26.4337 199.431 27.2845C199.137 29.5777 198.595 31.7279 197.996 33.9801" fill="#F5E0BC"/>
<path fill-rule="evenodd" clip-rule="evenodd" d="M176.355 27.0987C177.171 26.9587 177.872 27.0639 178.566 26.8661C178.717 26.8629 178.905 27.1011 179.057 27.0978C180.115 26.9218 181.116 26.8688 182.12 26.9672C182.143 26.9699 182.167 26.9693 182.19 26.9675C182.483 23.9035 180.836 22.8525 177.729 22.8525C174.748 22.8525 170.401 24.2171 168.227 25.2713L168.32 25.3647C170.339 24.5892 171.27 25.2713 170.96 27.0704L170.904 27.3823C172.712 27.3944 174.509 27.4112 176.355 27.0987" fill="#F5E0BC"/>
<path fill-rule="evenodd" clip-rule="evenodd" d="M194.653 22.8525C192.971 22.8525 191.253 23.1851 189.559 24.0798C189.522 24.0904 189.487 24.093 189.45 24.1098C189.326 24.167 187.542 24.9936 185.562 26.9778C186.07 26.9495 186.456 27.0448 186.946 26.9177C187.052 26.9153 187.174 27.0288 187.291 27.0978C188.128 26.3558 188.868 25.8556 189.349 25.5637C190.063 25.6286 190.462 26.1288 190.631 26.9802C190.699 26.9702 190.765 26.9625 190.833 26.9504C190.985 26.9469 191.172 27.1851 191.324 27.1818C191.342 27.1789 191.361 27.1739 191.379 27.1698C191.773 27.3646 192.165 27.5615 192.551 27.7599L192.436 28.0052C192.652 28.1824 192.956 28.1756 193.172 28.3525C194.414 29.5369 194.723 31.1067 195.697 32.5397L195.581 32.7849L195.827 32.9005L195.711 33.1458L195.956 33.2616L195.84 33.5069L196.086 33.6224C195.948 34.2321 196.327 34.86 195.882 35.3251L196.127 35.4407C195.925 35.8699 195.993 36.2018 196.061 36.5338C196.002 37.3409 196.254 38.1855 196.284 39.0035C196.924 37.3527 197.54 35.6942 197.996 33.9803C198.596 31.7281 199.137 29.5779 199.432 27.2847C199.541 26.434 199.706 25.5932 199.886 24.7548C198.849 23.6016 197.202 22.8525 194.653 22.8525" fill="#F5E0BC"/>
<path fill-rule="evenodd" clip-rule="evenodd" d="M196.283 39.0033C196.253 38.1856 196.001 37.341 196.061 36.5339C195.993 36.2016 195.925 35.8697 196.127 35.4408L195.882 35.3249C196.326 34.8601 195.948 34.2319 196.086 33.6225L195.84 33.5067L195.956 33.2614L195.71 33.1458L195.826 32.9006L195.581 32.7847L195.696 32.5398C194.723 31.1065 194.414 29.5367 193.172 28.3523C192.955 28.1754 192.652 28.1822 192.435 28.0053L192.551 27.76C192.164 27.5613 191.773 27.3644 191.379 27.1696C191.36 27.174 191.342 27.179 191.323 27.1816C191.172 27.1852 190.984 26.947 190.832 26.9502C190.765 26.9626 190.698 26.97 190.631 26.98C190.815 27.9056 190.726 29.2472 190.461 30.9158L187.977 46.2985C187.37 50.0993 188.091 52.5737 189.582 54.1137C190.383 54.9415 191.405 55.501 192.566 55.8474L195.503 49.6285C195.482 49.5834 195.468 49.5445 195.478 49.5244C195.8 49.0018 195.544 48.4313 195.682 47.8217C195.768 47.6381 195.917 47.483 195.913 47.3312C195.657 46.7611 195.709 46.3354 196.001 45.874C196.031 45.8127 195.904 45.6034 195.872 45.5132C196.1 44.8712 195.992 44.146 195.946 43.4497C195.943 43.2979 196.181 43.1107 196.178 42.9591C195.847 41.754 196.245 40.5926 196.278 39.4093C196.289 39.2748 196.288 39.1392 196.283 39.0033" fill="#F5E0BC"/>
<path fill-rule="evenodd" clip-rule="evenodd" d="M173.227 56.3461C174.717 56.3461 176.487 56.1292 178.474 55.85L178.599 55.7259C176.695 54.9444 177.595 49.2196 178.558 44.8705C178.846 44.0489 180.485 39.4384 182.747 33.654C183.963 30.5446 185.786 28.4294 187.291 27.097C187.175 27.028 187.052 26.9145 186.946 26.9169C186.456 27.0439 186.071 26.9487 185.562 26.977C184.141 28.4005 182.62 30.4193 181.539 33.1832C180.857 34.9278 180.243 36.5612 179.708 38.0252L181.953 28.3722C182.071 27.8623 182.149 27.395 182.19 26.9664C182.167 26.9682 182.143 26.969 182.12 26.9661C181.116 26.8679 180.115 26.921 179.057 27.0967C178.905 27.1002 178.717 26.8617 178.565 26.8653C177.872 27.0631 177.171 26.9578 176.355 27.0979C174.508 27.4103 172.712 27.3935 170.904 27.3815L167.481 46.6077C166.115 54.2684 168.319 56.3461 173.227 56.3461" fill="#F5E0BC"/>
<path fill-rule="evenodd" clip-rule="evenodd" d="M196.176 56.3154C197.667 56.3154 199.22 56.1297 200.71 55.8502L200.834 55.7261C199.091 55.4301 198.677 52.614 198.824 49.2578C197.764 51.5896 196.839 53.8088 195.823 56.3104C195.94 56.313 196.058 56.3154 196.176 56.3154" fill="#F5E0BC"/>
<path fill-rule="evenodd" clip-rule="evenodd" d="M224.978 23.641C225.085 23.8217 225.177 24.003 225.256 24.1837H229.12C229.138 23.8535 230 23.1445 230 23.1445C229.078 23.1445 226.754 23.1852 224.733 23.2173C224.808 23.3521 224.889 23.4927 224.978 23.641" fill="#F5E0BC"/>
<path fill-rule="evenodd" clip-rule="evenodd" d="M219.782 50.438C219.767 50.395 220.682 50.4625 220.772 50.4884C221.062 50.5718 221.33 50.7234 221.551 50.93C222.301 51.6334 222.168 52.5004 221.839 53.3688C221.786 53.5085 221.717 53.6406 221.649 53.7733C221.095 54.2612 220.44 54.6388 219.697 54.953C219.001 55.2469 218.089 55.3637 217.273 55.3952C217.246 55.374 217.222 55.3483 217.196 55.3253C217.106 55.5612 217.018 55.7905 216.935 56.0122C217.227 55.9665 217.518 55.9179 217.806 55.8648C219.083 55.6735 220.233 55.2897 221.208 54.8162C221.354 54.7508 221.484 54.6836 221.603 54.6199C221.613 54.614 221.624 54.6081 221.635 54.6025C221.676 54.5798 221.724 54.5551 221.76 54.5347C221.832 54.4932 221.898 54.451 221.968 54.4094C222.283 54.2234 222.574 54.0312 222.835 53.8346C223.051 53.6798 223.266 53.5195 223.498 53.3452C224.538 52.5643 225.497 51.5326 225.881 50.2644C226.132 49.4372 226.089 48.5602 225.765 47.7595C224.941 45.7222 223.052 45.6595 221.752 46.1839C221.439 46.3106 221.151 46.4743 220.894 46.6691C220.825 46.7213 220.758 46.7755 220.694 46.8321C220.311 47.6861 219.939 48.5419 219.581 49.385C219.594 49.7264 219.657 50.0795 219.782 50.438" fill="#F5E0BC"/>
<path fill-rule="evenodd" clip-rule="evenodd" d="M219.046 26.213C213.695 35.5823 212.848 36.1321 208.588 45.0864C207.589 47.1888 206.53 49.4731 205.429 51.8957C205.73 52.7515 206.163 53.4599 206.703 54.0394C213.485 38.9712 214.492 38.1252 218.683 30.9718L219.626 25.1895C219.443 25.5137 219.252 25.8524 219.046 26.213" fill="#F5E0BC"/>
<path fill-rule="evenodd" clip-rule="evenodd" d="M220.702 23.2546C220.544 23.5432 220.373 23.8524 220.189 24.1837H222.52C222.688 23.8778 222.859 23.5644 223.034 23.2422C222.457 23.2496 221.974 23.2546 221.658 23.2546H220.702Z" fill="#F5E0BC"/>
<path fill-rule="evenodd" clip-rule="evenodd" d="M212.716 22.791C211.596 23.023 210.359 23.1607 208.989 23.2294C207.378 23.222 206.03 23.2158 205.953 23.2155C205.609 23.214 205.257 23.2247 205.001 23.4169C204.933 23.4679 204.562 24.1833 204.571 24.1833H208.617L207.208 33.1889C207.292 33.0391 207.376 32.8911 207.462 32.739C209.534 29.0836 211.254 25.7737 212.716 22.791" fill="#F5E0BC"/>
<path fill-rule="evenodd" clip-rule="evenodd" d="M205.43 51.8959C206.531 49.4736 207.59 47.1892 208.589 45.0865C212.849 36.1325 213.696 35.5827 219.047 26.2131C219.253 25.8526 219.445 25.5142 219.627 25.1899L219.791 24.1832H220.191C220.375 23.8518 220.546 23.5423 220.703 23.254H219.944L221.895 11.501H221.709C220.353 18.8053 217.729 21.7526 212.716 22.7909C211.254 25.7736 209.534 29.0835 207.462 32.7389C207.376 32.891 207.292 33.039 207.208 33.189L205.157 46.2978C204.793 48.6358 204.928 50.4697 205.43 51.8959" fill="#F5E0BC"/>
<path fill-rule="evenodd" clip-rule="evenodd" d="M219.582 49.3839C219.939 48.5411 220.312 47.6851 220.695 46.8311C219.971 47.4681 219.546 48.3752 219.582 49.3839" fill="#F5E0BC"/>
<path fill-rule="evenodd" clip-rule="evenodd" d="M216.832 42.3286L218.683 30.9727C214.492 38.1258 213.485 38.9718 206.703 54.04C208.259 55.7103 210.692 56.3155 213.354 56.3155C214.53 56.3155 215.743 56.1979 216.935 56.0119C217.019 55.7902 217.106 55.5609 217.196 55.3247C215.284 53.6161 216.057 47.0865 216.832 42.3286" fill="#F5E0BC"/>
<path fill-rule="evenodd" clip-rule="evenodd" d="M224.734 23.2178C224.125 23.2272 223.543 23.2361 223.035 23.2428C222.86 23.565 222.689 23.8784 222.521 24.1844H225.257C225.178 24.0034 225.086 23.8224 224.979 23.6414C224.89 23.4931 224.809 23.3525 224.734 23.2178" fill="#F5E0BC"/>
<path fill-rule="evenodd" clip-rule="evenodd" d="M35.4494 30.5887C35.6224 30.2951 35.7889 30.0115 35.9518 29.7326L36.6753 28.5275C37.0127 27.9659 37.9298 26.3233 38.4853 25.2901C38.7592 24.7804 38.9298 24.4075 38.9298 24.4075C39.233 23.815 39.5161 23.2183 39.7855 22.619C40.2602 21.5973 40.651 20.6548 40.9964 19.7121C41.6038 18.0542 42.0135 16.4788 42.1567 14.9592C42.3766 13.6335 42.5053 12.3055 42.5053 10.9789C42.5053 3.47352 37.972 0 33.624 0C29.5869 0 25.9229 3.03929 25.9229 7.69139C25.9229 10.9167 27.8173 13.4599 31.4813 13.7081C32.3512 11.103 34.5249 9.92413 36.636 9.92413C38.3956 9.92413 39.7796 10.7103 40.6306 11.9547C40.7292 12.24 40.7573 12.4714 40.7868 12.6448C40.8376 12.9446 40.8739 13.2452 40.896 13.548C41.0241 15.322 40.6578 17.1627 39.8744 19.3014C38.851 22.0931 37.4235 24.888 34.4192 29.9823C33.9753 30.7349 33.4546 31.6134 32.8902 32.562C33.3781 32.5193 33.8672 32.4762 34.3572 32.4332C34.7543 31.7649 35.1226 31.1426 35.4494 30.5887" fill="#F5E0BC"/>
<path fill-rule="evenodd" clip-rule="evenodd" d="M16.4529 32.7766C17.1826 32.8205 17.6666 32.7489 18.27 32.5835C18.4217 32.58 18.6094 32.8185 18.7612 32.8149C20.5845 32.6074 22.3307 32.6107 24.0802 32.6286L21.3339 22.9144C19.843 17.6418 20.0608 12.5867 25.7442 12.5867L25.7749 12.4316H0.0309936L0 12.5867C4.34737 12.5867 6.21082 16.1531 8.3845 23.4724L11.2557 32.7961C12.9887 32.6947 14.6948 32.6625 16.4529 32.7766" fill="#F5E0BC"/>
<path fill-rule="evenodd" clip-rule="evenodd" d="M25.9072 46.4612C25.96 46.4185 26.0084 46.3701 26.0453 46.3088C26.102 46.2142 31.156 37.8203 34.356 32.4336C33.866 32.4763 33.3772 32.5197 32.889 32.5624C30.9692 35.7889 28.5407 39.8376 26.8928 42.5803L24.0794 32.6287C22.3299 32.6108 20.5837 32.6075 18.7604 32.8151C18.6083 32.8186 18.4209 32.5801 18.2692 32.5836C17.6658 32.749 17.1814 32.8207 16.4521 32.7767C14.694 32.6626 12.9879 32.6948 11.2549 32.7965L19.0039 57.9595L25.9072 46.4612Z" fill="#F5E0BC"/>
<path fill-rule="evenodd" clip-rule="evenodd" d="M33.1023 104.823C32.9913 104.781 32.8806 104.733 32.7702 104.682C30.5375 111.636 26.3932 114.037 23.4863 119.085L23.6726 119.179C25.66 116.263 27.3366 115.798 29.5103 115.798C44.3548 115.798 59.1676 129.289 71.7755 129.289C77.8001 129.289 83.327 126.249 87.9238 117.193L87.7989 117.131C86.153 119.147 84.3524 119.799 81.6811 119.799C70.9986 119.799 53.8884 108.324 41.0936 108.324C35.6904 108.324 29.8527 111.394 24.2626 118.155L24.2319 118.124C27.9344 112.627 33.2821 109.678 37.7933 106.092C36.9033 105.89 36.0358 105.603 35.1511 105.336C34.4244 105.117 33.7641 105.073 33.1023 104.823" fill="#F5E0BC"/>
<path fill-rule="evenodd" clip-rule="evenodd" d="M43.6326 99.8168C41.8861 99.0138 40.1711 98.1267 38.537 97.0679C37.6742 96.5116 36.7571 96.2292 35.8653 95.7339C35.7101 95.5859 35.6451 95.4055 35.4902 95.2575C35.2313 95.0936 34.9453 94.9872 34.6628 94.874L33.7953 100.291C33.5326 101.943 33.184 103.391 32.7695 104.682C32.8796 104.733 32.9903 104.781 33.1016 104.823C33.7634 105.073 34.4234 105.117 35.1504 105.337C36.0351 105.604 36.9026 105.89 37.7926 106.092C40.0539 104.294 42.1045 102.336 43.6326 99.8168" fill="#F5E0BC"/>
<path fill-rule="evenodd" clip-rule="evenodd" d="M57.2408 67.7587C57.2234 67.8283 57.2098 67.8965 57.1953 67.965C57.3706 67.8897 57.5466 67.8147 57.7225 67.7404C57.5664 67.756 57.4061 67.7628 57.2408 67.7587" fill="#F5E0BC"/>
<path fill-rule="evenodd" clip-rule="evenodd" d="M70.476 63.9095C70.084 60.8599 67.6096 58.2695 62.9552 58.2695C53.0635 58.2695 44.4984 65.6862 39.826 74.3745C38.1028 77.5786 36.9082 80.9551 36.3728 84.1967L34.6631 94.8752C34.9456 94.9884 35.2316 95.0951 35.4905 95.2587C35.6454 95.407 35.7104 95.5871 35.8656 95.7354C36.7574 96.2306 37.6745 96.5127 38.5373 97.069C40.1714 98.1282 41.8867 99.0149 43.6329 99.8182C44.7832 97.9218 45.6378 95.7082 46.0619 93.0047L49.3538 72.1636C49.4281 71.6899 49.5146 71.1619 49.6176 70.5986C50.4176 66.2206 52.2125 59.6963 57.0552 59.6963C59.6643 59.6963 61.216 61.8359 61.216 63.5109C61.216 64.895 60.5336 66.3777 59.324 67.174C58.8638 67.4767 58.3274 67.6804 57.7229 67.7412C57.547 67.8154 57.3714 67.8903 57.1957 67.9655C56.5466 71.0688 59.0418 72.9696 61.8377 72.9696C66.3719 72.9696 70.5327 69.1862 70.5327 64.782C70.5327 64.4881 70.5129 64.1969 70.476 63.9095" fill="#F5E0BC"/>
<path fill-rule="evenodd" clip-rule="evenodd" d="M76.2783 60.4362C76.4413 60.8704 76.6066 61.3058 76.7736 61.7418C76.8173 61.8556 76.8595 61.9688 76.9035 62.0829C77.3318 63.1665 77.7421 64.2366 78.1492 65.299C78.2023 65.1289 78.2525 64.9568 78.2953 64.7793C78.3248 64.6614 78.2655 64.5435 78.2953 64.4253L78.7383 63.3631C78.7974 63.2449 78.7383 63.127 78.7678 63.0091C79.048 62.2712 79.2732 61.5222 79.4907 60.7716C79.6224 60.3188 79.7526 59.8657 79.8889 59.4141C78.7121 59.3337 77.421 59.7054 76.2783 60.4362" fill="#F5E0BC"/>
<path fill-rule="evenodd" clip-rule="evenodd" d="M81.8288 59.9753C81.247 59.6555 80.5979 59.4721 79.9751 59.4179C79.9467 59.4155 79.9175 59.4161 79.8889 59.4141C79.7525 59.8657 79.6223 60.3188 79.491 60.7716C79.2732 61.5221 79.0482 62.2712 78.7678 63.009C78.7383 63.127 78.7973 63.2449 78.7383 63.3631L78.2952 64.4252C78.2657 64.5434 78.3247 64.6613 78.2952 64.7793C78.2524 64.9567 78.2023 65.1289 78.1494 65.299C78.612 66.5061 79.0707 67.7039 79.5465 68.8995C81.9345 67.8103 83.5429 65.9454 83.7412 63.6817C83.9036 61.8299 83.0045 60.6218 81.8288 59.9753" fill="#F5E0BC"/>
<path fill-rule="evenodd" clip-rule="evenodd" d="M78.1495 65.2984C77.7424 64.236 77.3321 63.1659 76.9035 62.0822C76.8595 61.9685 76.8173 61.8553 76.7739 61.7415C76.6069 61.3052 76.4413 60.8701 76.2786 60.4355C75.4687 60.9538 74.7334 61.6495 74.1696 62.4967C74.2357 62.5972 74.2953 62.704 74.3514 62.813C75.4111 64.8831 74.672 68.4011 73.5488 69.8641L73.5695 69.9154C74.7109 69.9838 75.8075 69.9157 76.8324 69.7321C77.8124 69.5564 78.7256 69.274 79.5465 68.8993C79.071 67.7033 78.612 66.5059 78.1495 65.2984" fill="#F5E0BC"/>
<path fill-rule="evenodd" clip-rule="evenodd" d="M70.584 107.121C71.6416 107.489 72.8356 107.642 74.0821 107.642C74.3327 107.642 74.5857 107.634 74.8396 107.623C73.9233 107.538 73.0044 107.462 72.0805 107.401C71.587 107.342 71.0917 107.193 70.584 107.121" fill="#F5E0BC"/>
<path fill-rule="evenodd" clip-rule="evenodd" d="M76.7521 74.1475C76.405 74.1475 76.0387 74.1666 75.6603 74.2011C72.7873 74.4617 69.1699 75.635 67.2495 76.5668L67.3425 76.6597C69.3615 75.8844 70.2612 76.5668 69.982 78.3653L66.7524 97.9041C65.8203 103.492 67.6876 106.116 70.5835 107.122C71.0912 107.194 71.5865 107.342 72.0801 107.401C73.004 107.462 73.9229 107.538 74.8391 107.623C76.0316 107.571 77.251 107.401 78.4288 107.146L78.4913 107.022C76.379 105.967 77.7767 98.2758 78.4913 93.9344L80.2462 83.3231L80.8507 79.6677C81.5346 75.4498 80.2925 74.1475 76.7521 74.1475" fill="#F5E0BC"/>
<path fill-rule="evenodd" clip-rule="evenodd" d="M127.693 68.202C128.225 66.7858 128.698 65.4283 129.082 63.9532C129.141 63.717 129.141 63.4809 129.23 63.2451C129.259 63.1269 129.2 63.0089 129.23 62.8907C129.527 61.7411 129.767 60.617 129.958 59.4844C129.799 59.4544 129.64 59.4317 129.483 59.4178C127.454 59.2406 125.056 60.4257 123.678 62.4969C124.997 64.5047 124.239 68.3243 123.057 69.8646L123.078 69.9159C124.637 70.009 126.113 69.8496 127.435 69.4849C127.468 69.1577 127.615 68.8682 127.693 68.556C127.723 68.4381 127.664 68.3199 127.693 68.202" fill="#F5E0BC"/>
<path fill-rule="evenodd" clip-rule="evenodd" d="M133.25 63.6829C133.473 61.1459 131.704 59.8164 129.959 59.4854C129.768 60.6179 129.528 61.742 129.231 62.892C129.201 63.0099 129.26 63.1281 129.231 63.246C129.142 63.4821 129.142 63.7183 129.083 63.9541C128.699 65.4295 128.226 66.7867 127.694 68.2029C127.665 68.3211 127.724 68.439 127.694 68.5572C127.616 68.8694 127.469 69.1589 127.436 69.4858C130.698 68.5852 133.01 66.4271 133.25 63.6829" fill="#F5E0BC"/>
<path fill-rule="evenodd" clip-rule="evenodd" d="M122.555 89.5125C122.916 89.3831 123.18 88.9828 123.509 88.7632C123.69 88.6983 123.935 88.8139 124.055 88.7201C124.611 88.252 125.174 87.7871 125.734 87.3178C125.46 86.9196 125.146 86.5136 125.034 86.0234C125.034 85.9642 124.975 85.7873 124.975 85.5511C124.975 85.5217 124.857 85.4627 124.857 85.4332C124.828 84.2529 124.828 83.0725 124.857 81.8922C124.887 81.7743 124.946 81.6564 124.975 81.5382C125.034 80.4171 125.359 79.3546 125.537 78.2336C125.684 77.2893 125.921 76.463 126.098 75.5191C126.184 75.0587 126.264 74.6053 126.35 74.1486C126.32 74.1483 126.291 74.1475 126.26 74.1475C123.279 74.1475 118.931 75.5123 116.758 76.5668L116.851 76.6597C118.87 75.8844 119.77 76.5668 119.491 78.3656L117.361 91.245C117.516 91.2008 117.67 91.1566 117.825 91.1062C119.483 90.6133 120.896 90.0051 122.555 89.5125" fill="#F5E0BC"/>
<path fill-rule="evenodd" clip-rule="evenodd" d="M129.731 83.4694L130.36 79.6678C131.038 75.4859 129.822 74.1708 126.351 74.1484C126.265 74.6051 126.185 75.0585 126.099 75.5189C125.922 76.4628 125.685 77.2891 125.538 78.2334C125.36 79.3547 125.035 80.4169 124.976 81.538C124.947 81.6562 124.888 81.7741 124.858 81.892C124.829 83.0723 124.829 84.2527 124.858 85.433C124.858 85.4625 124.976 85.5215 124.976 85.5509C124.976 85.7871 125.035 85.9639 125.035 86.0232C125.147 86.5134 125.461 86.9194 125.735 87.3176C127.169 86.1137 128.569 84.8768 129.731 83.4694" fill="#F5E0BC"/>
<path fill-rule="evenodd" clip-rule="evenodd" d="M125.735 87.3169C125.175 87.7863 124.612 88.2511 124.056 88.7196C123.936 88.8133 123.691 88.6975 123.51 88.7623C123.181 88.9819 122.917 89.3823 122.555 89.5117C120.897 90.0043 119.484 90.6127 117.825 91.1053C117.671 91.1557 117.517 91.1999 117.362 91.2442L116.262 97.9035C116.04 99.2339 115.98 100.393 116.051 101.406C116.389 106.2 119.745 107.641 123.591 107.641C125.019 107.641 126.51 107.455 127.938 107.145L128 107.021C126.779 106.411 126.732 103.58 127.047 100.463C127.277 98.1894 127.699 95.7642 128 93.9335L128.943 88.2355L129.731 83.4688C128.569 84.8764 127.169 86.113 125.735 87.3169" fill="#F5E0BC"/>
<path fill-rule="evenodd" clip-rule="evenodd" d="M157.949 101.168C156.775 101.698 155.617 102.234 154.448 102.721C155.471 106.413 158.785 107.612 162.535 107.612C164.025 107.612 165.578 107.425 167.069 107.146L167.193 107.022C164.801 106.616 164.911 101.463 165.542 96.6807C163.672 97.9816 161.759 99.2114 159.804 100.364C159.19 100.645 158.57 100.912 157.949 101.168" fill="#F5E0BC"/>
<path fill-rule="evenodd" clip-rule="evenodd" d="M139.586 107.643C141.077 107.643 142.847 107.426 144.835 107.147L144.959 107.023C144.539 106.851 144.258 106.436 144.081 105.852C141.953 106.424 139.823 106.974 137.625 107.499C138.221 107.597 138.874 107.643 139.586 107.643" fill="#F5E0BC"/>
<path fill-rule="evenodd" clip-rule="evenodd" d="M167.368 78.0089C166.613 75.8157 164.817 74.1475 161.013 74.1475C159.141 74.1475 157.223 74.5584 155.343 75.7001C155.26 75.7408 155.099 75.8239 154.878 75.9504C153.492 76.7481 149.701 79.3355 147.568 84.7882C147.163 85.8232 146.785 86.8161 146.429 87.7627L148.312 79.6677C149.275 75.5123 147.628 74.1475 144.089 74.1475C141.108 74.1475 136.76 75.5123 134.586 76.5668L134.679 76.6597C136.697 75.8844 137.63 76.5668 137.319 78.3653L135.562 88.2361L133.841 97.9041C133.803 98.1184 133.768 98.3268 133.736 98.5326C132.77 104.611 134.231 106.939 137.624 107.498C139.822 106.974 141.953 106.424 144.081 105.851C143.398 103.594 144.307 98.7675 145.122 95.2604C145.124 95.2539 145.127 95.2459 145.129 95.2392C145.642 93.7278 146.56 91.0853 147.769 87.8797C148.086 87.0407 148.421 86.1652 148.776 85.259C150.31 81.3374 152.812 78.99 154.42 77.807C155.143 77.2755 155.686 76.9786 155.879 76.8805C157.21 77.1508 157.311 79.1324 156.82 82.2112L156.063 86.9013L154.336 97.5939C154.003 99.6822 154.073 101.368 154.448 102.721C155.616 102.234 156.774 101.697 157.949 101.167C158.57 100.912 159.19 100.645 159.803 100.363C161.759 99.2109 163.672 97.9813 165.541 96.6804C165.68 95.6253 165.844 94.588 166.013 93.624L167.503 84.8162C167.854 82.7427 168.098 80.1302 167.368 78.0089" fill="#F5E0BC"/>
<path fill-rule="evenodd" clip-rule="evenodd" d="M184.435 104.573C183.985 104.573 183.595 104.362 183.267 104.005C182.807 105.131 182.359 106.23 181.923 107.299C182.859 107.064 183.77 106.671 184.655 106.081C184.927 105.42 185.202 104.749 185.481 104.069C185.279 104.232 185.081 104.384 184.892 104.521C184.739 104.552 184.587 104.573 184.435 104.573" fill="#F5E0BC"/>
<path fill-rule="evenodd" clip-rule="evenodd" d="M177.538 118.12C177.176 119.02 176.839 119.859 176.528 120.632C177.21 120.766 177.906 120.867 178.6 120.939C178.716 120.654 178.835 120.36 178.959 120.055C178.19 119.539 177.748 118.837 177.538 118.12" fill="#F5E0BC"/>
<path fill-rule="evenodd" clip-rule="evenodd" d="M180.863 113.473C180.973 112.484 180.805 111.631 180.45 110.919C180.022 111.974 179.611 112.99 179.218 113.962C179.674 113.72 180.219 113.548 180.863 113.473" fill="#F5E0BC"/>
<path fill-rule="evenodd" clip-rule="evenodd" d="M201.419 106.712L204.066 89.916C196.427 110.744 194.073 116.156 192.553 118.946C197.633 116.5 200.566 112.139 201.419 106.712" fill="#F5E0BC"/>
<path fill-rule="evenodd" clip-rule="evenodd" d="M194.749 76.3691C195.23 77.9003 194.962 80.1201 194.619 81.9949L194.612 82.0329C195.526 79.8533 196.44 77.6857 197.342 75.554C196.703 75.3412 196.041 75.1275 195.359 74.9326C195.155 75.4111 194.952 75.8901 194.749 76.3691" fill="#F5E0BC"/>
<path fill-rule="evenodd" clip-rule="evenodd" d="M182.966 76.1686L177.66 87.4013C177.554 87.5139 177.449 87.6286 177.346 87.7477C177.169 87.9641 176.837 88.0322 176.569 88.281C176.482 88.4646 176.457 88.6778 176.337 88.7712C174.544 90.025 173.026 91.3332 171.388 92.735C171.297 92.8196 171.173 92.88 171.037 92.9381C170.842 94.0076 170.739 95.0688 170.739 96.1053C170.739 99.394 171.505 102.701 173.399 104.915C176.992 98.7148 181.774 89.6877 188.401 74.2949C186.514 74.5706 184.686 75.2247 182.966 76.1686" fill="#F5E0BC"/>
<path fill-rule="evenodd" clip-rule="evenodd" d="M176.338 88.7715C176.457 88.6778 176.483 88.465 176.57 88.281C176.837 88.0325 177.169 87.9641 177.347 87.7477C177.45 87.6286 177.555 87.514 177.661 87.4017L182.967 76.1689C176.931 79.4824 172.233 86.3619 171.037 92.9384C171.173 92.8803 171.297 92.8199 171.389 92.735C173.027 91.3333 174.545 90.0253 176.338 88.7715" fill="#F5E0BC"/>
<path fill-rule="evenodd" clip-rule="evenodd" d="M202.695 76.8777C201.142 76.8777 199.351 76.2224 197.344 75.5541C196.441 77.6858 195.528 79.8534 194.613 82.033L194.064 85.0765C194.046 85.1121 194.021 85.1434 194.01 85.1838C193.996 85.2336 192.631 90.1914 190.518 96.55C189.255 100.348 187.186 102.69 185.48 104.069C185.201 104.749 184.926 105.42 184.655 106.081C184.761 106.011 184.866 105.939 184.971 105.863C185.187 105.748 185.409 105.621 185.571 105.505C187.507 104.111 190.134 101.492 191.652 96.9265C192.226 95.1999 192.743 93.5824 193.195 92.1305L189.621 111.178C188.472 117.35 186.981 120.886 182.198 120.886C180.753 120.886 179.704 120.557 178.96 120.057C178.837 120.361 178.717 120.655 178.602 120.94C179.718 121.057 180.827 121.103 181.857 121.103C186.121 121.103 189.68 120.33 192.554 118.946C194.075 116.157 196.429 110.744 204.068 89.9166L206.514 74.3965C205.489 76.2575 204.216 76.8777 202.695 76.8777" fill="#F5E0BC"/>
<path fill-rule="evenodd" clip-rule="evenodd" d="M179.558 107.58C180.363 107.58 181.151 107.493 181.922 107.298C182.357 106.229 182.806 105.13 183.266 104.004C182.417 103.079 181.981 101.165 181.981 99.3306C181.981 89.3752 186.173 74.5198 192.29 74.5198C193.669 74.5198 194.403 75.2656 194.749 76.3681C194.952 75.8891 195.155 75.41 195.359 74.9316C193.811 74.49 192.154 74.1475 190.396 74.1475C189.725 74.1475 189.059 74.1985 188.401 74.2946C181.774 89.6877 176.992 98.7144 173.399 104.914C174.793 106.542 176.795 107.58 179.558 107.58" fill="#F5E0BC"/>
<path fill-rule="evenodd" clip-rule="evenodd" d="M177.384 117.041C177.384 115.834 177.956 114.629 179.217 113.963C179.61 112.991 180.022 111.975 180.45 110.92C179.604 109.221 177.687 108.326 175.893 108.326C172.353 108.326 169.559 110.869 169.559 114.343C169.559 118.158 172.822 119.903 176.528 120.634C176.838 119.861 177.176 119.022 177.538 118.122C177.432 117.758 177.384 117.39 177.384 117.041" fill="#F5E0BC"/>
<path fill-rule="evenodd" clip-rule="evenodd" d="M95.6669 87.7651C95.4305 87.6767 95.194 87.7061 94.9579 87.6767C94.8986 87.6472 94.8986 87.5879 94.8395 87.5585C94.692 87.529 94.5146 87.5879 94.367 87.529C94.1896 87.4405 93.9531 87.4995 93.776 87.4111C93.6577 87.3816 93.5691 87.2339 93.4215 87.2044C93.3031 87.1749 93.1851 87.2339 93.0667 87.2044C93.008 87.1749 92.9785 87.116 92.9489 87.0865C92.683 87.057 92.3875 87.116 92.1216 87.0865L92.0032 86.9683C91.8668 86.9488 91.7313 86.9662 91.6035 86.9645C93.1694 88.1118 94.8543 89.1002 96.6136 89.933L96.9533 87.7943C96.5147 87.7681 96.0763 87.8818 95.6669 87.7651" fill="#F5E0BC"/>
<path fill-rule="evenodd" clip-rule="evenodd" d="M115.013 83.4935C115.005 83.4133 114.98 83.3387 114.943 83.2721C114.944 83.1665 114.952 83.0616 114.952 82.9555C114.952 78.4425 112.913 75.573 110.342 74.3438C110.336 74.5018 110.342 74.6612 110.292 74.811C110.204 74.9879 110.233 75.1945 110.204 75.4012C110.174 75.4896 110.115 75.5486 110.085 75.6373C110.056 75.7847 110.115 75.9616 110.056 76.1093C109.938 76.5812 109.879 77.0535 109.82 77.5254C109.82 77.6731 109.731 77.791 109.731 77.9977C109.731 78.0861 109.642 78.1451 109.613 78.2338V78.4696C109.583 78.5581 109.524 78.617 109.495 78.7058C109.465 78.8237 109.524 78.9714 109.465 79.0598C109.376 79.237 109.376 79.4728 109.288 79.65C109.199 79.8269 109.288 80.0335 109.17 80.2402C109.11 80.3286 109.17 80.4763 109.14 80.5942C109.081 80.7419 109.022 80.8598 109.022 81.0665C109.022 81.0956 108.933 81.1546 108.904 81.1844C108.904 81.5679 108.697 81.8925 108.549 82.2465C108.537 82.2704 108.54 82.2996 108.546 82.3308C110.669 81.6717 113.213 82.4608 113.881 84.8203C113.882 86.9475 113.298 89.2047 111.988 92.1326C112.304 92.1105 112.576 92.1114 112.868 92.0683C113.032 92.0424 113.192 92.0182 113.352 91.9941C114.791 88.6181 115.28 86.0552 115.013 83.4935" fill="#F5E0BC"/>
<path fill-rule="evenodd" clip-rule="evenodd" d="M100.604 80.4743C100.604 83.0794 102.343 85.4987 105.511 85.6844C105.833 83.9133 107.091 82.7822 108.545 82.3306C108.54 82.2993 108.536 82.2702 108.549 82.2463C108.696 81.8922 108.903 81.5677 108.903 81.1842C108.933 81.1547 109.021 81.0954 109.021 81.0662C109.021 80.8596 109.08 80.7417 109.139 80.594C109.169 80.4761 109.11 80.3284 109.169 80.2399C109.287 80.0333 109.198 79.8269 109.287 79.6498C109.376 79.4729 109.376 79.2368 109.464 79.0596C109.523 78.9712 109.464 78.8235 109.494 78.7056C109.523 78.6171 109.582 78.5582 109.612 78.4694V78.2336C109.642 78.1452 109.73 78.0859 109.73 77.9975C109.73 77.7908 109.819 77.6729 109.819 77.5255C109.878 77.0533 109.937 76.581 110.055 76.109C110.114 75.9613 110.055 75.7845 110.085 75.6371C110.114 75.5486 110.173 75.4894 110.203 75.401C110.232 75.1943 110.203 74.9879 110.292 74.8108C110.341 74.661 110.336 74.5015 110.342 74.3435C109.379 73.8834 108.343 73.6514 107.311 73.6514C103.833 73.6514 100.604 76.2564 100.604 80.4743" fill="#F5E0BC"/>
<path fill-rule="evenodd" clip-rule="evenodd" d="M92.0034 86.9673L92.1215 87.0852C92.3874 87.1147 92.6829 87.0558 92.9489 87.0852C92.9784 87.1147 93.0079 87.174 93.0669 87.2034C93.185 87.2329 93.3034 87.174 93.4214 87.2034C93.5693 87.2329 93.6579 87.3803 93.7759 87.4098C93.9533 87.4985 94.1898 87.4396 94.3669 87.528C94.5148 87.587 94.6919 87.528 94.8398 87.5575C94.8988 87.587 94.8988 87.6459 94.9578 87.6754C95.1943 87.7049 95.4307 87.6754 95.6671 87.7641C96.0763 87.8809 96.5149 87.7668 96.9535 87.793L98.244 79.6677C98.9271 75.4498 97.685 74.1475 94.1443 74.1475C91.1633 74.1475 86.8163 75.5123 84.6426 76.5668L84.7356 76.6597C86.754 75.8844 87.6853 76.5668 87.3753 78.3653L86.7357 82.3462C88.1513 84.1043 89.7976 85.6405 91.6037 86.9635C91.7316 86.965 91.867 86.9479 92.0034 86.9673" fill="#F5E0BC"/>
<path fill-rule="evenodd" clip-rule="evenodd" d="M112.868 92.0696C112.575 92.1126 112.303 92.1117 111.988 92.1338C111.796 92.563 111.589 93.0061 111.365 93.466C109.121 98.0809 104.89 101.451 103.175 102.685C100.857 104.354 97.2105 105.368 96.2125 105.625C94.4423 105.027 94.6501 102.288 95.3866 97.6573L96.6133 89.9335C94.8544 89.1004 93.1695 88.112 91.6033 86.965C89.7974 85.6416 88.1512 84.1055 86.7355 82.3477L86.2331 85.473L84.1456 98.4636C83.1518 104.604 85.76 107.582 91.4117 107.582C93.3738 107.582 95.3718 107.217 97.3336 106.558C98.9092 106.105 101.816 105.135 103.874 103.653C105.662 102.365 110.077 98.8471 112.44 93.9884C112.78 93.2903 113.08 92.63 113.351 91.9953C113.191 92.0194 113.031 92.0436 112.868 92.0696" fill="#F5E0BC"/>
</svg>
