<svg width="365" height="290" viewBox="0 0 365 290" fill="none" xmlns="http://www.w3.org/2000/svg">
<path fill-rule="evenodd" clip-rule="evenodd" d="M361.889 257.304C364.45 254.51 364.328 254.462 364.328 250.672C364.328 246.884 361.524 246.881 361.52 243.098C361.524 239.315 364.328 239.312 364.328 235.524V235.516V235.509C364.328 231.722 361.524 231.719 361.52 227.935C361.524 224.153 364.328 224.15 364.328 220.362V220.355V220.347C364.328 216.559 361.524 216.557 361.52 212.774C361.524 208.991 364.328 208.988 364.328 205.2V205.193V205.185C364.328 201.397 361.524 201.395 361.52 197.612C361.524 193.829 364.328 193.825 364.328 190.038V190.03V190.023C364.328 186.235 361.524 186.233 361.52 182.449C361.524 178.667 364.328 178.663 364.328 174.875V174.868V174.861C364.328 171.073 361.524 171.07 361.52 167.287C361.524 163.504 364.328 163.501 364.328 159.713V159.706V159.699C364.328 155.911 361.524 155.908 361.52 152.125C361.524 148.342 364.328 148.339 364.328 144.551V144.544V144.537C364.328 140.749 361.524 140.746 361.52 136.963C361.524 133.18 364.328 133.177 364.328 129.389V129.382V129.375C364.328 125.587 361.524 125.584 361.52 121.801C361.524 118.018 364.328 118.015 364.328 114.227V114.22V114.213C364.328 110.425 361.524 110.422 361.52 106.639C361.524 102.856 364.328 102.853 364.328 99.0645V99.0576V99.0506C364.328 95.2626 361.524 95.2598 361.52 91.4766C361.524 87.6934 364.328 87.6913 364.328 83.9025V83.8956V83.8886C364.328 80.1005 361.524 80.0971 361.52 76.3145C361.524 72.5313 364.328 72.5286 364.328 68.7405V68.7335V68.7259C364.328 64.9385 361.524 64.935 361.52 61.1525C361.524 57.3693 364.328 57.3665 364.328 53.5785H364.327C364.327 53.5736 364.328 53.5694 364.328 53.5639C364.328 49.7737 361.52 49.7737 361.52 45.9829C361.52 42.1927 364.328 42.1927 364.328 38.4019C364.328 34.6117 361.52 34.6117 361.52 30.8209C361.52 27.0307 364.328 27.0307 364.328 23.2398C364.328 19.4497 364.45 19.4018 361.889 16.6081C359.54 14.0457 359.447 14.2547 355.972 14.2547C352.495 14.2547 352.495 17.063 349.019 17.063C345.543 17.063 345.543 14.2547 342.066 14.2547C338.59 14.2547 338.59 17.063 335.114 17.063C331.638 17.063 331.638 14.2547 328.162 14.2547C324.686 14.2547 324.686 17.063 321.21 17.063C317.734 17.063 317.734 14.2547 314.258 14.2547C310.781 14.2547 310.781 17.063 307.305 17.063C303.83 17.063 303.83 14.2547 300.353 14.2547C296.877 14.2547 296.877 17.063 293.401 17.063C289.924 17.063 289.924 14.2547 286.448 14.2547C282.972 14.2547 282.972 17.063 279.496 17.063C276.02 17.063 276.02 14.2547 272.544 14.2547C269.068 14.2547 269.068 17.063 265.592 17.063C262.116 17.063 262.116 14.2547 258.639 14.2547C255.164 14.2547 255.164 17.063 251.687 17.063C248.211 17.063 248.211 14.2547 244.735 14.2547C241.259 14.2547 241.259 17.063 237.782 17.063C234.306 17.063 234.306 14.2547 230.83 14.2547C227.354 14.2547 227.354 17.063 223.878 17.063C220.402 17.063 220.402 14.2547 216.925 14.2547C213.45 14.2547 213.45 17.063 209.973 17.063C206.497 17.063 206.497 14.2547 203.022 14.2547C199.545 14.2547 199.545 17.063 196.069 17.063C192.593 17.063 192.593 14.2547 189.116 14.2547C185.64 14.2547 185.64 17.063 182.164 17.063C178.688 17.063 178.688 14.2547 175.212 14.2547C171.736 14.2547 171.736 17.063 168.259 17.063C164.783 17.063 164.783 14.2547 161.307 14.2547C157.831 14.2547 157.831 17.063 154.355 17.063C150.879 17.063 150.879 14.2547 147.403 14.2547C143.927 14.2547 143.927 17.063 140.451 17.063C136.974 17.063 136.974 14.2547 133.498 14.2547C130.023 14.2547 130.023 17.063 126.546 17.063C123.07 17.063 123.07 14.2547 119.594 14.2547C116.117 14.2547 116.117 17.063 112.641 17.063C109.165 17.063 109.165 14.2547 105.689 14.2547C102.213 14.2547 102.213 17.063 98.7367 17.063C95.2604 17.063 95.2604 14.2547 91.7848 14.2547C88.3086 14.2547 88.3086 17.063 84.8323 17.063C81.3567 17.063 81.3567 14.2547 77.8804 14.2547C74.4041 14.2547 74.4041 17.063 70.9279 17.063C67.4516 17.063 67.4516 14.2547 63.9753 14.2547C60.499 14.2547 60.499 17.063 57.0227 17.063C53.5472 17.063 53.5472 14.2547 50.0709 14.2547C46.5946 14.2547 46.5946 17.063 43.1183 17.063C39.642 17.063 39.642 14.2547 36.1665 14.2547C32.6902 14.2547 32.6902 17.063 29.2146 17.063C25.7383 17.063 25.7383 14.2547 22.262 14.2547C18.7858 14.2547 18.7858 17.063 15.3095 17.063C11.8332 17.063 12.0061 14.7978 8.57012 14.2707C5.4098 13.7867 4.78898 14.0457 2.43975 16.6081C-0.12197 19.4018 0.000942314 19.4497 0.000942314 23.2398C0.000942314 27.0307 2.80919 27.0307 2.80919 30.8209C2.80919 34.6117 0.000942314 34.6117 0.000942314 38.4019C0.000942314 42.1927 2.80919 42.1927 2.80919 45.9829C2.80919 49.7737 0.000942314 49.7737 0.000942314 53.5639C0.000942314 53.5694 0.00163674 53.5736 0.00163674 53.5785H0.000942314C0.000942314 57.3665 2.80433 57.3693 2.80849 61.1525C2.80433 64.935 0.000942314 64.9385 0.000942314 68.7259V68.7335V68.7405C0.000942314 72.5286 2.80433 72.5313 2.80849 76.3145C2.80433 80.0971 0.000942314 80.1005 0.000942314 83.8886V83.8956V83.9025C0.000942314 87.6913 2.80433 87.6934 2.80849 91.4766C2.80433 95.2598 0.000942314 95.2626 0.000942314 99.0506V99.0576V99.0645C0.000942314 102.853 2.80433 102.856 2.80849 106.639C2.80433 110.422 0.000942314 110.425 0.000942314 114.213V114.22V114.227C0.000942314 118.015 2.80433 118.018 2.80849 121.801C2.80433 125.584 0.000942314 125.587 0.000942314 129.375V129.382V129.389C0.000942314 133.177 2.80433 133.18 2.80849 136.963C2.80433 140.746 0.000942314 140.749 0.000942314 144.537V144.544V144.551C0.000942314 148.339 2.80433 148.342 2.80849 152.125C2.80433 155.908 0.000942314 155.911 0.000942314 159.699V159.706V159.713C0.000942314 163.501 2.80433 163.504 2.80849 167.287C2.80433 171.07 0.000942314 171.073 0.000942314 174.861V174.868V174.875C0.000942314 178.663 2.80433 178.667 2.80849 182.449C2.80433 186.233 0.000942314 186.235 0.000942314 190.023V190.03V190.038C0.000942314 193.825 2.80433 193.829 2.80849 197.612C2.80433 201.395 0.000942314 201.397 0.000942314 205.185V205.193V205.2C0.000942314 208.988 2.80433 208.991 2.80849 212.774C2.80433 216.557 0.000942314 216.559 0.000942314 220.347V220.355V220.362C0.000942314 224.15 2.80433 224.153 2.80849 227.935C2.80433 231.719 0.000942314 231.722 0.000942314 235.509V235.516V235.524C0.000942314 239.312 2.80433 239.315 2.80849 243.098C2.80433 246.881 0.000942314 246.884 0.000942314 250.672C0.000942314 254.462 -0.12197 254.51 2.43975 257.304C2.56058 257.435 2.67169 257.555 2.78072 257.673C2.79738 257.862 2.80919 258.056 2.80919 258.267C2.80919 262.058 0.000942314 262.058 0.000942314 265.848C0.000942314 269.639 2.80919 269.639 2.80919 273.43C2.80919 277.22 0.000942314 277.22 0.000942314 281.011C0.000942314 284.801 -0.12197 284.849 2.43975 287.643C4.78898 290.204 4.88134 289.996 8.35693 289.996C11.8332 289.996 11.8332 287.188 15.3095 287.188C18.7858 287.188 18.7858 289.996 22.262 289.996C25.7383 289.996 25.7383 287.188 29.2146 287.188C32.6902 287.188 32.6902 289.996 36.1665 289.996C39.642 289.996 39.642 287.188 43.1183 287.188C46.5946 287.188 46.5946 289.996 50.0709 289.996C53.5472 289.996 53.5472 287.188 57.0227 287.188C60.499 287.188 60.499 289.996 63.9753 289.996C67.4516 289.996 67.4516 287.188 70.9279 287.188C74.4041 287.188 74.4041 289.996 77.8804 289.996C81.3567 289.996 81.3567 287.188 84.8323 287.188C88.3086 287.188 88.3086 289.996 91.7848 289.996C95.2604 289.996 95.2604 287.188 98.7367 287.188C102.213 287.188 102.213 289.996 105.689 289.996C109.165 289.996 109.165 287.188 112.641 287.188C116.117 287.188 116.117 289.996 119.594 289.996C123.07 289.996 123.07 287.188 126.546 287.188C130.023 287.188 130.023 289.996 133.498 289.996C136.974 289.996 136.974 287.188 140.451 287.188C143.927 287.188 143.927 289.996 147.403 289.996C150.879 289.996 150.879 287.188 154.355 287.188C157.831 287.188 157.831 289.996 161.307 289.996C164.783 289.996 164.783 287.188 168.259 287.188C171.736 287.188 171.736 289.996 175.212 289.996C178.688 289.996 178.688 287.188 182.164 287.188C185.64 287.188 185.64 289.996 189.116 289.996C192.593 289.996 192.593 287.188 196.069 287.188C199.545 287.188 199.545 289.996 203.022 289.996C206.497 289.996 206.497 287.188 209.973 287.188C213.45 287.188 213.45 289.996 216.925 289.996C220.402 289.996 220.402 287.188 223.878 287.188C227.354 287.188 227.354 289.996 230.83 289.996C234.306 289.996 234.306 287.188 237.782 287.188C241.259 287.188 241.259 289.996 244.735 289.996C248.211 289.996 248.211 287.188 251.687 287.188C255.164 287.188 255.164 289.996 258.639 289.996C262.116 289.996 262.116 287.188 265.592 287.188C269.068 287.188 269.068 289.996 272.544 289.996C276.02 289.996 276.02 287.188 279.496 287.188C282.972 287.188 282.972 289.996 286.448 289.996C289.924 289.996 289.924 287.188 293.401 287.188C296.877 287.188 296.877 289.996 300.353 289.996C303.83 289.996 303.83 287.188 307.305 287.188C310.781 287.188 310.781 289.996 314.258 289.996C317.734 289.996 317.734 287.188 321.21 287.188C324.686 287.188 324.686 289.996 328.162 289.996C331.638 289.996 331.638 287.188 335.114 287.188C338.59 287.188 338.59 289.996 342.066 289.996C345.543 289.996 345.543 287.188 349.019 287.188C352.495 287.188 352.495 289.996 355.972 289.996C359.447 289.996 359.54 290.204 361.889 287.643C364.45 284.849 364.328 284.801 364.328 281.011C364.328 277.22 361.52 277.22 361.52 273.43C361.52 269.639 364.328 269.639 364.328 265.848C364.328 262.058 361.52 262.058 361.52 258.267C361.52 258.056 361.531 257.862 361.548 257.673C361.657 257.555 361.768 257.435 361.889 257.304" fill="#614731" fill-opacity="0.2"/>
<g clip-path="url(#clip0_5_361)">
<path fill-rule="evenodd" clip-rule="evenodd" d="M355.759 89.0923C355.908 89.5587 356 90.1027 356 90.7697H354.845C354.782 90.8579 354.716 90.9455 354.65 91.0331C353.977 91.9358 353.303 92.8385 353.303 94.6414C353.303 96.4446 353.977 97.3475 354.65 98.2502C355.324 99.1542 356 100.058 356 101.866C356 101.869 355.998 101.871 355.998 101.873C355.998 101.874 355.998 101.875 355.998 101.876C356 101.877 356 101.878 356 101.879C356 103.687 355.324 104.591 354.65 105.495C353.977 106.398 353.303 107.301 353.303 109.104C353.303 110.907 353.977 111.809 354.65 112.712C355.324 113.616 356 114.52 356 116.328C356 116.329 356 116.331 355.998 116.332C355.998 116.333 355.998 116.334 355.998 116.335C355.998 116.336 355.998 116.337 355.998 116.338C356 116.339 356 116.341 356 116.342C356 118.149 355.324 119.053 354.65 119.957C353.977 120.86 353.303 121.763 353.303 123.566C353.303 125.369 353.977 126.272 354.65 127.174C355.324 128.078 356 128.982 356 130.79C356 130.792 355.998 130.793 355.998 130.794C355.998 130.795 355.998 130.796 355.998 130.797C355.998 130.798 355.998 130.799 355.998 130.8C356 130.801 356 130.802 356 130.804C356 132.612 355.324 133.516 354.65 134.42C353.977 135.322 353.303 136.225 353.303 138.028C353.303 139.831 353.977 140.734 354.65 141.637C355.324 142.541 356 143.445 356 145.252C356 145.254 355.998 145.255 355.998 145.256C355.998 145.257 355.998 145.258 355.998 145.259C355.998 145.261 355.998 145.262 355.998 145.263C356 145.264 356 145.265 356 145.266C356 147.074 355.324 147.978 354.65 148.882C353.977 149.784 353.303 150.687 353.303 152.49C353.303 154.293 353.977 155.196 354.65 156.099C355.324 157.003 356 157.907 356 159.714C356 159.715 356 159.717 355.998 159.718C355.998 159.719 355.998 159.72 355.998 159.721C355.998 159.722 355.998 159.723 355.998 159.724C356 159.725 356 159.727 356 159.728C356 161.536 355.324 162.44 354.65 163.344C353.977 164.247 353.303 165.149 353.303 166.952C353.303 168.755 353.977 169.658 354.65 170.561C355.324 171.465 356 172.369 356 174.177C356 174.178 355.998 174.179 355.998 174.18C355.998 174.181 355.998 174.182 355.998 174.184L356 174.19C356 175.998 355.324 176.902 354.65 177.806C353.977 178.709 353.303 179.612 353.303 181.415C353.303 183.218 353.977 184.12 354.65 185.023C355.324 185.927 356 186.831 356 188.639C356 188.642 355.998 188.643 355.998 188.645C355.998 188.647 355.998 188.648 355.998 188.649C356 188.65 356 188.652 356 188.653C356 190.46 355.324 191.364 354.65 192.268C353.977 193.171 353.303 194.074 353.303 195.877C353.303 197.68 353.977 198.583 354.65 199.485C355.324 200.389 356 201.293 356 203.101C356 203.103 355.998 203.104 355.998 203.105C355.998 203.106 355.998 203.107 355.998 203.108C355.998 203.11 355.998 203.111 355.998 203.112C356 203.113 356 203.114 356 203.115C356 204.923 355.324 205.827 354.65 206.731C353.977 207.633 353.303 208.536 353.303 210.339C353.303 212.142 353.977 213.045 354.65 213.947C355.324 214.851 356 215.755 356 217.563C356 217.566 355.998 217.568 355.998 217.57C355.998 217.571 355.998 217.572 355.998 217.573C356 217.574 356 217.575 356 217.577C356 219.386 355.324 220.288 354.65 221.192C353.977 222.095 353.303 222.999 353.303 224.801C353.303 226.604 353.977 227.506 354.65 228.41C355.324 229.315 356 230.217 356 232.026C356 232.026 356 232.028 355.998 232.028C355.998 232.03 355.998 232.03 355.998 232.032V232.035C356 232.037 356 232.037 356 232.039C356 233.848 355.324 234.75 354.65 235.654C353.977 236.557 353.303 237.461 353.303 239.263C353.303 241.066 353.977 241.968 354.65 242.872C355.324 243.777 356 244.679 356 246.488C356 246.652 356 246.809 356 246.96C356.004 250.112 356.004 250.269 353.655 252.812C353.539 252.939 353.434 253.053 353.329 253.164C353.312 253.345 353.301 253.531 353.301 253.732C353.301 255.541 353.977 256.443 354.65 257.348C355.324 258.252 356 259.157 356 260.963C356 262.772 355.324 263.674 354.65 264.579C353.977 265.483 353.301 266.388 353.301 268.194C353.301 270.003 353.977 270.905 354.65 271.81C355.324 272.714 356 273.619 356 275.425C356 275.589 356 275.746 356 275.897C356.004 279.05 356.004 279.207 353.655 281.752C351.568 284.013 351.336 284.011 348.667 283.998C348.453 283.998 348.221 283.996 347.972 283.996C346.301 283.996 345.467 283.327 344.632 282.656C343.796 281.988 342.962 281.317 341.293 281.317C339.622 281.317 338.789 281.988 337.953 282.656C337.118 283.327 336.284 283.996 334.613 283.996C332.944 283.996 332.108 283.327 331.275 282.656C330.439 281.988 329.603 281.317 327.934 281.317C326.265 281.317 325.43 281.988 324.594 282.656C323.761 283.327 322.925 283.996 321.256 283.996C319.587 283.996 318.751 283.327 317.916 282.656C317.082 281.988 316.247 281.317 314.577 281.317C312.906 281.317 312.073 281.988 311.237 282.656C310.402 283.327 309.568 283.996 307.897 283.996C306.228 283.996 305.392 283.327 304.559 282.656C303.723 281.988 302.888 281.317 301.218 281.317C299.549 281.317 298.714 281.988 297.88 282.656C297.045 283.327 296.209 283.996 294.54 283.996C292.871 283.996 292.035 283.327 291.2 282.656C290.366 281.988 289.531 281.317 287.862 281.317C286.192 281.317 285.357 281.988 284.521 282.656C283.688 283.327 282.852 283.996 281.183 283.996C279.512 283.996 278.678 283.327 277.843 282.656C277.009 281.988 276.174 281.317 274.505 281.317C272.833 281.317 272 281.988 271.164 282.656C270.329 283.327 269.495 283.996 267.824 283.996C266.155 283.996 265.319 283.327 264.486 282.656C263.65 281.988 262.815 281.317 261.146 281.317C259.477 281.317 258.641 281.988 257.807 282.656C256.972 283.327 256.136 283.996 254.467 283.996C252.798 283.996 251.962 283.327 251.129 282.656C250.293 281.988 249.458 281.317 247.789 281.317C246.12 281.317 245.284 281.988 244.448 282.656C243.615 283.327 242.779 283.996 241.11 283.996C239.439 283.996 238.606 283.327 237.77 282.656C236.934 281.988 236.101 281.317 234.432 281.317C232.761 281.317 231.927 281.988 231.092 282.656C230.256 283.327 229.423 283.996 227.753 283.996C226.082 283.996 225.249 283.327 224.413 282.656C223.578 281.988 222.743 281.317 221.073 281.317C219.404 281.317 218.569 281.988 217.734 282.656C216.899 283.327 216.064 283.996 214.394 283.996C212.724 283.996 211.889 283.327 211.055 282.656C210.22 281.988 209.385 281.317 207.715 281.317C206.045 281.317 205.21 281.988 204.376 282.656C203.541 283.327 202.706 283.996 201.037 283.996C199.367 283.996 198.532 283.327 197.697 282.656C196.862 281.988 196.027 281.317 194.358 281.317C192.688 281.317 191.853 281.988 191.018 282.656C190.183 283.327 189.348 283.996 187.678 283.996C186.009 283.996 185.174 283.327 184.339 282.656C183.504 281.988 182.669 281.317 180.999 281.317C179.33 281.317 178.495 281.988 177.661 282.656C176.826 283.327 175.991 283.996 174.322 283.996C172.652 283.996 171.817 283.327 170.982 282.656C170.147 281.988 169.312 281.317 167.642 281.317C165.973 281.317 165.138 281.988 164.303 282.656C163.468 283.327 162.633 283.996 160.963 283.996C159.293 283.996 158.459 283.327 157.624 282.656C156.789 281.988 155.954 281.317 154.285 281.317C152.615 281.317 151.78 281.988 150.945 282.656C150.111 283.327 149.276 283.996 147.606 283.996C145.936 283.996 145.101 283.327 144.266 282.656C143.431 281.988 142.596 281.317 140.927 281.317C139.257 281.317 138.422 281.988 137.587 282.656C136.752 283.327 135.917 283.996 134.248 283.996C132.578 283.996 131.743 283.327 130.909 282.656C130.074 281.988 129.239 281.317 127.569 281.317C125.899 281.317 125.065 281.988 124.23 282.656C123.395 283.327 122.56 283.996 120.89 283.996C119.221 283.996 118.386 283.327 117.551 282.656C116.716 281.988 115.881 281.317 114.211 281.317C112.542 281.317 111.707 281.988 110.872 282.656C110.037 283.327 109.203 283.996 107.533 283.996C105.863 283.996 105.029 283.327 104.194 282.656C103.359 281.988 102.524 281.317 100.854 281.317C99.1842 281.317 98.3493 281.988 97.5145 282.656C96.6795 283.327 95.8448 283.996 94.1748 283.996C92.5051 283.996 91.6702 283.327 90.8354 282.656C90.0004 281.988 89.1655 281.317 87.4957 281.317C85.8265 281.317 84.9917 281.988 84.157 282.656C83.322 283.327 82.4873 283.996 80.8173 283.996C79.1476 283.996 78.3126 283.327 77.4779 282.656C76.6429 281.988 75.8079 281.317 74.1382 281.317C72.4685 281.317 71.6335 281.988 70.7988 282.656C69.9638 283.327 69.1288 283.996 67.4591 283.996C65.7898 283.996 64.9551 283.327 64.1203 282.656C63.2854 281.988 62.4506 281.317 60.7807 281.317C59.1114 281.317 58.2767 281.988 57.4419 282.656C56.6069 283.327 55.7722 283.996 54.1022 283.996C52.4325 283.996 51.5976 283.327 50.7626 282.656C49.9278 281.988 49.0929 281.317 47.4232 281.317C45.7534 281.317 44.9185 281.988 44.0835 282.656C43.2487 283.327 42.4138 283.996 40.7441 283.996C39.0741 283.996 38.2394 283.327 37.4044 282.656C36.5697 281.988 35.7349 281.317 34.0656 281.317C32.3959 281.317 31.5609 281.988 30.726 282.656C29.8912 283.327 29.0563 283.996 27.3865 283.996C25.7167 283.996 24.8818 283.327 24.0469 282.656C23.212 281.988 22.3771 281.317 20.7074 281.317C19.0376 281.317 18.2027 281.988 17.3678 282.656C16.5329 283.327 15.698 283.996 14.0283 283.996C13.7787 283.996 13.5473 283.998 13.3318 283.998C10.6646 284.011 10.4326 284.013 8.3438 281.752C5.99525 279.209 5.9955 279.05 6.00042 275.899C6.00066 275.749 6.00091 275.591 6.00091 275.425C6.00091 273.619 6.67541 272.714 7.34989 271.81C8.02431 270.905 8.6987 270.003 8.6987 268.194C8.6987 266.388 8.02425 265.483 7.3498 264.579C6.67535 263.674 6.00091 262.772 6.00091 260.963C6.00091 259.157 6.67529 258.252 7.34971 257.348C8.02419 256.443 8.6987 255.541 8.6987 253.732C8.6987 253.531 8.68802 253.345 8.67135 253.164C8.56662 253.053 8.45987 252.939 8.3438 252.812C5.99525 250.269 5.9955 250.112 6.00042 246.962C6.00066 246.811 6.00091 246.654 6.00091 246.488C6.00091 244.679 6.67527 243.777 7.34959 242.872C8.023 241.968 8.69636 241.066 8.69804 239.263C8.69636 237.461 8.02293 236.557 7.34949 235.654C6.6752 234.75 6.00091 233.848 6.00091 232.039C6.00091 232.037 6.00107 232.037 6.00124 232.035C6.00141 232.035 6.00157 232.032 6.00157 232.032C6.00157 232.03 6.00143 232.03 6.00127 232.028C6.0011 232.028 6.00091 232.026 6.00091 232.026C6.00091 230.217 6.67514 229.315 7.3494 228.41C8.02287 227.506 8.69636 226.604 8.69804 224.801C8.69636 222.999 8.023 222.095 7.34959 221.192C6.67527 220.288 6.00091 219.386 6.00091 217.577C6.00091 217.575 6.0011 217.574 6.00127 217.573C6.00143 217.572 6.00157 217.571 6.00157 217.57C6.00157 217.569 6.00141 217.568 6.00124 217.567C6.00107 217.565 6.00091 217.564 6.00091 217.563C6.00091 215.755 6.67527 214.851 7.34959 213.947C8.023 213.045 8.69636 212.142 8.69804 210.339C8.69636 208.536 8.02293 207.633 7.34949 206.731C6.6752 205.827 6.00091 204.923 6.00091 203.115C6.00091 203.113 6.0011 203.112 6.00127 203.111C6.00143 203.11 6.00157 203.109 6.00157 203.108C6.00157 203.107 6.00141 203.106 6.00124 203.105C6.00107 203.103 6.00091 203.102 6.00091 203.101C6.00091 201.293 6.67527 200.389 7.34959 199.485C8.023 198.583 8.69636 197.68 8.69804 195.877C8.69636 194.074 8.02287 193.171 7.3494 192.268C6.67514 191.364 6.00091 190.46 6.00091 188.653C6.00091 188.652 6.00107 188.65 6.00124 188.649C6.00141 188.648 6.00157 188.647 6.00157 188.645C6.00157 188.645 6.00143 188.644 6.00128 188.643C6.0011 188.642 6.00091 188.64 6.00091 188.639C6.00091 186.831 6.6752 185.927 7.34949 185.023C8.02293 184.12 8.69636 183.218 8.69804 181.415C8.69636 179.612 8.023 178.709 7.34959 177.806C6.67527 176.902 6.00091 175.998 6.00091 174.19L6.00157 174.184C6.00157 174.182 6.00138 174.181 6.0012 174.18C6.00105 174.179 6.00091 174.178 6.00091 174.177C6.00091 172.369 6.67527 171.465 7.34959 170.561C8.023 169.658 8.69636 168.755 8.69804 166.952C8.69636 165.149 8.02293 164.247 7.34949 163.344C6.6752 162.44 6.00091 161.536 6.00091 159.728C6.00091 159.727 6.0011 159.725 6.00128 159.724C6.00143 159.723 6.00157 159.722 6.00157 159.721C6.00157 159.72 6.00141 159.719 6.00124 159.718C6.00107 159.717 6.00091 159.715 6.00091 159.714C6.00091 157.907 6.6752 157.003 7.34949 156.099C8.02293 155.196 8.69636 154.293 8.69804 152.49C8.69636 150.687 8.02294 149.784 7.3495 148.882C6.67521 147.978 6.00091 147.074 6.00091 145.266C6.00091 145.265 6.00107 145.264 6.00124 145.263C6.0014 145.262 6.00157 145.261 6.00157 145.259C6.00157 145.258 6.00141 145.257 6.00124 145.256C6.00107 145.255 6.00091 145.253 6.00091 145.252C6.00091 143.445 6.6752 142.541 7.34949 141.637C8.02293 140.734 8.69636 139.831 8.69804 138.028C8.69636 136.225 8.02293 135.322 7.34949 134.42C6.6752 133.516 6.00091 132.612 6.00091 130.804C6.00091 130.802 6.0011 130.801 6.00127 130.8C6.00143 130.799 6.00157 130.798 6.00157 130.797C6.00157 130.796 6.00141 130.795 6.00124 130.794C6.00107 130.792 6.00091 130.791 6.00091 130.79C6.00091 128.982 6.67527 128.078 7.34959 127.174C8.023 126.272 8.69636 125.369 8.69804 123.566C8.69636 121.763 8.02287 120.86 7.3494 119.957C6.67514 119.053 6.00091 118.149 6.00091 116.342C6.00091 116.341 6.00107 116.339 6.00124 116.338C6.00141 116.337 6.00157 116.336 6.00157 116.335C6.00157 116.334 6.00143 116.333 6.00127 116.332C6.0011 116.331 6.00091 116.329 6.00091 116.328C6.00091 114.52 6.6752 113.616 7.34949 112.712C8.02293 111.809 8.69636 110.907 8.69804 109.104C8.69636 107.301 8.023 106.398 7.34959 105.495C6.67527 104.591 6.00091 103.687 6.00091 101.879C6.00091 101.878 6.00105 101.877 6.0012 101.876C6.00138 101.875 6.00157 101.874 6.00157 101.873C6.00157 101.872 6.00143 101.871 6.00127 101.87C6.0011 101.869 6.00091 101.867 6.00091 101.866C6.00091 100.058 6.6752 99.1542 7.3495 98.2502C8.02293 97.3475 8.69636 96.4446 8.69804 94.6414C8.69636 92.8385 8.023 91.9358 7.34959 91.0331C7.28426 90.9455 7.21894 90.8579 7.15422 90.7697H6.00239C6.00239 90.1042 6.09374 89.5613 6.24283 89.0958C6.09287 88.6292 6.00091 88.0848 6.00091 87.4171C6.00091 87.4163 6.00105 87.4152 6.0012 87.4143C6.00138 87.4132 6.00157 87.4119 6.00157 87.4104C6.00157 87.4091 6.00138 87.4078 6.0012 87.4067C6.00105 87.4058 6.00091 87.4047 6.00091 87.4038C6.00091 85.596 6.67526 84.6918 7.34958 83.7878C7.77443 83.2183 8.19925 82.6486 8.4554 81.8531C8.19905 81.0597 7.77495 80.4912 7.35086 79.9228C6.67661 79.0188 6.00239 78.115 6.00239 76.3075C6.00239 75.6421 6.09374 75.0992 6.24282 74.6334C6.09287 74.167 6.00091 73.6226 6.00091 72.955C6.00091 72.9541 6.00105 72.9532 6.0012 72.9522C6.00138 72.9511 6.00157 72.9497 6.00157 72.9484C6.00157 72.9471 6.00141 72.946 6.00124 72.9447C6.00107 72.9436 6.00091 72.9425 6.00091 72.9412C6.00091 71.1337 6.6752 70.2297 7.3495 69.3259C7.65624 68.9145 7.96297 68.5034 8.20622 68.007C5.99668 65.6072 5.99702 65.394 6.0019 62.3078C6.00214 62.1562 6.00239 61.9976 6.00239 61.8316C6.00239 61.1694 6.09284 60.6287 6.24062 60.1647C6.09196 59.6996 6.00091 59.1574 6.00091 58.493H6.00157C6.00157 58.4906 6.00142 58.4887 6.00126 58.4865C6.00108 58.4841 6.00091 58.4819 6.00091 58.4791C6.00091 56.6715 6.67529 55.7677 7.34971 54.864C7.77456 54.2944 8.19942 53.7251 8.45571 52.9299C8.1994 52.1363 7.77519 51.5674 7.35098 50.9987C6.67669 50.0947 6.00239 49.191 6.00239 47.3834C6.00239 47.3821 6.00256 47.381 6.00272 47.3799C6.00289 47.3786 6.00306 47.3775 6.00306 47.3762C6.00306 47.3747 6.00286 47.3736 6.00269 47.3723C6.00253 47.3714 6.00239 47.3705 6.00239 47.3696C6.00239 46.7042 6.09375 46.1611 6.24285 45.6956C6.09288 45.2289 6.00091 44.6845 6.00091 44.0169C6.00091 42.2096 6.67529 41.3058 7.34971 40.4018C7.77455 39.8325 8.19942 39.2632 8.45571 38.4678C8.19942 37.6741 7.77526 37.1054 7.35107 36.5368C6.67675 35.6326 6.00239 34.7286 6.00239 32.9208L6.00306 32.914C6.00306 32.9127 6.00286 32.9114 6.00269 32.9103C6.00253 32.9092 6.00239 32.9084 6.00239 32.9075C6.00239 32.2421 6.09373 31.699 6.2428 31.2334C6.09286 30.7668 6.00091 30.2226 6.00091 29.555C6.00091 29.3898 6.00066 29.2321 6.00042 29.0814C5.9956 25.9947 5.99527 25.78 8.20255 23.3826C7.96012 22.891 7.65555 22.4827 7.35098 22.0744C6.67669 21.1704 6.00239 20.2664 6.00239 18.4587C6.00239 18.4573 6.00258 18.456 6.00276 18.4549C6.00291 18.4539 6.00306 18.453 6.00306 18.452C6.00306 18.4507 6.00289 18.4496 6.00272 18.4484C6.00256 18.4473 6.00239 18.4461 6.00239 18.4448C6.00239 16.6375 6.67662 15.7335 7.35088 14.8295C8.02435 13.9265 8.69784 13.0236 8.69951 11.2203C8.69784 9.41763 8.02448 8.515 7.35107 7.61231C6.67675 6.70841 6.00239 5.80442 6.00239 3.99661C6.00239 3.99528 6.00256 3.99415 6.00272 3.99299C6.00289 3.99184 6.00306 3.99066 6.00306 3.98934C6.00306 3.98843 6.00291 3.98751 6.00276 3.98653C6.00258 3.98537 6.00239 3.98415 6.00239 3.98273C6.00239 2.17541 6.67662 1.27144 7.35088 0.367442C8.02435 -0.535492 8.69784 -1.43847 8.69951 -3.24169C8.69784 -5.04442 8.02448 -5.94705 7.35107 -6.84973C6.67675 -7.75364 6.00239 -8.6576 6.00239 -10.4654C6.00239 -10.4668 6.00255 -10.4679 6.00272 -10.469C6.00289 -10.4702 6.00306 -10.4714 6.00306 -10.4727C6.00306 -10.4741 6.00289 -10.475 6.00272 -10.476C6.00256 -10.477 6.00239 -10.478 6.00239 -10.4793C6.00239 -12.2871 6.67669 -13.191 7.35098 -14.095C8.02442 -14.9978 8.69784 -15.9006 8.69951 -17.7037C8.69784 -19.5066 8.02442 -20.4094 7.35098 -21.3122C6.67669 -22.216 6.00239 -23.12 6.00239 -24.9276C6.00239 -24.9289 6.00256 -24.93 6.00272 -24.9311C6.00289 -24.9324 6.00306 -24.9335 6.00306 -24.9348C6.00306 -24.9357 6.00291 -24.9365 6.00276 -24.9376C6.00258 -24.9387 6.00239 -24.94 6.00239 -24.9413C6.00239 -26.7491 6.67669 -27.6531 7.35098 -28.5571C8.02442 -29.4598 8.69784 -30.3627 8.69951 -32.1659C8.69784 -33.9686 8.02448 -34.8713 7.35107 -35.7742C6.67675 -36.6782 6.00239 -37.5824 6.00239 -39.3902C6.00239 -39.391 6.00253 -39.3921 6.00269 -39.393C6.00286 -39.3941 6.00306 -39.3954 6.00306 -39.3967C6.00306 -39.3978 6.00291 -39.3987 6.00276 -39.3996C6.00258 -39.4009 6.00239 -39.402 6.00239 -39.4035C6.00239 -41.2113 6.67669 -42.115 7.35098 -43.019C8.02442 -43.9219 8.69784 -44.8246 8.69951 -46.6278C8.69784 -48.431 8.02442 -49.3339 7.35098 -50.2366C6.67669 -51.1406 6.00239 -52.0446 6.00239 -53.8523C6.00239 -53.8536 6.00258 -53.8549 6.00276 -53.856C6.00291 -53.8571 6.00306 -53.858 6.00306 -53.8589C6.00306 -53.8602 6.00286 -53.8615 6.00269 -53.8626C6.00253 -53.8637 6.00239 -53.8646 6.00239 -53.8654C6.00239 -55.6734 6.67675 -56.5774 7.35107 -57.4816C8.02448 -58.3843 8.69784 -59.2872 8.69951 -61.09C8.69784 -62.8931 8.02442 -63.7958 7.35098 -64.6987C6.67669 -65.6027 6.00239 -66.5065 6.00239 -68.3143C6.00239 -68.3156 6.00256 -68.3169 6.00272 -68.318C6.00289 -68.3191 6.00306 -68.3204 6.00306 -68.3217C6.00306 -68.3226 6.00291 -68.3234 6.00276 -68.3245C6.00258 -68.3256 6.00239 -68.3267 6.00239 -68.3282C6.00239 -70.1356 6.67662 -71.0396 7.35088 -71.9436C8.02436 -72.8465 8.69784 -73.7494 8.69951 -75.5526C8.69784 -77.3553 8.02448 -78.258 7.35107 -79.1607C6.67675 -80.0647 6.00239 -80.9686 6.00239 -82.7764C6.00239 -82.7777 6.00256 -82.7788 6.00272 -82.7799C6.00289 -82.7812 6.00306 -82.7823 6.00306 -82.7836C6.00306 -82.7845 6.00291 -82.7856 6.00276 -82.7865C6.00258 -82.7876 6.00239 -82.7889 6.00239 -82.7902C6.00239 -84.5982 6.67675 -85.5022 7.35107 -86.4059C8.02448 -87.3086 8.69784 -88.2113 8.69951 -90.0141C8.69784 -91.8172 8.02436 -92.7201 7.35089 -93.623C6.67663 -94.527 6.00239 -95.431 6.00239 -97.2384C6.00239 -97.2399 6.00258 -97.241 6.00276 -97.2423C6.00291 -97.2432 6.00306 -97.244 6.00306 -97.2451C6.00306 -97.2464 6.00289 -97.2475 6.00272 -97.2486C6.00256 -97.2499 6.00239 -97.251 6.00239 -97.2523C6.00239 -99.0601 6.67669 -99.9641 7.35098 -100.868C8.02442 -101.771 8.69784 -102.674 8.69951 -104.477C8.69784 -106.279 8.02448 -107.182 7.35107 -108.085C6.67675 -108.989 6.00239 -109.893 6.00239 -111.701C6.00239 -111.702 6.00253 -111.703 6.00269 -111.704C6.00286 -111.705 6.00306 -111.706 6.00306 -111.708C6.00306 -111.709 6.00291 -111.71 6.00276 -111.711C6.00258 -111.712 6.00239 -111.713 6.00239 -111.714C6.00239 -113.522 6.67669 -114.426 7.35098 -115.33C8.02442 -116.233 8.69784 -117.136 8.69951 -118.939C8.69784 -120.742 8.02448 -121.644 7.35107 -122.547C6.67675 -123.451 6.00239 -124.355 6.00239 -126.163H6.00306C6.00306 -126.166 6.00289 -126.168 6.00272 -126.17C6.00256 -126.172 6.00239 -126.174 6.00239 -126.176C6.00239 -127.984 6.67673 -128.888 7.35105 -129.792C8.0253 -130.696 8.69951 -131.6 8.69951 -133.407C8.69951 -135.215 8.02523 -136.119 7.35095 -137.023C6.67667 -137.927 6.00239 -138.831 6.00239 -140.639C6.00239 -142.447 6.67661 -143.351 7.35086 -144.254C8.02517 -145.158 8.69951 -146.062 8.69951 -147.87C8.69951 -149.678 8.0253 -150.581 7.35104 -151.485C6.67673 -152.389 6.00239 -153.293 6.00239 -155.101C6.00239 -155.267 6.00214 -155.426 6.0019 -155.577C5.99692 -158.726 5.99667 -158.884 8.34461 -161.427C10.6021 -163.87 11.1992 -164.118 14.2339 -163.656C15.7891 -163.419 16.5748 -162.814 17.32 -162.241C18.1566 -161.597 18.9421 -160.993 20.7082 -160.993C22.3779 -160.993 23.2128 -161.663 24.0477 -162.332C24.8826 -163.002 25.7175 -163.672 27.3873 -163.672C29.0571 -163.672 29.8919 -163.002 30.7268 -162.332C31.5618 -161.663 32.3966 -160.993 34.0665 -160.993C35.7362 -160.993 36.571 -161.663 37.4059 -162.332C38.2409 -163.002 39.0757 -163.672 40.7456 -163.672C42.4149 -163.672 43.2496 -163.002 44.0844 -162.332C44.9191 -161.663 45.7541 -160.993 47.424 -160.993C49.0938 -160.993 49.9287 -161.663 50.7635 -162.332C51.5984 -163.002 52.4332 -163.672 54.1031 -163.672C55.7728 -163.672 56.6078 -163.002 57.4426 -162.332C58.2775 -161.663 59.1123 -160.993 60.7822 -160.993C62.4519 -160.993 63.2869 -161.663 64.1217 -162.332C64.9566 -163.002 65.7912 -163.672 67.4607 -163.672C69.1299 -163.672 69.9647 -163.002 70.7994 -162.332C71.6344 -161.663 72.4692 -160.993 74.1391 -160.993C75.8088 -160.993 76.6438 -161.663 77.4785 -162.332C78.3135 -163.002 79.1485 -163.672 80.8182 -163.672C82.4879 -163.672 83.3229 -163.002 84.1576 -162.332C84.9926 -161.663 85.8276 -160.993 87.4973 -160.993C89.1672 -160.993 90.002 -161.663 90.8369 -162.332C91.6717 -163.002 92.5064 -163.672 94.1757 -163.672C95.8454 -163.672 96.6804 -163.002 97.5154 -162.332C98.3501 -161.663 99.1851 -160.993 100.855 -160.993C102.525 -160.993 103.36 -161.663 104.194 -162.332C105.029 -163.002 105.864 -163.672 107.534 -163.672C109.204 -163.672 110.039 -163.002 110.874 -162.332C111.708 -161.663 112.543 -160.993 114.213 -160.993C115.882 -160.993 116.717 -161.663 117.552 -162.332C118.387 -163.002 119.221 -163.672 120.891 -163.672C122.561 -163.672 123.395 -163.002 124.23 -162.332C125.065 -161.663 125.9 -160.993 127.57 -160.993C129.24 -160.993 130.075 -161.663 130.91 -162.332C131.744 -163.002 132.579 -163.672 134.249 -163.672C135.919 -163.672 136.754 -163.002 137.589 -162.332C138.423 -161.662 139.258 -160.993 140.927 -160.993C142.597 -160.993 143.432 -161.663 144.267 -162.332C145.102 -163.002 145.937 -163.672 147.606 -163.672C149.276 -163.672 150.111 -163.002 150.946 -162.332C151.781 -161.663 152.616 -160.993 154.286 -160.993C155.956 -160.993 156.79 -161.663 157.625 -162.332C158.46 -163.002 159.295 -163.672 160.965 -163.672C162.634 -163.672 163.469 -163.002 164.304 -162.332C165.138 -161.663 165.973 -160.993 167.643 -160.993C169.313 -160.993 170.148 -161.663 170.983 -162.332C171.818 -163.002 172.653 -163.672 174.322 -163.672C175.992 -163.672 176.826 -163.002 177.661 -162.332C178.496 -161.663 179.331 -160.993 181.001 -160.993C182.671 -160.993 183.506 -161.663 184.34 -162.332C185.175 -163.002 186.01 -163.672 187.68 -163.672C189.349 -163.672 190.184 -163.002 191.019 -162.332C191.854 -161.663 192.688 -160.993 194.358 -160.993C196.028 -160.993 196.863 -161.663 197.698 -162.332C198.533 -163.002 199.368 -163.672 201.038 -163.672C202.707 -163.672 203.542 -163.002 204.377 -162.332C205.212 -161.663 206.047 -160.993 207.717 -160.993C209.387 -160.993 210.221 -161.663 211.056 -162.332C211.891 -163.002 212.726 -163.672 214.395 -163.672C216.065 -163.672 216.9 -163.002 217.735 -162.332C218.569 -161.663 219.404 -160.993 221.074 -160.993C222.744 -160.993 223.579 -161.663 224.414 -162.332C225.249 -163.002 226.084 -163.672 227.753 -163.672C229.423 -163.672 230.258 -163.002 231.094 -162.332C231.927 -161.663 232.763 -160.993 234.432 -160.993C236.101 -160.993 236.937 -161.662 237.77 -162.332C238.606 -163.002 239.441 -163.672 241.11 -163.672C242.779 -163.672 243.615 -163.002 244.451 -162.332C245.284 -161.663 246.12 -160.993 247.789 -160.993C249.46 -160.993 250.293 -161.663 251.129 -162.332C251.965 -163.002 252.798 -163.672 254.469 -163.672C256.138 -163.672 256.974 -163.002 257.807 -162.332C258.643 -161.662 259.477 -160.993 261.148 -160.993C262.817 -160.993 263.653 -161.663 264.486 -162.332C265.322 -163.002 266.157 -163.672 267.826 -163.672C269.495 -163.672 270.331 -163.002 271.167 -162.332C272 -161.663 272.836 -160.993 274.505 -160.993C276.174 -160.993 277.009 -161.663 277.845 -162.332C278.678 -163.002 279.514 -163.672 281.183 -163.672C282.854 -163.672 283.688 -163.002 284.523 -162.332C285.357 -161.663 286.192 -160.993 287.862 -160.993C289.533 -160.993 290.366 -161.662 291.202 -162.332C292.035 -163.002 292.871 -163.672 294.54 -163.672C296.211 -163.672 297.045 -163.002 297.88 -162.332C298.716 -161.663 299.549 -160.993 301.221 -160.993C302.89 -160.993 303.725 -161.663 304.559 -162.332C305.394 -163.002 306.23 -163.672 307.899 -163.672C309.568 -163.672 310.404 -163.002 311.237 -162.332C312.073 -161.663 312.908 -160.993 314.577 -160.993C316.247 -160.993 317.082 -161.663 317.918 -162.332C318.751 -163.002 319.587 -163.672 321.256 -163.672C322.927 -163.672 323.761 -163.002 324.596 -162.332C325.432 -161.663 326.265 -160.993 327.937 -160.993C329.606 -160.993 330.439 -161.662 331.275 -162.332C332.11 -163.002 332.944 -163.672 334.615 -163.672C336.284 -163.672 337.12 -163.002 337.953 -162.332C338.789 -161.663 339.624 -160.993 341.293 -160.993C342.962 -160.993 343.798 -161.662 344.632 -162.332C345.467 -163.002 346.303 -163.672 347.972 -163.672C348.221 -163.672 348.453 -163.673 348.667 -163.674C351.336 -163.686 351.568 -163.688 353.657 -161.427C356.007 -158.884 356.004 -158.726 356 -155.575C356 -155.424 356 -155.266 356 -155.101C356 -153.293 355.326 -152.389 354.65 -151.485C353.977 -150.581 353.303 -149.678 353.303 -147.87C353.303 -146.062 353.977 -145.158 354.65 -144.254C355.326 -143.351 356 -142.447 356 -140.639C356 -138.831 355.326 -137.927 354.65 -137.023C353.977 -136.119 353.303 -135.215 353.303 -133.407C353.303 -131.6 353.977 -130.696 354.65 -129.792C355.326 -128.888 356 -127.984 356 -126.176C356 -126.172 356 -126.168 356 -126.163C356 -124.355 355.326 -123.451 354.65 -122.547C353.979 -121.644 353.305 -120.742 353.303 -118.939C353.305 -117.136 353.979 -116.233 354.65 -115.33C355.326 -114.426 356 -113.522 356 -111.714C356 -111.713 356 -111.712 356 -111.711C356 -111.71 356 -111.709 356 -111.708C356 -111.706 356 -111.705 356 -111.703C356 -111.702 356 -111.702 356 -111.701C356 -109.893 355.326 -108.989 354.65 -108.085C353.979 -107.182 353.305 -106.279 353.303 -104.477C353.305 -102.674 353.979 -101.771 354.65 -100.868C355.326 -99.9641 356 -99.0601 356 -97.2523C356 -97.2504 356 -97.2488 356 -97.2473C356 -97.2464 356 -97.2458 356 -97.2451C356 -97.2432 356 -97.241 356 -97.2384C356 -95.431 355.326 -94.527 354.653 -93.623C353.979 -92.7201 353.305 -91.8172 353.303 -90.0141C353.305 -88.2113 353.979 -87.3086 354.65 -86.4059C355.326 -85.5022 356 -84.5982 356 -82.7902C356 -82.7889 356 -82.7876 356 -82.7865C356 -82.7856 356 -82.7845 356 -82.7836C356 -82.781 356 -82.779 356 -82.7764C356 -80.9686 355.326 -80.0647 354.65 -79.1607C353.979 -78.258 353.305 -77.3553 353.303 -75.5526C353.305 -73.7494 353.979 -72.8465 354.653 -71.9436C355.326 -71.0396 356 -70.1356 356 -68.3282C356 -68.3267 356 -68.3256 356 -68.3245C356 -68.3234 356 -68.3226 356 -68.3217C356 -68.3204 356 -68.3191 356 -68.318C356 -68.3169 356 -68.3156 356 -68.3143C356 -66.5065 355.326 -65.6027 354.65 -64.6987C353.979 -63.7958 353.305 -62.8931 353.303 -61.09C353.305 -59.2872 353.979 -58.3843 354.65 -57.4816C355.326 -56.5774 356 -55.6734 356 -53.8654C356 -53.8635 356 -53.8615 356 -53.8589C356 -53.858 356 -53.8571 356 -53.856C356 -53.8549 356 -53.8536 356 -53.8523C356 -52.0446 355.326 -51.1406 354.65 -50.2366C353.979 -49.3339 353.305 -48.431 353.303 -46.6278C353.305 -44.8246 353.979 -43.9219 354.65 -43.019C355.326 -42.115 356 -41.2113 356 -39.4035C356 -39.4009 356 -39.3989 356 -39.3967C356 -39.3954 356 -39.3941 356 -39.393C356 -39.3921 356 -39.391 356 -39.3902C356 -37.5824 355.326 -36.6782 354.65 -35.7742C353.979 -34.8713 353.305 -33.9686 353.303 -32.1659C353.305 -30.3627 353.979 -29.4598 354.65 -28.5571C355.326 -27.6531 356 -26.7491 356 -24.9413C356 -24.9387 356 -24.9368 356 -24.9348C356 -24.9322 356 -24.9302 356 -24.9276C356 -23.12 355.326 -22.216 354.65 -21.3122C353.979 -20.4094 353.305 -19.5066 353.303 -17.7037C353.305 -15.9006 353.979 -14.9978 354.65 -14.095C355.326 -13.191 356 -12.2871 356 -10.4793C356 -10.4781 356 -10.4771 356 -10.4761C356 -10.4751 356 -10.4741 356 -10.4727C356 -10.471 356 -10.4696 356 -10.468C356 -10.4672 356 -10.4663 356 -10.4654C356 -8.6576 355.326 -7.75364 354.65 -6.84973C353.979 -5.94705 353.305 -5.04442 353.303 -3.24169C353.305 -1.43847 353.979 -0.535492 354.653 0.367442C355.326 1.27144 356 2.17541 356 3.98273C356 3.98415 356 3.98537 356 3.98653C356 3.98751 356 3.98843 356 3.98934C356 3.99199 356 3.99397 356 3.99661C356 5.80442 355.326 6.70841 354.65 7.61231C353.979 8.515 353.305 9.41763 353.303 11.2203C353.305 13.0236 353.979 13.9265 354.653 14.8295C355.326 15.7335 356 16.6375 356 18.4448C356 18.4474 356 18.4494 356 18.452C356 18.4534 356 18.4548 356 18.4564C356 18.4571 356 18.4579 356 18.4587C356 20.2664 355.326 21.1704 354.65 22.0744C354.346 22.4832 354.042 22.8921 353.799 23.3848C356.004 25.7808 356.004 25.9956 356 29.0835C356 29.2338 356 29.3907 356 29.555C356 30.2208 355.908 30.7639 355.759 31.2297C355.908 31.6961 356 32.2403 356 32.9075C356 32.9088 356 32.9099 356 32.9114C356 32.9123 356 32.9132 356 32.914V32.9208C356 34.7286 355.326 35.6326 354.65 36.5368C354.226 37.1063 353.802 37.6759 353.546 38.4715C353.802 39.2649 354.226 39.8334 354.65 40.4018C355.324 41.3058 356 42.2096 356 44.0169C356 44.683 355.908 45.2261 355.759 45.6919C355.908 46.1583 356 46.7025 356 47.3696C356 47.3716 356 47.3736 356 47.3762C356 47.3775 356 47.3786 356 47.3799C356 47.381 356 47.3821 356 47.3834C356 49.191 355.326 50.0947 354.65 50.9987C354.226 51.5683 353.802 52.138 353.546 52.9334C353.802 53.7269 354.226 54.2953 354.65 54.864C355.324 55.7677 356 56.6715 356 58.4791C356 58.4819 356 58.4841 355.998 58.4865C355.998 58.4887 355.998 58.4906 355.998 58.493H356C356 59.1556 355.908 59.6968 355.762 60.161C355.908 60.6259 356 61.1677 356 61.8316C356 61.9967 356 62.1545 356 62.3052C356.004 65.394 356.007 65.6066 353.795 68.0077C354.038 68.5038 354.344 68.9148 354.65 69.3259C355.324 70.2297 356 71.1337 356 72.9412C356 72.9425 356 72.9436 355.998 72.9447C355.998 72.946 355.998 72.9471 355.998 72.9484C355.998 72.9511 356 72.953 356 72.955C356 73.6209 355.908 74.1642 355.759 74.6299C355.908 75.0963 356 75.6405 356 76.3075C356 78.115 355.326 79.0188 354.65 79.9228C354.226 80.4919 353.802 81.061 353.546 81.8558C353.802 82.6499 354.226 83.2187 354.65 83.7878C355.324 84.6918 356 85.596 356 87.4038C356 87.4051 355.998 87.4064 355.998 87.408C355.998 87.4086 355.998 87.4095 355.998 87.4104C355.998 87.4119 355.998 87.4132 355.998 87.4143C356 87.4152 356 87.4163 356 87.4171C356 88.0832 355.908 88.6265 355.759 89.0923Z" fill="#F7F2DF"/>
<path fill-rule="evenodd" clip-rule="evenodd" d="M24.2902 268.306H335.591V-143.965H24.2902V268.306ZM22.1008 270.493H337.78V-146.152H22.1008V270.493Z" fill="#614731"/>
<path fill-rule="evenodd" clip-rule="evenodd" d="M118.165 128.521C116.064 127.472 117.454 119.822 118.165 115.502L120.512 101.312C121.192 97.1164 119.957 95.8201 116.435 95.8201C113.469 95.8201 109.144 97.1776 106.982 98.2262L107.075 98.3188C109.083 97.5479 109.978 98.2262 109.701 100.016L106.487 119.451C105.222 127.04 109.144 129.138 113.779 129.138C115.199 129.138 116.681 128.953 118.103 128.645L118.165 128.521Z" fill="#614731"/>
<path fill-rule="evenodd" clip-rule="evenodd" d="M113.268 91.6075C118.647 91.9284 123.05 89.2413 123.386 85.4062C123.627 82.6519 121.511 81.3275 119.64 81.1639C117.621 80.9874 115.236 82.1664 113.865 84.2272C115.177 86.2252 114.423 90.0234 113.247 91.5561L113.268 91.6075Z" fill="#614731"/>
<path fill-rule="evenodd" clip-rule="evenodd" d="M138.737 105.378C140.665 100.448 144.147 98.165 145.291 97.4148C145.406 97.3388 145.553 97.2757 145.702 97.2237C146.633 97.7211 147.081 99.5394 147.081 101.742C147.02 111.306 140.841 128.52 135.466 128.52C132.871 128.52 133.86 122.783 134.045 121.609L135.047 115.489C135.666 113.657 136.977 109.875 138.737 105.378ZM138.925 129.076C151.838 129.076 158.14 115.687 158.14 105.691C158.14 99.0273 154.866 95.3255 148.997 95.3255C147.678 95.3255 146.419 95.5326 145.216 96.032C145.063 96.0879 144.91 96.1552 144.762 96.2358C143.588 96.8029 142.467 97.6659 141.396 98.9161C140.043 100.295 138.579 102.241 137.535 104.909C137.061 106.123 136.619 107.284 136.213 108.371L139.976 85.392C140.656 81.1963 139.297 79.9006 135.775 79.9006C132.809 79.9006 128.485 81.2581 126.322 82.3073L126.415 82.4C128.423 81.6284 129.319 82.3074 129.041 84.0963L124.16 114.823C122.832 123.214 129.659 129.076 138.925 129.076Z" fill="#614731"/>
<path fill-rule="evenodd" clip-rule="evenodd" d="M167.198 129.137C168.928 129.137 169.699 128.982 171.336 128.643L171.461 128.519C169.432 127.687 170.677 121.216 171.645 116.825C171.81 116.319 173.364 111.58 175.712 105.58C177.922 99.9337 182.054 97.6294 182.518 97.3858C182.651 97.3159 182.821 97.2479 182.994 97.1874C184.355 97.5295 184.836 99.0415 184.836 100.292C184.836 103.407 182.55 105.321 180.265 105.321C179.894 109.022 182.55 110.75 185.33 110.75C190.829 110.75 193.918 106.616 193.918 102.482C193.918 98.78 191.385 95.3253 186.196 95.3253C185.226 95.3253 184.282 95.4504 183.361 95.7327C183.11 95.7965 182.406 95.9883 181.917 96.2461C181.089 96.6821 176.841 99.1569 174.511 105.111C173.798 106.93 173.162 108.628 172.612 110.137L174.704 101.31C175.662 97.1761 174.024 95.8185 170.502 95.8185C167.537 95.8185 163.212 97.1761 161.05 98.2247L161.142 98.3173C163.151 97.5464 164.077 98.2247 163.768 100.014L160.308 119.449C158.95 127.07 162.317 129.137 167.198 129.137Z" fill="#614731"/>
<path fill-rule="evenodd" clip-rule="evenodd" d="M213.816 96.1901C217.09 96.1901 216.719 100.417 216.133 103.625L215.453 107.389C215.256 108.499 215.023 109.617 214.757 110.724C214.734 110.792 214.714 110.853 214.689 110.923C214.188 112.352 213.482 114.135 212.665 116.196C212.343 117.011 212.006 117.861 211.663 118.74C210.163 122.574 207.747 124.884 206.16 126.071C206.107 126.075 206.053 126.084 206 126.084C204.394 126.084 203.56 123.4 203.56 120.87C203.56 110.967 207.73 96.1901 213.816 96.1901ZM224.69 115.194L227.963 96.0665C226.944 97.9179 225.677 98.5345 224.164 98.5345C221.013 98.5345 216.873 95.8201 211.931 95.8201C201.552 95.8201 192.378 107.852 192.378 117.662C192.378 123.339 194.664 129.076 201.15 129.076C202.588 129.076 203.972 128.796 205.302 128.12C205.468 128.051 205.652 127.964 205.83 127.855C207.275 126.97 210.851 124.358 212.864 119.208C213.207 118.331 213.543 117.482 213.864 116.671C213.879 116.635 213.891 116.601 213.906 116.565L213.322 119.143C211.561 126.886 216.102 129.076 221.353 129.076C222.836 129.076 224.319 128.953 225.741 128.645L225.833 128.521C222.65 128.614 223.763 120.5 224.69 115.194Z" fill="#614731"/>
<path fill-rule="evenodd" clip-rule="evenodd" d="M236.28 129.138C237.763 129.138 239.524 128.922 241.502 128.645L241.627 128.521C239.73 127.744 240.627 122.049 241.583 117.723C241.872 116.906 243.501 112.32 245.75 106.566C247.633 101.75 250.983 99.3288 252.319 98.5172C253.8 98.6518 253.933 100.654 253.426 103.841L250.954 119.143C249.718 126.886 254.012 129.107 259.109 129.107C260.592 129.107 262.137 128.922 263.62 128.645L263.742 128.521C260.839 128.028 261.642 120.5 262.57 115.194L264.051 106.433C264.762 102.237 265.039 95.8201 257.595 95.8201C255.922 95.8201 254.213 96.151 252.527 97.0413C252.492 97.0518 252.457 97.0546 252.42 97.0705C252.208 97.1691 247.124 99.5167 244.549 106.097C243.871 107.833 243.261 109.458 242.727 110.914L244.96 101.312C245.918 97.1776 244.282 95.8201 240.76 95.8201C237.794 95.8201 233.469 97.1776 231.308 98.2262L231.4 98.3188C233.408 97.5479 234.333 98.2262 234.025 100.016L230.567 119.451C229.208 127.071 231.4 129.138 236.28 129.138Z" fill="#614731"/>
<path fill-rule="evenodd" clip-rule="evenodd" d="M268.041 119.14C266.835 126.882 271.099 129.104 276.196 129.104C277.653 129.104 279.166 128.924 280.625 128.655C281.894 128.465 283.038 128.083 284.009 127.612C284.154 127.547 284.283 127.48 284.401 127.417C284.412 127.411 284.423 127.405 284.434 127.399C284.475 127.377 284.521 127.352 284.556 127.332C284.631 127.291 284.694 127.249 284.764 127.208C285.079 127.022 285.368 126.831 285.628 126.636C285.843 126.481 286.057 126.322 286.287 126.149C287.321 125.372 288.275 124.346 288.658 123.084C288.907 122.261 288.863 121.389 288.542 120.593C287.722 118.566 285.843 118.504 284.55 119.025C284.239 119.151 283.953 119.314 283.697 119.508C282.594 120.343 282.067 121.753 282.59 123.257C282.577 123.214 283.484 123.281 283.574 123.307C283.863 123.39 284.13 123.54 284.351 123.746C285.097 124.446 284.963 125.309 284.637 126.172C284.585 126.311 284.515 126.442 284.447 126.574C283.896 127.06 283.246 127.435 282.504 127.748C281.813 128.04 280.905 128.157 280.094 128.188C278.092 126.598 278.873 119.987 279.656 115.191L282.598 97.1411H291.88C291.898 96.8123 292.753 96.1071 292.753 96.1071C291.246 96.1071 285.965 96.217 284.456 96.217H282.749L284.692 84.5258H284.506C282.857 93.4141 279.319 95.8183 271.853 96.1923C270.25 96.1851 268.909 96.1792 268.833 96.1783C268.491 96.177 268.141 96.1877 267.885 96.3789C267.818 96.4294 267.448 97.1411 267.459 97.1411H271.482L268.041 119.14Z" fill="#614731"/>
<path fill-rule="evenodd" clip-rule="evenodd" d="M97.4119 73.0865C93.3959 73.0865 89.7511 76.1105 89.7511 80.737C89.7511 83.946 91.6351 86.4754 95.2804 86.7224C96.1458 84.1313 98.3079 82.9588 100.408 82.9588C102.158 82.9588 103.535 83.7404 104.381 84.978C104.48 85.2625 104.508 85.4921 104.537 85.6651C104.588 85.9629 104.623 86.2624 104.645 86.5634C104.772 88.3284 104.408 90.1586 103.629 92.2864C102.611 95.0635 101.191 97.8437 98.2025 102.911C96.2597 106.205 92.8385 111.912 90.717 115.442L85.1857 95.8804C83.7037 90.6353 83.9205 85.6072 89.5732 85.6072L89.6038 85.4527H63.9952L63.9644 85.6072C68.2884 85.6072 70.1432 89.1546 72.3051 96.435L82.8698 130.74L89.7364 119.303C89.7885 119.261 89.8372 119.212 89.8738 119.151C89.9372 119.045 96.2818 108.508 99.2277 103.514C99.3992 103.222 99.5644 102.94 99.7271 102.663L100.447 101.464C100.782 100.905 101.695 99.2713 102.247 98.2432C102.52 97.7366 102.689 97.3657 102.689 97.3657C102.991 96.7765 103.272 96.1827 103.54 95.5861C104.012 94.57 104.401 93.6326 104.745 92.6945C105.349 91.046 105.757 89.4788 105.899 87.9668C106.119 86.6486 106.247 85.3269 106.247 84.0074C106.247 76.5413 101.737 73.0865 97.4119 73.0865Z" fill="#614731"/>
<path fill-rule="evenodd" clip-rule="evenodd" d="M145.216 192.254C134.59 192.254 117.57 180.839 104.842 180.839C99.4677 180.839 93.661 183.893 88.0997 190.618L88.0691 190.588C94.9891 180.315 107.685 178.988 109.786 165.6L113.06 144.868C113.708 140.734 115.284 132.467 120.721 132.467C123.316 132.467 124.86 134.595 124.86 136.261C124.86 138.297 123.377 140.549 120.906 140.487C120.103 143.696 122.636 145.67 125.478 145.67C129.988 145.67 134.127 141.907 134.127 137.526C134.127 134.132 131.656 131.047 126.59 131.047C113.122 131.047 102.124 144.868 100.147 156.838L97.5839 172.849C95.9157 183.338 90.7565 185.59 87.3284 191.544L87.5131 191.636C89.4906 188.737 91.1579 188.273 93.3204 188.273C108.087 188.273 122.822 201.694 135.363 201.694C141.356 201.694 146.854 198.67 151.426 189.662L151.303 189.6C149.665 191.606 147.874 192.254 145.216 192.254Z" fill="#614731"/>
<path fill-rule="evenodd" clip-rule="evenodd" d="M147.265 136.433C147.506 133.679 145.39 132.355 143.519 132.191C141.501 132.014 139.115 133.194 137.744 135.253C139.057 137.251 138.303 141.05 137.126 142.582L137.147 142.634C142.527 142.955 146.929 140.268 147.265 136.433Z" fill="#614731"/>
<path fill-rule="evenodd" clip-rule="evenodd" d="M144.391 152.334C145.071 148.139 143.835 146.843 140.314 146.843C137.348 146.843 133.023 148.2 130.861 149.25L130.954 149.342C132.962 148.571 133.857 149.25 133.579 151.039L130.366 170.474C129.1 178.064 133.023 180.161 137.657 180.161C139.077 180.161 140.561 179.976 141.982 179.668L142.043 179.544C139.942 178.495 141.332 170.845 142.043 166.526L144.391 152.334Z" fill="#614731"/>
<path fill-rule="evenodd" clip-rule="evenodd" d="M192.768 132.191C190.749 132.014 188.364 133.194 186.993 135.254C188.306 137.252 187.551 141.05 186.375 142.582L186.395 142.634C191.775 142.955 196.178 140.268 196.514 136.433C196.755 133.679 194.639 132.355 192.768 132.191Z" fill="#614731"/>
<path fill-rule="evenodd" clip-rule="evenodd" d="M189.562 146.843C186.596 146.843 182.271 148.2 180.109 149.25L180.202 149.342C182.21 148.571 183.105 149.25 182.827 151.039L179.615 170.474C178.349 178.063 182.271 180.161 186.906 180.161C188.325 180.161 189.809 179.976 191.23 179.668L191.292 179.544C189.19 178.495 190.58 170.844 191.292 166.526L193.639 152.334C194.319 148.139 193.084 146.843 189.562 146.843Z" fill="#614731"/>
<path fill-rule="evenodd" clip-rule="evenodd" d="M224.131 146.843C222.269 146.843 220.362 147.252 218.491 148.387C217.892 148.682 213.215 151.143 210.757 157.427C210.355 158.457 209.978 159.445 209.624 160.386L211.497 152.334C212.454 148.2 210.817 146.843 207.296 146.843C204.331 146.843 200.006 148.2 197.843 149.25L197.936 149.342C199.944 148.571 200.871 149.25 200.562 151.039L197.102 170.474C195.743 178.094 197.936 180.161 202.817 180.161C204.299 180.161 206.061 179.945 208.037 179.668L208.161 179.544C206.132 178.712 207.304 172.236 208.324 167.844C208.965 165.954 210.253 162.257 211.959 157.896C214.171 152.241 218.405 149.876 219.024 149.561C220.349 149.83 220.449 151.801 219.961 154.864L217.489 170.165C216.254 177.909 220.548 180.13 225.645 180.13C227.128 180.13 228.672 179.945 230.155 179.668L230.28 179.544C227.375 179.05 228.178 171.523 229.105 166.217L230.586 157.455C231.297 153.26 231.575 146.843 224.131 146.843Z" fill="#614731"/>
<path fill-rule="evenodd" clip-rule="evenodd" d="M244.989 171.893C244.989 161.99 249.158 147.213 255.244 147.213C258.518 147.213 258.147 151.439 257.56 154.648L257.007 157.713C256.989 157.748 256.965 157.779 256.954 157.82C256.941 157.869 255.583 162.801 253.478 169.127C252.074 173.351 249.666 175.768 247.883 177.055C247.732 177.085 247.581 177.107 247.428 177.107C245.822 177.107 244.989 174.423 244.989 171.893ZM265.593 149.558C262.441 149.558 258.302 146.843 253.36 146.843C242.981 146.843 233.806 158.874 233.806 168.685C233.806 174.361 236.092 180.1 242.578 180.1C244.466 180.1 246.262 179.62 247.962 178.39C248.176 178.276 248.399 178.149 248.559 178.034C250.484 176.648 253.098 174.043 254.609 169.501C255.18 167.783 255.694 166.174 256.143 164.73L252.588 183.677C251.444 189.817 249.961 193.333 245.203 193.333C241.53 193.333 240.417 191.206 240.417 189.509C240.417 187.873 241.467 186.238 243.875 185.961C244.247 182.629 241.467 180.84 238.934 180.84C235.412 180.84 232.634 183.369 232.634 186.825C232.634 192.439 239.737 193.549 244.864 193.549C256.604 193.549 262.998 187.688 264.326 179.235L269.393 147.09C268.371 148.941 267.107 149.558 265.593 149.558Z" fill="#614731"/>
<path fill-rule="evenodd" clip-rule="evenodd" d="M178.301 155.922C178.303 155.817 178.311 155.713 178.311 155.607C178.311 149.438 174.48 146.352 170.711 146.352C167.252 146.352 164.038 148.944 164.038 153.139C164.038 155.731 165.768 158.137 168.92 158.322C169.709 153.987 176.126 153.508 177.246 157.462C177.246 159.889 176.483 162.484 174.744 166.062C172.511 170.652 168.302 174.004 166.596 175.231C164.29 176.893 160.663 177.901 159.671 178.157C157.909 177.561 158.117 174.837 158.849 170.231L161.692 152.337C162.371 148.141 161.135 146.846 157.613 146.846C154.648 146.846 150.324 148.203 148.161 149.252L148.254 149.345C150.261 148.573 151.188 149.252 150.879 151.041L147.668 171.032C146.678 177.141 149.273 180.102 154.895 180.102C156.847 180.102 158.835 179.74 160.786 179.084C162.353 178.634 165.245 177.669 167.292 176.195C169.071 174.914 173.462 171.415 175.813 166.581C177.947 162.194 178.688 159.17 178.371 156.143C178.364 156.063 178.339 155.989 178.301 155.922Z" fill="#614731"/>
<path fill-rule="evenodd" clip-rule="evenodd" d="M72.941 222.669C72.941 220.758 72.3285 219.582 70.9051 219.582C67.8157 219.582 67.2999 224.775 67.2999 227.176C67.2999 229.037 67.6925 229.944 68.9679 229.944C71.3225 229.944 72.941 226.073 72.941 222.669ZM75.2956 225.461C75.0511 227.027 74.8056 228.179 74.8056 228.989C74.8056 229.577 75.0023 230.016 75.5664 230.016C76.0324 230.016 76.3758 229.697 76.915 228.963L77.4298 229.33C76.8164 230.311 75.8843 230.997 74.6831 230.997C73.113 230.997 72.4269 230.189 72.4269 228.939C72.4269 228.596 72.4751 228.229 72.5731 227.812L72.4269 227.788C71.6416 229.601 70.2185 230.997 68.085 230.997C65.607 230.997 64.3811 229.404 64.3811 226.684C64.3811 223.158 66.2457 218.774 70.4398 218.774C72.0343 218.774 72.9169 219.532 73.3831 220.537L74.5357 212.992H72.5484L72.6223 212.356H77.479L75.2956 225.461Z" fill="#614731"/>
<path fill-rule="evenodd" clip-rule="evenodd" d="M86.2338 219.434C84.7859 219.434 83.3144 221.444 82.9217 224.871C85.5957 224.701 87.5332 223.844 87.5332 221.247C87.5332 220.021 87.067 219.434 86.2338 219.434ZM90.0838 221.59C90.0838 224.113 87.5577 224.897 85.4723 225.288C84.6391 225.435 83.7565 225.533 82.8732 225.581V225.926C82.8732 228.913 83.5598 229.992 85.3017 229.992C86.6998 229.992 88.2196 229.232 89.1032 226.66L89.7658 226.857C88.9564 229.601 87.043 230.997 84.3204 230.997C81.4504 230.997 79.9052 229.282 79.9052 226.392C79.9052 222.228 82.6277 218.774 86.6265 218.774C88.8083 218.774 90.0838 219.753 90.0838 221.59Z" fill="#614731"/>
<path fill-rule="evenodd" clip-rule="evenodd" d="M98.5448 229.258C97.7356 230.433 96.8762 230.997 95.6256 230.997C93.9821 230.997 93.075 230.165 93.075 228.596C93.075 227.716 93.3442 226.195 93.9329 223.084L95.8708 212.992H93.9821L94.081 212.356H98.7896C98.3729 214.291 96.1416 226.245 95.8463 228.131C95.6748 229.232 95.6015 230.042 96.4109 230.042C96.9501 230.042 97.3922 229.697 97.9802 228.867L98.5448 229.258Z" fill="#614731"/>
<path fill-rule="evenodd" clip-rule="evenodd" d="M103.597 215.344C103.597 214.266 104.381 213.41 105.632 213.41C106.563 213.41 107.201 213.825 107.201 214.83C107.201 215.957 106.417 216.765 105.166 216.765C103.989 216.765 103.597 216.128 103.597 215.344ZM107.201 229.282C106.467 230.385 105.607 230.997 104.307 230.997C102.738 230.997 101.806 230.287 101.806 228.694C101.806 228.205 101.929 227.274 102.173 226.123C102.468 224.799 103.375 220.587 103.597 219.657H101.635L101.757 219.019H106.467C106.172 220.316 104.676 227.665 104.601 228.131C104.504 228.572 104.455 228.939 104.455 229.234C104.455 229.846 104.7 230.042 105.141 230.042C105.657 230.042 106.049 229.699 106.663 228.891L107.201 229.282Z" fill="#614731"/>
<path fill-rule="evenodd" clip-rule="evenodd" d="M119.441 226.881C118.877 228.766 117.38 230.997 114.118 230.997C111.15 230.997 109.605 229.232 109.605 226.341C109.605 222.35 112.034 218.774 116.571 218.774C119.024 218.774 120.152 220.096 120.152 221.688C120.152 222.888 119.539 223.892 118.141 223.892C117.184 223.892 116.621 223.379 116.621 222.643C116.621 222.252 116.743 221.811 116.988 221.444H117.872C118.018 221.101 118.067 220.806 118.067 220.537C118.067 219.777 117.528 219.386 116.644 219.386C113.677 219.386 112.622 223.158 112.622 226.317C112.622 228.915 113.285 230.016 115.001 230.016C116.718 230.016 117.994 228.841 118.73 226.66L119.441 226.881Z" fill="#614731"/>
<path fill-rule="evenodd" clip-rule="evenodd" d="M125.006 215.344C125.006 214.266 125.791 213.41 127.041 213.41C127.973 213.41 128.611 213.825 128.611 214.83C128.611 215.957 127.826 216.765 126.575 216.765C125.398 216.765 125.006 216.128 125.006 215.344ZM128.611 229.282C127.876 230.385 127.017 230.997 125.718 230.997C124.147 230.997 123.215 230.287 123.215 228.694C123.215 228.205 123.338 227.274 123.583 226.123C123.877 224.799 124.785 220.587 125.006 219.657H123.044L123.166 219.019H127.876C127.581 220.316 126.085 227.665 126.012 228.131C125.914 228.572 125.864 228.939 125.864 229.234C125.864 229.846 126.11 230.042 126.551 230.042C127.066 230.042 127.459 229.699 128.072 228.891L128.611 229.282Z" fill="#614731"/>
<path fill-rule="evenodd" clip-rule="evenodd" d="M139.378 222.547C139.378 220.465 138.863 219.362 137.343 219.362C134.227 219.362 133.688 224.996 133.688 227.152C133.688 229.184 134.252 230.359 135.749 230.359C138.986 230.359 139.378 224.897 139.378 222.547ZM130.916 226.392C130.916 222.571 133.197 218.774 137.637 218.774C140.727 218.774 142.199 220.465 142.199 223.329C142.199 227.322 139.82 230.997 135.503 230.997C132.388 230.997 130.916 229.232 130.916 226.392Z" fill="#614731"/>
<path fill-rule="evenodd" clip-rule="evenodd" d="M147.348 219.654H145.509L145.607 219.019H150.267C149.973 220.242 148.575 227.126 148.476 227.665C148.403 228.056 148.354 228.399 148.354 228.718C148.354 229.404 148.599 229.846 149.482 229.846C151.199 229.846 152.719 227.248 153.579 223.991C154.044 222.3 154.289 220.904 154.437 219.141C155.197 219.165 156.839 219.019 157.527 218.872C156.839 222.079 156.031 225.998 155.761 227.567C155.639 228.277 155.589 228.793 155.589 229.16C155.589 229.673 155.785 230.066 156.325 230.066C156.839 230.066 157.257 229.723 157.821 228.939L158.336 229.306C157.723 230.213 156.864 230.997 155.541 230.997C153.921 230.997 153.186 230.285 153.186 229.013C153.186 228.596 153.259 228.107 153.431 227.543L153.627 226.807L153.48 226.759C152.548 228.793 151.174 230.997 148.501 230.997C146.49 230.997 145.754 229.846 145.754 228.253C145.754 227.91 145.779 227.543 145.851 227.15C146.171 225.363 146.857 222.055 147.348 219.654Z" fill="#614731"/>
<path fill-rule="evenodd" clip-rule="evenodd" d="M167.459 228.032C167.459 226.807 166.379 226.365 165.201 225.926C163.681 225.363 162.013 224.799 162.013 222.571C162.013 220.144 164.392 218.774 167.09 218.774C169.248 218.774 170.769 219.558 170.769 221.199C170.769 222.202 170.205 222.986 169.028 222.986C168.267 222.986 167.655 222.595 167.655 221.933C167.655 221.566 167.753 221.223 168.023 220.88H168.759C168.832 220.71 168.856 220.561 168.856 220.415C168.856 219.827 168.267 219.46 167.189 219.46C165.545 219.46 164.319 220.292 164.319 221.614C164.319 222.693 165.373 223.182 166.6 223.672C168.169 224.286 169.985 224.972 169.985 227.027C169.985 229.452 167.679 230.997 164.638 230.997C161.891 230.997 160.614 229.819 160.614 228.301C160.614 227.2 161.277 226.44 162.43 226.44C163.215 226.44 163.754 226.931 163.754 227.641C163.754 227.958 163.681 228.301 163.436 228.62H162.651C162.577 228.766 162.553 228.939 162.553 229.085C162.553 229.747 163.191 230.237 164.638 230.237C166.281 230.237 167.459 229.503 167.459 228.032Z" fill="#614731"/>
<path fill-rule="evenodd" clip-rule="evenodd" d="M179.427 229.258C178.618 230.433 177.759 230.997 176.508 230.997C174.865 230.997 173.957 230.165 173.957 228.596C173.957 227.716 174.228 226.195 174.816 223.084L176.754 212.992H174.865L174.963 212.356H179.672C179.255 214.291 177.024 226.245 176.729 228.131C176.557 229.232 176.483 230.042 177.293 230.042C177.833 230.042 178.274 229.697 178.862 228.867L179.427 229.258Z" fill="#614731"/>
<path fill-rule="evenodd" clip-rule="evenodd" d="M181.021 234.671C180.849 234.916 180.751 235.185 180.751 235.405C180.751 235.796 181.045 236.091 181.659 236.091C183.007 236.091 184.7 234.916 186.883 231.609C186.049 228.498 184.921 224.456 184.037 221.614C183.743 220.609 183.498 220.34 183.057 220.34C182.541 220.34 182.149 220.856 181.634 222.202L180.923 221.909C181.585 220.194 182.321 218.944 184.209 218.944C185.485 218.944 186.27 219.63 186.76 221.271C187.497 223.672 188.232 226.392 188.87 228.939C190.071 227.126 191.911 223.967 191.911 222.324C191.911 221.688 191.592 221.247 191.126 221.223L190.341 222.202C189.581 221.957 189.066 221.345 189.066 220.561C189.066 219.532 189.777 218.774 190.929 218.774C192.353 218.774 193.138 219.875 193.138 221.369C193.138 223.648 191.175 226.979 189.605 229.282C187.3 232.662 184.946 236.852 181.462 236.852C179.647 236.852 178.543 235.847 178.543 234.254C178.543 233.005 179.377 232.172 180.53 232.172C181.634 232.172 182.468 233.029 182.099 234.499L181.021 234.671Z" fill="#614731"/>
<path fill-rule="evenodd" clip-rule="evenodd" d="M209.69 228.742C209.69 227.102 210.794 223.943 211.211 222.031C211.334 221.542 211.383 221.149 211.383 220.83C211.383 220.194 211.138 219.899 210.549 219.899C208.955 219.899 207.312 222.204 206.502 224.578C205.938 226.245 205.594 228.325 205.349 230.654C204.589 230.63 202.97 230.752 202.283 230.899L203.239 226.466L205.349 212.992H203.509L203.583 212.356H208.219L205.987 223.255L206.134 223.329C207.164 221.223 208.783 218.774 211.407 218.774C213.125 218.774 214.007 219.678 214.007 221.321C214.007 221.787 213.933 222.374 213.811 222.914C213.517 224.089 212.806 226.759 212.537 227.958C212.437 228.351 212.315 228.891 212.315 229.282C212.315 229.846 212.585 230.042 213.002 230.042C213.591 230.042 214.13 229.575 214.621 228.915L215.136 229.33C214.474 230.285 213.566 230.997 212.193 230.997C210.623 230.997 209.69 230.237 209.69 228.742Z" fill="#614731"/>
<path fill-rule="evenodd" clip-rule="evenodd" d="M224.135 219.434C222.688 219.434 221.217 221.444 220.824 224.871C223.498 224.701 225.435 223.844 225.435 221.247C225.435 220.021 224.969 219.434 224.135 219.434ZM227.985 221.59C227.985 224.113 225.461 224.897 223.374 225.288C222.541 225.435 221.659 225.533 220.775 225.581V225.926C220.775 228.913 221.462 229.992 223.204 229.992C224.602 229.992 226.122 229.232 227.005 226.66L227.668 226.857C226.859 229.601 224.945 230.997 222.223 230.997C219.353 230.997 217.807 229.282 217.807 226.392C217.807 222.228 220.53 218.774 224.528 218.774C226.71 218.774 227.985 219.753 227.985 221.59Z" fill="#614731"/>
<path fill-rule="evenodd" clip-rule="evenodd" d="M238.971 222.765C238.971 220.587 238.212 219.582 236.913 219.582C234.41 219.582 233.332 223.11 233.332 226.979C233.332 228.742 233.601 229.944 235.023 229.944C237.256 229.944 238.971 226.147 238.971 222.765ZM243.436 229.33C242.847 230.263 241.939 230.997 240.688 230.997C239.069 230.997 238.407 230.213 238.407 229.013C238.407 228.62 238.481 228.205 238.603 227.74L238.481 227.716C237.72 229.428 236.346 230.997 234.04 230.997C231.638 230.997 230.438 229.404 230.438 226.636C230.438 223.108 232.4 218.774 236.471 218.774C237.991 218.774 238.899 219.436 239.463 220.659L239.879 219.067C240.736 219.093 241.743 219.019 242.552 218.896C241.939 221.909 241.228 225.411 240.787 228.546C240.736 228.793 240.736 229.013 240.736 229.184C240.736 229.797 240.957 230.042 241.449 230.042C241.891 230.042 242.381 229.723 242.922 228.939L243.436 229.33Z" fill="#614731"/>
<path fill-rule="evenodd" clip-rule="evenodd" d="M251.726 229.258C250.917 230.433 250.057 230.997 248.806 230.997C247.163 230.997 246.255 230.165 246.255 228.596C246.255 227.716 246.524 226.195 247.113 223.084L249.051 212.992H247.163L247.262 212.356H251.969C251.553 214.291 249.322 226.245 249.027 228.131C248.856 229.232 248.782 230.042 249.591 230.042C250.132 230.042 250.573 229.697 251.16 228.867L251.726 229.258Z" fill="#614731"/>
<path fill-rule="evenodd" clip-rule="evenodd" d="M259.131 219.657L257.856 226.516C257.637 227.667 257.538 228.353 257.538 228.745C257.538 229.481 257.882 229.872 258.593 229.872C259.477 229.872 260.063 229.308 260.824 228.255L261.388 228.672C260.579 229.946 259.378 230.999 257.735 230.999C255.624 230.999 254.767 229.824 254.767 228.353C254.767 227.495 254.937 226.564 255.233 225.12L256.287 219.657H254.52L254.618 219.021H256.386L256.852 216.178L259.818 215.419L259.229 219.021H261.806L261.708 219.657H259.131Z" fill="#614731"/>
<path fill-rule="evenodd" clip-rule="evenodd" d="M271.296 228.742C271.296 227.102 272.4 223.943 272.818 222.031C272.941 221.542 272.989 221.149 272.989 220.83C272.989 220.194 272.744 219.899 272.155 219.899C270.561 219.899 268.918 222.204 268.108 224.578C267.544 226.245 267.201 228.325 266.956 230.654C266.194 230.63 264.576 230.752 263.891 230.899L264.847 226.466L266.956 212.992H265.116L265.19 212.356H269.826L267.592 223.255L267.741 223.329C268.771 221.223 270.39 218.774 273.015 218.774C274.73 218.774 275.614 219.678 275.614 221.321C275.614 221.787 275.539 222.374 275.417 222.914C275.124 224.089 274.413 226.759 274.144 227.958C274.043 228.351 273.923 228.891 273.923 229.282C273.923 229.846 274.192 230.042 274.61 230.042C275.198 230.042 275.736 229.575 276.228 228.915L276.742 229.33C276.08 230.285 275.172 230.997 273.798 230.997C272.23 230.997 271.296 230.237 271.296 228.742Z" fill="#614731"/>
<path fill-rule="evenodd" clip-rule="evenodd" d="M278.554 234.671C278.383 234.916 278.285 235.185 278.285 235.405C278.285 235.796 278.578 236.091 279.192 236.091C280.54 236.091 282.233 234.916 284.416 231.609C283.583 228.498 282.454 224.456 281.57 221.614C281.277 220.609 281.032 220.34 280.59 220.34C280.076 220.34 279.682 220.856 279.168 222.202L278.457 221.909C279.118 220.194 279.853 218.944 281.743 218.944C283.018 218.944 283.804 219.63 284.294 221.271C285.031 223.672 285.766 226.392 286.403 228.939C287.606 227.126 289.445 223.967 289.445 222.324C289.445 221.688 289.126 221.247 288.66 221.223L287.875 222.202C287.116 221.957 286.599 221.345 286.599 220.561C286.599 219.532 287.31 218.774 288.463 218.774C289.887 218.774 290.67 219.875 290.67 221.369C290.67 223.648 288.708 226.979 287.14 229.282C284.834 232.662 282.478 236.852 278.996 236.852C277.18 236.852 276.077 235.847 276.077 234.254C276.077 233.005 276.911 232.172 278.064 232.172C279.168 232.172 280.002 233.029 279.634 234.499L278.554 234.671Z" fill="#614731"/>
</g>
<defs>
<clipPath id="clip0_5_361">
<rect width="350" height="284" fill="white" transform="translate(6)"/>
</clipPath>
</defs>
</svg>
