<svg fill="none" height="130" viewBox="0 0 160 130" width="160" xmlns="http://www.w3.org/2000/svg"><g clip-rule="evenodd" fill-rule="evenodd"><path d="m159.89 40.7817c.068.2135.11.4625.11.7678h-.528c-.029.0404-.059.0805-.089.1206-.308.4132-.616.8264-.616 1.6517 0 .8254.308 1.2387.616 1.6519.308.4138.617.8276.617 1.6551 0 .0012-.001.0021-.001.003v.0017c.001.0005.001.0009.001.0013 0 .8276-.309 1.2414-.617 1.6553-.308.4132-.616.8265-.616 1.6517 0 .8254.308 1.2386.616 1.6519.308.4137.617.8275.617 1.655 0 .0007 0 .0012-.001.0018v.0013.0016c.001.0006.001.0011.001.0017 0 .8273-.309 1.2411-.617 1.6549-.308.4133-.616.8266-.616 1.652 0 .8252.308 1.2384.616 1.6516.308.4138.617.8276.617 1.6551 0 .0007-.001.0013-.001.002v.0013.0013c.001.0005.001.0011.001.0017 0 .8275-.309 1.2413-.617 1.6551-.308.4133-.616.8265-.616 1.6519 0 .8252.308 1.2385.616 1.6517.308.4138.617.8276.617 1.6549 0 .0007-.001.0013-.001.0019v.0015.0018c.001.0003.001.0007.001.0012 0 .8275-.309 1.2413-.617 1.6551-.308.4132-.616.8265-.616 1.6518s.308 1.2385.616 1.6518c.308.4138.617.8276.617 1.6549 0 .0006 0 .0011-.001.0017v.0016.0013c.001.0005.001.0011.001.0018 0 .8274-.309 1.2412-.617 1.655-.308.4133-.616.8265-.616 1.6519 0 .8252.308 1.2384.616 1.6517.308.4139.617.8277.617 1.6552 0 .0006-.001.0011-.001.0017v.0014l.001.003c0 .8275-.309 1.2414-.617 1.6552-.308.4133-.616.8266-.616 1.6518 0 .8253.308 1.2386.616 1.6518.308.4138.617.8276.617 1.6551 0 .0012-.001.0021-.001.003v.0017c.001.0005.001.0011.001.0017 0 .8273-.309 1.2411-.617 1.6548-.308.4134-.616.8267-.616 1.6521 0 .8252.308 1.2384.616 1.6516.308.4137.617.8275.617 1.6551 0 .0007-.001.0013-.001.0019v.0014.0018c.001.0004.001.0008.001.0012 0 .8275-.309 1.2413-.617 1.6551-.308.4132-.616.8265-.616 1.6519 0 .8252.308 1.2383.616 1.6515.308.4138.617.8276.617 1.6551 0 .0012-.001.0021-.001.0033v.0013c.001.0006.001.0011.001.0018 0 .8279-.309 1.2409-.617 1.6549-.308.413-.616.827-.616 1.652s.308 1.238.616 1.652.617.827.617 1.655c0 0 0 .001-.001.001v.002.001c.001.001.001.001.001.002 0 .828-.309 1.241-.617 1.655-.308.413-.616.827-.616 1.652s.308 1.238.616 1.652.617.827.617 1.655v.216c.002 1.443.002 1.515-1.072 2.679-.053.058-.101.11-.149.161-.008.083-.013.168-.013.26 0 .828.309 1.241.617 1.655s.617.828.617 1.655c0 .828-.309 1.241-.617 1.655s-.617.828-.617 1.655c0 .828.309 1.241.617 1.655s.617.828.617 1.655v.216c.002 1.443.002 1.515-1.072 2.68-.954 1.035-1.06 1.034-2.28 1.028-.098 0-.204-.001-.318-.001-.764 0-1.145-.306-1.527-.613-.382-.306-.763-.613-1.526-.613-.764 0-1.145.307-1.527.613-.382.307-.763.613-1.527.613-.763 0-1.145-.306-1.526-.613-.382-.306-.764-.613-1.527-.613s-1.145.307-1.527.613c-.381.307-.763.613-1.526.613s-1.145-.306-1.527-.613c-.381-.306-.763-.613-1.526-.613-.764 0-1.145.307-1.527.613-.382.307-.763.613-1.527.613-.763 0-1.145-.306-1.526-.613-.382-.306-.764-.613-1.527-.613s-1.145.307-1.526.613c-.382.307-.764.613-1.527.613s-1.145-.306-1.527-.613c-.381-.306-.763-.613-1.526-.613s-1.145.307-1.527.613c-.381.307-.763.613-1.526.613-.764 0-1.145-.306-1.527-.613-.381-.306-.763-.613-1.526-.613-.764 0-1.145.307-1.527.613-.382.307-.763.613-1.527.613-.763 0-1.145-.306-1.526-.613-.382-.306-.764-.613-1.527-.613s-1.145.307-1.526.613c-.382.307-.764.613-1.527.613s-1.145-.306-1.526-.613c-.382-.306-.764-.613-1.527-.613s-1.145.307-1.527.613c-.381.307-.763.613-1.526.613-.764 0-1.145-.306-1.527-.613-.382-.306-.763-.613-1.526-.613-.764 0-1.145.307-1.527.613-.382.307-.763.613-1.526.613-.764 0-1.145-.306-1.5271-.613-.3817-.306-.7633-.613-1.5267-.613-.7633 0-1.1449.307-1.5266.613-.3817.307-.7633.613-1.5267.613-.7633 0-1.145-.306-1.5266-.613-.3817-.306-.7633-.613-1.5267-.613-.7633 0-1.145.307-1.5266.613-.3817.307-.7632.613-1.5264.613-.7633 0-1.145-.306-1.5266-.613-.3817-.306-.7634-.613-1.5267-.613s-1.145.307-1.5266.613c-.3817.307-.7634.613-1.5267.613s-1.145-.306-1.5266-.613c-.3817-.306-.7634-.613-1.5267-.613-.7632 0-1.1448.307-1.5263.613-.3816.307-.7632.613-1.5264.613-.7633 0-1.145-.306-1.5267-.613-.3816-.306-.7633-.613-1.5266-.613s-1.145.307-1.5267.613c-.3816.307-.7633.613-1.5266.613-.7634 0-1.145-.306-1.5267-.613-.3816-.306-.7632-.613-1.5263-.613-.7633 0-1.145.307-1.5267.613-.3816.307-.7633.613-1.5266.613-.7634 0-1.145-.306-1.5267-.613-.3816-.306-.7633-.613-1.5266-.613-.7634 0-1.145.307-1.5267.613-.3817.307-.7633.613-1.5266.613-.7632 0-1.1448-.306-1.5264-.613-.3816-.306-.7633-.613-1.5266-.613-.7634 0-1.145.307-1.5267.613-.3817.307-.7633.613-1.5267.613-.7631 0-1.1447-.306-1.5263-.613-.3816-.306-.7633-.613-1.5267-.613-.7633 0-1.145.307-1.5266.613-.3816.307-.7632.613-1.5264.613-.7633 0-1.1449-.306-1.5266-.613-.3817-.306-.7633-.613-1.5267-.613-.7633 0-1.145.307-1.5266.613-.3817.307-.7633.613-1.5267.613-.7633 0-1.145-.306-1.5266-.613-.3817-.306-.7634-.613-1.5267-.613-.7631 0-1.1447.307-1.5263.613-.3817.307-.7633.613-1.5267.613-.7633 0-1.145-.306-1.5266-.613-.3817-.306-.7634-.613-1.5267-.613s-1.145.307-1.5266.613c-.3817.307-.7634.613-1.5267.613-.7631 0-1.1447-.306-1.5263-.613-.3817-.306-.7633-.613-1.5267-.613-.7631 0-1.1447.307-1.5263.613-.3817.307-.7633.613-1.5267.613-.7633 0-1.145-.306-1.5267-.613-.3816-.306-.7633-.613-1.5266-.613s-1.145.307-1.5267.613c-.3816.307-.7633.613-1.5266.613-.7634 0-1.145-.306-1.5267-.613-.3816-.306-.7632-.613-1.5263-.613-.7633 0-1.145.307-1.5267.613-.3816.307-.7633.613-1.52663.613s-1.14499-.306-1.52665-.613c-.38167-.306-.76333-.613-1.52666-.613-.76332 0-1.14499.307-1.52665.613-.38166.307-.76333.613-1.52665.613-.11408 0-.21985.001-.31836.001-1.21929.006-1.32539.007-2.28025-1.028-1.07362021-1.164-1.07350751-1.237-1.07125658-2.679.00010776-.069.00022041-.141.00022041-.217 0-.827.30834617-1.241.61667917-1.655.308306-.414.616597-.827.616597-1.655 0-.827-.308318-1.241-.616637-1.655-.30832-.414-.61663917-.827-.61663917-1.655 0-.827.30829217-1.241.61659817-1.655.308333-.414.616678-.827.616678-1.655 0-.092-.00488-.177-.0125-.26-.04788-.051-.09668-.103-.14974-.161-1.07362025-1.164-1.07350751-1.236-1.07125658-2.678.00010776-.069.00022041-.141.00022041-.217 0-.828.30827917-1.241.61654017-1.655.307844-.414.615666-.827.616436-1.652-.00077-.825-.30862-1.239-.616479-1.652-.308247-.414-.61649717-.827-.61649717-1.655 0-.001.00007672-.001.0001532-.002.000076 0 .00015177-.001.00015177-.001 0-.001-.00006614-.001-.00013681-.002-.00008109 0-.00016816-.001-.00016816-.001 0-.828.30822217-1.241.61645517-1.655.307872-.414.615751-.827.616521-1.652-.00077-.825-.308592-1.239-.616436-1.652-.308261-.414-.61654017-.827-.61654017-1.6549 0-.0007.00008758-.0012.00016888-.0018.0000704-.0004.00013609-.0008.00013609-.0013 0-.0006-.00007625-.0011-.00015249-.0016-.00007624-.0006-.00015248-.0011-.00015248-.0017 0-.8275.30828017-1.2413.61654217-1.6551.307844-.4132.615664-.8263.616434-1.6515-.00077-.8254-.30862-1.2387-.616479-1.6519-.308247-.4138-.61649717-.8276-.61649717-1.6551 0-.0006.00008707-.0012.00016816-.0017.00007067-.0005.00013681-.0009.00013681-.0013 0-.0006-.00007577-.0011-.00015177-.0017-.00007648-.0005-.0001532-.001-.0001532-.0016 0-.8276.30827917-1.2414.61654017-1.6551.307844-.4132.615666-.8264.616436-1.6516-.00077-.8254-.308649-1.2387-.616521-1.6521-.308233-.4137-.61645517-.8275-.61645517-1.6548 0-.0006.00007624-.0012.00015248-.0017s.00015249-.0011.00015249-.0017c0-.0004-.00006554-.0008-.00013585-.0013-.00008137-.0005-.00016912-.0011-.00016912-.0017 0-.8275.30825017-1.2413.61649717-1.6551.307859-.4132.615709-.8265.616479-1.6518-.00077-.8252-.308592-1.2385-.616436-1.6518-.308261-.4138-.61654017-.8277-.61654017-1.6552l.00030497-.003c0-.0007-.00008708-.0012-.00016817-.0018-.00007067-.0004-.0001368-.0008-.0001368-.0013 0-.8275.30827917-1.2413.61654017-1.6552.307844-.4133.615666-.8265.616436-1.6517-.00077-.8254-.308622-1.2386-.616481-1.6519-.308246-.4138-.61649517-.8276-.61649517-1.655 0-.0007.00008827-.0013.00016983-.0018.00007004-.0004.00013514-.0009.00013514-.0013 0-.0006-.00007625-.0011-.00015249-.0016-.00007624-.0006-.00015248-.0011-.00015248-.0017 0-.8273.30824917-1.2411.61649517-1.6549.307859-.4133.615711-.8265.616481-1.6518-.00077-.8253-.308619-1.2386-.616477-1.6518-.308247-.4138-.61649917-.8276-.61649917-1.6551 0-.0006.00007576-.0011.00015176-.0015.00007648-.0005.00015321-.0009.00015321-.0015s-.00007577-.0012-.00015177-.0017c-.00007648-.0005-.0001532-.0011-.0001532-.0017 0-.8273.30825017-1.2411.61649717-1.6549.307859-.4132.615709-.8265.616479-1.6517-.00077-.8254-.30862-1.2386-.616479-1.6519-.308247-.4138-.61649717-.8276-.61649717-1.6551 0-.0006.00008758-.0012.00016888-.0017.0000704-.0005.00013609-.0009.00013609-.0013 0-.0006-.00007577-.0011-.00015177-.0017-.00007648-.0005-.0001532-.001-.0001532-.0016 0-.8275.30827917-1.2413.61654017-1.6551.307844-.4132.615666-.8264.616436-1.6516-.00077-.8254-.308649-1.2387-.616521-1.652-.308233-.4138-.61645517-.8276-.61645517-1.6549 0-.0006.00007624-.0011.00015248-.0017.00007624-.0005.00015249-.001.00015249-.0016 0-.0005-.00006569-.0009-.00013609-.0013-.0000813-.0006-.00016888-.0011-.00016888-.0018 0-.8275.30825017-1.2413.61649617-1.655.307859-.4133.61571-.8265.61648-1.6519-.00077-.8252-.308592-1.2385-.616436-1.6517-.308261-.4139-.61654017-.8277-.61654017-1.6553 0-.0004.00006591-.0008.00013644-.0013.0000812-.0005.00016853-.0011.00016853-.0017 0-.0004-.00006562-.0008-.00013598-.0013-.00008132-.0005-.00016899-.0011-.00016899-.0017 0-.8275.30825117-1.2413.61649817-1.6551.307858-.4132.615708-.8265.616478-1.6519-.00077-.8253-.308592-1.2385-.616436-1.6517-.029863-.0401-.059726-.0802-.089309-.1206h-.52655315c0-.3046.04176275-.5531.10991615-.7662-.0685541-.2136-.11059417-.4628-.11059417-.7684 0-.0004.00006561-.0009.00013597-.0013.00008133-.0005.000169-.0011.000169-.0018 0-.0006-.00008733-.0012-.00016853-.0017-.00007053-.0004-.00013644-.0009-.00013644-.0013 0-.8275.30827817-1.2414.61653917-1.6552.194213-.2607.388417-.5215.505517-.8856-.11719-.3632-.311064-.6234-.504933-.8836-.30823-.4138-.61644515-.8275-.61644515-1.6549 0-.3046.04176155-.5531.10991315-.7663-.0685523-.2135-.11059117-.4627-.11059117-.7683 0-.0004.00006561-.0008.00013597-.0013.00008133-.0005.000169-.0011.000169-.0017s-.00007625-.0011-.00015249-.0017c-.00007624-.0005-.00015248-.001-.00015248-.0016 0-.8274.30825117-1.2412.61649817-1.6549.140224-.1883.280444-.3765.391648-.6037-1.0100754-1.0985-1.00992124-1.1961-1.00769216-2.6088.0001095-.0694.00022401-.142.00022401-.218 0-.3031.04135005-.5506.10890515-.763-.0679568-.2129-.10958317-.4611-.10958317-.7652h.00030497c0-.0011-.00007134-.002-.00014501-.003-.00007865-.0011-.00015996-.0021-.00015996-.0034 0-.8274.30829217-1.2411.61659717-1.6548.194215-.2607.388439-.5213.505599-.8853-.11717-.3633-.311093-.6237-.505021-.884-.308247-.4138-.61649715-.8275-.61649715-1.6549 0-.0006.00007625-.0011.00015249-.0016.00007624-.0006.00015248-.0011.00015248-.0017 0-.0007-.00008767-.0012-.000169-.0018-.00007035-.0004-.00013597-.0008-.00013597-.0012 0-.3046.04176725-.5532.10992715-.7663-.0685614-.2136-.11060517-.4628-.11060517-.7684 0-.8273.30829017-1.241.61659517-1.6548.194216-.2606.388441-.5212.505601-.8853-.11716-.3633-.311063-.6236-.504978-.8839-.308261-.4139-.61654015-.8277-.61654015-1.6552l.00030497-.0031c0-.0006-.00008733-.0012-.00016852-.0017-.00007054-.0005-.00013645-.0009-.00013645-.0013 0-.3046.04175775-.5532.10990415-.7663-.0685478-.2136-.11058217-.4627-.11058217-.7683 0-.0756-.00011265-.1478-.00022041-.2168-.00220486-1.4129-.00235685-1.5112 1.00668658-2.6086-.110823-.225-.250057-.4119-.389291-.5988-.308247-.41382-.61649715-.82761-.61649715-1.65509 0-.00065.00008767-.00121.000169-.00174.00007036-.00045.00013597-.00088.00013597-.0013 0-.0006-.00007624-.00113-.00015248-.00167-.00007624-.00052-.00015249-.00105-.00015249-.00166 0-.82729.30822215-1.24108.61645515-1.65489.307872-.41331.615753-.82664.616513-1.65206-.00076-.82519-.308584-1.23837-.616428-1.65157-.308261-.41376-.61654015-.82755-.61654015-1.65507 0-.00061.00007625-.00113.00015249-.00166s.00015248-.00107.00015248-.00167c0-.00042-.00006561-.00084-.00013597-.00129-.00008133-.00053-.000169-.00109-.000169-.00174 0-.827294.30822215-1.241082.61645515-1.654885.307872-.413315.615753-.826645.616513-1.652065-.00076-.82519-.308583-1.23837-.616427-1.65157-.308261-.41376-.61654115-.82754-.61654115-1.65507 0-.00061.00007601-.00113.00015213-.00166.00007636-.00053.00015284-.00107.00015284-.00168s-.00007624-.00106-.00015248-.00151c-.00007624-.00046-.00015249-.00091-.00015249-.00152 0-.82748.30825015-1.24127.61649715-1.65505.307859-.41326.615711-.82651.616471-1.65189-.00076-.82524-.308612-1.23849-.616471-1.65174-.308247-.41375-.61649715-.82755-.61649715-1.65495 0-.0006.00007625-.0011.00015249-.0016.00007624-.0006.00015248-.0011.00015248-.0017 0-.0004-.00006561-.0008-.00013597-.0013-.00008133-.0005-.000169-.0011-.000169-.0017 0-.8275.30825015-1.2413.61649715-1.6551.307859-.4132.615711-.8265.616471-1.6519-.00076-.8252-.308584-1.2384-.616428-1.6517-.308261-.4138-.61654015-.8277-.61654015-1.6552 0-.0004.00006562-.0009.00013597-.0013.00008133-.0005.000169-.0011.000169-.0017 0-.0005-.00006587-.0009-.00013639-.0013-.00008121-.0006-.00016858-.0011-.00016858-.0018 0-.8275.30825115-1.2412.61649815-1.655.307858-.4133.61571-.8265.61647-1.6519-.00076-.8254-.308612-1.2387-.616471-1.6519-.308247-.4138-.61649715-.8276-.61649715-1.6551 0-.0006.00008767-.0012.000169-.0017.00007036-.0005.00013597-.0009.00013597-.0013 0-.0006-.00008767-.0012-.000169-.0017-.00007035-.0005-.00013597-.0009-.00013597-.0013 0-.8276.30827815-1.2414.61654015-1.6553.307844-.4132.615668-.8265.616428-1.6517-.00076-.8254-.308612-1.2386-.61647-1.6519-.308247-.4138-.61649815-.8275-.61649815-1.655 0-.0006.00007625-.0012.00015249-.0017s.00015248-.0011.00015248-.0017c0-.0004-.00006561-.0008-.00013597-.0013-.00008133-.0005-.000169-.001-.000169-.0017 0-.8273.30822215-1.2411.61645515-1.6549.307873-.4133.615753-.8266.616513-1.652-.00076-.8252-.308583-1.2384-.616427-1.6516-.308262-.4138-.61654115-.8276-.61654115-1.6551 0-.0006.00007625-.0011.00015249-.0016.00007624-.0006.00015248-.0011.00015248-.0017 0-.0004-.00006576-.0009-.00013621-.0013-.00008126-.0005-.00016876-.0011-.00016876-.0017 0-.8276.30827915-1.2414.61654015-1.6551.307844-.4132.615668-.8264.616428-1.6516-.00076-.8254-.30864-1.2387-.616512-1.652-.308233-.4138-.61645615-.8276-.61645615-1.6549 0-.0007.00008759-.0012.00016888-.0018.0000704-.0004.00013609-.0008.00013609-.0013 0-.0006-.00007624-.0011-.00015248-.0016-.00007624-.0006-.00015249-.0011-.00015249-.0017 0-.8275.30825115-1.2413.61649815-1.655.307858-.4133.61571-.8266.61647-1.6519-.00076-.8252-.308584-1.2385-.616428-1.6518-.308261-.4138-.61654015-.8277-.61654015-1.6552 0-.0004.00006569-.0008.00013609-.0013.0000813-.0005.00016888-.0011.00016888-.0017 0-.0004-.00006569-.0009-.00013609-.0013-.00008129-.0005-.00016888-.0011-.00016888-.0018 0-.8274.30825015-1.2412.61649715-1.655.307859-.4133.615711-.8265.616471-1.6519-.00076-.8252-.308584-1.2384-.616428-1.6517-.308261-.4139-.61654015-.8277-.61654015-1.6552h.00030497c0-.0011-.00007624-.0021-.00015248-.0031s-.00015249-.0019-.00015249-.003c0-.8276.30827115-1.2414.61652915-1.6552.308229-.4137.616439-.8274.616439-1.6548 0-.8276-.308239-1.2413-.616482-1.6551s-.61648615-.8276-.61648615-1.6552c0-.8273.30821515-1.2411.61644415-1.6548.308257-.4137.616524-.8275.616524-1.6551 0-.8274-.30821-1.2411-.61644-1.6549-.308257-.4137-.61652815-.8275-.61652815-1.6551 0-.076-.00011451-.1486-.00022401-.218-.00227468-1.4413-.00238907-1.5138 1.07095216-2.6775 1.032-1.1185 1.30495-1.2319 2.69223-1.0203.71096.1084 1.07016.3852 1.41079.6476.38248.2946.74155.5713 1.5489.5713.76332 0 1.14499-.3066 1.52665-.6131s.76333-.6131 1.52665-.6131c.76336 0 1.14496.3066 1.52666.6131s.7633.6131 1.5267.6131c.7633 0 1.1449-.3066 1.5266-.6131s.7633-.6131 1.5267-.6131c.7631 0 1.1447.3065 1.5263.6131.3816.3065.7633.6131 1.5267.6131.7633 0 1.145-.3066 1.5266-.6131.3817-.3065.7633-.6131 1.5267-.6131.7633 0 1.145.3066 1.5266.6131.3817.3065.7633.6131 1.5267.6131.7633 0 1.145-.3066 1.5266-.6131.3817-.3066.7632-.6131 1.5264-.6131.7631 0 1.1447.3065 1.5263.6131.3817.3065.7633.6131 1.5267.6131.7633 0 1.145-.3066 1.5266-.6131.3817-.3065.7634-.6131 1.5267-.6131s1.145.3066 1.5266.6131c.3817.3065.7634.6131 1.5267.6131.7634 0 1.145-.3066 1.5267-.6131.3816-.3066.7632-.6131 1.5263-.6131.7633 0 1.145.3066 1.5267.6131.3816.3065.7633.6131 1.5266.6131s1.145-.3066 1.5267-.6131c.3816-.3065.7633-.6131 1.5266-.6131s1.145.3066 1.5267.6131c.3816.3065.7633.6131 1.5266.6131.7632 0 1.1448-.3066 1.5264-.6131s.7631-.6131 1.5263-.6131c.7634 0 1.145.3066 1.5267.6131.3816.3065.7633.6131 1.5266.6131.7634 0 1.145-.3066 1.5267-.6131.3816-.3065.7633-.6131 1.5266-.6131.7634 0 1.1451.3066 1.5267.6131.3816.3066.7632.6131 1.5263.6131.7634 0 1.145-.3066 1.5267-.6131s.7633-.6131 1.5266-.6131c.7634 0 1.145.3066 1.5267.6131s.7633.6131 1.5267.6131c.7633 0 1.1449-.3066 1.5266-.6131s.7633-.6131 1.5267-.6131c.7631 0 1.1447.3065 1.5263.6131.3816.3065.7633.6131 1.5267.6131.7633 0 1.145-.3066 1.5266-.6131.3817-.3065.7634-.6131 1.5267-.6131.7631 0 1.1447.3065 1.5263.6131.3816.3065.7633.6131 1.5267.6131.7633 0 1.145-.3066 1.5266-.6131.3817-.3065.7634-.6131 1.5267-.6131.7631 0 1.1447.3065 1.5263.6131.3817.3065.7633.6131 1.5267.6131.7633 0 1.145-.3066 1.5266-.6131.3817-.3065.7634-.6131 1.5267-.6131s1.145.3066 1.5266.6131c.3817.3065.7634.6131 1.5267.6131.7634 0 1.145-.3066 1.5267-.6131.3816-.3066.7632-.6131 1.5263-.6131.7633 0 1.145.3066 1.5267.6131.3816.3065.7633.6131 1.5266.6131s1.145-.3066 1.5267-.6131.7637-.6131 1.5267-.6131 1.145.3066 1.527.6131c.381.3065.763.6131 1.526.6131s1.145-.3065 1.526-.613c.382-.3066.764-.6132 1.527-.6132s1.145.3066 1.527.6131c.381.3065.763.6131 1.526.6131.764 0 1.145-.3066 1.527-.6131s.763-.6131 1.527-.6131c.763 0 1.145.3066 1.526.6131.382.3066.763.6131 1.527.6131.763 0 1.145-.3066 1.526-.6131.382-.3065.764-.6131 1.527-.6131s1.145.3066 1.527.6131c.381.3065.763.6131 1.526.6131s1.145-.3066 1.527-.6131c.381-.3065.763-.6131 1.526-.6131.764 0 1.145.3065 1.527.6131.381.3065.763.6131 1.526.6131.764 0 1.145-.3065 1.527-.6131.381-.3065.763-.6131 1.526-.6131.764 0 1.145.3066 1.527.6131s.763.6131 1.527.6131c.763 0 1.145-.3066 1.526-.6131.382-.3066.764-.6131 1.527-.6131s1.145.3066 1.526.6131c.382.3065.764.6131 1.527.6131s1.145-.3066 1.527-.6131c.381-.3065.763-.6131 1.526-.6131.764 0 1.145.3066 1.527.6131s.763.6131 1.527.6131c.763 0 1.144-.3065 1.526-.6131.382-.3065.763-.6131 1.527-.6131.763 0 1.145.3066 1.526.6131.382.3065.764.6131 1.527.6131s1.145-.3065 1.526-.6131c.382-.3065.764-.6131 1.527-.6131.114 0 .22-.0005.318-.0009 1.22-.0059 1.326-.0064 2.281 1.0285 1.074 1.164 1.073 1.2362 1.071 2.6787v.2168c0 .8276-.308 1.2414-.617 1.6551-.308.4138-.616.8275-.616 1.6549 0 .8276.308 1.2414.616 1.6551.309.4137.617.8275.617 1.6548 0 .8276-.308 1.2414-.617 1.6552-.308.4138-.616.8275-.616 1.6551 0 .8274.308 1.2411.616 1.6548.309.4138.617.8276.617 1.6552v.0061c0 .8275-.308 1.2413-.617 1.6552-.307.4133-.615.8265-.616 1.6517.001.8254.309 1.2386.616 1.6519.309.4138.617.8276.617 1.655v.0018.0013.0021.0009c0 .8275-.308 1.2414-.617 1.6552-.307.4133-.615.8266-.616 1.6518.001.8253.309 1.2386.616 1.6519.309.4137.617.8275.617 1.655v.0023.001.0031c0 .8273-.308 1.2411-.616 1.6549-.308.4133-.616.8266-.617 1.652.001.8252.309 1.2384.616 1.6516.309.4137.617.8275.617 1.6551v.0017.0013.0033c0 .8275-.308 1.2413-.617 1.6551-.307.4132-.615.8264-.616 1.6516.001.8254.309 1.2387.617 1.652.308.4138.616.8276.616 1.6549v.0017.0013.0017.0017c0 .8275-.308 1.2412-.617 1.655-.307.4133-.615.8265-.616 1.6519.001.8252.309 1.2385.616 1.6517.309.4139.617.8277.617 1.6553v.003.0013.0017c0 .8275-.308 1.2413-.617 1.6551-.307.4132-.615.8265-.616 1.6519.001.8254.309 1.2386.616 1.6519.309.4138.617.8275.617 1.655v.0031.0017.0013c0 .8275-.308 1.2414-.617 1.6552-.307.4133-.615.8265-.616 1.6517.001.8254.309 1.2387.616 1.6519.309.4138.617.8276.617 1.6551v.003.0033c0 .8274-.308 1.2412-.617 1.65495-.307.41325-.615.8265-.616 1.65174.001.82538.309 1.23863.616 1.65189.309.41378.617.82757.617 1.65505v.00148.00155.00215.00119c0 .82753-.308 1.24131-.617 1.65507-.307.4132-.615.82638-.616 1.65157.001.82542.309 1.23875.617 1.652065.308.413803.616.827591.616 1.654885v.00174.00129.00333c0 .82752-.308 1.24131-.617 1.65507-.307.4132-.615.82638-.616 1.65157.001.82542.309 1.23875.617 1.65206.308.41381.616.8276.616 1.65489v.00333.00199.00105c0 .82748-.308 1.24127-.617 1.65509-.139.1871-.278.3743-.389.5998 1.008 1.0968 1.008 1.1951 1.006 2.6086v.2158c0 .3048-.042.5534-.11.7666.068.2135.11.4626.11.768v.0018.0012.0031c0 .8275-.308 1.2413-.617 1.6552-.194.2607-.388.5214-.505.8856.117.3632.311.6234.505.8836.308.4138.617.8275.617 1.6548 0 .3049-.042.5535-.11.7667.068.2135.11.4626.11.768v.003.0017.0016c0 .8274-.308 1.2411-.617 1.6549-.194.2607-.388.5215-.505.8856.117.3632.311.6234.505.8837.308.4137.617.8274.617 1.6548 0 .0013 0 .0023-.001.0034v.003h.001c0 .3033-.042.551-.109.7635.067.2128.109.4608.109.7647v.2168c.002 1.4139.003 1.5113-1.008 2.6103.111.2271.251.4152.391.6034.308.4137.617.8275.617 1.6549 0 .0006 0 .0011-.001.0016v.0017c0 .0012.001.0021.001.003 0 .3048-.042.5535-.11.7667.068.2135.11.4626.11.7679 0 .8274-.308 1.2411-.617 1.6549-.194.2605-.388.521-.505.8848.117.3635.311.6239.505.8844.308.4138.617.8277.617 1.6552 0 .0006-.001.0012-.001.0019v.0011.0018c.001.0004.001.0009.001.0013 0 .3049-.042.5536-.11.7668z" fill="#352817"/><g fill="#fff"><path d="m8.36122 122.817h142.30878v-188.7153h-142.30878zm-1.00087 1.001h144.31065v-190.7174h-144.31065z"/><path d="m51.2753 58.83c-.9603-.48-.3249-3.982 0-5.9593l1.0731-6.4957c.3108-1.9203-.2539-2.5137-1.8639-2.5137-1.3556 0-3.3329.6214-4.3213 1.1014l.0424.0424c.9179-.3529 1.3272-.0424 1.2005.7768l-1.469 8.8964c-.5787 3.4739 1.2145 4.4342 3.3332 4.4342.6494 0 1.3269-.0847 1.9767-.2258z"/><path d="m49.0368 41.9349c2.4588.1469 4.4718-1.0831 4.6254-2.8385.1103-1.2608-.857-1.867-1.7125-1.942-.9231-.0807-2.0133.459-2.6401 1.4022.6.9146.2553 2.6533-.2823 3.3549z"/><path d="m60.6796 48.2362c.8817-2.2564 2.4732-3.3015 2.9964-3.6449.0525-.0348.1198-.0637.1878-.0875.4254.2277.6302 1.06.6302 2.0684-.0277 4.3776-2.8522 12.2576-5.3095 12.2576-1.1862 0-.7342-2.6265-.6495-3.1635l.4581-2.8017c.2828-.8384.882-2.5697 1.6865-4.6284m.0863 10.8477c5.9029 0 8.7839-6.1287 8.7839-10.7041 0-3.0504-1.497-4.7449-4.1798-4.7449-.6029 0-1.1783.0948-1.7284.3234-.07.0256-.1401.0564-.2075.0933-.5367.2596-1.049.6546-1.5387 1.2269-.6187.6312-1.2877 1.522-1.7649 2.7432-.217.5556-.4191 1.0871-.6044 1.5848l1.7201-10.5186c.3106-1.9206-.3105-2.5137-1.9203-2.5137-1.3559 0-3.3326.6214-4.3215 1.1017l.0424.0424c.9179-.3532 1.3278-.0424 1.2004.7765l-2.2311 14.0651c-.6071 3.8409 2.5136 6.524 6.7498 6.524"/><path d="m73.6904 59.1128c.7909 0 1.1435-.0708 1.892-.2259l.057-.0567c-.9274-.3809-.3584-3.3429.0841-5.3528.0752-.2316.7856-2.4009 1.859-5.1477 1.0103-2.5844 2.8995-3.6392 3.1116-3.7507.0607-.032.1384-.0631.2176-.0908.6221.1566.8418.8487.8418 1.4211 0 1.4259-1.045 2.3018-2.0895 2.3018-.1697 1.6945 1.0445 2.4854 2.3156 2.4854 2.5137 0 3.9257-1.8926 3.9257-3.7846 0-1.6947-1.1578-3.2762-3.5301-3.2762-.4434 0-.875.0573-1.2958.1866-.1149.0292-.4365.117-.6602.2349-.3785.1996-2.3204 1.3324-3.3856 4.0579-.3258.8326-.6165 1.6101-.8682 2.3007l.9563-4.0406c.438-1.8922-.3105-2.5136-1.9206-2.5136-1.3556 0-3.3326.6214-4.3212 1.1014l.0423.0423c.9183-.3529 1.3416-.0423 1.2002.7769l-1.5814 8.8963c-.6211 3.4883.9182 4.4343 3.1494 4.4343"/><path d="m95.0014 44.0307c1.497 0 1.3273 1.9347 1.0594 3.4033l-.3109 1.7228c-.0899.5081-.1966 1.0198-.3182 1.5269-.0106.0311-.0198.0591-.031.0911-.2292.654-.5517 1.4699-.9253 2.4137-.1472.3727-.3011.7619-.4581 1.1642-.6857 1.7551-1.7901 2.8123-2.5158 3.356-.0241.0019-.0487.0058-.0728.0058-.7342 0-1.1154-1.2288-1.1154-2.3866 0-4.533 1.9062-11.2972 4.6881-11.2972m4.971 8.6989 1.4966-8.7555c-.466.8475-1.045 1.1297-1.7368 1.1297-1.4406 0-3.3329-1.2425-5.5921-1.2425-4.7451 0-8.9389 5.5074-8.9389 9.9981 0 2.5984 1.045 5.2248 4.0103 5.2248.6574 0 1.2901-.1283 1.8978-.4376.0762-.0317.1603-.0716.2417-.1216.6604-.4051 2.2951-1.6006 3.2155-3.958.1566-.4013.3102-.7899.4571-1.1614.0067-.0165.0125-.0317.0192-.0482l-.2672 1.1798c-.8049 3.5443 1.2711 4.547 3.6717 4.547.6778 0 1.3556-.0564 2.0057-.1975l.042-.0567c-1.4549.0424-.9463-3.6714-.5226-6.1004"/><path d="m105.271 59.1125c.678 0 1.483-.0987 2.387-.2258l.057-.0567c-.867-.3557-.457-2.9623-.02-4.9426.132-.3743.877-2.4735 1.905-5.1072.861-2.2047 2.392-3.3128 3.003-3.6843.677.0616.738.9783.506 2.4369l-1.13 7.0043c-.565 3.5447 1.398 4.5614 3.728 4.5614.678 0 1.384-.0847 2.062-.2118l.056-.0567c-1.327-.2258-.96-3.6715-.536-6.1004l.677-4.0104c.325-1.9206.452-4.8579-2.951-4.8579-.765 0-1.546.1515-2.317.559-.016.0048-.032.0061-.049.0134-.097.0451-2.421 1.1197-3.598 4.1319-.31.7945-.589 1.5382-.833 2.2047l1.021-4.3953c.438-1.8923-.31-2.5137-1.92-2.5137-1.356 0-3.333.6214-4.321 1.1014l.042.0424c.918-.3529 1.341-.0424 1.2.7768l-1.581 8.8963c-.621 3.4883.381 4.4343 2.612 4.4343"/><path d="m119.79 54.5376c-.551 3.5444 1.398 4.5611 3.728 4.5611.666 0 1.358-.082 2.025-.2054.58-.0872 1.103-.2618 1.547-.4773.066-.0299.125-.0606.179-.0896.005-.0024.01-.0052.015-.0079.019-.0101.04-.0217.056-.0308.034-.0189.063-.0381.095-.057.144-.0847.276-.1722.395-.2618.098-.0707.196-.1435.301-.2228.473-.3556.909-.8252 1.084-1.4028.114-.3767.094-.7759-.053-1.1404-.375-.9277-1.234-.9563-1.825-.7174-.142.0576-.273.132-.39.2206-.504.3822-.745 1.028-.506 1.7165-.006-.0198.409.0109.45.0228.132.0378.254.1067.355.2009.341.3203.28.7152.131 1.1105-.024.0637-.056.1237-.087.1841-.252.2222-.549.394-.888.5373-.316.1338-.731.1871-1.102.2014-.915-.7277-.558-3.754-.2-5.9495l1.345-8.2621h4.243c.008-.1506.399-.4733.399-.4733-.689 0-3.103.0503-3.793.0503h-.78l.888-5.3516h-.085c-.754 4.0685-2.371 5.169-5.784 5.3403-.733-.0034-1.346-.0061-1.381-.0064-.156-.0006-.316.0043-.433.0917-.031.0232-.2.349-.195.349h1.839z"/><path d="m41.7883 33.4561c-1.8359 0-3.5021 1.3842-3.5021 3.502 0 1.4689.8613 2.6267 2.5277 2.7398.3956-1.1862 1.384-1.7228 2.344-1.7228.8 0 1.4296.3578 1.8163.9243.0452.1301.058.2353.0714.3145.0231.1362.0393.2734.0493.4111.0582.808-.1085 1.6458-.4644 2.6198-.4654 1.2711-1.1145 2.5438-2.4808 4.8634-.8881 1.5076-2.4521 4.12-3.4219 5.7362l-2.5286-8.9545c-.6775-2.4009-.5784-4.7025 2.0057-4.7025l.014-.0707h-11.7068l-.0141.0707c1.9767 0 2.8246 1.6238 3.8129 4.9563l4.8296 15.7032 3.139-5.2355c.0238-.0192.0461-.0415.0628-.0695.029-.0485 2.9294-4.8716 4.2761-7.1576.0784-.1338.1539-.263.2283-.3898l.3291-.5489c.1533-.2557.5706-1.0036.8229-1.4741.1246-.2319.2021-.4017.2021-.4017.138-.2697.2666-.5416.3891-.8146.2158-.4651.3935-.8942.5507-1.3236.2762-.7546.4627-1.472.5276-2.1641.1003-.6034.1588-1.2084.1588-1.8124 0-3.4176-2.0617-4.999-4.0387-4.999"/><path d="m63.6418 88.0053c-4.8576 0-12.6385-5.2248-18.4567-5.2248-2.457 0-5.1115 1.398-7.6538 4.4764l-.014-.0141c3.1634-4.7024 8.9673-5.3098 9.9276-11.4383l1.4967-9.4897c.2965-1.8922 1.017-5.6768 3.5023-5.6768 1.1862 0 1.892.9744 1.892 1.7369 0 .9319-.6778 1.9629-1.8076 1.9346-.3669 1.4686.7909 2.3723 2.0904 2.3723 2.0617 0 3.9537-1.7225 3.9537-3.7279 0-1.5534-1.1295-2.9656-3.4457-2.9656-6.1568 0-11.1844 6.3265-12.088 11.8055l-1.1718 7.329c-.7626 4.8015-3.1211 5.8325-4.6882 8.558l.0844.042c.904-1.3272 1.6662-1.5393 2.6548-1.5393 6.7505 0 13.4863 6.1431 19.2195 6.1431 2.7398 0 5.2529-1.384 7.3429-5.5074l-.0563-.0283c-.7485.9179-1.5674 1.2144-2.7822 1.2144"/><path d="m64.5785 62.4525c.11-1.2605-.8573-1.8667-1.7125-1.9416-.9228-.0808-2.0135.4589-2.6401 1.4019.6001.9142.2554 2.6535-.2825 3.3548l.0094.0234c2.4594.1472 4.4721-1.0828 4.6257-2.8385"/><path d="m63.2644 69.7315c.3108-1.9207-.2539-2.5137-1.8639-2.5137-1.3556 0-3.3329.6214-4.3213 1.1017l.0424.0423c.918-.3532 1.3272-.0423 1.2002.7766l-1.4687 8.8966c-.5787 3.474 1.2145 4.434 3.3329 4.434.6494 0 1.3275-.0847 1.977-.2259l.0283-.0563c-.9606-.4803-.3252-3.9824 0-5.9593z"/><path d="m85.3797 60.5109c-.9228-.0808-2.0133.4589-2.6402 1.4022.6004.9143.2554 2.6532-.2825 3.3545l.0095.0234c2.4594.1472 4.472-1.0828 4.6256-2.8385.11-1.2605-.857-1.8667-1.7124-1.9416"/><path d="m83.9139 67.2188c-1.3556 0-3.3329.6214-4.3213 1.1017l.0424.042c.9182-.3529 1.3272-.042 1.2001.7769l-1.4683 8.8966c-.5787 3.4737 1.2142 4.434 3.3329 4.434.6491 0 1.3272-.0848 1.9767-.2259l.0283-.0566c-.9606-.48-.3252-3.9824 0-5.9591l1.0731-6.496c.3111-1.9206-.2539-2.5136-1.8639-2.5136"/><path d="m99.7172 67.2188c-.8515 0-1.7232.1871-2.5783.707-.274.1347-2.4119 1.2611-3.5356 4.1378-.184.4714-.3562.9237-.5181 1.3546l.8564-3.6858c.4374-1.8922-.3108-2.5136-1.9206-2.5136-1.3556 0-3.3326.6214-4.3212 1.1017l.0423.042c.918-.3529 1.3416-.042 1.2005.7769l-1.5817 8.8966c-.6214 3.4877.3812 4.434 2.6124 4.434.6778 0 1.4833-.0988 2.3866-.2259l.0564-.0566c-.9274-.381-.3916-3.3451.0746-5.3553.2929-.8656.8817-2.5576 1.6616-4.5538 1.0112-2.5886 2.9468-3.6712 3.2299-3.8153.6055.1231.6513 1.0252.4282 2.4271l-1.1298 7.0044c-.5647 3.5444 1.3983 4.5614 3.7282 4.5614.678 0 1.384-.0848 2.062-.2119l.057-.0566c-1.328-.2259-.961-3.6715-.537-6.1005l.677-4.0106c.325-1.9204.452-4.8576-2.9508-4.8576"/><path d="m109.252 78.6853c0-4.533 1.906-11.2972 4.688-11.2972 1.497 0 1.327 1.9346 1.059 3.4033l-.253 1.4031c-.008.0162-.019.0305-.024.0491-.006.0225-.627 2.2799-1.589 5.1754-.642 1.9338-1.743 3.04-2.558 3.6294-.069.0138-.138.0235-.208.0235-.734 0-1.115-1.2285-1.115-2.3866m9.419-10.2237c-1.441 0-3.333-1.2428-5.592-1.2428-4.745 0-8.939 5.5073-8.939 9.998 0 2.5984 1.045 5.2251 4.01 5.2251.863 0 1.684-.2194 2.461-.7826.098-.0521.2-.11.273-.1628.88-.6345 2.075-1.827 2.766-3.9061.261-.7863.496-1.5229.701-2.1839l-1.625 8.6732c-.523 2.8102-1.201 4.42-3.376 4.42-1.679 0-2.188-.9741-2.188-1.7509 0-.7488.48-1.497 1.581-1.6241.17-1.525-1.101-2.3439-2.259-2.3439-1.61 0-2.88 1.1578-2.88 2.7395 0 2.5701 3.247 3.0781 5.591 3.0781 5.367 0 8.29-2.6828 8.897-6.5521l2.316-14.7145c-.467.8473-1.045 1.1298-1.737 1.1298"/><path d="m78.7664 71.3728c.0009-.0481.0043-.0956.0043-.1441 0-2.8242-1.7512-4.2365-3.4743-4.2365-1.5814 0-3.0504 1.1864-3.0504 3.1067 0 1.1862.7909 2.2879 2.2318 2.3726.3605-1.9843 3.2939-2.2037 3.8059-.3937.0003 1.1108-.3484 2.2988-1.1438 3.9363-1.0206 2.1013-2.9446 3.6355-3.7245 4.1975-1.0542.7604-2.7121 1.2221-3.1659 1.3391-.8052-.2728-.7104-1.5198-.3757-3.6282l1.2995-8.1908c.3105-1.9206-.2545-2.5134-1.8643-2.5134-1.3556 0-3.3325.6211-4.3209 1.1014l.0424.0424c.9176-.3532 1.3412-.0424 1.2001.7765l-1.4683 9.1508c-.4523 2.7962.7338 4.1518 3.3042 4.1518.8921 0 1.8009-.1658 2.6929-.466.7162-.2063 2.0382-.6479 2.9739-1.3226.8134-.5864 2.8208-2.1882 3.8957-4.4008.9753-2.0081 1.3139-3.3923 1.1694-4.7781-.0036-.0365-.0149-.0704-.032-.1009"/><path d="m30.6016 101.926c0-.875-.28-1.413-.9307-1.413-1.4123 0-1.6481 2.377-1.6481 3.476 0 .852.1795 1.267.7625 1.267 1.0764 0 1.8163-1.772 1.8163-3.33zm1.0764 1.278c-.1118.717-.224 1.244-.224 1.615 0 .269.0899.47.3478.47.213 0 .37-.146.6165-.482l.2353.168c-.2804.449-.7065.763-1.2556.763-.7178 0-1.0314-.37-1.0314-.942 0-.157.022-.325.0668-.516l-.0668-.011c-.359.83-1.0096 1.469-1.9849 1.469-1.1328 0-1.6932-.729-1.6932-1.974 0-1.614.8524-3.621 2.7697-3.621.7289 0 1.1324.347 1.3455.807l.5269-3.4536h-.9085l.0338-.2913h2.2202z"/><path d="m36.6783 100.445c-.6619 0-1.3346.92-1.5141 2.489 1.2224-.078 2.1081-.47 2.1081-1.659 0-.561-.2131-.83-.594-.83m1.76.987c0 1.155-1.1548 1.514-2.1081 1.693-.3809.067-.7844.112-1.1882.134v.158c0 1.367.3139 1.861 1.1102 1.861.6391 0 1.3339-.348 1.7378-1.525l.3029.09c-.37 1.256-1.2447 1.895-2.4893 1.895-1.312 0-2.0184-.785-2.0184-2.108 0-1.906 1.2446-3.487 3.0726-3.487.9974 0 1.5805.448 1.5805 1.289"/><path d="m42.3062 104.942c-.3699.538-.7628.796-1.3345.796-.7513 0-1.166-.381-1.166-1.099 0-.403.1231-1.099.3922-2.523l.8859-4.6196h-.8634l.0452-.2913h2.1525c-.1905.8859-1.2105 6.3579-1.3455 7.2209-.0784.504-.1119.875.2581.875.2465 0 .4486-.158.7174-.538z"/><path d="m44.6156 98.5731c0-.4934.3587-.8856.9304-.8856.4258 0 .7175.1902.7175.6501 0 .5159-.3587.8856-.9305.8856-.5382 0-.7174-.2914-.7174-.6501zm1.6479 6.3799c-.3358.505-.7287.785-1.323.785-.7174 0-1.1437-.325-1.1437-1.054 0-.224.0563-.65.1682-1.177.1347-.606.5495-2.534.6507-2.96h-.8969l.0557-.292h2.1532c-.135.594-.8189 3.958-.8528 4.171-.0445.202-.067.37-.067.505 0 .28.1121.37.3139.37.2356 0 .4151-.157.6955-.527z"/><path d="m51.8588 103.854c-.2579.863-.9421 1.884-2.4333 1.884-1.3571 0-2.0632-.808-2.0632-2.131 0-1.827 1.1106-3.464 3.1845-3.464 1.1212 0 1.6371.605 1.6371 1.334 0 .549-.2803 1.009-.9194 1.009-.4374 0-.6949-.235-.6949-.572 0-.179.0558-.381.1676-.549h.4041c.0668-.157.0893-.292.0893-.415 0-.348-.2462-.527-.6503-.527-1.3565 0-1.8386 1.727-1.8386 3.173 0 1.189.3029 1.693 1.0873 1.693.7851 0 1.3681-.538 1.7046-1.536z"/><path d="m54.4027 98.5731c0-.4934.3587-.8856.9305-.8856.426 0 .7177.1902.7177.6501 0 .5159-.359.8856-.9308.8856-.5382 0-.7174-.2914-.7174-.6501zm1.6482 6.3799c-.3361.505-.729.785-1.3229.785-.7178 0-1.1441-.325-1.1441-1.054 0-.224.0564-.65.1682-1.177.1347-.606.5495-2.534.6507-2.96h-.8969l.0557-.292h2.1532c-.135.594-.8189 3.958-.8524 4.171-.0448.202-.0674.37-.0674.505 0 .28.1122.37.3139.37.2356 0 .4151-.157.6955-.527z"/><path d="m60.9729 101.87c0-.953-.2353-1.458-.9305-1.458-1.4244 0-1.6707 2.579-1.6707 3.566 0 .93.2578 1.468.942 1.468 1.48 0 1.6592-2.5 1.6592-3.576m-3.8684 1.76c0-1.749 1.0429-3.487 3.0726-3.487 1.4123 0 2.0852.774 2.0852 2.085 0 1.828-1.0874 3.51-3.0607 3.51-1.4242 0-2.0971-.808-2.0971-2.108"/><path d="m64.6162 100.546h-.8408l.0448-.291h2.1306c-.1347.56-.7738 3.711-.8189 3.958-.0335.179-.0558.336-.0558.482 0 .314.1119.516.5157.516.7847 0 1.4799-1.189 1.8727-2.68.2128-.774.3249-1.413.3923-2.22.3474.011 1.0983-.056 1.4128-.123-.3145 1.468-.6842 3.262-.8073 3.98-.0561.325-.0786.561-.0786.729 0 .235.0893.415.3364.415.235 0 .4258-.157.6836-.516l.2356.168c-.2801.415-.6729.774-1.2779.774-.7402 0-1.0764-.326-1.0764-.908 0-.191.0335-.415.1119-.673l.0899-.337-.0674-.022c-.426.931-1.0541 1.94-2.2762 1.94-.9192 0-1.2557-.527-1.2557-1.256 0-.157.0113-.325.0445-.505.146-.818.4599-2.332.6842-3.431"/><path d="m73.8097 104.381c0-.561-.4934-.763-1.032-.964-.6951-.258-1.4576-.516-1.4576-1.536 0-1.111 1.0877-1.738 2.321-1.738.9868 0 1.682.359 1.682 1.11 0 .459-.2578.818-.796.818-.3478 0-.6278-.179-.6278-.482 0-.168.0448-.325.1682-.482h.3364c.0336-.078.0445-.146.0445-.213 0-.269-.2691-.437-.7622-.437-.7515 0-1.312.381-1.312.986 0 .494.4822.718 1.0429.942.7174.281 1.5473.595 1.5473 1.536 0 1.11-1.0542 1.817-2.4442 1.817-1.2559 0-1.8395-.539-1.8395-1.234 0-.504.3032-.852.8301-.852.359 0 .6053.225.6053.55 0 .145-.0335.302-.1454.448h-.359c-.0338.067-.0445.146-.0445.213 0 .303.2914.527.953.527.7509 0 1.2895-.336 1.2895-1.009"/><path d="m79.2808 104.942c-.3699.538-.7622.796-1.3342.796-.7512 0-1.1663-.381-1.1663-1.099 0-.403.1237-1.099.3928-2.523l.8856-4.6196h-.8633l.0448-.2913h2.1528c-.1908.8859-1.2108 6.3579-1.3455 7.2209-.0787.504-.1122.875.2578.875.2469 0 .4486-.158.7174-.538z"/><path d="m80.0098 107.42c-.079.112-.1235.235-.1235.336 0 .179.1344.314.4148.314.6165 0 1.3903-.538 2.3884-2.052-.3815-1.424-.8969-3.274-1.301-4.575-.1344-.46-.2466-.583-.4483-.583-.2356 0-.4151.236-.6504.852l-.3251-.134c.3029-.785.639-1.357 1.5024-1.357.583 0 .942.314 1.1661 1.065.3367 1.099.6729 2.344.9645 3.51.5492-.83 1.39-2.276 1.39-3.028 0-.291-.1456-.493-.3587-.504l-.359.448c-.3474-.112-.5827-.392-.5827-.751 0-.471.3252-.818.8518-.818.6507 0 1.0097.504 1.0097 1.188 0 1.043-.8972 2.568-1.6149 3.622-1.0539 1.547-2.13 3.465-3.7227 3.465-.8296 0-1.3342-.46-1.3342-1.189 0-.572.3812-.953.9081-.953.5047 0 .886.392.7175 1.065z"/><path d="m93.1154 104.706c0-.751.5047-2.197.6955-3.072.0561-.224.0783-.404.0783-.55 0-.291-.1118-.426-.381-.426-.7289 0-1.4799 1.055-1.8502 2.142-.2578.763-.4151 1.715-.5269 2.781-.3477-.011-1.0877.045-1.4016.112l.437-2.029.9646-6.1676h-.8411l.0338-.2913h2.1193l-1.0206 4.9889.0673.034c.4709-.964 1.2111-2.085 2.4107-2.085.785 0 1.1886.414 1.1886 1.166 0 .213-.0339.482-.0896.729-.1344.538-.4596 1.76-.5828 2.309-.0454.18-.1011.427-.1011.606 0 .258.1234.348.3139.348.2694 0 .5156-.214.7399-.516l.2356.19c-.3026.437-.7177.763-1.3455.763-.7177 0-1.1441-.348-1.1441-1.032"/><path d="m99.719 100.445c-.6616 0-1.3342.92-1.5137 2.489 1.2224-.078 2.1077-.47 2.1077-1.659 0-.561-.213-.83-.594-.83m1.76.987c0 1.155-1.154 1.514-2.1078 1.693-.3809.067-.7844.112-1.1882.134v.158c0 1.367.3139 1.861 1.1102 1.861.6391 0 1.3338-.348 1.7378-1.525l.303.09c-.37 1.256-1.245 1.895-2.4894 1.895-1.312 0-2.0184-.785-2.0184-2.108 0-1.906 1.2446-3.487 3.0723-3.487.9975 0 1.5805.448 1.5805 1.289"/><path d="m106.501 101.97c0-.997-.347-1.457-.941-1.457-1.144 0-1.637 1.615-1.637 3.386 0 .807.123 1.357.773 1.357 1.021 0 1.805-1.738 1.805-3.286zm2.041 3.005c-.269.427-.684.763-1.256.763-.74 0-1.043-.359-1.043-.908 0-.18.034-.37.09-.583l-.056-.011c-.348.784-.976 1.502-2.03 1.502-1.098 0-1.647-.729-1.647-1.996 0-1.615.897-3.599 2.758-3.599.695 0 1.11.303 1.368.863l.19-.729c.392.012.852-.022 1.222-.078-.28 1.379-.605 2.982-.807 4.417-.023.113-.023.214-.023.292 0 .281.101.393.326.393.202 0 .426-.146.673-.505z"/><path d="m112.332 104.942c-.37.538-.763.796-1.335.796-.751 0-1.166-.381-1.166-1.099 0-.403.123-1.099.392-2.523l.886-4.6196h-.863l.045-.2913h2.152c-.19.8859-1.21 6.3579-1.345 7.2209-.078.504-.112.875.258.875.247 0 .449-.158.717-.538z"/><path d="m115.717 100.546-.583 3.14c-.1.527-.145.841-.145 1.02 0 .337.157.516.482.516.404 0 .672-.258 1.02-.74l.258.191c-.37.583-.919 1.065-1.67 1.065-.965 0-1.357-.538-1.357-1.211 0-.393.078-.819.213-1.48l.482-2.501h-.808l.045-.291h.808l.213-1.3011 1.356-.3475-.269 1.6486h1.178l-.045.291z"/><path d="m121.278 104.706c0-.751.505-2.197.696-3.072.056-.224.078-.404.078-.55 0-.291-.112-.426-.381-.426-.729 0-1.48 1.055-1.85 2.142-.258.763-.415 1.715-.527 2.781-.348-.011-1.088.045-1.401.112l.437-2.029.964-6.1676h-.841l.034-.2913h2.119l-1.021 4.9889.068.034c.471-.964 1.211-2.085 2.411-2.085.784 0 1.188.414 1.188 1.166 0 .213-.034.482-.09.729-.134.538-.459 1.76-.582 2.309-.046.18-.101.427-.101.606 0 .258.123.348.314.348.269 0 .515-.214.74-.516l.235.19c-.303.437-.718.763-1.346.763-.717 0-1.144-.348-1.144-1.032"/><path d="m124.596 107.42c-.078.112-.123.235-.123.336 0 .179.134.314.415.314.616 0 1.39-.538 2.388-2.052-.381-1.424-.897-3.274-1.301-4.575-.134-.46-.246-.583-.448-.583-.235 0-.415.236-.65.852l-.325-.134c.302-.785.638-1.357 1.502-1.357.583 0 .942.314 1.166 1.065.337 1.099.673 2.344.964 3.51.55-.83 1.391-2.276 1.391-3.028 0-.291-.146-.493-.359-.504l-.359.448c-.347-.112-.583-.392-.583-.751 0-.471.325-.818.852-.818.651 0 1.009.504 1.009 1.188 0 1.043-.897 2.568-1.614 3.622-1.054 1.547-2.131 3.465-3.723 3.465-.83 0-1.334-.46-1.334-1.189 0-.572.381-.953.908-.953.505 0 .886.392.718 1.065z"/></g></g></svg>