<svg width="160" height="130" viewBox="0 0 160 130" fill="none" xmlns="http://www.w3.org/2000/svg">
<path fill-rule="evenodd" clip-rule="evenodd" d="M159.89 40.7817C159.958 40.9952 160 41.2442 160 41.5495H159.472C159.443 41.5899 159.413 41.63 159.383 41.6701C159.075 42.0833 158.767 42.4965 158.767 43.3218C158.767 44.1472 159.075 44.5605 159.383 44.9737C159.691 45.3875 160 45.8013 160 46.6288C160 46.63 159.999 46.6309 159.999 46.6318C159.999 46.6324 159.999 46.633 159.999 46.6335C160 46.634 160 46.6344 160 46.6348C160 47.4624 159.691 47.8762 159.383 48.2901C159.075 48.7033 158.767 49.1166 158.767 49.9418C158.767 50.7672 159.075 51.1804 159.383 51.5937C159.691 52.0074 160 52.4212 160 53.2487C160 53.2494 160 53.2499 159.999 53.2505C159.999 53.2509 159.999 53.2513 159.999 53.2518C159.999 53.2524 159.999 53.2529 159.999 53.2534C160 53.254 160 53.2545 160 53.2551C160 54.0824 159.691 54.4962 159.383 54.91C159.075 55.3233 158.767 55.7366 158.767 56.562C158.767 57.3872 159.075 57.8004 159.383 58.2136C159.691 58.6274 160 59.0412 160 59.8687C160 59.8694 159.999 59.87 159.999 59.8707C159.999 59.8711 159.999 59.8715 159.999 59.872C159.999 59.8724 159.999 59.8728 159.999 59.8733C160 59.8738 160 59.8744 160 59.875C160 60.7025 159.691 61.1163 159.383 61.5301C159.075 61.9434 158.767 62.3566 158.767 63.182C158.767 64.0072 159.075 64.4205 159.383 64.8337C159.691 65.2475 160 65.6613 160 66.4886C160 66.4893 159.999 66.4899 159.999 66.4905C159.999 66.491 159.999 66.4915 159.999 66.492C159.999 66.4927 159.999 66.4932 159.999 66.4938C160 66.4941 160 66.4945 160 66.495C160 67.3225 159.691 67.7363 159.383 68.1501C159.075 68.5633 158.767 68.9766 158.767 69.8019C158.767 70.6272 159.075 71.0404 159.383 71.4537C159.691 71.8675 160 72.2812 160 73.1086C160 73.1092 160 73.1097 159.999 73.1103C159.999 73.1108 159.999 73.1113 159.999 73.1119C159.999 73.1123 159.999 73.1128 159.999 73.1132C160 73.1137 160 73.1143 160 73.115C160 73.9424 159.691 74.3562 159.383 74.77C159.075 75.1833 158.767 75.5965 158.767 76.4219C158.767 77.2471 159.075 77.6603 159.383 78.0736C159.691 78.4875 160 78.9013 160 79.7288C160 79.7294 159.999 79.7299 159.999 79.7305C159.999 79.7309 159.999 79.7314 159.999 79.7319L160 79.7349C160 80.5624 159.691 80.9763 159.383 81.3901C159.075 81.8034 158.767 82.2167 158.767 83.0419C158.767 83.8672 159.075 84.2805 159.383 84.6937C159.691 85.1075 160 85.5213 160 86.3488C160 86.35 159.999 86.3509 159.999 86.3518C159.999 86.3524 159.999 86.353 159.999 86.3535C160 86.354 160 86.3546 160 86.3552C160 87.1825 159.691 87.5963 159.383 88.01C159.075 88.4234 158.767 88.8367 158.767 89.6621C158.767 90.4873 159.075 90.9005 159.383 91.3137C159.691 91.7274 160 92.1412 160 92.9688C160 92.9695 159.999 92.9701 159.999 92.9707C159.999 92.9712 159.999 92.9716 159.999 92.9721C159.999 92.9727 159.999 92.9732 159.999 92.9739C160 92.9743 160 92.9747 160 92.9751C160 93.8026 159.691 94.2164 159.383 94.6302C159.075 95.0434 158.767 95.4567 158.767 96.2821C158.767 97.1073 159.075 97.5204 159.383 97.9336C159.691 98.3474 160 98.7612 160 99.5887C160 99.5899 159.999 99.5908 159.999 99.592C159.999 99.5925 159.999 99.5929 159.999 99.5933C160 99.5939 160 99.5944 160 99.5951C160 100.423 159.691 100.836 159.383 101.25C159.075 101.663 158.767 102.077 158.767 102.902C158.767 103.727 159.075 104.14 159.383 104.554C159.691 104.968 160 105.381 160 106.209C160 106.209 160 106.21 159.999 106.21C159.999 106.211 159.999 106.211 159.999 106.212C159.999 106.212 159.999 106.213 159.999 106.213C160 106.214 160 106.214 160 106.215C160 107.043 159.691 107.456 159.383 107.87C159.075 108.283 158.767 108.697 158.767 109.522C158.767 110.347 159.075 110.76 159.383 111.174C159.691 111.588 160 112.001 160 112.829C160 112.904 160 112.976 160 113.045C160.002 114.488 160.002 114.56 158.928 115.724C158.875 115.782 158.827 115.834 158.779 115.885C158.771 115.968 158.766 116.053 158.766 116.145C158.766 116.973 159.075 117.386 159.383 117.8C159.691 118.214 160 118.628 160 119.455C160 120.283 159.691 120.696 159.383 121.11C159.075 121.524 158.766 121.938 158.766 122.765C158.766 123.593 159.075 124.006 159.383 124.42C159.691 124.834 160 125.248 160 126.075C160 126.15 160 126.222 160 126.291C160.002 127.734 160.002 127.806 158.928 128.971C157.974 130.006 157.868 130.005 156.648 129.999C156.55 129.999 156.444 129.998 156.33 129.998C155.566 129.998 155.185 129.692 154.803 129.385C154.421 129.079 154.04 128.772 153.277 128.772C152.513 128.772 152.132 129.079 151.75 129.385C151.368 129.692 150.987 129.998 150.223 129.998C149.46 129.998 149.078 129.692 148.697 129.385C148.315 129.079 147.933 128.772 147.17 128.772C146.407 128.772 146.025 129.079 145.643 129.385C145.262 129.692 144.88 129.998 144.117 129.998C143.354 129.998 142.972 129.692 142.59 129.385C142.209 129.079 141.827 128.772 141.064 128.772C140.3 128.772 139.919 129.079 139.537 129.385C139.155 129.692 138.774 129.998 138.01 129.998C137.247 129.998 136.865 129.692 136.484 129.385C136.102 129.079 135.72 128.772 134.957 128.772C134.194 128.772 133.812 129.079 133.431 129.385C133.049 129.692 132.667 129.998 131.904 129.998C131.141 129.998 130.759 129.692 130.377 129.385C129.996 129.079 129.614 128.772 128.851 128.772C128.088 128.772 127.706 129.079 127.324 129.385C126.943 129.692 126.561 129.998 125.798 129.998C125.034 129.998 124.653 129.692 124.271 129.385C123.89 129.079 123.508 128.772 122.745 128.772C121.981 128.772 121.6 129.079 121.218 129.385C120.836 129.692 120.455 129.998 119.691 129.998C118.928 129.998 118.546 129.692 118.165 129.385C117.783 129.079 117.401 128.772 116.638 128.772C115.875 128.772 115.493 129.079 115.112 129.385C114.73 129.692 114.348 129.998 113.585 129.998C112.822 129.998 112.44 129.692 112.059 129.385C111.677 129.079 111.295 128.772 110.532 128.772C109.769 128.772 109.387 129.079 109.005 129.385C108.624 129.692 108.242 129.998 107.479 129.998C106.715 129.998 106.334 129.692 105.952 129.385C105.57 129.079 105.189 128.772 104.426 128.772C103.662 128.772 103.281 129.079 102.899 129.385C102.517 129.692 102.136 129.998 101.373 129.998C100.609 129.998 100.228 129.692 99.8459 129.385C99.4642 129.079 99.0826 128.772 98.3192 128.772C97.5559 128.772 97.1743 129.079 96.7926 129.385C96.4109 129.692 96.0293 129.998 95.2659 129.998C94.5026 129.998 94.1209 129.692 93.7393 129.385C93.3576 129.079 92.976 128.772 92.2126 128.772C91.4493 128.772 91.0676 129.079 90.686 129.385C90.3043 129.692 89.9228 129.998 89.1596 129.998C88.3963 129.998 88.0146 129.692 87.633 129.385C87.2513 129.079 86.8696 128.772 86.1063 128.772C85.343 128.772 84.9613 129.079 84.5797 129.385C84.198 129.692 83.8163 129.998 83.053 129.998C82.2897 129.998 81.908 129.692 81.5264 129.385C81.1447 129.079 80.763 128.772 79.9997 128.772C79.2365 128.772 78.8549 129.079 78.4734 129.385C78.0918 129.692 77.7102 129.998 76.947 129.998C76.1837 129.998 75.802 129.692 75.4203 129.385C75.0387 129.079 74.657 128.772 73.8937 128.772C73.1304 128.772 72.7487 129.079 72.367 129.385C71.9854 129.692 71.6037 129.998 70.8404 129.998C70.077 129.998 69.6954 129.692 69.3137 129.385C68.9321 129.079 68.5505 128.772 67.7874 128.772C67.0241 128.772 66.6424 129.079 66.2607 129.385C65.8791 129.692 65.4974 129.998 64.7341 129.998C63.9707 129.998 63.5891 129.692 63.2074 129.385C62.8258 129.079 62.4441 128.772 61.6808 128.772C60.9174 128.772 60.5358 129.079 60.1541 129.385C59.7724 129.692 59.3908 129.998 58.6275 129.998C57.8643 129.998 57.4827 129.692 57.1011 129.385C56.7195 129.079 56.3378 128.772 55.5745 128.772C54.8111 128.772 54.4295 129.079 54.0478 129.385C53.6661 129.692 53.2845 129.998 52.5211 129.998C51.758 129.998 51.3764 129.692 50.9948 129.385C50.6132 129.079 50.2315 128.772 49.4681 128.772C48.7048 128.772 48.3231 129.079 47.9415 129.385C47.5599 129.692 47.1783 129.998 46.4151 129.998C45.6518 129.998 45.2702 129.692 44.8885 129.385C44.5068 129.079 44.1252 128.772 43.3618 128.772C42.5985 128.772 42.2168 129.079 41.8352 129.385C41.4535 129.692 41.0719 129.998 40.3085 129.998C39.5452 129.998 39.1635 129.692 38.7819 129.385C38.4002 129.079 38.0185 128.772 37.2552 128.772C36.4921 128.772 36.1105 129.079 35.7289 129.385C35.3472 129.692 34.9656 129.998 34.2022 129.998C33.4389 129.998 33.0572 129.692 32.6756 129.385C32.2939 129.079 31.9122 128.772 31.1489 128.772C30.3856 128.772 30.0039 129.079 29.6223 129.385C29.2406 129.692 28.8589 129.998 28.0956 129.998C27.3325 129.998 26.9509 129.692 26.5693 129.385C26.1876 129.079 25.806 128.772 25.0426 128.772C24.2795 128.772 23.8979 129.079 23.5163 129.385C23.1346 129.692 22.753 129.998 21.9896 129.998C21.2263 129.998 20.8446 129.692 20.4629 129.385C20.0813 129.079 19.6996 128.772 18.9363 128.772C18.173 128.772 17.7913 129.079 17.4096 129.385C17.028 129.692 16.6463 129.998 15.883 129.998C15.1196 129.998 14.738 129.692 14.3563 129.385C13.9747 129.079 13.5931 128.772 12.83 128.772C12.0667 128.772 11.685 129.079 11.3033 129.385C10.9217 129.692 10.54 129.998 9.77667 129.998C9.01334 129.998 8.63168 129.692 8.25002 129.385C7.86835 129.079 7.48669 128.772 6.72336 128.772C5.96004 128.772 5.57837 129.079 5.19671 129.385C4.81505 129.692 4.43338 129.998 3.67006 129.998C3.55598 129.998 3.45021 129.999 3.3517 129.999C2.13241 130.005 2.02631 130.006 1.07145 128.971C-0.00217021 127.807 -0.00205751 127.734 0.000193423 126.292C0.000301177 126.223 0.00041383 126.151 0.00041383 126.075C0.00041383 125.248 0.30876 124.834 0.617093 124.42C0.925399 124.006 1.23369 123.593 1.23369 122.765C1.23369 121.938 0.925372 121.524 0.617053 121.11C0.308733 120.696 0.00041383 120.283 0.00041383 119.455C0.00041383 118.628 0.308706 118.214 0.617012 117.8C0.925345 117.386 1.23369 116.973 1.23369 116.145C1.23369 116.053 1.22881 115.968 1.22119 115.885C1.17331 115.834 1.12451 115.782 1.07145 115.724C-0.00217025 114.56 -0.00205751 114.488 0.000193424 113.046C0.000301177 112.977 0.00041383 112.905 0.00041383 112.829C0.00041383 112.001 0.308693 111.588 0.616954 111.174C0.924798 110.76 1.23262 110.347 1.23339 109.522C1.23262 108.697 0.92477 108.283 0.616911 107.87C0.308664 107.456 0.00041383 107.043 0.00041383 106.215C0.00041383 106.214 0.000490551 106.214 0.000567031 106.213C0.000643032 106.213 0.000718795 106.212 0.000718795 106.212C0.000718795 106.211 0.000652664 106.211 0.000581993 106.21C0.000500901 106.21 0.00041383 106.209 0.00041383 106.209C0.00041383 105.381 0.308636 104.968 0.616869 104.554C0.924741 104.14 1.23262 103.727 1.23339 102.902C1.23262 102.077 0.924798 101.663 0.616954 101.25C0.308693 100.836 0.00041383 100.423 0.00041383 99.5951C0.00041383 99.5944 0.000501412 99.5939 0.000582706 99.5933C0.000653108 99.5929 0.000718795 99.5925 0.000718795 99.592C0.000718795 99.5914 0.000642553 99.5909 0.000566312 99.5904C0.000490071 99.5898 0.00041383 99.5893 0.00041383 99.5887C0.00041383 98.7612 0.308694 98.3474 0.616956 97.9336C0.9248 97.5204 1.23262 97.1073 1.23339 96.2821C1.23262 95.4567 0.92477 95.0434 0.616911 94.6302C0.308664 94.2164 0.00041383 93.8026 0.00041383 92.9751C0.00041383 92.9745 0.000500901 92.9739 0.000581993 92.9734C0.000652664 92.9729 0.000718795 92.9725 0.000718795 92.9721C0.000718795 92.9715 0.000643032 92.971 0.000567031 92.9704C0.000490551 92.9699 0.00041383 92.9694 0.00041383 92.9688C0.00041383 92.1412 0.308693 91.7274 0.616954 91.3137C0.924798 90.9005 1.23262 90.4873 1.23339 89.6621C1.23262 88.8367 0.924741 88.4234 0.616869 88.01C0.308636 87.5963 0.00041383 87.1825 0.00041383 86.3552C0.00041383 86.3546 0.000490071 86.354 0.000566312 86.3535C0.000642553 86.353 0.000718795 86.3524 0.000718795 86.3518C0.000718795 86.3514 0.000653257 86.351 0.000582945 86.3505C0.000501584 86.35 0.00041383 86.3494 0.00041383 86.3488C0.00041383 85.5213 0.308664 85.1075 0.616911 84.6937C0.92477 84.2805 1.23262 83.8672 1.23339 83.0419C1.23262 82.2167 0.924798 81.8034 0.616954 81.3901C0.308693 80.9763 0.00041383 80.5624 0.00041383 79.7349L0.000718795 79.7319C0.000718795 79.7312 0.000631723 79.7307 0.000550631 79.7301C0.00047996 79.7297 0.00041383 79.7293 0.00041383 79.7288C0.00041383 78.9013 0.308693 78.4875 0.616954 78.0736C0.924798 77.6603 1.23262 77.2471 1.23339 76.4219C1.23262 75.5965 0.924768 75.1833 0.616909 74.77C0.308663 74.3562 0.00041383 73.9424 0.00041383 73.115C0.00041383 73.1143 0.000502096 73.1137 0.000583656 73.1132C0.000653698 73.1128 0.000718795 73.1123 0.000718795 73.1119C0.000718795 73.1113 0.000642553 73.1108 0.000566312 73.1103C0.000490071 73.1097 0.00041383 73.1092 0.00041383 73.1086C0.00041383 72.2812 0.308663 71.8675 0.616909 71.4537C0.924768 71.0404 1.23262 70.6272 1.23339 69.8019C1.23262 68.9766 0.924771 68.5633 0.616913 68.1501C0.308666 67.7363 0.00041383 67.3225 0.00041383 66.495C0.00041383 66.4944 0.000489592 66.4939 0.000565593 66.4935C0.000642073 66.493 0.000718795 66.4926 0.000718795 66.492C0.000718795 66.4914 0.000643032 66.4908 0.000567031 66.4903C0.000490551 66.4898 0.00041383 66.4892 0.00041383 66.4886C0.00041383 65.6613 0.308664 65.2475 0.616911 64.8337C0.92477 64.4205 1.23262 64.0072 1.23339 63.182C1.23262 62.3566 0.92477 61.9434 0.616911 61.5301C0.308664 61.1163 0.00041383 60.7025 0.00041383 59.875C0.00041383 59.8744 0.000501412 59.8738 0.000582706 59.8733C0.000653108 59.8728 0.000718795 59.8724 0.000718795 59.872C0.000718795 59.8714 0.000643032 59.8709 0.000567031 59.8703C0.000490551 59.8698 0.00041383 59.8693 0.00041383 59.8687C0.00041383 59.0412 0.308693 58.6274 0.616954 58.2136C0.924798 57.8004 1.23262 57.3872 1.23339 56.562C1.23262 55.7366 0.924741 55.3233 0.616869 54.91C0.308636 54.4962 0.00041383 54.0824 0.00041383 53.2551C0.00041383 53.2545 0.000490071 53.254 0.000566312 53.2534C0.000642553 53.2529 0.000718795 53.2524 0.000718795 53.2518C0.000718795 53.2513 0.000653108 53.2509 0.000582706 53.2505C0.000501412 53.2499 0.00041383 53.2494 0.00041383 53.2487C0.00041383 52.4212 0.308664 52.0074 0.61691 51.5937C0.924769 51.1804 1.23262 50.7672 1.23339 49.9418C1.23262 49.1166 0.924798 48.7033 0.616954 48.2901C0.308693 47.8762 0.00041383 47.4624 0.00041383 46.6348C0.00041383 46.6344 0.000479737 46.634 0.000550274 46.6335C0.000631467 46.633 0.000718795 46.6324 0.000718795 46.6318C0.000718795 46.6314 0.000653182 46.631 0.000582824 46.6305C0.000501497 46.63 0.00041383 46.6294 0.00041383 46.6288C0.00041383 45.8013 0.308665 45.3875 0.616912 44.9737C0.92477 44.5605 1.23262 44.1472 1.23339 43.3218C1.23262 42.4965 0.924798 42.0833 0.616954 41.6701C0.587091 41.63 0.557228 41.5899 0.527645 41.5495H0.00109185C0.00109185 41.2449 0.0428546 40.9964 0.111008 40.7833C0.0424539 40.5697 0.00041383 40.3205 0.00041383 40.0149C0.00041383 40.0145 0.000479442 40.014 0.0005498 40.0136C0.000631127 40.0131 0.000718795 40.0125 0.000718795 40.0118C0.000718795 40.0112 0.000631467 40.0106 0.000550274 40.0101C0.000479737 40.0097 0.00041383 40.0092 0.00041383 40.0088C0.00041383 39.1813 0.308692 38.7674 0.616953 38.3536C0.811166 38.0929 1.00537 37.8321 1.12247 37.468C1.00528 37.1048 0.811406 36.8446 0.617537 36.5844C0.309307 36.1706 0.00109185 35.7569 0.00109185 34.9295C0.00109185 34.6249 0.0428534 34.3764 0.111005 34.1632C0.0424527 33.9497 0.00041383 33.7005 0.00041383 33.3949C0.00041383 33.3945 0.000479442 33.3941 0.0005498 33.3936C0.000631127 33.3931 0.000718795 33.3925 0.000718795 33.3919C0.000718795 33.3913 0.000642553 33.3908 0.000566312 33.3902C0.000490071 33.3897 0.00041383 33.3892 0.00041383 33.3886C0.00041383 32.5612 0.308665 32.1474 0.616912 31.7337C0.757136 31.5454 0.897356 31.3572 1.00856 31.13C-0.0015154 30.0315 -0.00136124 29.9339 0.000867839 28.5212C0.000977343 28.4518 0.00109185 28.3792 0.00109185 28.3032C0.00109185 28.0001 0.0424419 27.7526 0.109997 27.5402C0.0420402 27.3273 0.00041383 27.0791 0.00041383 26.775H0.000718795C0.000718795 26.7739 0.000647458 26.773 0.000573788 26.772C0.000495138 26.7709 0.00041383 26.7699 0.00041383 26.7686C0.00041383 25.9412 0.308706 25.5275 0.617011 25.1138C0.811226 24.8531 1.00545 24.5925 1.12261 24.2285C1.00544 23.8652 0.811517 23.6048 0.617589 23.3445C0.309342 22.9307 0.00109185 22.517 0.00109185 21.6896C0.00109185 21.689 0.0011681 21.6885 0.00124434 21.688C0.00132058 21.6874 0.00139682 21.6869 0.00139682 21.6863C0.00139682 21.6856 0.00130915 21.6851 0.00122782 21.6845C0.00115747 21.6841 0.00109185 21.6837 0.00109185 21.6833C0.00109185 21.3787 0.0428591 21.1301 0.111019 20.917C0.0424576 20.7034 0.00041383 20.4542 0.00041383 20.1486C0.00041383 19.3213 0.308704 18.9076 0.617009 18.4938C0.811225 18.2332 1.00545 17.9726 1.12261 17.6085C1.00545 17.2452 0.811547 16.9849 0.617632 16.7246C0.309371 16.3107 0.00109185 15.8969 0.00109185 15.0694L0.00139682 15.0663C0.00139682 15.0657 0.00130949 15.0651 0.0012283 15.0646C0.00115776 15.0641 0.00109185 15.0637 0.00109185 15.0633C0.00109185 14.7587 0.0428496 14.5101 0.110996 14.297C0.0424482 14.0834 0.00041383 13.8343 0.00041383 13.5287C0.00041383 13.4531 0.000301177 13.3809 0.000193424 13.3119C-0.00201144 11.899 -0.00216343 11.8007 1.00688 10.7033C0.896057 10.4783 0.756823 10.2914 0.617589 10.1045C0.309342 9.69068 0.00109185 9.27689 0.00109185 8.44941C0.00109185 8.44876 0.00117952 8.4482 0.00126085 8.44767C0.00133121 8.44722 0.00139682 8.44679 0.00139682 8.44637C0.00139682 8.44577 0.00132058 8.44524 0.00124434 8.4447C0.0011681 8.44418 0.00109185 8.44365 0.00109185 8.44304C0.00109185 7.61575 0.309314 7.20196 0.617547 6.78815C0.925419 6.37484 1.2333 5.96151 1.23406 5.13609C1.2333 4.3109 0.925476 3.89772 0.617632 3.48452C0.309371 3.07076 0.00109185 2.65697 0.00109185 1.82945C0.00109185 1.82884 0.0011681 1.82832 0.00124434 1.82779C0.00132058 1.82726 0.00139682 1.82672 0.00139682 1.82612C0.00139682 1.8257 0.00133121 1.82528 0.00126085 1.82483C0.00117952 1.8243 0.00109185 1.82374 0.00109185 1.82309C0.00109185 0.995796 0.309314 0.582008 0.617547 0.168205C0.925419 -0.24511 1.2333 -0.65844 1.23406 -1.48386C1.2333 -2.30905 0.925477 -2.72223 0.617633 -3.13543C0.309372 -3.54919 0.00109185 -3.96297 0.00109185 -4.7905C0.00109185 -4.79111 0.00116785 -4.79163 0.00124398 -4.79216C0.00132034 -4.79269 0.00139682 -4.79323 0.00139682 -4.79384C0.00139682 -4.79445 0.00132058 -4.7949 0.00124434 -4.79535C0.0011681 -4.79581 0.00109185 -4.79626 0.00109185 -4.79687C0.00109185 -5.62435 0.309342 -6.03814 0.617589 -6.45192C0.925448 -6.86518 1.2333 -7.27843 1.23406 -8.10381C1.2333 -8.92905 0.925448 -9.3423 0.617589 -9.75555C0.309342 -10.1693 0.00109185 -10.5831 0.00109185 -11.4105C0.00109185 -11.4111 0.0011681 -11.4116 0.00124434 -11.4121C0.00132058 -11.4127 0.00139682 -11.4132 0.00139682 -11.4138C0.00139682 -11.4142 0.00133121 -11.4146 0.00126085 -11.4151C0.00117952 -11.4156 0.00109185 -11.4162 0.00109185 -11.4168C0.00109185 -12.2443 0.309342 -12.6581 0.617589 -13.0719C0.925448 -13.4851 1.2333 -13.8984 1.23406 -14.7238C1.2333 -15.549 0.925476 -15.9622 0.617632 -16.3755C0.309371 -16.7893 0.00109185 -17.2032 0.00109185 -18.0307C0.00109185 -18.0311 0.00115747 -18.0316 0.00122782 -18.032C0.00130915 -18.0325 0.00139682 -18.0331 0.00139682 -18.0337C0.00139682 -18.0342 0.00133095 -18.0346 0.00126043 -18.035C0.00117922 -18.0356 0.00109185 -18.0361 0.00109185 -18.0368C0.00109185 -18.8643 0.309343 -19.278 0.61759 -19.6918C0.925448 -20.1051 1.2333 -20.5183 1.23406 -21.3437C1.2333 -22.1691 0.925448 -22.5824 0.617589 -22.9956C0.309342 -23.4094 0.00109185 -23.8232 0.00109185 -24.6507C0.00109185 -24.6513 0.00117952 -24.6519 0.00126085 -24.6524C0.00133121 -24.6529 0.00139682 -24.6533 0.00139682 -24.6537C0.00139682 -24.6543 0.00130915 -24.6549 0.00122782 -24.6554C0.00115747 -24.6559 0.00109185 -24.6563 0.00109185 -24.6567C0.00109185 -25.4843 0.30937 -25.8981 0.617632 -26.312C0.925476 -26.7252 1.2333 -27.1385 1.23406 -27.9637C1.2333 -28.7891 0.925448 -29.2023 0.61759 -29.6156C0.309343 -30.0294 0.00109185 -30.4431 0.00109185 -31.2706C0.00109185 -31.2712 0.0011681 -31.2718 0.00124434 -31.2723C0.00132058 -31.2728 0.00139682 -31.2734 0.00139682 -31.274C0.00139682 -31.2744 0.00133121 -31.2748 0.00126085 -31.2753C0.00117952 -31.2758 0.00109185 -31.2763 0.00109185 -31.277C0.00109185 -32.1043 0.309314 -32.5181 0.617547 -32.9319C0.92542 -33.3452 1.2333 -33.7585 1.23406 -34.5839C1.2333 -35.4091 0.925477 -35.8223 0.617633 -36.2355C0.309371 -36.6493 0.00109185 -37.0631 0.00109185 -37.8906C0.00109185 -37.8912 0.0011681 -37.8917 0.00124434 -37.8922C0.00132058 -37.8928 0.00139682 -37.8933 0.00139682 -37.8939C0.00139682 -37.8943 0.00133106 -37.8948 0.00126061 -37.8952C0.00117935 -37.8957 0.00109185 -37.8963 0.00109185 -37.8969C0.00109185 -38.7245 0.309371 -39.1383 0.617632 -39.552C0.925476 -39.9652 1.2333 -40.3784 1.23406 -41.2036C1.2333 -42.029 0.92542 -42.4423 0.617548 -42.8556C0.309315 -43.2694 0.00109185 -43.6832 0.00109185 -44.5105C0.00109185 -44.5112 0.00117944 -44.5117 0.00126073 -44.5123C0.00133113 -44.5127 0.00139682 -44.5131 0.00139682 -44.5136C0.00139682 -44.5142 0.00132058 -44.5147 0.00124434 -44.5152C0.0011681 -44.5158 0.00109185 -44.5163 0.00109185 -44.5169C0.00109185 -45.3444 0.309343 -45.7582 0.61759 -46.1719C0.925448 -46.5852 1.2333 -46.9985 1.23406 -47.8238C1.2333 -48.649 0.925476 -49.0623 0.617632 -49.4756C0.309371 -49.8894 0.00109185 -50.3033 0.00109185 -51.1308C0.00109185 -51.1312 0.00115754 -51.1316 0.00122794 -51.1321C0.00130924 -51.1326 0.00139682 -51.1332 0.00139682 -51.1338C0.00139682 -51.1342 0.00133113 -51.1347 0.00126073 -51.1351C0.00117944 -51.1356 0.00109185 -51.1362 0.00109185 -51.1369C0.00109185 -51.9643 0.309342 -52.3781 0.617589 -52.7919C0.925448 -53.2052 1.2333 -53.6184 1.23406 -54.4438C1.2333 -55.269 0.925476 -55.6822 0.617632 -56.0955C0.309371 -56.5094 0.00109185 -56.9232 0.00109185 -57.7507H0.00139682C0.00139682 -57.7518 0.00132058 -57.7528 0.00124434 -57.7538C0.0011681 -57.7548 0.00109185 -57.7557 0.00109185 -57.7568C0.00109185 -58.5844 0.309363 -58.9982 0.617621 -59.412C0.92585 -59.8257 1.23406 -60.2394 1.23406 -61.0668C1.23406 -61.8944 0.925821 -62.3081 0.617578 -62.7219C0.309335 -63.1357 0.00109185 -63.5495 0.00109185 -64.3771C0.00109185 -65.2044 0.309307 -65.6182 0.617536 -66.0319C0.925793 -66.4456 1.23406 -66.8594 1.23406 -67.687C1.23406 -68.5144 0.92585 -68.9281 0.61762 -69.3419C0.309363 -69.7556 0.00109185 -70.1694 0.00109185 -70.997C0.00109185 -71.073 0.000977345 -71.1456 0.000867842 -71.215C-0.00140684 -72.6563 -0.00152123 -72.7288 1.07182 -73.8925C2.10382 -75.011 2.37677 -75.1244 3.76405 -74.9128C4.47501 -74.8044 4.83421 -74.5276 5.17484 -74.2652C5.55732 -73.9706 5.91639 -73.6939 6.72374 -73.6939C7.48706 -73.6939 7.86873 -74.0005 8.25039 -74.307C8.63205 -74.6135 9.01372 -74.9201 9.77704 -74.9201C10.5404 -74.9201 10.922 -74.6135 11.3037 -74.307C11.6854 -74.0005 12.067 -73.6939 12.8304 -73.6939C13.5937 -73.6939 13.9753 -74.0005 14.357 -74.307C14.7387 -74.6135 15.1203 -74.9201 15.8837 -74.9201C16.6468 -74.9201 17.0284 -74.6136 17.41 -74.307C17.7916 -74.0005 18.1733 -73.6939 18.9367 -73.6939C19.7 -73.6939 20.0817 -74.0005 20.4633 -74.307C20.845 -74.6135 21.2266 -74.9201 21.99 -74.9201C22.7533 -74.9201 23.135 -74.6135 23.5166 -74.307C23.8983 -74.0005 24.2799 -73.6939 25.0433 -73.6939C25.8066 -73.6939 26.1883 -74.0005 26.5699 -74.307C26.9516 -74.6136 27.3331 -74.9201 28.0963 -74.9201C28.8594 -74.9201 29.241 -74.6136 29.6226 -74.307C30.0043 -74.0005 30.3859 -73.6939 31.1493 -73.6939C31.9126 -73.6939 32.2943 -74.0005 32.6759 -74.307C33.0576 -74.6135 33.4393 -74.9201 34.2026 -74.9201C34.9659 -74.9201 35.3476 -74.6135 35.7292 -74.307C36.1109 -74.0005 36.4926 -73.6939 37.2559 -73.6939C38.0193 -73.6939 38.4009 -74.0005 38.7826 -74.307C39.1642 -74.6136 39.5458 -74.9201 40.3089 -74.9201C41.0722 -74.9201 41.4539 -74.6135 41.8356 -74.307C42.2172 -74.0005 42.5989 -73.6939 43.3622 -73.6939C44.1255 -73.6939 44.5072 -74.0005 44.8889 -74.307C45.2705 -74.6135 45.6522 -74.9201 46.4155 -74.9201C47.1788 -74.9201 47.5605 -74.6135 47.9422 -74.307C48.3238 -74.0005 48.7055 -73.6939 49.4688 -73.6939C50.232 -73.6939 50.6136 -74.0005 50.9952 -74.307C51.3768 -74.6135 51.7583 -74.9201 52.5215 -74.9201C53.2849 -74.9201 53.6665 -74.6135 54.0482 -74.307C54.4298 -74.0005 54.8115 -73.6939 55.5748 -73.6939C56.3382 -73.6939 56.7198 -74.0005 57.1015 -74.307C57.4831 -74.6135 57.8648 -74.9201 58.6281 -74.9201C59.3915 -74.9201 59.7732 -74.6135 60.1548 -74.307C60.5364 -74.0004 60.918 -73.6939 61.6811 -73.6939C62.4445 -73.6939 62.8261 -74.0005 63.2078 -74.307C63.5895 -74.6135 63.9711 -74.9201 64.7344 -74.9201C65.4978 -74.9201 65.8794 -74.6135 66.2611 -74.307C66.6428 -74.0005 67.0244 -73.6939 67.7878 -73.6939C68.5511 -73.6939 68.9327 -74.0005 69.3144 -74.307C69.6961 -74.6135 70.0777 -74.9201 70.8411 -74.9201C71.6042 -74.9201 71.9858 -74.6136 72.3674 -74.307C72.749 -74.0005 73.1307 -73.6939 73.8941 -73.6939C74.6574 -73.6939 75.0391 -74.0005 75.4207 -74.307C75.8024 -74.6135 76.1841 -74.9201 76.9474 -74.9201C77.7105 -74.9201 78.0921 -74.6136 78.4737 -74.307C78.8553 -74.0005 79.237 -73.6939 80.0004 -73.6939C80.7637 -73.6939 81.1454 -74.0005 81.527 -74.307C81.9087 -74.6135 82.2904 -74.9201 83.0537 -74.9201C83.8168 -74.9201 84.1984 -74.6136 84.58 -74.307C84.9617 -74.0005 85.3433 -73.6939 86.1067 -73.6939C86.87 -73.6939 87.2517 -74.0005 87.6333 -74.307C88.015 -74.6135 88.3967 -74.9201 89.16 -74.9201C89.9233 -74.9201 90.305 -74.6135 90.6866 -74.307C91.0683 -74.0005 91.45 -73.6939 92.2133 -73.6939C92.9767 -73.6939 93.3583 -74.0005 93.74 -74.307C94.1216 -74.6136 94.5032 -74.9201 95.2663 -74.9201C96.0296 -74.9201 96.4113 -74.6135 96.793 -74.307C97.1746 -74.0005 97.5563 -73.6939 98.3196 -73.6939C99.0829 -73.6939 99.4646 -74.0005 99.8463 -74.307C100.228 -74.6135 100.61 -74.9201 101.373 -74.9201C102.136 -74.9201 102.518 -74.6135 102.9 -74.307C103.281 -74.0005 103.663 -73.6939 104.426 -73.6939C105.189 -73.6939 105.571 -74.0004 105.952 -74.3069C106.334 -74.6135 106.716 -74.9201 107.479 -74.9201C108.242 -74.9201 108.624 -74.6135 109.006 -74.307C109.387 -74.0005 109.769 -73.6939 110.532 -73.6939C111.296 -73.6939 111.677 -74.0005 112.059 -74.307C112.441 -74.6135 112.822 -74.9201 113.586 -74.9201C114.349 -74.9201 114.731 -74.6135 115.112 -74.307C115.494 -74.0004 115.875 -73.6939 116.639 -73.6939C117.402 -73.6939 117.784 -74.0005 118.165 -74.307C118.547 -74.6135 118.929 -74.9201 119.692 -74.9201C120.455 -74.9201 120.837 -74.6135 121.219 -74.307C121.6 -74.0005 121.982 -73.6939 122.745 -73.6939C123.508 -73.6939 123.89 -74.0005 124.272 -74.307C124.653 -74.6135 125.035 -74.9201 125.798 -74.9201C126.562 -74.9201 126.943 -74.6136 127.325 -74.307C127.706 -74.0005 128.088 -73.6939 128.851 -73.6939C129.615 -73.6939 129.996 -74.0004 130.378 -74.307C130.759 -74.6135 131.141 -74.9201 131.904 -74.9201C132.668 -74.9201 133.049 -74.6135 133.431 -74.307C133.813 -74.0005 134.194 -73.6939 134.958 -73.6939C135.721 -73.6939 136.103 -74.0005 136.484 -74.307C136.866 -74.6136 137.248 -74.9201 138.011 -74.9201C138.774 -74.9201 139.156 -74.6135 139.537 -74.307C139.919 -74.0005 140.301 -73.6939 141.064 -73.6939C141.827 -73.6939 142.209 -74.0005 142.591 -74.307C142.972 -74.6135 143.354 -74.9201 144.117 -74.9201C144.881 -74.9201 145.262 -74.6135 145.644 -74.307C146.026 -74.0005 146.407 -73.6939 147.171 -73.6939C147.934 -73.6939 148.315 -74.0004 148.697 -74.307C149.079 -74.6135 149.46 -74.9201 150.224 -74.9201C150.987 -74.9201 151.369 -74.6135 151.75 -74.307C152.132 -74.0005 152.514 -73.6939 153.277 -73.6939C154.04 -73.6939 154.422 -74.0004 154.803 -74.307C155.185 -74.6135 155.567 -74.9201 156.33 -74.9201C156.444 -74.9201 156.55 -74.9206 156.648 -74.921C157.868 -74.9269 157.974 -74.9274 158.929 -73.8925C160.003 -72.7285 160.002 -72.6563 160 -71.2138C160 -71.1447 160 -71.0726 160 -70.997C160 -70.1694 159.692 -69.7556 159.383 -69.3419C159.075 -68.9281 158.767 -68.5144 158.767 -67.687C158.767 -66.8594 159.075 -66.4456 159.383 -66.0319C159.692 -65.6182 160 -65.2044 160 -64.3771C160 -63.5495 159.692 -63.1357 159.383 -62.7219C159.075 -62.3081 158.767 -61.8944 158.767 -61.0668C158.767 -60.2394 159.075 -59.8257 159.383 -59.412C159.692 -58.9982 160 -58.5844 160 -57.7568C160 -57.7547 160 -57.7529 160 -57.7507H160C160 -56.9232 159.692 -56.5094 159.383 -56.0955C159.076 -55.6822 158.768 -55.269 158.767 -54.4438C158.768 -53.6184 159.076 -53.2052 159.383 -52.7919C159.692 -52.3781 160 -51.9643 160 -51.1369C160 -51.1362 160 -51.1356 160 -51.1351C160 -51.1347 160 -51.1342 160 -51.1338C160 -51.133 160 -51.1324 160 -51.1317C160 -51.1314 160 -51.1311 160 -51.1308C160 -50.3033 159.692 -49.8894 159.383 -49.4756C159.076 -49.0623 158.768 -48.649 158.767 -47.8238C158.768 -46.9985 159.076 -46.5852 159.383 -46.1719C159.692 -45.7582 160 -45.3444 160 -44.5169C160 -44.516 160 -44.5153 160 -44.5146C160 -44.5142 160 -44.5139 160 -44.5136C160 -44.5127 160 -44.5117 160 -44.5105C160 -43.6832 159.692 -43.2694 159.384 -42.8556C159.076 -42.4423 158.768 -42.029 158.767 -41.2036C158.768 -40.3784 159.076 -39.9652 159.383 -39.552C159.692 -39.1383 160 -38.7245 160 -37.8969C160 -37.8963 160 -37.8957 160 -37.8952C160 -37.8948 160 -37.8943 160 -37.8939C160 -37.8927 160 -37.8918 160 -37.8906C160 -37.0631 159.692 -36.6493 159.383 -36.2355C159.076 -35.8223 158.768 -35.4091 158.767 -34.5839C158.768 -33.7585 159.076 -33.3452 159.384 -32.9319C159.692 -32.5181 160 -32.1043 160 -31.277C160 -31.2763 160 -31.2758 160 -31.2753C160 -31.2748 160 -31.2744 160 -31.274C160 -31.2734 160 -31.2728 160 -31.2723C160 -31.2718 160 -31.2712 160 -31.2706C160 -30.4431 159.692 -30.0294 159.383 -29.6156C159.076 -29.2023 158.768 -28.7891 158.767 -27.9637C158.768 -27.1385 159.076 -26.7252 159.383 -26.312C159.692 -25.8981 160 -25.4843 160 -24.6567C160 -24.6558 160 -24.6549 160 -24.6537C160 -24.6533 160 -24.6529 160 -24.6524C160 -24.6519 160 -24.6513 160 -24.6507C160 -23.8232 159.692 -23.4094 159.383 -22.9956C159.076 -22.5824 158.768 -22.1691 158.767 -21.3437C158.768 -20.5183 159.076 -20.1051 159.383 -19.6918C159.692 -19.278 160 -18.8643 160 -18.0368C160 -18.0356 160 -18.0347 160 -18.0337C160 -18.0331 160 -18.0325 160 -18.032C160 -18.0316 160 -18.0311 160 -18.0307C160 -17.2032 159.692 -16.7893 159.383 -16.3755C159.076 -15.9622 158.768 -15.549 158.767 -14.7238C158.768 -13.8984 159.076 -13.4851 159.383 -13.0719C159.692 -12.6581 160 -12.2443 160 -11.4168C160 -11.4156 160 -11.4147 160 -11.4138C160 -11.4126 160 -11.4117 160 -11.4105C160 -10.5831 159.692 -10.1693 159.383 -9.75555C159.076 -9.3423 158.768 -8.92905 158.767 -8.10381C158.768 -7.27843 159.076 -6.86518 159.383 -6.45192C159.692 -6.03814 160 -5.62435 160 -4.79687C160 -4.79628 160 -4.79584 160 -4.79539C160 -4.79493 160 -4.79446 160 -4.79384C160 -4.79305 160 -4.79239 160 -4.79169C160 -4.79131 160 -4.79092 160 -4.7905C160 -3.96297 159.692 -3.54919 159.383 -3.13543C159.076 -2.72223 158.768 -2.30905 158.767 -1.48386C158.768 -0.65844 159.076 -0.24511 159.384 0.168205C159.692 0.582008 160 0.995796 160 1.82309C160 1.82374 160 1.8243 160 1.82483C160 1.82528 160 1.8257 160 1.82612C160 1.82733 160 1.82824 160 1.82945C160 2.65697 159.692 3.07076 159.383 3.48452C159.076 3.89772 158.768 4.3109 158.767 5.13609C158.768 5.96151 159.076 6.37484 159.384 6.78815C159.692 7.20196 160 7.61575 160 8.44304C160 8.44425 160 8.44516 160 8.44637C160 8.447 160 8.44763 160 8.44836C160 8.44869 160 8.44904 160 8.44941C160 9.27689 159.692 9.69068 159.383 10.1045C159.244 10.2916 159.105 10.4788 158.994 10.7043C160.002 11.8011 160.002 11.8994 160 13.3129C160 13.3817 160 13.4535 160 13.5287C160 13.8335 159.958 14.0821 159.89 14.2953C159.958 14.5088 160 14.7579 160 15.0633C160 15.0639 160 15.0644 160 15.0651C160 15.0655 160 15.0659 160 15.0663L160 15.0694C160 15.8969 159.692 16.3107 159.383 16.7246C159.189 16.9853 158.995 17.246 158.878 17.6102C158.995 17.9734 159.189 18.2336 159.383 18.4938C159.691 18.9076 160 19.3213 160 20.1486C160 20.4535 159.958 20.7021 159.89 20.9153C159.958 21.1288 160 21.3779 160 21.6833C160 21.6842 160 21.6851 160 21.6863C160 21.6869 160 21.6874 160 21.688C160 21.6885 160 21.689 160 21.6896C160 22.517 159.692 22.9307 159.383 23.3445C159.189 23.6052 158.995 23.866 158.878 24.2301C158.995 24.5933 159.189 24.8535 159.383 25.1138C159.691 25.5275 160 25.9412 160 26.7686C160 26.7699 160 26.7709 159.999 26.772C159.999 26.773 159.999 26.7739 159.999 26.775H160C160 27.0783 159.958 27.326 159.891 27.5385C159.958 27.7513 160 27.9993 160 28.3032C160 28.3788 160 28.451 160 28.52C160.002 29.9339 160.003 30.0312 158.992 31.1303C159.103 31.3574 159.243 31.5455 159.383 31.7337C159.691 32.1474 160 32.5612 160 33.3886C160 33.3892 160 33.3897 159.999 33.3902C159.999 33.3908 159.999 33.3913 159.999 33.3919C159.999 33.3931 160 33.394 160 33.3949C160 33.6997 159.958 33.9484 159.89 34.1616C159.958 34.3751 160 34.6242 160 34.9295C160 35.7569 159.692 36.1706 159.383 36.5844C159.189 36.8449 158.995 37.1054 158.878 37.4692C158.995 37.8327 159.189 38.0931 159.383 38.3536C159.691 38.7674 160 39.1813 160 40.0088C160 40.0094 159.999 40.01 159.999 40.0107C159.999 40.011 159.999 40.0114 159.999 40.0118C159.999 40.0125 159.999 40.0131 159.999 40.0136C160 40.014 160 40.0145 160 40.0149C160 40.3198 159.958 40.5685 159.89 40.7817Z" fill="#F7F2DF"/>
<path fill-rule="evenodd" clip-rule="evenodd" d="M8.36122 122.816H150.67V-65.8993H8.36122V122.816ZM7.36035 123.817H151.671V-66.9004H7.36035V123.817Z" fill="#614731"/>
<path fill-rule="evenodd" clip-rule="evenodd" d="M51.2753 58.83C50.315 58.35 50.9504 54.848 51.2753 52.8707L52.3484 46.375C52.6592 44.4547 52.0945 43.8613 50.4845 43.8613C49.1289 43.8613 47.1516 44.4827 46.1632 44.9627L46.2056 45.0051C47.1235 44.6522 47.5328 44.9627 47.4061 45.7819L45.9371 54.6783C45.3584 58.1522 47.1516 59.1125 49.2703 59.1125C49.9197 59.1125 50.5972 59.0278 51.247 58.8867L51.2753 58.83Z" fill="#614731"/>
<path fill-rule="evenodd" clip-rule="evenodd" d="M49.0368 41.933C51.4956 42.0799 53.5086 40.8499 53.6622 39.0944C53.7725 37.8336 52.8052 37.2274 51.9497 37.1525C51.0266 37.0717 49.9364 37.6114 49.3096 38.5547C49.9096 39.4693 49.5649 41.2079 49.0273 41.9095L49.0368 41.933Z" fill="#614731"/>
<path fill-rule="evenodd" clip-rule="evenodd" d="M60.6796 48.2362C61.5613 45.9798 63.1528 44.9347 63.676 44.5913C63.7285 44.5565 63.7958 44.5276 63.8638 44.5038C64.2892 44.7315 64.494 45.5638 64.494 46.5722C64.4663 50.9498 61.6418 58.8298 59.1845 58.8298C57.9983 58.8298 58.4503 56.2033 58.535 55.6663L58.9931 52.8646C59.2759 52.0262 59.8751 50.2949 60.6796 48.2362ZM60.7659 59.0839C66.6688 59.0839 69.5498 52.9552 69.5498 48.3798C69.5498 45.3294 68.0528 43.6349 65.37 43.6349C64.7671 43.6349 64.1917 43.7297 63.6416 43.9583C63.5716 43.9839 63.5015 44.0147 63.4341 44.0516C62.8974 44.3112 62.3851 44.7062 61.8954 45.2785C61.2767 45.9097 60.6077 46.8005 60.1305 48.0217C59.9135 48.5773 59.7114 49.1088 59.5261 49.6065L61.2462 39.0879C61.5568 37.1673 60.9357 36.5742 59.3259 36.5742C57.97 36.5742 55.9933 37.1956 55.0044 37.6759L55.0468 37.7183C55.9647 37.3651 56.3746 37.6759 56.2472 38.4948L54.0161 52.5599C53.409 56.4008 56.5297 59.0839 60.7659 59.0839Z" fill="#614731"/>
<path fill-rule="evenodd" clip-rule="evenodd" d="M73.6904 59.1118C74.4813 59.1118 74.8339 59.0411 75.5824 58.8859L75.6394 58.8293C74.712 58.4483 75.281 55.4863 75.7235 53.4764C75.7987 53.2448 76.5091 51.0755 77.5825 48.3287C78.5928 45.7443 80.482 44.6895 80.6941 44.578C80.7548 44.546 80.8325 44.5149 80.9117 44.4872C81.5338 44.6438 81.7535 45.3359 81.7535 45.9083C81.7535 47.3343 80.7085 48.2102 79.664 48.2102C79.4943 49.9046 80.7085 50.6955 81.9796 50.6955C84.4933 50.6955 85.9053 48.8029 85.9053 46.911C85.9053 45.2162 84.7475 43.6348 82.3752 43.6348C81.9318 43.6348 81.5002 43.6921 81.0794 43.8213C80.9645 43.8505 80.6429 43.9383 80.4192 44.0563C80.0407 44.2559 78.0988 45.3887 77.0336 48.1142C76.7078 48.9468 76.4171 49.7242 76.1654 50.4148L77.1217 46.3743C77.5597 44.482 76.8112 43.8606 75.2011 43.8606C73.8455 43.8606 71.8685 44.482 70.8799 44.962L70.9222 45.0044C71.8405 44.6515 72.2638 44.962 72.1224 45.7812L70.541 54.6775C69.9199 58.1658 71.4592 59.1118 73.6904 59.1118Z" fill="#614731"/>
<path fill-rule="evenodd" clip-rule="evenodd" d="M95.0014 44.0307C96.4984 44.0307 96.3287 45.9654 96.0608 47.434L95.7499 49.1568C95.66 49.6649 95.5533 50.1766 95.4317 50.6837C95.4211 50.7148 95.4119 50.7428 95.4007 50.7748C95.1715 51.4288 94.849 52.2447 94.4754 53.1885C94.3282 53.5612 94.1743 53.9504 94.0173 54.3527C93.3316 56.1078 92.2272 57.165 91.5015 57.7087C91.4774 57.7106 91.4528 57.7145 91.4287 57.7145C90.6945 57.7145 90.3133 56.4857 90.3133 55.3279C90.3133 50.7949 92.2195 44.0307 95.0014 44.0307ZM99.9724 52.7296L101.469 43.9741C101.003 44.8216 100.424 45.1038 99.7322 45.1038C98.2916 45.1038 96.3993 43.8613 94.1401 43.8613C89.395 43.8613 85.2012 49.3687 85.2012 53.8594C85.2012 56.4578 86.2462 59.0842 89.2115 59.0842C89.8689 59.0842 90.5016 58.9559 91.1093 58.6466C91.1855 58.6149 91.2696 58.575 91.351 58.525C92.0114 58.1199 93.6461 56.9244 94.5665 54.567C94.7231 54.1657 94.8767 53.7771 95.0236 53.4056C95.0303 53.3891 95.0361 53.3739 95.0428 53.3574L94.7756 54.5372C93.9707 58.0815 96.0467 59.0842 98.4473 59.0842C99.1251 59.0842 99.8029 59.0278 100.453 58.8867L100.495 58.83C99.0401 58.8724 99.5487 55.1586 99.9724 52.7296Z" fill="#614731"/>
<path fill-rule="evenodd" clip-rule="evenodd" d="M105.271 59.1125C105.949 59.1125 106.754 59.0138 107.658 58.8867L107.715 58.83C106.848 58.4743 107.258 55.8677 107.695 53.8874C107.827 53.5131 108.572 51.4139 109.6 48.7802C110.461 46.5755 111.992 45.4674 112.603 45.0959C113.28 45.1575 113.341 46.0742 113.109 47.5328L111.979 54.5371C111.414 58.0818 113.377 59.0985 115.707 59.0985C116.385 59.0985 117.091 59.0138 117.769 58.8867L117.825 58.83C116.498 58.6042 116.865 55.1585 117.289 52.7296L117.966 48.7192C118.291 46.7986 118.418 43.8613 115.015 43.8613C114.25 43.8613 113.469 44.0128 112.698 44.4203C112.682 44.4251 112.666 44.4264 112.649 44.4337C112.552 44.4788 110.228 45.5534 109.051 48.5656C108.741 49.3601 108.462 50.1038 108.218 50.7703L109.239 46.375C109.677 44.4827 108.929 43.8613 107.319 43.8613C105.963 43.8613 103.986 44.4827 102.998 44.9627L103.04 45.0051C103.958 44.6522 104.381 44.9627 104.24 45.7819L102.659 54.6782C102.038 58.1665 103.04 59.1125 105.271 59.1125Z" fill="#614731"/>
<path fill-rule="evenodd" clip-rule="evenodd" d="M119.79 54.5357C119.239 58.08 121.188 59.0967 123.518 59.0967C124.184 59.0967 124.876 59.0147 125.543 58.8913C126.123 58.8042 126.646 58.6295 127.09 58.4141C127.156 58.3842 127.215 58.3534 127.269 58.3245C127.274 58.322 127.279 58.3193 127.284 58.3165C127.303 58.3065 127.324 58.2949 127.34 58.2858C127.374 58.2669 127.403 58.2477 127.435 58.2288C127.579 58.144 127.711 58.0566 127.83 57.967C127.928 57.8963 128.026 57.8234 128.131 57.7442C128.604 57.3885 129.04 56.9189 129.215 56.3414C129.329 55.9647 129.309 55.5655 129.162 55.201C128.787 54.2733 127.928 54.2446 127.337 54.4835C127.195 54.5411 127.064 54.6155 126.947 54.7042C126.443 55.0864 126.202 55.7322 126.441 56.4206C126.435 56.4008 126.85 56.4316 126.891 56.4435C127.023 56.4813 127.145 56.5501 127.246 56.6443C127.587 56.9646 127.526 57.3596 127.377 57.7549C127.353 57.8186 127.321 57.8786 127.29 57.9389C127.038 58.1611 126.741 58.333 126.402 58.4762C126.086 58.61 125.671 58.6634 125.3 58.6777C124.385 57.9499 124.742 54.9236 125.1 52.7281L126.445 44.466H130.688C130.696 44.3155 131.087 43.9927 131.087 43.9927C130.398 43.9927 127.984 44.043 127.294 44.043H126.514L127.402 38.6914H127.317C126.563 42.76 124.946 43.8605 121.533 44.0317C120.8 44.0284 120.187 44.0257 120.152 44.0253C119.996 44.0247 119.836 44.0296 119.719 44.1171C119.688 44.1402 119.519 44.466 119.524 44.466H121.363L119.79 54.5357Z" fill="#614731"/>
<path fill-rule="evenodd" clip-rule="evenodd" d="M41.7883 33.4551C39.9524 33.4551 38.2862 34.8393 38.2862 36.9571C38.2862 38.426 39.1475 39.5838 40.8139 39.6969C41.2095 38.5108 42.1979 37.9741 43.1579 37.9741C43.9579 37.9741 44.5875 38.3319 44.9742 38.8984C45.0194 39.0286 45.0322 39.1337 45.0456 39.2129C45.0687 39.3492 45.0849 39.4863 45.0949 39.6241C45.1531 40.432 44.9864 41.2698 44.6305 42.2438C44.1651 43.515 43.516 44.7876 42.1497 47.1072C41.2616 48.6148 39.6976 51.2273 38.7278 52.8434L36.1992 43.8889C35.5217 41.488 35.6208 39.1864 38.2049 39.1864L38.2189 39.1157H26.5121L26.498 39.1864C28.4747 39.1864 29.3226 40.8102 30.3109 44.1428L35.1405 59.8459L38.2795 54.6104C38.3033 54.5912 38.3256 54.569 38.3423 54.5409C38.3713 54.4925 41.2717 49.6693 42.6184 47.3833C42.6968 47.2495 42.7723 47.1203 42.8467 46.9935L43.1758 46.4446C43.3291 46.1889 43.7464 45.4411 43.9987 44.9705C44.1234 44.7386 44.2008 44.5688 44.2008 44.5688C44.3388 44.2991 44.4674 44.0273 44.5899 43.7542C44.8057 43.2891 44.9834 42.86 45.1406 42.4306C45.4168 41.676 45.6033 40.9586 45.6682 40.2665C45.7685 39.6631 45.827 39.0581 45.827 38.4541C45.827 35.0365 43.7653 33.4551 41.7883 33.4551Z" fill="#614731"/>
<path fill-rule="evenodd" clip-rule="evenodd" d="M63.6418 88.0034C58.7842 88.0034 51.0033 82.7786 45.1851 82.7786C42.7281 82.7786 40.0736 84.1765 37.5313 87.2549L37.5173 87.2409C40.6807 82.5384 46.4846 81.931 47.4449 75.8026L48.9416 66.3129C49.2381 64.4206 49.9586 60.6361 52.4439 60.6361C53.6301 60.6361 54.3359 61.6104 54.3359 62.3729C54.3359 63.3049 53.6581 64.3359 52.5283 64.3075C52.1614 65.7762 53.3192 66.6798 54.6187 66.6798C56.6804 66.6798 58.5724 64.9573 58.5724 62.952C58.5724 61.3986 57.4429 59.9863 55.1267 59.9863C48.9699 59.9863 43.9423 66.3129 43.0387 71.7919L41.8669 79.1208C41.1043 83.9223 38.7458 84.9533 37.1787 87.6788L37.2631 87.7209C38.1671 86.3936 38.9293 86.1815 39.9179 86.1815C46.6684 86.1815 53.4042 92.3246 59.1374 92.3246C61.8772 92.3246 64.3903 90.9407 66.4803 86.8173L66.424 86.7889C65.6755 87.7069 64.8566 88.0034 63.6418 88.0034Z" fill="#614731"/>
<path fill-rule="evenodd" clip-rule="evenodd" d="M64.5785 62.4515C64.6885 61.191 63.7212 60.5849 62.866 60.5099C61.9432 60.4291 60.8525 60.9689 60.2259 61.9118C60.826 62.8261 60.4813 64.5653 59.9434 65.2666L59.9528 65.2901C62.4122 65.4373 64.4249 64.2072 64.5785 62.4515Z" fill="#614731"/>
<path fill-rule="evenodd" clip-rule="evenodd" d="M63.2644 69.7305C63.5752 67.8099 63.0105 67.2168 61.4005 67.2168C60.0449 67.2168 58.0676 67.8382 57.0792 68.3185L57.1216 68.3609C58.0396 68.0077 58.4488 68.3185 58.3218 69.1374L56.8531 78.034C56.2744 81.508 58.0676 82.468 60.186 82.468C60.8354 82.468 61.5135 82.3833 62.163 82.2422L62.1913 82.1858C61.2307 81.7055 61.8661 78.2035 62.1913 76.2265L63.2644 69.7305Z" fill="#614731"/>
<path fill-rule="evenodd" clip-rule="evenodd" d="M85.3797 60.5099C84.4569 60.4291 83.3664 60.9689 82.7395 61.9121C83.3399 62.8264 82.9949 64.5653 82.457 65.2666L82.4665 65.2901C84.9259 65.4373 86.9385 64.2072 87.0921 62.4515C87.2021 61.191 86.2351 60.5849 85.3797 60.5099Z" fill="#614731"/>
<path fill-rule="evenodd" clip-rule="evenodd" d="M83.9139 67.2168C82.5583 67.2168 80.581 67.8382 79.5926 68.3185L79.635 68.3606C80.5532 68.0077 80.9622 68.3185 80.8351 69.1374L79.3668 78.034C78.7881 81.5077 80.581 82.468 82.6997 82.468C83.3488 82.468 84.0269 82.3833 84.6764 82.2422L84.7047 82.1855C83.7441 81.7055 84.3795 78.2032 84.7047 76.2265L85.7778 69.7305C86.0889 67.8099 85.5239 67.2168 83.9139 67.2168Z" fill="#614731"/>
<path fill-rule="evenodd" clip-rule="evenodd" d="M99.7172 67.2168C98.8657 67.2168 97.994 67.4039 97.1389 67.9238C96.8649 68.0586 94.727 69.185 93.6033 72.0616C93.4193 72.5331 93.2471 72.9853 93.0852 73.4163L93.9416 69.7305C94.379 67.8382 93.6308 67.2168 92.021 67.2168C90.6654 67.2168 88.6884 67.8382 87.6998 68.3185L87.7421 68.3606C88.6601 68.0077 89.0837 68.3185 88.9426 69.1374L87.3609 78.034C86.7395 81.5217 87.7421 82.468 89.9733 82.468C90.6511 82.468 91.4566 82.3693 92.3599 82.2422L92.4163 82.1855C91.4889 81.8046 92.0247 78.8404 92.4909 76.8302C92.7838 75.9647 93.3726 74.2727 94.1525 72.2765C95.1637 69.6878 97.0993 68.6053 97.3824 68.4611C97.9879 68.5843 98.0337 69.4864 97.8106 70.8883L96.6808 77.8926C96.1161 81.437 98.0791 82.454 100.409 82.454C101.087 82.454 101.793 82.3693 102.471 82.2422L102.528 82.1855C101.2 81.9597 101.567 78.514 101.991 76.0851L102.668 72.0744C102.993 70.1541 103.12 67.2168 99.7172 67.2168Z" fill="#614731"/>
<path fill-rule="evenodd" clip-rule="evenodd" d="M109.252 78.6834C109.252 74.1504 111.158 67.3862 113.94 67.3862C115.437 67.3862 115.267 69.3208 114.999 70.7894L114.746 72.1926C114.738 72.2087 114.727 72.223 114.722 72.2416C114.716 72.2642 114.095 74.5216 113.133 77.4171C112.491 79.3508 111.39 80.4571 110.575 81.0465C110.506 81.0602 110.437 81.07 110.367 81.07C109.633 81.07 109.252 79.8415 109.252 78.6834ZM118.671 68.4596C117.23 68.4596 115.338 67.2168 113.079 67.2168C108.334 67.2168 104.14 72.7241 104.14 77.2148C104.14 79.8132 105.185 82.44 108.15 82.44C109.013 82.44 109.834 82.2205 110.611 81.6573C110.709 81.6052 110.811 81.5473 110.884 81.4946C111.764 80.8601 112.959 79.6675 113.65 77.5885C113.911 76.8022 114.146 76.0656 114.351 75.4045L112.726 84.0777C112.203 86.888 111.525 88.4977 109.35 88.4977C107.671 88.4977 107.162 87.5237 107.162 86.7469C107.162 85.9981 107.642 85.2499 108.743 85.1228C108.913 83.5977 107.642 82.7789 106.484 82.7789C104.874 82.7789 103.604 83.9366 103.604 85.5184C103.604 88.0884 106.851 88.5965 109.195 88.5965C114.562 88.5965 117.485 85.9136 118.092 82.0444L120.408 67.3299C119.941 68.1771 119.363 68.4596 118.671 68.4596Z" fill="#614731"/>
<path fill-rule="evenodd" clip-rule="evenodd" d="M78.7664 71.3728C78.7673 71.3247 78.7707 71.2772 78.7707 71.2287C78.7707 68.4045 77.0195 66.9922 75.2964 66.9922C73.715 66.9922 72.246 68.1786 72.246 70.0989C72.246 71.2851 73.0369 72.3868 74.4778 72.4715C74.8383 70.4872 77.7717 70.2678 78.2837 72.0778C78.284 73.1886 77.9353 74.3766 77.1399 76.0141C76.1193 78.1154 74.1953 79.6496 73.4154 80.2116C72.3612 80.972 70.7033 81.4337 70.2495 81.5507C69.4443 81.2779 69.5391 80.0309 69.8738 77.9225L71.1733 69.7317C71.4838 67.8111 70.9188 67.2183 69.309 67.2183C67.9534 67.2183 65.9765 67.8394 64.9881 68.3197L65.0305 68.3621C65.9481 68.0089 66.3717 68.3197 66.2306 69.1386L64.7623 78.2894C64.31 81.0856 65.4961 82.4412 68.0665 82.4412C68.9586 82.4412 69.8674 82.2754 70.7594 81.9752C71.4756 81.7689 72.7976 81.3273 73.7333 80.6526C74.5467 80.0662 76.5541 78.4644 77.629 76.2518C78.6043 74.2437 78.9429 72.8595 78.7984 71.4737C78.7948 71.4372 78.7835 71.4033 78.7664 71.3728Z" fill="#614731"/>
<path fill-rule="evenodd" clip-rule="evenodd" d="M30.6016 101.926C30.6016 101.051 30.3216 100.513 29.6709 100.513C28.2586 100.513 28.0228 102.89 28.0228 103.989C28.0228 104.841 28.2023 105.256 28.7853 105.256C29.8617 105.256 30.6016 103.484 30.6016 101.926ZM31.678 103.204C31.5662 103.921 31.454 104.448 31.454 104.819C31.454 105.088 31.5439 105.289 31.8018 105.289C32.0148 105.289 32.1718 105.143 32.4183 104.807L32.6536 104.975C32.3732 105.424 31.9471 105.738 31.398 105.738C30.6802 105.738 30.3666 105.368 30.3666 104.796C30.3666 104.639 30.3886 104.471 30.4334 104.28L30.3666 104.269C30.0076 105.099 29.357 105.738 28.3817 105.738C27.2489 105.738 26.6885 105.009 26.6885 103.764C26.6885 102.15 27.5409 100.143 29.4582 100.143C30.1871 100.143 30.5906 100.49 30.8037 100.95L31.3306 97.4964H30.4221L30.4559 97.2051H32.6761L31.678 103.204Z" fill="#614731"/>
<path fill-rule="evenodd" clip-rule="evenodd" d="M36.6783 100.445C36.0164 100.445 35.3437 101.365 35.1642 102.934C36.3866 102.856 37.2723 102.464 37.2723 101.275C37.2723 100.714 37.0592 100.445 36.6783 100.445ZM38.4383 101.432C38.4383 102.587 37.2835 102.946 36.3302 103.125C35.9493 103.192 35.5458 103.237 35.142 103.259V103.417C35.142 104.784 35.4559 105.278 36.2522 105.278C36.8913 105.278 37.5861 104.93 37.99 103.753L38.2929 103.843C37.9229 105.099 37.0482 105.738 35.8036 105.738C34.4916 105.738 33.7852 104.953 33.7852 103.63C33.7852 101.724 35.0298 100.143 36.8578 100.143C37.8552 100.143 38.4383 100.591 38.4383 101.432Z" fill="#614731"/>
<path fill-rule="evenodd" clip-rule="evenodd" d="M42.3062 104.942C41.9363 105.48 41.5434 105.738 40.9717 105.738C40.2204 105.738 39.8057 105.357 39.8057 104.639C39.8057 104.236 39.9288 103.54 40.1979 102.116L41.0838 97.4964H40.2204L40.2656 97.2051H42.4181C42.2276 98.091 41.2076 103.563 41.0726 104.426C40.9942 104.93 40.9607 105.301 41.3307 105.301C41.5772 105.301 41.7793 105.143 42.0481 104.763L42.3062 104.942Z" fill="#614731"/>
<path fill-rule="evenodd" clip-rule="evenodd" d="M44.6156 98.5731C44.6156 98.0797 44.9743 97.6875 45.546 97.6875C45.9718 97.6875 46.2635 97.8777 46.2635 98.3376C46.2635 98.8535 45.9048 99.2232 45.333 99.2232C44.7948 99.2232 44.6156 98.9318 44.6156 98.5731ZM46.2635 104.953C45.9277 105.458 45.5348 105.738 44.9405 105.738C44.2231 105.738 43.7968 105.413 43.7968 104.684C43.7968 104.46 43.8531 104.034 43.965 103.507C44.0997 102.901 44.5145 100.973 44.6157 100.547H43.7188L43.7745 100.255H45.9277C45.7927 100.849 45.1088 104.213 45.0749 104.426C45.0304 104.628 45.0079 104.796 45.0079 104.931C45.0079 105.211 45.12 105.301 45.3218 105.301C45.5574 105.301 45.7369 105.144 46.0173 104.774L46.2635 104.953Z" fill="#614731"/>
<path fill-rule="evenodd" clip-rule="evenodd" d="M51.8588 103.854C51.6009 104.717 50.9167 105.738 49.4255 105.738C48.0684 105.738 47.3623 104.93 47.3623 103.607C47.3623 101.78 48.4729 100.143 50.5468 100.143C51.668 100.143 52.1839 100.748 52.1839 101.477C52.1839 102.026 51.9036 102.486 51.2645 102.486C50.8271 102.486 50.5696 102.251 50.5696 101.914C50.5696 101.735 50.6254 101.533 50.7372 101.365H51.1413C51.2081 101.208 51.2306 101.073 51.2306 100.95C51.2306 100.602 50.9844 100.423 50.5803 100.423C49.2238 100.423 48.7417 102.15 48.7417 103.596C48.7417 104.785 49.0446 105.289 49.829 105.289C50.6141 105.289 51.1971 104.751 51.5336 103.753L51.8588 103.854Z" fill="#614731"/>
<path fill-rule="evenodd" clip-rule="evenodd" d="M54.4027 98.5731C54.4027 98.0797 54.7614 97.6875 55.3332 97.6875C55.7592 97.6875 56.0509 97.8777 56.0509 98.3376C56.0509 98.8535 55.6919 99.2232 55.1201 99.2232C54.5819 99.2232 54.4027 98.9318 54.4027 98.5731ZM56.0509 104.953C55.7148 105.458 55.3219 105.738 54.728 105.738C54.0102 105.738 53.5839 105.413 53.5839 104.684C53.5839 104.46 53.6403 104.034 53.7521 103.507C53.8868 102.901 54.3016 100.973 54.4028 100.547H53.5059L53.5616 100.255H55.7148C55.5798 100.849 54.8959 104.213 54.8624 104.426C54.8176 104.628 54.795 104.796 54.795 104.931C54.795 105.211 54.9072 105.301 55.1089 105.301C55.3445 105.301 55.524 105.144 55.8044 104.774L56.0509 104.953Z" fill="#614731"/>
<path fill-rule="evenodd" clip-rule="evenodd" d="M60.9729 101.87C60.9729 100.917 60.7376 100.412 60.0424 100.412C58.618 100.412 58.3717 102.991 58.3717 103.978C58.3717 104.908 58.6295 105.446 59.3137 105.446C60.7937 105.446 60.9729 102.946 60.9729 101.87ZM57.1045 103.63C57.1045 101.881 58.1474 100.143 60.1771 100.143C61.5894 100.143 62.2623 100.917 62.2623 102.228C62.2623 104.056 61.1749 105.738 59.2016 105.738C57.7774 105.738 57.1045 104.93 57.1045 103.63Z" fill="#614731"/>
<path fill-rule="evenodd" clip-rule="evenodd" d="M64.6162 100.546H63.7754L63.8202 100.255H65.9508C65.8161 100.815 65.177 103.966 65.1319 104.213C65.0984 104.392 65.0761 104.549 65.0761 104.695C65.0761 105.009 65.188 105.211 65.5918 105.211C66.3765 105.211 67.0717 104.022 67.4645 102.531C67.6773 101.757 67.7894 101.118 67.8568 100.311C68.2042 100.322 68.9551 100.255 69.2696 100.188C68.9551 101.656 68.5854 103.45 68.4623 104.168C68.4062 104.493 68.3837 104.729 68.3837 104.897C68.3837 105.132 68.473 105.312 68.7201 105.312C68.9551 105.312 69.1459 105.155 69.4037 104.796L69.6393 104.964C69.3592 105.379 68.9664 105.738 68.3614 105.738C67.6212 105.738 67.285 105.412 67.285 104.83C67.285 104.639 67.3185 104.415 67.3969 104.157L67.4868 103.82L67.4194 103.798C66.9934 104.729 66.3653 105.738 65.1432 105.738C64.224 105.738 63.8875 105.211 63.8875 104.482C63.8875 104.325 63.8988 104.157 63.932 103.977C64.078 103.159 64.3919 101.645 64.6162 100.546Z" fill="#614731"/>
<path fill-rule="evenodd" clip-rule="evenodd" d="M73.8097 104.381C73.8097 103.82 73.3163 103.618 72.7777 103.417C72.0826 103.159 71.3201 102.901 71.3201 101.881C71.3201 100.77 72.4078 100.143 73.6411 100.143C74.6279 100.143 75.3231 100.502 75.3231 101.253C75.3231 101.712 75.0653 102.071 74.5271 102.071C74.1793 102.071 73.8993 101.892 73.8993 101.589C73.8993 101.421 73.9441 101.264 74.0675 101.107H74.4039C74.4375 101.029 74.4484 100.961 74.4484 100.894C74.4484 100.625 74.1793 100.457 73.6862 100.457C72.9347 100.457 72.3742 100.838 72.3742 101.443C72.3742 101.937 72.8564 102.161 73.4171 102.385C74.1345 102.666 74.9644 102.98 74.9644 103.921C74.9644 105.031 73.9102 105.738 72.5202 105.738C71.2643 105.738 70.6807 105.199 70.6807 104.504C70.6807 104 70.9839 103.652 71.5108 103.652C71.8698 103.652 72.1161 103.877 72.1161 104.202C72.1161 104.347 72.0826 104.504 71.9707 104.65H71.6117C71.5779 104.717 71.5672 104.796 71.5672 104.863C71.5672 105.166 71.8586 105.39 72.5202 105.39C73.2711 105.39 73.8097 105.054 73.8097 104.381Z" fill="#614731"/>
<path fill-rule="evenodd" clip-rule="evenodd" d="M79.2808 104.942C78.9109 105.48 78.5186 105.738 77.9466 105.738C77.1954 105.738 76.7803 105.357 76.7803 104.639C76.7803 104.236 76.904 103.54 77.1731 102.116L78.0588 97.4964H77.1954L77.2402 97.2051H79.393C79.2022 98.091 78.1822 103.563 78.0475 104.426C77.9688 104.93 77.9353 105.301 78.3053 105.301C78.5522 105.301 78.7539 105.143 79.0227 104.763L79.2808 104.942Z" fill="#614731"/>
<path fill-rule="evenodd" clip-rule="evenodd" d="M80.0098 107.42C79.9308 107.532 79.8863 107.655 79.8863 107.756C79.8863 107.935 80.0207 108.07 80.3011 108.07C80.9176 108.07 81.6914 107.532 82.6895 106.018C82.308 104.594 81.7926 102.744 81.3885 101.443C81.2541 100.983 81.1419 100.86 80.9402 100.86C80.7046 100.86 80.5251 101.096 80.2898 101.712L79.9647 101.578C80.2676 100.793 80.6037 100.221 81.4671 100.221C82.0501 100.221 82.4091 100.535 82.6332 101.286C82.9699 102.385 83.3061 103.63 83.5977 104.796C84.1469 103.966 84.9877 102.52 84.9877 101.768C84.9877 101.477 84.8421 101.275 84.629 101.264L84.27 101.712C83.9226 101.6 83.6873 101.32 83.6873 100.961C83.6873 100.49 84.0125 100.143 84.5391 100.143C85.1898 100.143 85.5488 100.647 85.5488 101.331C85.5488 102.374 84.6516 103.899 83.9339 104.953C82.88 106.5 81.8039 108.418 80.2112 108.418C79.3816 108.418 78.877 107.958 78.877 107.229C78.877 106.657 79.2582 106.276 79.7851 106.276C80.2898 106.276 80.6711 106.668 80.5026 107.341L80.0098 107.42Z" fill="#614731"/>
<path fill-rule="evenodd" clip-rule="evenodd" d="M93.1154 104.706C93.1154 103.955 93.6201 102.509 93.8109 101.634C93.867 101.41 93.8892 101.23 93.8892 101.084C93.8892 100.793 93.7774 100.658 93.5082 100.658C92.7793 100.658 92.0283 101.713 91.658 102.8C91.4002 103.563 91.2429 104.515 91.1311 105.581C90.7834 105.57 90.0434 105.626 89.7295 105.693L90.1665 103.664L91.1311 97.4964H90.29L90.3238 97.2051H92.4431L91.4225 102.194L91.4898 102.228C91.9607 101.264 92.7009 100.143 93.9005 100.143C94.6855 100.143 95.0891 100.557 95.0891 101.309C95.0891 101.522 95.0552 101.791 94.9995 102.038C94.8651 102.576 94.5399 103.798 94.4167 104.347C94.3713 104.527 94.3156 104.774 94.3156 104.953C94.3156 105.211 94.439 105.301 94.6295 105.301C94.8989 105.301 95.1451 105.087 95.3694 104.785L95.605 104.975C95.3024 105.412 94.8873 105.738 94.2595 105.738C93.5418 105.738 93.1154 105.39 93.1154 104.706Z" fill="#614731"/>
<path fill-rule="evenodd" clip-rule="evenodd" d="M99.719 100.445C99.0574 100.445 98.3848 101.365 98.2053 102.934C99.4277 102.856 100.313 102.464 100.313 101.275C100.313 100.714 100.1 100.445 99.719 100.445ZM101.479 101.432C101.479 102.587 100.325 102.946 99.3712 103.125C98.9903 103.192 98.5868 103.237 98.183 103.259V103.417C98.183 104.784 98.4969 105.278 99.2932 105.278C99.9323 105.278 100.627 104.93 101.031 103.753L101.334 103.843C100.964 105.099 100.089 105.738 98.8446 105.738C97.5326 105.738 96.8262 104.953 96.8262 103.63C96.8262 101.724 98.0708 100.143 99.8985 100.143C100.896 100.143 101.479 100.591 101.479 101.432Z" fill="#614731"/>
<path fill-rule="evenodd" clip-rule="evenodd" d="M106.501 101.97C106.501 100.973 106.154 100.513 105.56 100.513C104.416 100.513 103.923 102.128 103.923 103.899C103.923 104.706 104.046 105.256 104.696 105.256C105.717 105.256 106.501 103.518 106.501 101.97ZM108.542 104.975C108.273 105.402 107.858 105.738 107.286 105.738C106.546 105.738 106.243 105.379 106.243 104.83C106.243 104.65 106.277 104.46 106.333 104.247L106.277 104.236C105.929 105.02 105.301 105.738 104.247 105.738C103.149 105.738 102.6 105.009 102.6 103.742C102.6 102.127 103.497 100.143 105.358 100.143C106.053 100.143 106.468 100.446 106.726 101.006L106.916 100.277C107.308 100.289 107.768 100.255 108.138 100.199C107.858 101.578 107.533 103.181 107.331 104.616C107.308 104.729 107.308 104.83 107.308 104.908C107.308 105.189 107.409 105.301 107.634 105.301C107.836 105.301 108.06 105.155 108.307 104.796L108.542 104.975Z" fill="#614731"/>
<path fill-rule="evenodd" clip-rule="evenodd" d="M112.332 104.942C111.962 105.48 111.569 105.738 110.997 105.738C110.246 105.738 109.831 105.357 109.831 104.639C109.831 104.236 109.954 103.54 110.223 102.116L111.109 97.4964H110.246L110.291 97.2051H112.443C112.253 98.091 111.233 103.563 111.098 104.426C111.02 104.93 110.986 105.301 111.356 105.301C111.603 105.301 111.805 105.143 112.073 104.763L112.332 104.942Z" fill="#614731"/>
<path fill-rule="evenodd" clip-rule="evenodd" d="M115.717 100.547L115.134 103.687C115.034 104.214 114.989 104.528 114.989 104.707C114.989 105.044 115.146 105.223 115.471 105.223C115.875 105.223 116.143 104.965 116.491 104.483L116.749 104.674C116.379 105.257 115.83 105.739 115.079 105.739C114.114 105.739 113.722 105.201 113.722 104.528C113.722 104.135 113.8 103.709 113.935 103.048L114.417 100.547H113.609L113.654 100.256H114.462L114.675 98.9549L116.031 98.6074L115.762 100.256H116.94L116.895 100.547H115.717Z" fill="#614731"/>
<path fill-rule="evenodd" clip-rule="evenodd" d="M121.278 104.706C121.278 103.955 121.783 102.509 121.974 101.634C122.03 101.41 122.052 101.23 122.052 101.084C122.052 100.793 121.94 100.658 121.671 100.658C120.942 100.658 120.191 101.713 119.821 102.8C119.563 103.563 119.406 104.515 119.294 105.581C118.946 105.57 118.206 105.626 117.893 105.693L118.33 103.664L119.294 97.4964H118.453L118.487 97.2051H120.606L119.585 102.194L119.653 102.228C120.124 101.264 120.864 100.143 122.064 100.143C122.848 100.143 123.252 100.557 123.252 101.309C123.252 101.522 123.218 101.791 123.162 102.038C123.028 102.576 122.703 103.798 122.58 104.347C122.534 104.527 122.479 104.774 122.479 104.953C122.479 105.211 122.602 105.301 122.793 105.301C123.062 105.301 123.308 105.087 123.533 104.785L123.768 104.975C123.465 105.412 123.05 105.738 122.422 105.738C121.705 105.738 121.278 105.39 121.278 104.706Z" fill="#614731"/>
<path fill-rule="evenodd" clip-rule="evenodd" d="M124.596 107.42C124.518 107.532 124.473 107.655 124.473 107.756C124.473 107.935 124.607 108.07 124.888 108.07C125.504 108.07 126.278 107.532 127.276 106.018C126.895 104.594 126.379 102.744 125.975 101.443C125.841 100.983 125.729 100.86 125.527 100.86C125.292 100.86 125.112 101.096 124.877 101.712L124.552 101.578C124.854 100.793 125.19 100.221 126.054 100.221C126.637 100.221 126.996 100.535 127.22 101.286C127.557 102.385 127.893 103.63 128.184 104.796C128.734 103.966 129.575 102.52 129.575 101.768C129.575 101.477 129.429 101.275 129.216 101.264L128.857 101.712C128.51 101.6 128.274 101.32 128.274 100.961C128.274 100.49 128.599 100.143 129.126 100.143C129.777 100.143 130.135 100.647 130.135 101.331C130.135 102.374 129.238 103.899 128.521 104.953C127.467 106.5 126.39 108.418 124.798 108.418C123.968 108.418 123.464 107.958 123.464 107.229C123.464 106.657 123.845 106.276 124.372 106.276C124.877 106.276 125.258 106.668 125.09 107.341L124.596 107.42Z" fill="#614731"/>
</svg>
