<svg width="260" height="280" viewBox="0 0 260 280" fill="none" xmlns="http://www.w3.org/2000/svg">
<path fill-rule="evenodd" clip-rule="evenodd" d="M42.2427 31.2769C41.0588 30.6853 41.8421 26.3685 42.2427 23.9312L43.5654 15.9247C43.9486 13.5573 43.2523 12.8262 41.2678 12.8262C39.5968 12.8262 37.1598 13.5921 35.9415 14.1838L35.9935 14.2362C37.1252 13.8009 37.6297 14.1838 37.4732 15.1934L35.6629 26.1593C34.9494 30.4414 37.1598 31.6251 39.7711 31.6251C40.5716 31.6251 41.4071 31.5208 42.2078 31.3466L42.2427 31.2769Z" fill="#614731"/>
<path fill-rule="evenodd" clip-rule="evenodd" d="M39.4844 10.4511C42.5154 10.6323 44.9965 9.11599 45.1858 6.95196C45.3218 5.3983 44.1293 4.65093 43.0749 4.5586C41.9373 4.45916 40.5933 5.12431 39.8206 6.28682C40.5605 7.41409 40.1355 9.55727 39.4727 10.422L39.4844 10.4511Z" fill="#614731"/>
<path fill-rule="evenodd" clip-rule="evenodd" d="M53.8337 18.2185C54.9203 15.4373 56.8823 14.1492 57.5271 13.7256C57.592 13.6831 57.6745 13.6474 57.7586 13.6179C58.2829 13.8985 58.5354 14.9247 58.5354 16.1675C58.501 21.5634 55.0198 31.2763 51.9907 31.2763C50.5287 31.2763 51.0858 28.0388 51.19 27.3773L51.7549 23.9235C52.1032 22.89 52.8422 20.7563 53.8337 18.2185ZM53.9407 31.5893C61.2167 31.5893 64.7678 24.035 64.7678 18.3953C64.7678 14.6356 62.9226 12.5469 59.6156 12.5469C58.8727 12.5469 58.1635 12.6637 57.485 12.9453C57.3991 12.9771 57.3126 13.0149 57.2293 13.0601C56.568 13.3803 55.9364 13.8671 55.3329 14.5726C54.5701 15.3506 53.7456 16.4485 53.1574 17.9539C52.8899 18.6387 52.6408 19.2938 52.4122 19.9073L54.5327 6.94179C54.9154 4.57458 54.1498 3.84375 52.1655 3.84375C50.4944 3.84375 48.0576 4.60949 46.8389 5.2015L46.8912 5.25362C48.0227 4.81847 48.5277 5.2015 48.3707 6.21096L45.6206 23.5477C44.8721 28.2821 48.719 31.5893 53.9407 31.5893Z" fill="#614731"/>
<path fill-rule="evenodd" clip-rule="evenodd" d="M69.873 31.6252C70.8477 31.6252 71.2827 31.5382 72.2053 31.3468L72.2753 31.2771C71.1322 30.8074 71.8337 27.1567 72.3791 24.6791C72.472 24.3932 73.3477 21.7194 74.6708 18.3334C75.9157 15.148 78.2447 13.8482 78.5063 13.7104C78.5806 13.671 78.6764 13.6328 78.7744 13.5985C79.5413 13.7916 79.812 14.6447 79.812 15.3504C79.812 17.1082 78.5239 18.1875 77.2361 18.1875C77.027 20.2763 78.5239 21.251 80.0906 21.251C83.189 21.251 84.9294 18.9185 84.9294 16.586C84.9294 14.4973 83.5023 12.5479 80.578 12.5479C80.0315 12.5479 79.4997 12.6185 78.981 12.7778C78.8392 12.8139 78.4429 12.9221 78.1675 13.0674C77.7007 13.3134 75.3068 14.7097 73.9939 18.0692C73.5927 19.0957 73.2341 20.054 72.9236 20.9053L74.1026 15.9249C74.6425 13.5922 73.7199 12.8263 71.7354 12.8263C70.0645 12.8263 67.6278 13.5922 66.409 14.1839L66.4611 14.2364C67.5928 13.801 68.115 14.1839 67.9408 15.1935L65.9912 26.1595C65.2256 30.4591 67.1229 31.6252 69.873 31.6252Z" fill="#614731"/>
<path fill-rule="evenodd" clip-rule="evenodd" d="M96.1421 13.035C97.9872 13.035 97.7782 15.4198 97.4476 17.23L97.0647 19.3535C96.9539 19.9796 96.822 20.6104 96.6724 21.2355C96.6592 21.2737 96.6479 21.3084 96.6341 21.348C96.3514 22.1541 95.954 23.1594 95.4939 24.3233C95.3124 24.7826 95.1226 25.2624 94.929 25.7579C94.0842 27.9215 92.7226 29.2246 91.828 29.8947C91.798 29.8969 91.7679 29.9019 91.7383 29.9019C90.8334 29.9019 90.3633 28.3872 90.3633 26.9602C90.3633 21.3726 92.7128 13.035 96.1421 13.035ZM102.269 23.7574L104.115 12.9653C103.54 14.0097 102.826 14.3578 101.974 14.3578C100.198 14.3578 97.8655 12.8262 95.0805 12.8262C89.2319 12.8262 84.0625 19.6144 84.0625 25.1499C84.0625 28.3526 85.3506 31.5902 89.0056 31.5902C89.8162 31.5902 90.596 31.432 91.345 31.0508C91.439 31.0117 91.5422 30.9624 91.643 30.9007C92.457 30.4015 94.4717 28.9276 95.6062 26.0221C95.7995 25.5274 95.9887 25.0486 96.1698 24.5906C96.178 24.5699 96.1853 24.5516 96.1934 24.531L95.8638 25.9854C94.8719 30.3542 97.4306 31.5902 100.39 31.5902C101.225 31.5902 102.061 31.5207 102.861 31.3464L102.914 31.2768C101.12 31.3291 101.747 26.7512 102.269 23.7574Z" fill="#614731"/>
<path fill-rule="evenodd" clip-rule="evenodd" d="M108.799 31.6251C109.635 31.6251 110.627 31.5033 111.741 31.3466L111.811 31.2769C110.743 30.8383 111.248 27.6253 111.787 25.1844C111.949 24.7233 112.867 22.1355 114.135 18.8891C115.197 16.1719 117.083 14.8057 117.836 14.3479C118.671 14.424 118.745 15.5538 118.46 17.3518L117.067 25.9854C116.371 30.3543 118.79 31.6077 121.662 31.6077C122.498 31.6077 123.368 31.5033 124.204 31.3466L124.273 31.2769C122.637 30.9985 123.09 26.7513 123.612 23.7574L124.447 18.8139C124.847 16.4467 125.004 12.8262 120.809 12.8262C119.867 12.8262 118.903 13.013 117.954 13.515C117.933 13.5209 117.914 13.5224 117.893 13.5319C117.773 13.5873 114.909 14.9119 113.458 18.6248C113.076 19.6038 112.732 20.5208 112.432 21.3423L113.69 15.9247C114.23 13.5921 113.307 12.8262 111.323 12.8262C109.652 12.8262 107.215 13.5921 105.997 14.1838L106.049 14.2362C107.18 13.8009 107.702 14.1838 107.528 15.1934L105.579 26.1593C104.813 30.4589 106.049 31.6251 108.799 31.6251Z" fill="#614731"/>
<path fill-rule="evenodd" clip-rule="evenodd" d="M126.695 25.985C126.017 30.3539 128.419 31.6071 131.291 31.6071C132.111 31.6071 132.965 31.5058 133.786 31.3539C134.502 31.2465 135.147 31.0313 135.693 30.7656C135.775 30.7287 135.848 30.6909 135.915 30.6552C135.921 30.6521 135.926 30.6487 135.932 30.6454C135.956 30.6327 135.982 30.6188 136.002 30.6074C136.043 30.5842 136.08 30.5604 136.119 30.5371C136.296 30.4327 136.459 30.3248 136.606 30.2146C136.726 30.1276 136.847 30.0375 136.977 29.9398C137.56 29.5016 138.097 28.9225 138.313 28.2106C138.453 27.7464 138.429 27.2542 138.248 26.8048C137.785 25.6615 136.726 25.6263 135.998 25.9206C135.823 25.9916 135.661 26.0834 135.517 26.1928C134.896 26.664 134.599 27.4599 134.894 28.3082C134.886 28.284 135.398 28.3219 135.449 28.3365C135.612 28.3831 135.762 28.4682 135.885 28.5843C136.306 28.9789 136.231 29.4657 136.047 29.9532C136.018 30.0314 135.978 30.1057 135.94 30.1802C135.63 30.454 135.263 30.6658 134.846 30.8422C134.456 31.0071 133.945 31.0728 133.488 31.0904C132.359 30.1934 132.8 26.4635 133.24 23.7569L134.899 13.5729H140.128C140.138 13.3876 140.621 12.9897 140.621 12.9897C139.771 12.9897 136.796 13.0516 135.946 13.0516H134.984L136.077 6.45508H135.973C135.044 11.4701 133.051 12.8266 128.843 13.0377C127.94 13.0335 127.185 13.0301 127.141 13.0299C126.949 13.0291 126.752 13.0349 126.608 13.1429C126.57 13.1715 126.362 13.5729 126.367 13.5729H128.635L126.695 25.985Z" fill="#614731"/>
<path fill-rule="evenodd" clip-rule="evenodd" d="M30.5498 0C28.2869 0 26.233 1.70588 26.233 4.31681C26.233 6.12709 27.2949 7.5545 29.3488 7.69382C29.8364 6.23166 31.0547 5.57 32.238 5.57C33.2243 5.57 34.0003 6.01144 34.477 6.70967C34.5323 6.86984 34.5481 6.99972 34.5645 7.09701C34.5931 7.26528 34.6135 7.43405 34.6257 7.60398C34.6976 8.59971 34.4922 9.63266 34.0531 10.8331C33.4796 12.4 32.6796 13.9685 30.9954 16.8278C29.9011 18.6864 27.9727 21.9062 26.7776 23.8983L23.661 12.8608C22.8254 9.90153 22.9475 7.06442 26.1331 7.06442L26.1503 6.97722H11.7203L11.7031 7.06442C14.1398 7.06442 15.1844 9.06597 16.4028 13.174L22.3557 32.5298L26.2249 26.0764C26.2545 26.0526 26.2817 26.0253 26.3024 25.9909C26.3381 25.9312 29.9132 19.9859 31.573 17.168C31.67 17.0033 31.7631 16.844 31.8545 16.6875L32.26 16.0111C32.4491 15.6959 32.9632 14.7741 33.2746 14.1942C33.4282 13.9083 33.5238 13.6988 33.5238 13.6988C33.6936 13.3662 33.8524 13.0313 34.0035 12.695C34.2695 12.1217 34.4884 11.5927 34.6822 11.0634C35.0225 10.1332 35.2523 9.24863 35.3324 8.39586C35.4557 7.65196 35.5278 6.9064 35.5278 6.16201C35.5278 1.94943 32.9869 0 30.5498 0Z" fill="#614731"/>
<path fill-rule="evenodd" clip-rule="evenodd" d="M57.4863 67.2375C51.4986 67.2375 41.9079 60.7971 34.7363 60.7971C31.7077 60.7971 28.4355 62.5204 25.3022 66.3149L25.285 66.2973C29.184 60.5013 36.3379 59.7526 37.5213 52.1983L39.3665 40.5013C39.7321 38.1687 40.6198 33.5041 43.6833 33.5041C45.1456 33.5041 46.0156 34.7048 46.0156 35.645C46.0156 36.7936 45.1802 38.0643 43.7877 38.0294C43.3355 39.8397 44.7624 40.9537 46.3641 40.9537C48.9055 40.9537 51.2378 38.8302 51.2378 36.3584C51.2378 34.4437 49.8453 32.7031 46.9903 32.7031C39.4014 32.7031 33.2045 40.5013 32.0904 47.2549L30.6458 56.2887C29.706 62.207 26.7989 63.4776 24.8672 66.8372L24.9714 66.8893C26.0855 65.2533 27.0253 64.992 28.2437 64.992C36.5643 64.992 44.8671 72.5636 51.934 72.5636C55.3111 72.5636 58.4089 70.858 60.9853 65.7753L60.9155 65.7404C59.9929 66.872 58.9837 67.2375 57.4863 67.2375Z" fill="#614731"/>
<path fill-rule="evenodd" clip-rule="evenodd" d="M58.6409 35.7418C58.7769 34.1882 57.5844 33.441 56.5299 33.3486C55.3924 33.2492 54.0484 33.9143 53.2757 35.0769C54.0156 36.2038 53.5906 38.3473 52.9277 39.2118L52.9395 39.2406C55.9705 39.4221 58.4516 37.9059 58.6409 35.7418Z" fill="#614731"/>
<path fill-rule="evenodd" clip-rule="evenodd" d="M57.0204 44.7144C57.4036 42.3472 56.7074 41.6162 54.7231 41.6162C53.0521 41.6162 50.6149 42.3821 49.3964 42.974L49.4487 43.0262C50.5805 42.5911 51.0848 42.974 50.9283 43.9836L49.118 54.9497C48.4045 59.2314 50.6149 60.4151 53.2261 60.4151C54.0268 60.4151 54.8624 60.3105 55.6629 60.1366L55.6978 60.067C54.5139 59.475 55.2972 55.1583 55.6978 52.7216L57.0204 44.7144Z" fill="#614731"/>
<path fill-rule="evenodd" clip-rule="evenodd" d="M84.2799 33.3487C83.1422 33.2491 81.7982 33.9144 81.0257 35.0769C81.7656 36.2037 81.3404 38.3473 80.6777 39.2119L80.6895 39.2406C83.7205 39.4222 86.2014 37.9059 86.3909 35.7419C86.5267 34.1882 85.3344 33.441 84.2799 33.3487Z" fill="#614731"/>
<path fill-rule="evenodd" clip-rule="evenodd" d="M82.4748 41.6162C80.8039 41.6162 78.3668 42.382 77.1486 42.974L77.2005 43.0261C78.3323 42.5909 78.8367 42.974 78.68 43.9834L76.8699 54.9495C76.1565 59.2314 78.3668 60.4151 80.9781 60.4151C81.7786 60.4151 82.6142 60.3105 83.4148 60.1366L83.4497 60.067C82.2657 59.475 83.0491 55.1582 83.4497 52.7216L84.7724 44.7144C85.1556 42.347 84.4593 41.6162 82.4748 41.6162Z" fill="#614731"/>
<path fill-rule="evenodd" clip-rule="evenodd" d="M101.954 41.6162C100.904 41.6162 99.8297 41.8469 98.7759 42.4875C98.4379 42.6538 95.8029 44.0422 94.418 47.5883C94.191 48.1692 93.9787 48.7265 93.7794 49.2577L94.835 44.7144C95.3742 42.382 94.4516 41.6162 92.4676 41.6162C90.7966 41.6162 88.3596 42.382 87.1413 42.974L87.1933 43.0261C88.3245 42.5909 88.8471 42.974 88.6728 43.9834L86.7234 54.9495C85.9573 59.249 87.1933 60.4151 89.9434 60.4151C90.7789 60.4151 91.7714 60.2933 92.8854 60.1366L92.9547 60.067C91.8117 59.5972 92.4718 55.9436 93.0469 53.4659C93.4078 52.399 94.1335 50.3132 95.0951 47.8525C96.3408 44.6621 98.7272 43.3277 99.076 43.15C99.8224 43.3017 99.8788 44.4138 99.604 46.1418L98.2115 54.7755C97.5153 59.1444 99.9346 60.3976 102.807 60.3976C103.642 60.3976 104.513 60.2933 105.348 60.1366L105.418 60.067C103.782 59.7885 104.234 55.5414 104.756 52.5474L105.592 47.604C105.992 45.2366 106.149 41.6162 101.954 41.6162Z" fill="#614731"/>
<path fill-rule="evenodd" clip-rule="evenodd" d="M113.707 55.7499C113.707 50.1623 116.057 41.8247 119.486 41.8247C121.331 41.8247 121.122 44.2095 120.791 46.0198L120.48 47.7493C120.469 47.7693 120.455 47.7868 120.449 47.8095C120.442 47.8375 119.677 50.62 118.492 54.1889C117.7 56.5725 116.343 57.9361 115.338 58.6626C115.253 58.6798 115.167 58.6916 115.082 58.6916C114.177 58.6916 113.707 57.1773 113.707 55.7499ZM125.317 43.1479C123.541 43.1479 121.209 41.6162 118.424 41.6162C112.575 41.6162 107.405 48.4048 107.405 53.9399C107.405 57.1427 108.694 60.3804 112.349 60.3804C113.413 60.3804 114.424 60.1103 115.382 59.4157C115.503 59.3517 115.628 59.2804 115.718 59.215C116.804 58.4329 118.276 56.963 119.127 54.4004C119.449 53.4314 119.739 52.5234 119.992 51.7087L117.989 62.3993C117.344 65.8633 116.509 67.8475 113.828 67.8475C111.757 67.8475 111.13 66.6466 111.13 65.6891C111.13 64.7665 111.722 63.8441 113.08 63.6875C113.289 61.8076 111.722 60.7981 110.295 60.7981C108.31 60.7981 106.744 62.2254 106.744 64.1748C106.744 67.3429 110.747 67.9693 113.637 67.9693C120.252 67.9693 123.854 64.6623 124.603 59.8928L127.458 41.7554C126.883 42.7997 126.169 43.1479 125.317 43.1479Z" fill="#614731"/>
<path fill-rule="evenodd" clip-rule="evenodd" d="M76.13 46.7365C76.1308 46.6773 76.1351 46.6183 76.1351 46.5589C76.1351 43.0775 73.9765 41.3369 71.8527 41.3369C69.9033 41.3369 68.093 42.7991 68.093 45.1663C68.093 46.6284 69.0677 47.9864 70.8436 48.0906C71.288 45.645 74.9041 45.3743 75.535 47.6055C75.5353 48.9743 75.1055 50.439 74.125 52.4572C72.867 55.0473 70.4955 56.9387 69.5345 57.6314C68.235 58.5683 66.191 59.1376 65.6316 59.2815C64.6395 58.9458 64.756 57.4086 65.1687 54.8095L66.7705 44.7136C67.1532 42.3464 66.4569 41.6155 64.4724 41.6155C62.8015 41.6155 60.3649 42.3813 59.1465 42.9733L59.1986 43.0254C60.3298 42.5903 60.852 42.9733 60.6783 43.9828L58.868 55.2621C58.3111 58.7086 59.7729 60.3797 62.9408 60.3797C64.0408 60.3797 65.1606 60.1754 66.2602 59.8049C67.1433 59.5507 68.7729 59.0066 69.9261 58.1748C70.9285 57.4521 73.4031 55.4775 74.7279 52.7504C75.9299 50.2753 76.3474 48.5689 76.1695 46.8607C76.1649 46.8157 76.1507 46.774 76.13 46.7365Z" fill="#614731"/>
<path fill-rule="evenodd" clip-rule="evenodd" d="M16.7597 84.3996C16.7597 83.3225 16.4147 82.6585 15.6129 82.6585C13.8717 82.6585 13.5819 85.5884 13.5819 86.9424C13.5819 87.9919 13.8021 88.5038 14.5213 88.5038C15.8478 88.5038 16.7597 86.3204 16.7597 84.3996ZM18.0858 85.976C17.9481 86.8604 17.8104 87.5098 17.8104 87.965C17.8104 88.2971 17.9206 88.5464 18.238 88.5464C18.5004 88.5464 18.6947 88.3667 18.9976 87.9521L19.2875 88.1594C18.9425 88.7117 18.4177 89.0987 17.7408 89.0987C16.8564 89.0987 16.4694 88.642 16.4694 87.9374C16.4694 87.7448 16.4969 87.5374 16.552 87.3027L16.4694 87.2879C16.0271 88.3116 15.2255 89.0987 14.0236 89.0987C12.6275 89.0987 11.9375 88.1998 11.9375 86.666C11.9375 84.6772 12.9872 82.2039 15.3501 82.2039C16.2492 82.2039 16.7462 82.6316 17.0086 83.1983L17.6582 78.9419H16.5389L16.5794 78.584H19.3151L18.0858 85.976Z" fill="#614731"/>
<path fill-rule="evenodd" clip-rule="evenodd" d="M24.2504 82.5755C23.4356 82.5755 22.6064 83.7092 22.3846 85.6431C23.8908 85.546 24.9825 85.0633 24.9825 83.5975C24.9825 82.9076 24.7201 82.5755 24.2504 82.5755ZM26.419 83.792C26.419 85.2156 24.9971 85.6577 23.8212 85.878C23.3514 85.9605 22.8542 86.0158 22.357 86.0433V86.2375C22.357 87.9237 22.744 88.5311 23.7257 88.5311C24.5128 88.5311 25.3695 88.1034 25.8669 86.6523L26.2393 86.7623C25.7842 88.3107 24.7055 89.0978 23.1717 89.0978C21.5552 89.0978 20.6855 88.131 20.6855 86.4999C20.6855 84.1514 22.2193 82.2031 24.4707 82.2031C25.7016 82.2031 26.419 82.7553 26.419 83.792Z" fill="#614731"/>
<path fill-rule="evenodd" clip-rule="evenodd" d="M31.1876 88.1172C30.7308 88.7812 30.2482 89.0987 29.5421 89.0987C28.6172 89.0987 28.1055 88.629 28.1055 87.7448C28.1055 87.2474 28.2577 86.3906 28.5898 84.635L29.6813 78.9419H28.6172L28.6723 78.584H31.3253C31.0905 79.6755 29.8335 86.4181 29.6667 87.4823C29.5711 88.1041 29.5291 88.5593 29.9842 88.5593C30.2887 88.5593 30.5382 88.3666 30.8685 87.8968L31.1876 88.1172Z" fill="#614731"/>
<path fill-rule="evenodd" clip-rule="evenodd" d="M34.0342 80.2675C34.0342 79.6602 34.4763 79.1758 35.181 79.1758C35.7056 79.1758 36.0652 79.4107 36.0652 79.9776C36.0652 80.6141 35.6231 81.0693 34.9185 81.0693C34.2545 81.0693 34.0342 80.7096 34.0342 80.2675ZM36.065 88.1307C35.6505 88.7527 35.1662 89.0977 34.4341 89.0977C33.5497 89.0977 33.025 88.6959 33.025 87.7987C33.025 87.5217 33.093 86.997 33.2323 86.3476C33.3975 85.6009 33.9094 83.2249 34.034 82.7001H32.9277L32.9974 82.3405H35.6505C35.4836 83.0727 34.6414 87.2189 34.5994 87.4813C34.5441 87.729 34.5166 87.9363 34.5166 88.1031C34.5166 88.4481 34.6545 88.5583 34.9038 88.5583C35.1937 88.5583 35.4156 88.3655 35.7605 87.9089L36.065 88.1307Z" fill="#614731"/>
<path fill-rule="evenodd" clip-rule="evenodd" d="M42.9606 86.7761C42.6433 87.8403 41.8009 89.097 39.9627 89.097C38.2912 89.097 37.4199 88.1026 37.4199 86.4716C37.4199 84.2186 38.7884 82.2021 41.3443 82.2021C42.7258 82.2021 43.3624 82.9472 43.3624 83.8461C43.3624 84.5232 43.0157 85.0901 42.2286 85.0901C41.6892 85.0901 41.3717 84.8002 41.3717 84.3855C41.3717 84.1637 41.4414 83.9158 41.5791 83.7085H42.0763C42.1606 83.5142 42.1881 83.3489 42.1881 83.1967C42.1881 82.7692 41.8837 82.5471 41.3863 82.5471C39.7148 82.5471 39.1205 84.6754 39.1205 86.4571C39.1205 87.9229 39.493 88.5447 40.4599 88.5447C41.4268 88.5447 42.1459 87.8807 42.5606 86.6515L42.9606 86.7761Z" fill="#614731"/>
<path fill-rule="evenodd" clip-rule="evenodd" d="M46.099 80.2675C46.099 79.6602 46.5411 79.1758 47.2458 79.1758C47.7704 79.1758 48.13 79.4107 48.13 79.9776C48.13 80.6141 47.6879 81.0693 46.9833 81.0693C46.3209 81.0693 46.099 80.7096 46.099 80.2675ZM48.1297 88.1307C47.7153 88.7527 47.2326 89.0977 46.4988 89.0977C45.6144 89.0977 45.0898 88.6959 45.0898 87.7987C45.0898 87.5217 45.1594 86.997 45.2971 86.3476C45.4639 85.6009 45.9742 83.2249 46.0987 82.7001H44.9941L45.0621 82.3405H47.7153C47.55 83.0727 46.7061 87.2189 46.6656 87.4813C46.6105 87.729 46.583 87.9363 46.583 88.1031C46.583 88.4481 46.7207 88.5583 46.9686 88.5583C47.2601 88.5583 47.4803 88.3655 47.8253 87.9089L48.1297 88.1307Z" fill="#614731"/>
<path fill-rule="evenodd" clip-rule="evenodd" d="M54.196 84.3295C54.196 83.1536 53.9061 82.5333 53.0492 82.5333C51.2935 82.5333 50.9907 85.7111 50.9907 86.9257C50.9907 88.074 51.3081 88.7365 52.1504 88.7365C53.9741 88.7365 54.196 85.656 54.196 84.3295ZM49.4297 86.4991C49.4297 84.3433 50.7141 82.2021 53.2149 82.2021C54.956 82.2021 55.7853 83.1545 55.7853 84.7725C55.7853 87.0239 54.4457 89.097 52.0132 89.097C50.259 89.097 49.4297 88.1026 49.4297 86.4991Z" fill="#614731"/>
<path fill-rule="evenodd" clip-rule="evenodd" d="M58.687 82.7009H57.6504L57.7071 82.3414H60.3325C60.1657 83.0328 59.3786 86.9151 59.3235 87.2197C59.2813 87.44 59.2538 87.6342 59.2538 87.8126C59.2538 88.1996 59.3915 88.4489 59.8904 88.4489C60.8573 88.4489 61.7141 86.9848 62.1967 85.1465C62.4591 84.1925 62.5984 83.4054 62.681 82.411C63.1085 82.4239 64.0351 82.3414 64.4221 82.2588C64.0351 84.0679 63.5783 86.2788 63.4277 87.163C63.358 87.5647 63.3304 87.8546 63.3304 88.0619C63.3304 88.3518 63.4406 88.5737 63.7451 88.5737C64.0351 88.5737 64.2699 88.3793 64.5874 87.9372L64.8773 88.1445C64.5323 88.6562 64.048 89.0985 63.3029 89.0985C62.3911 89.0985 61.9765 88.6968 61.9765 87.9794C61.9765 87.7444 62.0168 87.4676 62.1141 87.1501L62.2242 86.7354L62.1416 86.7078C61.6169 87.8546 60.8427 89.0985 59.3364 89.0985C58.2043 89.0985 57.7897 88.4489 57.7897 87.5502C57.7897 87.3574 57.8026 87.1501 57.8448 86.9282C58.0245 85.9207 58.4117 84.0548 58.687 82.7009Z" fill="#614731"/>
<path fill-rule="evenodd" clip-rule="evenodd" d="M70.0204 87.4255C70.0204 86.7339 69.4114 86.4845 68.749 86.2367C67.8923 85.9192 66.9528 85.6002 66.9528 84.3433C66.9528 82.9748 68.2922 82.2021 69.8131 82.2021C71.0279 82.2021 71.8846 82.6444 71.8846 83.5692C71.8846 84.136 71.5671 84.5783 70.9048 84.5783C70.4754 84.5783 70.1306 84.3579 70.1306 83.9838C70.1306 83.7765 70.1857 83.5837 70.3378 83.3893H70.7526C70.7929 83.2938 70.8075 83.2113 70.8075 83.1271C70.8075 82.7966 70.4754 82.5893 69.8682 82.5893C68.9416 82.5893 68.2518 83.0589 68.2518 83.804C68.2518 84.413 68.8447 84.6883 69.5361 84.9653C70.4205 85.3103 71.4425 85.6975 71.4425 86.8586C71.4425 88.2257 70.1435 89.097 68.4315 89.097C66.8831 89.097 66.1641 88.433 66.1641 87.5762C66.1641 86.9559 66.5382 86.5266 67.1876 86.5266C67.6299 86.5266 67.9326 86.8035 67.9326 87.2036C67.9326 87.3835 67.8923 87.5762 67.7546 87.7559H67.3123C67.2702 87.8401 67.2558 87.9356 67.2558 88.0183C67.2558 88.3924 67.6153 88.6678 68.4315 88.6678C69.3564 88.6678 70.0204 88.2531 70.0204 87.4255Z" fill="#614731"/>
<path fill-rule="evenodd" clip-rule="evenodd" d="M76.7621 88.1172C76.3071 88.7812 75.8228 89.0987 75.1183 89.0987C74.1917 89.0987 73.6816 88.629 73.6816 87.7448C73.6816 87.2474 73.8339 86.3906 74.1643 84.635L75.256 78.9419H74.1917L74.2468 78.584H76.8998C76.665 79.6755 75.4082 86.4181 75.2429 87.4823C75.1458 88.1041 75.1038 88.5593 75.5604 88.5593C75.865 88.5593 76.1127 88.3666 76.4448 87.8968L76.7621 88.1172Z" fill="#614731"/>
<path fill-rule="evenodd" clip-rule="evenodd" d="M77.6618 91.1702C77.5645 91.3078 77.5094 91.46 77.5094 91.5831C77.5094 91.805 77.6763 91.9703 78.0213 91.9703C78.7809 91.9703 79.7348 91.3078 80.9641 89.4421C80.4944 87.6879 79.8595 85.4074 79.3609 83.804C79.1956 83.2387 79.0579 83.0865 78.8084 83.0865C78.5185 83.0865 78.2966 83.3764 78.0067 84.136L77.6067 83.9709C77.9791 83.004 78.3938 82.2978 79.4578 82.2978C80.1771 82.2978 80.6192 82.6848 80.8945 83.6112C81.3091 84.9653 81.7238 86.4991 82.0833 87.9358C82.7602 86.9137 83.797 85.1306 83.797 84.2057C83.797 83.8461 83.6171 83.5968 83.3547 83.5837L82.9126 84.136C82.4834 83.9984 82.1935 83.6534 82.1935 83.2113C82.1935 82.6299 82.5951 82.2021 83.2447 82.2021C84.0447 82.2021 84.4869 82.8241 84.4869 83.6663C84.4869 84.9507 83.3823 86.8312 82.4979 88.13C81.1991 90.0364 79.8725 92.3995 77.9111 92.3995C76.8874 92.3995 76.2656 91.8327 76.2656 90.9337C76.2656 90.2292 76.7352 89.7595 77.3848 89.7595C78.0067 89.7595 78.4765 90.2438 78.2692 91.073L77.6618 91.1702Z" fill="#614731"/>
<path fill-rule="evenodd" clip-rule="evenodd" d="M93.8169 87.8263C93.8169 86.8999 94.4389 85.1183 94.6736 84.0397C94.7433 83.7643 94.7709 83.5423 94.7709 83.3626C94.7709 83.0047 94.6316 82.8379 94.3012 82.8379C93.4023 82.8379 92.4773 84.1368 92.0207 85.4778C91.7033 86.4173 91.5089 87.5916 91.3713 88.9035C90.9435 88.8904 90.03 88.9601 89.6445 89.0428L90.1823 86.5419L91.3713 78.9409H90.3347L90.3767 78.583H92.9875L91.7308 84.7311L91.8134 84.7733C92.3933 83.5845 93.305 82.2029 94.7838 82.2029C95.7508 82.2029 96.2495 82.7132 96.2495 83.6396C96.2495 83.902 96.2074 84.2341 96.1378 84.5385C95.9725 85.2009 95.5724 86.7072 95.4202 87.3842C95.3651 87.6045 95.2956 87.9091 95.2956 88.1308C95.2956 88.4483 95.4478 88.5585 95.6826 88.5585C96.0147 88.5585 96.3175 88.2961 96.5945 87.9235L96.8845 88.1584C96.5119 88.6962 96.0001 89.0977 95.2259 89.0977C94.3416 89.0977 93.8169 88.6685 93.8169 87.8263Z" fill="#614731"/>
<path fill-rule="evenodd" clip-rule="evenodd" d="M101.956 82.5755C101.141 82.5755 100.312 83.7092 100.092 85.6431C101.598 85.546 102.69 85.0633 102.69 83.5975C102.69 82.9076 102.426 82.5755 101.956 82.5755ZM104.126 83.792C104.126 85.2156 102.702 85.6577 101.528 85.878C101.058 85.9605 100.561 86.0158 100.064 86.0433V86.2375C100.064 87.9237 100.451 88.5311 101.431 88.5311C102.22 88.5311 103.075 88.1034 103.573 86.6523L103.946 86.7623C103.489 88.3107 102.412 89.0978 100.878 89.0978C99.2619 89.0978 98.3906 88.131 98.3906 86.4999C98.3906 84.1514 99.9244 82.2031 102.177 82.2031C103.407 82.2031 104.126 82.7553 104.126 83.792Z" fill="#614731"/>
<path fill-rule="evenodd" clip-rule="evenodd" d="M110.317 84.4538C110.317 83.2244 109.887 82.6575 109.155 82.6575C107.746 82.6575 107.137 84.6482 107.137 86.8314C107.137 87.8258 107.289 88.5029 108.091 88.5029C109.348 88.5029 110.317 86.3617 110.317 84.4538ZM112.83 88.1585C112.5 88.6833 111.988 89.0978 111.283 89.0978C110.371 89.0978 109.997 88.6557 109.997 87.9788C109.997 87.7567 110.04 87.522 110.109 87.2595L110.04 87.2466C109.612 88.2136 108.838 89.0978 107.539 89.0978C106.185 89.0978 105.508 88.199 105.508 86.6376C105.508 84.6488 106.612 82.2031 108.906 82.2031C109.763 82.2031 110.274 82.5756 110.592 83.2672L110.827 82.3683C111.311 82.3828 111.878 82.3408 112.333 82.2711C111.988 83.9717 111.588 85.9476 111.339 87.7164C111.311 87.854 111.311 87.9788 111.311 88.0759C111.311 88.4209 111.436 88.5586 111.711 88.5586C111.961 88.5586 112.237 88.3787 112.54 87.9366L112.83 88.1585Z" fill="#614731"/>
<path fill-rule="evenodd" clip-rule="evenodd" d="M117.5 88.1172C117.045 88.7812 116.561 89.0987 115.856 89.0987C114.93 89.0987 114.42 88.629 114.42 87.7448C114.42 87.2474 114.572 86.3906 114.903 84.635L115.994 78.9419H114.93L114.985 78.584H117.638C117.403 79.6755 116.146 86.4181 115.981 87.4823C115.884 88.1041 115.842 88.5593 116.299 88.5593C116.603 88.5593 116.851 88.3666 117.183 87.8968L117.5 88.1172Z" fill="#614731"/>
<path fill-rule="evenodd" clip-rule="evenodd" d="M121.676 82.7001L120.959 86.5694C120.834 87.219 120.779 87.6045 120.779 87.8262C120.779 88.2408 120.971 88.4612 121.373 88.4612C121.87 88.4612 122.202 88.1437 122.63 87.5494L122.948 87.7842C122.492 88.5032 121.815 89.0977 120.889 89.0977C119.7 89.0977 119.217 88.4336 119.217 87.6045C119.217 87.1217 119.313 86.597 119.48 85.7806L120.074 82.7001H119.078L119.135 82.3406H120.129L120.392 80.7371L122.063 80.3096L121.731 82.3406H123.182L123.127 82.7001H121.676Z" fill="#614731"/>
<path fill-rule="evenodd" clip-rule="evenodd" d="M128.53 87.8263C128.53 86.8999 129.152 85.1183 129.386 84.0397C129.456 83.7643 129.484 83.5423 129.484 83.3626C129.484 83.0047 129.344 82.8379 129.014 82.8379C128.115 82.8379 127.19 84.1368 126.733 85.4778C126.416 86.4173 126.222 87.5916 126.084 88.9035C125.656 88.8904 124.743 88.9601 124.357 89.0428L124.895 86.5419L126.084 78.9409H125.047L125.089 78.583H127.7L126.444 84.7311L126.526 84.7733C127.106 83.5845 128.018 82.2029 129.497 82.2029C130.464 82.2029 130.962 82.7132 130.962 83.6396C130.962 83.902 130.92 84.2341 130.851 84.5385C130.685 85.2009 130.285 86.7072 130.133 87.3842C130.078 87.6045 130.008 87.9091 130.008 88.1308C130.008 88.4483 130.161 88.5585 130.395 88.5585C130.727 88.5585 131.03 88.2961 131.307 87.9235L131.597 88.1584C131.225 88.6962 130.713 89.0977 129.939 89.0977C129.054 89.0977 128.53 88.6685 128.53 87.8263Z" fill="#614731"/>
<path fill-rule="evenodd" clip-rule="evenodd" d="M132.621 91.1702C132.523 91.3078 132.469 91.46 132.469 91.5831C132.469 91.805 132.635 91.9703 132.98 91.9703C133.74 91.9703 134.694 91.3078 135.923 89.4421C135.453 87.6879 134.819 85.4074 134.32 83.804C134.155 83.2387 134.017 83.0865 133.768 83.0865C133.477 83.0865 133.256 83.3764 132.966 84.136L132.566 83.9709C132.938 83.004 133.353 82.2978 134.417 82.2978C135.136 82.2978 135.578 82.6848 135.853 83.6112C136.268 84.9653 136.683 86.4991 137.042 87.9358C137.719 86.9137 138.756 85.1306 138.756 84.2057C138.756 83.8461 138.576 83.5968 138.314 83.5837L137.872 84.136C137.443 83.9984 137.152 83.6534 137.152 83.2113C137.152 82.6299 137.554 82.2021 138.204 82.2021C139.004 82.2021 139.446 82.8241 139.446 83.6663C139.446 84.9507 138.341 86.8312 137.457 88.13C136.158 90.0364 134.831 92.3995 132.87 92.3995C131.846 92.3995 131.225 91.8327 131.225 90.9337C131.225 90.2292 131.694 89.7595 132.344 89.7595C132.966 89.7595 133.435 90.2438 133.228 91.073L132.621 91.1702Z" fill="#614731"/>
<path fill-rule="evenodd" clip-rule="evenodd" d="M205.212 30.7998C180.572 30.7998 158.209 49.3742 158.209 77.8033C158.209 97.5145 169.771 113.057 192.134 114.574C197.444 98.6532 210.709 91.4486 223.594 91.4486C234.333 91.4486 242.783 96.2552 247.973 103.858C248.575 105.602 248.748 107.016 248.926 108.075C249.238 109.908 249.459 111.745 249.592 113.596C250.374 124.438 248.139 135.685 243.357 148.755C237.113 165.816 228.402 182.896 210.064 214.029C198.148 234.266 177.15 269.325 164.138 291.016L130.203 170.834C121.105 138.612 122.434 107.721 157.12 107.721L157.308 106.771H0.187366L0 107.721C26.532 107.721 37.9055 129.514 51.1724 174.244L115.99 385L158.12 314.732C158.443 314.473 158.738 314.176 158.963 313.801C159.353 313.151 198.28 248.416 216.353 217.733C217.409 215.94 218.423 214.205 219.418 212.501L223.833 205.136C225.893 201.704 231.49 191.668 234.881 185.353C236.553 182.24 237.594 179.959 237.594 179.959C239.442 176.338 241.172 172.691 242.817 169.029C245.714 162.786 248.097 157.027 250.207 151.263C253.913 141.135 256.415 131.503 257.287 122.218C258.629 114.118 259.415 106 259.415 97.8947C259.415 52.0262 231.748 30.7998 205.212 30.7998Z" fill="#F5E0BC"/>
</svg>
