<svg width="422" height="445" viewBox="0 0 422 445" fill="none" xmlns="http://www.w3.org/2000/svg">
<path fill-rule="evenodd" clip-rule="evenodd" d="M68.5773 50.7738C66.6555 49.8133 67.927 42.8055 68.5773 38.849L70.7245 25.8514C71.3466 22.0082 70.2163 20.8213 66.9947 20.8213C64.2821 20.8213 60.3259 22.0646 58.3482 23.0252L58.4325 23.1103C60.2697 22.4036 61.0887 23.0252 60.8346 24.6642L57.8958 42.466C56.7376 49.4174 60.3259 51.339 64.5649 51.339C65.8644 51.339 67.2209 51.1697 68.5206 50.8869L68.5773 50.7738Z" fill="#614731"/>
<path fill-rule="evenodd" clip-rule="evenodd" d="M64.0991 16.9654C69.0197 17.2595 73.0473 14.798 73.3546 11.285C73.5754 8.76281 71.6396 7.54954 69.9278 7.39966C68.0812 7.23823 65.8993 8.318 64.6449 10.2052C65.8461 12.0352 65.1561 15.5144 64.0801 16.9181L64.0991 16.9654Z" fill="#614731"/>
<path fill-rule="evenodd" clip-rule="evenodd" d="M87.3955 29.5764C89.1594 25.0615 92.3445 22.9704 93.3912 22.2828C93.4965 22.2137 93.6306 22.1557 93.767 22.1079C94.6182 22.5635 95.0281 24.2293 95.0281 26.2468C94.9722 35.0064 89.3208 50.7741 84.4036 50.7741C82.0302 50.7741 82.9346 45.5184 83.1038 44.4445L84.0208 38.8377C84.5862 37.1601 85.7858 33.6962 87.3955 29.5764ZM87.5682 51.2822C99.3799 51.2822 105.145 39.0187 105.145 29.8634C105.145 23.76 102.149 20.3692 96.7807 20.3692C95.5746 20.3692 94.4234 20.5588 93.3219 21.0159C93.1825 21.0675 93.042 21.129 92.9069 21.2024C91.8333 21.7221 90.808 22.5123 89.8282 23.6576C88.5899 24.9206 87.2515 26.703 86.2966 29.1468C85.8623 30.2585 85.458 31.3219 85.0868 32.3179L88.5292 11.27C89.1505 7.42713 87.9077 6.24072 84.6864 6.24072C81.9735 6.24072 78.0178 7.48381 76.0393 8.44487L76.1241 8.52947C77.9611 7.82305 78.7809 8.44487 78.526 10.0836L74.0616 38.2276C72.8464 45.9134 79.0914 51.2822 87.5682 51.2822Z" fill="#614731"/>
<path fill-rule="evenodd" clip-rule="evenodd" d="M113.431 51.3389C115.013 51.3389 115.719 51.1976 117.217 50.8868L117.33 50.7737C115.475 50.0112 116.614 44.0848 117.499 40.0627C117.65 39.5986 119.071 35.258 121.219 29.7613C123.24 24.5902 127.021 22.4801 127.446 22.2563C127.566 22.1924 127.722 22.1304 127.881 22.0748C129.126 22.3882 129.565 23.7731 129.565 24.9187C129.565 27.7723 127.474 29.5244 125.384 29.5244C125.044 32.9152 127.474 34.4976 130.018 34.4976C135.047 34.4976 137.873 30.7111 137.873 26.9246C137.873 23.5338 135.556 20.3691 130.809 20.3691C129.922 20.3691 129.058 20.4838 128.216 20.7425C127.986 20.8011 127.343 20.9767 126.896 21.2125C126.138 21.612 122.252 23.8787 120.12 29.3324C119.469 30.9988 118.887 32.5545 118.383 33.9365L120.297 25.8513C121.173 22.0646 119.676 20.8212 116.454 20.8212C113.741 20.8212 109.786 22.0646 107.807 23.0251L107.892 23.1102C109.729 22.4035 110.577 23.0251 110.294 24.6641L107.129 42.4659C105.886 49.4458 108.966 51.3389 113.431 51.3389Z" fill="#614731"/>
<path fill-rule="evenodd" clip-rule="evenodd" d="M156.075 21.1602C159.07 21.1602 158.731 25.0315 158.195 27.9703L157.573 31.4175C157.393 32.4339 157.179 33.4578 156.936 34.4726C156.915 34.5346 156.896 34.591 156.874 34.6552C156.415 35.9639 155.77 37.5959 155.023 39.4852C154.728 40.2309 154.42 41.0098 154.106 41.8143C152.734 45.3265 150.524 47.442 149.072 48.5298C149.023 48.5333 148.974 48.5414 148.926 48.5414C147.457 48.5414 146.694 46.0826 146.694 43.7659C146.694 34.6952 150.508 21.1602 156.075 21.1602ZM166.021 38.5667L169.017 21.0472C168.084 22.7426 166.926 23.3077 165.541 23.3077C162.659 23.3077 158.872 20.8213 154.351 20.8213C144.857 20.8213 136.465 31.8412 136.465 40.8273C136.465 46.0266 138.556 51.2823 144.489 51.2823C145.805 51.2823 147.071 51.0255 148.287 50.4067C148.44 50.3433 148.607 50.2632 148.771 50.163C150.092 49.3527 153.363 46.96 155.205 42.2433C155.518 41.4402 155.826 40.6629 156.119 39.9194C156.133 39.8858 156.145 39.856 156.158 39.8227L155.623 42.1837C154.013 49.2758 158.166 51.2823 162.97 51.2823C164.327 51.2823 165.683 51.1695 166.983 50.8866L167.067 50.7736C164.156 50.8584 165.174 43.4268 166.021 38.5667Z" fill="#614731"/>
<path fill-rule="evenodd" clip-rule="evenodd" d="M176.624 51.339C177.98 51.339 179.59 51.1413 181.399 50.8869L181.512 50.7738C179.779 50.0618 180.598 44.8458 181.474 40.8834C181.737 40.1348 183.228 35.9339 185.286 30.6636C187.009 26.2527 190.071 24.0348 191.294 23.2916C192.65 23.4152 192.77 25.2492 192.306 28.1681L190.046 42.1837C188.915 49.2761 192.843 51.3108 197.506 51.3108C198.862 51.3108 200.275 51.1413 201.631 50.8869L201.744 50.7738C199.088 50.3218 199.823 43.427 200.67 38.5667L202.027 30.5417C202.676 26.6988 202.931 20.8213 196.12 20.8213C194.59 20.8213 193.027 21.1245 191.485 21.9395C191.452 21.9491 191.42 21.9516 191.386 21.9669C191.192 22.0569 186.542 24.2073 184.187 30.2347C183.567 31.824 183.008 33.3126 182.521 34.6462L184.564 25.8514C185.44 22.0646 183.942 20.8213 180.721 20.8213C178.008 20.8213 174.052 22.0646 172.074 23.0252L172.158 23.1103C173.996 22.4036 174.843 23.0252 174.56 24.6642L171.396 42.466C170.153 49.4459 172.158 51.339 176.624 51.339Z" fill="#614731"/>
<path fill-rule="evenodd" clip-rule="evenodd" d="M205.677 42.1834C204.576 49.2758 208.475 51.3102 213.137 51.3102C214.469 51.3102 215.855 51.1458 217.188 50.8992C218.351 50.7249 219.398 50.3754 220.284 49.9441C220.417 49.8842 220.536 49.8229 220.644 49.7649C220.653 49.7598 220.663 49.7544 220.672 49.7491C220.711 49.7284 220.753 49.7058 220.786 49.6873C220.853 49.6497 220.912 49.611 220.975 49.5731C221.262 49.4036 221.527 49.2285 221.765 49.0496C221.961 48.9083 222.157 48.7622 222.368 48.6035C223.315 47.8922 224.187 46.9521 224.537 45.7963C224.765 45.0429 224.726 44.2438 224.431 43.5143C223.681 41.6582 221.962 41.601 220.779 42.0789C220.494 42.1941 220.232 42.3432 219.998 42.5207C218.991 43.2857 218.508 44.5777 218.987 45.9548C218.973 45.9156 219.805 45.9771 219.887 46.0007C220.152 46.0765 220.395 46.2145 220.596 46.4031C221.278 47.0437 221.158 47.8339 220.859 48.6252C220.811 48.7523 220.747 48.8729 220.685 48.9937C220.182 49.4383 219.586 49.7821 218.909 50.0684C218.276 50.3362 217.446 50.4428 216.704 50.4713C214.872 49.0152 215.587 42.9602 216.302 38.5664L218.994 22.034H227.484C227.499 21.7331 228.284 21.0871 228.284 21.0871C226.904 21.0871 222.074 21.1876 220.694 21.1876H219.133L220.908 10.479H220.739C219.23 18.6203 215.995 20.8223 209.164 21.165C207.699 21.1583 206.472 21.1527 206.401 21.1524C206.089 21.1511 205.769 21.1605 205.535 21.3359C205.473 21.3823 205.136 22.034 205.145 22.034H208.826L205.677 42.1834Z" fill="#614731"/>
<path fill-rule="evenodd" clip-rule="evenodd" d="M49.5953 0C45.9216 0 42.5875 2.76928 42.5875 7.00781C42.5875 9.94658 44.3114 12.2638 47.6455 12.49C48.4371 10.1163 50.4148 9.0422 52.3358 9.0422C53.937 9.0422 55.1967 9.75882 55.9706 10.8923C56.0603 11.1523 56.086 11.3632 56.1126 11.5211C56.1591 11.7943 56.1921 12.0683 56.212 12.3441C56.3286 13.9606 55.9953 15.6374 55.2824 17.5861C54.3514 20.1298 53.0527 22.6761 50.3186 27.3178C48.5421 30.335 45.4116 35.562 43.4715 38.796L38.4121 20.8778C37.0556 16.0739 37.2539 11.4682 42.4253 11.4682L42.4532 11.3266H19.0279L19 11.4682C22.9557 11.4682 24.6514 14.7175 26.6294 21.3863L36.2931 52.8081L42.5743 42.3318C42.6224 42.2932 42.6665 42.2488 42.7 42.193C42.7581 42.096 48.5617 32.4446 51.2563 27.8701C51.4137 27.6028 51.565 27.3442 51.7132 27.0901L52.3716 25.992C52.6786 25.4803 53.5131 23.9839 54.0186 23.0425C54.2679 22.5784 54.4231 22.2383 54.4231 22.2383C54.6987 21.6984 54.9566 21.1548 55.2018 20.6087C55.6337 19.678 55.9891 18.8193 56.3036 17.96C56.8561 16.45 57.2292 15.014 57.3592 13.6296C57.5593 12.422 57.6764 11.2117 57.6764 10.0033C57.6764 3.16466 53.5515 0 49.5953 0Z" fill="#614731"/>
<path fill-rule="evenodd" clip-rule="evenodd" d="M93.3242 109.153C83.6038 109.153 68.0346 98.6975 56.3924 98.6975C51.4759 98.6975 46.1638 101.495 41.0772 107.655L41.0493 107.626C47.3789 98.2172 58.9924 97.0018 60.9135 84.7383L63.9089 65.7498C64.5025 61.963 65.9436 54.3906 70.9167 54.3906C73.2906 54.3906 74.7029 56.3399 74.7029 57.8661C74.7029 59.7307 73.3467 61.7936 71.0862 61.7369C70.3521 64.6756 72.6685 66.4841 75.2686 66.4841C79.3943 66.4841 83.1805 63.0369 83.1805 59.0243C83.1805 55.916 80.92 53.0903 76.2852 53.0903C63.9656 53.0903 53.9056 65.7498 52.0972 76.7133L49.752 91.3786C48.2263 100.986 43.507 103.049 40.3711 108.503L40.5403 108.587C42.3488 105.931 43.8745 105.507 45.8524 105.507C59.3599 105.507 72.8386 117.799 84.3108 117.799C89.7929 117.799 94.822 115.03 99.0043 106.779L98.891 106.722C97.3933 108.559 95.7551 109.153 93.3242 109.153Z" fill="#614731"/>
<path fill-rule="evenodd" clip-rule="evenodd" d="M95.1984 58.022C95.4192 55.4998 93.4833 54.2868 91.7715 54.137C89.9249 53.9755 87.7431 55.0553 86.4887 56.9425C87.6899 58.7719 86.9998 62.2517 85.9238 63.6551L85.9429 63.7019C90.8634 63.9965 94.8911 61.535 95.1984 58.022Z" fill="#614731"/>
<path fill-rule="evenodd" clip-rule="evenodd" d="M92.5683 72.5877C93.1903 68.7448 92.0601 67.5581 88.8387 67.5581C86.1261 67.5581 82.1696 68.8015 80.1916 69.7622L80.2765 69.8471C82.1138 69.1407 82.9325 69.7622 82.6784 71.4013L79.7396 89.2033C78.5814 96.1542 82.1696 98.0758 86.4087 98.0758C87.7085 98.0758 89.0649 97.906 90.3644 97.6237L90.4211 97.5106C88.4992 96.5496 89.7708 89.5421 90.4211 85.5864L92.5683 72.5877Z" fill="#614731"/>
<path fill-rule="evenodd" clip-rule="evenodd" d="M136.822 54.137C134.975 53.9753 132.794 55.0554 131.539 56.9425C132.741 58.7717 132.05 62.2517 130.975 63.6552L130.994 63.7019C135.914 63.9966 139.942 61.5351 140.249 58.0221C140.47 55.4999 138.534 54.2869 136.822 54.137Z" fill="#614731"/>
<path fill-rule="evenodd" clip-rule="evenodd" d="M133.889 67.5581C131.177 67.5581 127.22 68.8012 125.243 69.7622L125.327 69.8469C127.164 69.1404 127.983 69.7622 127.729 71.401L124.79 89.2031C123.632 96.1542 127.22 98.0758 131.459 98.0758C132.759 98.0758 134.115 97.906 135.415 97.6237L135.472 97.5106C133.55 96.5496 134.822 89.5418 135.472 85.5864L137.619 72.5877C138.241 68.7445 137.111 67.5581 133.889 67.5581Z" fill="#614731"/>
<path fill-rule="evenodd" clip-rule="evenodd" d="M165.511 67.5581C163.807 67.5581 162.063 67.9325 160.352 68.9726C159.803 69.2425 155.526 71.4963 153.278 77.253C152.909 78.1961 152.565 79.1007 152.241 79.9632L153.955 72.5877C154.83 68.8012 153.332 67.5581 150.112 67.5581C147.399 67.5581 143.443 68.8012 141.465 69.7622L141.549 69.8469C143.386 69.1404 144.234 69.7622 143.951 71.401L140.786 89.2031C139.543 96.1827 141.549 98.0758 146.014 98.0758C147.37 98.0758 148.981 97.8781 150.79 97.6237L150.902 97.5106C149.047 96.7481 150.118 90.8168 151.052 86.7945C151.638 85.0626 152.816 81.6766 154.377 77.682C156.399 72.5028 160.273 70.3365 160.839 70.048C162.051 70.2943 162.143 72.0996 161.697 74.9049L159.436 88.9205C158.306 96.0129 162.233 98.0473 166.896 98.0473C168.252 98.0473 169.665 97.8781 171.022 97.6237L171.135 97.5106C168.478 97.0586 169.213 90.1639 170.061 85.3035L171.417 77.2785C172.067 73.4354 172.321 67.5581 165.511 67.5581Z" fill="#614731"/>
<path fill-rule="evenodd" clip-rule="evenodd" d="M184.59 90.5022C184.59 81.4316 188.404 67.8965 193.972 67.8965C196.967 67.8965 196.627 71.7678 196.09 74.7066L195.584 77.5143C195.568 77.5468 195.545 77.5753 195.535 77.6121C195.523 77.6575 194.281 82.1745 192.358 87.9683C191.072 91.8377 188.869 94.0513 187.238 95.2307C187.099 95.2586 186.96 95.2777 186.822 95.2777C185.353 95.2777 184.59 92.8195 184.59 90.5022ZM203.437 70.0445C200.555 70.0445 196.768 67.5581 192.247 67.5581C182.753 67.5581 174.361 78.5786 174.361 87.5641C174.361 92.7634 176.452 98.0194 182.385 98.0194C184.113 98.0194 185.755 97.581 187.31 96.4534C187.506 96.3495 187.709 96.2337 187.856 96.1276C189.618 94.8579 192.008 92.4717 193.39 88.3116C193.912 86.7387 194.382 85.2646 194.793 83.942L191.541 101.297C190.495 106.92 189.139 110.141 184.787 110.141C181.425 110.141 180.408 108.192 180.408 106.637C180.408 105.14 181.369 103.642 183.572 103.388C183.912 100.336 181.369 98.6976 179.051 98.6976C175.83 98.6976 173.287 101.015 173.287 104.179C173.287 109.322 179.786 110.339 184.477 110.339C195.215 110.339 201.063 104.971 202.278 97.2278L206.913 67.784C205.98 69.4794 204.821 70.0445 203.437 70.0445Z" fill="#614731"/>
<path fill-rule="evenodd" clip-rule="evenodd" d="M123.59 75.8715C123.591 75.7753 123.598 75.6797 123.598 75.5833C123.598 69.9316 120.094 67.106 116.646 67.106C113.482 67.106 110.543 69.4796 110.543 73.3225C110.543 75.6961 112.125 77.9005 115.008 78.0697C115.73 74.0995 121.6 73.6601 122.624 77.2822C122.625 79.5043 121.927 81.882 120.335 85.1584C118.293 89.3631 114.443 92.4335 112.883 93.5581C110.773 95.0789 107.455 96.0032 106.547 96.2368C104.937 95.6919 105.126 93.1963 105.796 88.9771L108.396 72.5876C109.017 68.7447 107.887 67.5583 104.665 67.5583C101.953 67.5583 97.9974 68.8014 96.0194 69.7624L96.104 69.847C97.9404 69.1406 98.7881 69.7624 98.5061 71.4012L95.5673 89.7117C94.6632 95.3067 97.0363 98.0196 102.179 98.0196C103.965 98.0196 105.783 97.6878 107.568 97.0864C109.001 96.6739 111.647 95.7904 113.519 94.4402C115.146 93.2669 119.163 90.0614 121.314 85.6343C123.265 81.6163 123.943 78.8463 123.654 76.0732C123.647 76.0002 123.624 75.9325 123.59 75.8715Z" fill="#614731"/>
<path fill-rule="evenodd" clip-rule="evenodd" d="M27.2083 137.011C27.2083 135.262 26.6483 134.185 25.3466 134.185C22.5201 134.185 22.0496 138.941 22.0496 141.139C22.0496 142.843 22.4071 143.674 23.5747 143.674C25.7281 143.674 27.2083 140.129 27.2083 137.011ZM29.3618 139.569C29.1383 141.005 28.9149 142.059 28.9149 142.798C28.9149 143.337 29.0938 143.742 29.6089 143.742C30.0349 143.742 30.3503 143.45 30.8421 142.777L31.3127 143.114C30.7526 144.01 29.9006 144.639 28.8018 144.639C27.3661 144.639 26.7378 143.897 26.7378 142.753C26.7378 142.441 26.7824 142.104 26.8719 141.723L26.7378 141.699C26.0199 143.361 24.7185 144.639 22.7674 144.639C20.5009 144.639 19.3809 143.179 19.3809 140.689C19.3809 137.461 21.0849 133.446 24.9208 133.446C26.3803 133.446 27.1872 134.14 27.6132 135.06L28.6678 128.15H26.8507L26.9165 127.569H31.3575L29.3618 139.569Z" fill="#614731"/>
<path fill-rule="evenodd" clip-rule="evenodd" d="M39.3691 134.051C38.0465 134.051 36.7003 135.891 36.3403 139.031C38.7854 138.873 40.5576 138.089 40.5576 135.71C40.5576 134.59 40.1316 134.051 39.3691 134.051ZM42.8896 136.026C42.8896 138.337 40.5812 139.054 38.6723 139.412C37.9097 139.546 37.1026 139.636 36.2954 139.68V139.996C36.2954 142.733 36.9237 143.719 38.5173 143.719C39.795 143.719 41.1859 143.025 41.9933 140.669L42.5979 140.848C41.859 143.361 40.108 144.639 37.618 144.639C34.9938 144.639 33.582 143.069 33.582 140.422C33.582 136.609 36.072 133.446 39.7268 133.446C41.7249 133.446 42.8896 134.343 42.8896 136.026Z" fill="#614731"/>
<path fill-rule="evenodd" clip-rule="evenodd" d="M50.6305 143.046C49.8889 144.124 49.1053 144.639 47.9592 144.639C46.4577 144.639 45.627 143.877 45.627 142.441C45.627 141.634 45.8741 140.243 46.4131 137.393L48.1851 128.151H46.4577L46.5472 127.57H50.8539C50.4728 129.342 48.4322 140.288 48.1615 142.015C48.0062 143.025 47.938 143.764 48.6769 143.764C49.1711 143.764 49.5762 143.451 50.1123 142.688L50.6305 143.046Z" fill="#614731"/>
<path fill-rule="evenodd" clip-rule="evenodd" d="M55.2529 130.303C55.2529 129.318 55.9706 128.531 57.1146 128.531C57.9663 128.531 58.55 128.913 58.55 129.833C58.55 130.866 57.8323 131.605 56.6886 131.605C55.6107 131.605 55.2529 131.021 55.2529 130.303ZM58.55 143.069C57.8771 144.078 57.0909 144.638 55.9024 144.638C54.4667 144.638 53.615 143.986 53.615 142.53C53.615 142.08 53.7254 141.228 53.9515 140.174C54.2196 138.962 55.0506 135.105 55.2529 134.253H53.457L53.5701 133.669H57.8771C57.6061 134.858 56.2389 141.588 56.1707 142.014C56.081 142.416 56.0364 142.753 56.0364 143.024C56.0364 143.584 56.2602 143.763 56.6649 143.763C57.1355 143.763 57.4957 143.45 58.0558 142.708L58.55 143.069Z" fill="#614731"/>
<path fill-rule="evenodd" clip-rule="evenodd" d="M69.7427 140.871C69.2275 142.599 67.8601 144.639 64.8759 144.639C62.1625 144.639 60.748 143.024 60.748 140.377C60.748 136.719 62.9696 133.446 67.1187 133.446C69.3616 133.446 70.3949 134.655 70.3949 136.115C70.3949 137.214 69.8321 138.134 68.5544 138.134C67.6788 138.134 67.1633 137.663 67.1633 136.99C67.1633 136.63 67.2764 136.228 67.4999 135.891H68.307C68.444 135.576 68.4886 135.307 68.4886 135.06C68.4886 134.366 67.9944 134.006 67.187 134.006C64.4735 134.006 63.5087 137.461 63.5087 140.353C63.5087 142.733 64.1134 143.742 65.6831 143.742C67.2528 143.742 68.4201 142.664 69.0932 140.669L69.7427 140.871Z" fill="#614731"/>
<path fill-rule="evenodd" clip-rule="evenodd" d="M74.8342 130.303C74.8342 129.318 75.5519 128.531 76.6959 128.531C77.5476 128.531 78.1313 128.913 78.1313 129.833C78.1313 130.866 77.4136 131.605 76.2699 131.605C75.1944 131.605 74.8342 131.021 74.8342 130.303ZM78.1313 143.069C77.4584 144.078 76.6749 144.638 75.4837 144.638C74.048 144.638 73.1963 143.986 73.1963 142.53C73.1963 142.08 73.3093 141.228 73.5328 140.174C73.8036 138.962 74.6319 135.105 74.8342 134.253H73.041L73.1514 133.669H77.4584C77.1901 134.858 75.8202 141.588 75.7544 142.014C75.665 142.416 75.6204 142.753 75.6204 143.024C75.6204 143.584 75.8439 143.763 76.2462 143.763C76.7195 143.763 77.077 143.45 77.6371 142.708L78.1313 143.069Z" fill="#614731"/>
<path fill-rule="evenodd" clip-rule="evenodd" d="M87.9822 136.901C87.9822 134.992 87.5116 133.985 86.1205 133.985C83.2703 133.985 82.7788 139.144 82.7788 141.116C82.7788 142.98 83.294 144.055 84.6614 144.055C87.622 144.055 87.9822 139.055 87.9822 136.901ZM80.2441 140.421C80.2441 136.922 82.3293 133.446 86.3889 133.446C89.2154 133.446 90.5617 134.992 90.5617 137.619C90.5617 141.273 88.3871 144.639 84.4381 144.639C81.5904 144.639 80.2441 143.024 80.2441 140.421Z" fill="#614731"/>
<path fill-rule="evenodd" clip-rule="evenodd" d="M95.2726 134.253H93.5898L93.682 133.67H97.9439C97.6731 134.792 96.3954 141.095 96.3059 141.589C96.2374 141.947 96.1929 142.262 96.1929 142.552C96.1929 143.18 96.4163 143.585 97.2262 143.585C98.7959 143.585 100.187 141.208 100.97 138.224C101.396 136.675 101.622 135.397 101.756 133.783C102.45 133.804 103.955 133.67 104.583 133.536C103.955 136.473 103.213 140.062 102.969 141.497C102.856 142.149 102.811 142.62 102.811 142.956C102.811 143.427 102.99 143.787 103.484 143.787C103.955 143.787 104.336 143.471 104.851 142.754L105.322 143.09C104.762 143.921 103.976 144.639 102.766 144.639C101.286 144.639 100.613 143.987 100.613 142.822C100.613 142.441 100.678 141.991 100.836 141.476L101.015 140.803L100.881 140.758C100.029 142.62 98.7722 144.639 96.3269 144.639C94.4891 144.639 93.816 143.585 93.816 142.126C93.816 141.813 93.837 141.476 93.9055 141.116C94.1972 139.48 94.8257 136.451 95.2726 134.253Z" fill="#614731"/>
<path fill-rule="evenodd" clip-rule="evenodd" d="M113.67 141.925C113.67 140.803 112.682 140.398 111.607 139.995C110.216 139.48 108.691 138.962 108.691 136.922C108.691 134.7 110.865 133.446 113.334 133.446C115.306 133.446 116.697 134.164 116.697 135.665C116.697 136.585 116.181 137.303 115.106 137.303C114.409 137.303 113.849 136.945 113.849 136.338C113.849 136.002 113.939 135.689 114.186 135.373H114.859C114.925 135.218 114.948 135.084 114.948 134.947C114.948 134.411 114.409 134.074 113.423 134.074C111.919 134.074 110.799 134.837 110.799 136.046C110.799 137.035 111.762 137.482 112.884 137.931C114.32 138.491 115.979 139.12 115.979 141.005C115.979 143.224 113.87 144.639 111.091 144.639C108.577 144.639 107.41 143.561 107.41 142.17C107.41 141.163 108.017 140.466 109.072 140.466C109.79 140.466 110.281 140.916 110.281 141.565C110.281 141.857 110.216 142.17 109.992 142.462H109.274C109.206 142.598 109.182 142.753 109.182 142.888C109.182 143.495 109.766 143.942 111.091 143.942C112.593 143.942 113.67 143.269 113.67 141.925Z" fill="#614731"/>
<path fill-rule="evenodd" clip-rule="evenodd" d="M124.616 143.046C123.877 144.124 123.091 144.639 121.947 144.639C120.443 144.639 119.615 143.877 119.615 142.441C119.615 141.634 119.862 140.243 120.399 137.393L122.171 128.151H120.443L120.533 127.57H124.84C124.458 129.342 122.418 140.288 122.15 142.015C121.992 143.025 121.924 143.764 122.665 143.764C123.16 143.764 123.562 143.451 124.101 142.688L124.616 143.046Z" fill="#614731"/>
<path fill-rule="evenodd" clip-rule="evenodd" d="M126.075 148.004C125.917 148.228 125.828 148.475 125.828 148.675C125.828 149.035 126.099 149.303 126.659 149.303C127.892 149.303 129.44 148.228 131.436 145.199C130.674 142.351 129.643 138.649 128.833 136.046C128.565 135.129 128.342 134.881 127.936 134.881C127.466 134.881 127.106 135.352 126.635 136.585L125.986 136.317C126.59 134.747 127.263 133.601 128.991 133.601C130.158 133.601 130.876 134.229 131.323 135.733C131.996 137.931 132.669 140.421 133.253 142.754C134.352 141.094 136.035 138.2 136.035 136.698C136.035 136.115 135.743 135.71 135.317 135.689L134.599 136.585C133.902 136.362 133.432 135.802 133.432 135.084C133.432 134.14 134.084 133.446 135.138 133.446C136.437 133.446 137.155 134.455 137.155 135.823C137.155 137.908 135.362 140.96 133.926 143.069C131.817 146.164 129.664 150 126.48 150C124.818 150 123.809 149.08 123.809 147.62C123.809 146.477 124.571 145.714 125.625 145.714C126.635 145.714 127.398 146.5 127.061 147.847L126.075 148.004Z" fill="#614731"/>
<path fill-rule="evenodd" clip-rule="evenodd" d="M152.301 142.575C152.301 141.071 153.31 138.179 153.691 136.428C153.805 135.981 153.849 135.62 153.849 135.328C153.849 134.747 153.623 134.477 153.087 134.477C151.628 134.477 150.126 136.585 149.385 138.762C148.87 140.287 148.554 142.194 148.33 144.323C147.636 144.302 146.153 144.415 145.527 144.55L146.4 140.49L148.33 128.15H146.648L146.716 127.569H150.954L148.914 137.55L149.048 137.619C149.99 135.689 151.47 133.446 153.87 133.446C155.44 133.446 156.25 134.274 156.25 135.778C156.25 136.204 156.181 136.743 156.068 137.237C155.8 138.313 155.151 140.758 154.903 141.857C154.814 142.215 154.701 142.709 154.701 143.069C154.701 143.584 154.948 143.763 155.329 143.763C155.868 143.763 156.36 143.337 156.81 142.732L157.281 143.114C156.676 143.987 155.845 144.639 154.588 144.639C153.152 144.639 152.301 143.942 152.301 142.575Z" fill="#614731"/>
<path fill-rule="evenodd" clip-rule="evenodd" d="M165.512 134.051C164.189 134.051 162.843 135.891 162.485 139.031C164.931 138.873 166.703 138.089 166.703 135.71C166.703 134.59 166.274 134.051 165.512 134.051ZM169.035 136.026C169.035 138.337 166.724 139.054 164.818 139.412C164.055 139.546 163.248 139.636 162.44 139.68V139.996C162.44 142.733 163.069 143.719 164.66 143.719C165.94 143.719 167.328 143.025 168.138 140.669L168.743 140.848C168.002 143.361 166.253 144.639 163.763 144.639C161.139 144.639 159.725 143.069 159.725 140.422C159.725 136.609 162.215 133.446 165.872 133.446C167.868 133.446 169.035 134.343 169.035 136.026Z" fill="#614731"/>
<path fill-rule="evenodd" clip-rule="evenodd" d="M179.088 137.101C179.088 135.105 178.391 134.185 177.202 134.185C174.915 134.185 173.926 137.416 173.926 140.96C173.926 142.575 174.173 143.674 175.475 143.674C177.515 143.674 179.088 140.198 179.088 137.101ZM183.168 143.114C182.632 143.966 181.801 144.639 180.657 144.639C179.177 144.639 178.569 143.921 178.569 142.822C178.569 142.462 178.638 142.081 178.751 141.655L178.638 141.634C177.944 143.204 176.687 144.639 174.578 144.639C172.38 144.639 171.281 143.18 171.281 140.645C171.281 137.416 173.074 133.446 176.798 133.446C178.188 133.446 179.019 134.051 179.535 135.174L179.916 133.714C180.702 133.738 181.622 133.67 182.361 133.557C181.801 136.317 181.152 139.525 180.747 142.396C180.702 142.62 180.702 142.822 180.702 142.98C180.702 143.54 180.904 143.764 181.351 143.764C181.756 143.764 182.206 143.472 182.697 142.754L183.168 143.114Z" fill="#614731"/>
<path fill-rule="evenodd" clip-rule="evenodd" d="M190.751 143.046C190.012 144.124 189.226 144.639 188.082 144.639C186.578 144.639 185.75 143.877 185.75 142.441C185.75 141.634 185.997 140.243 186.534 137.393L188.305 128.151H186.578L186.668 127.57H190.974C190.593 129.342 188.553 140.288 188.285 142.015C188.127 143.025 188.059 143.764 188.8 143.764C189.294 143.764 189.697 143.451 190.235 142.688L190.751 143.046Z" fill="#614731"/>
<path fill-rule="evenodd" clip-rule="evenodd" d="M197.526 134.253L196.361 140.535C196.159 141.589 196.069 142.215 196.069 142.575C196.069 143.248 196.382 143.606 197.034 143.606C197.842 143.606 198.381 143.09 199.075 142.125L199.59 142.507C198.851 143.674 197.752 144.639 196.248 144.639C194.318 144.639 193.535 143.561 193.535 142.215C193.535 141.431 193.69 140.579 193.961 139.254L194.926 134.253H193.309L193.401 133.67H195.015L195.441 131.067L198.154 130.373L197.615 133.67H199.971L199.882 134.253H197.526Z" fill="#614731"/>
<path fill-rule="evenodd" clip-rule="evenodd" d="M208.654 142.575C208.654 141.071 209.664 138.179 210.045 136.428C210.158 135.981 210.203 135.62 210.203 135.328C210.203 134.747 209.977 134.477 209.44 134.477C207.981 134.477 206.479 136.585 205.738 138.762C205.223 140.287 204.907 142.194 204.684 144.323C203.99 144.302 202.506 144.415 201.881 144.55L202.754 140.49L204.684 128.15H203.001L203.069 127.569H207.308L205.267 137.55L205.401 137.619C206.343 135.689 207.823 133.446 210.224 133.446C211.793 133.446 212.603 134.274 212.603 135.778C212.603 136.204 212.535 136.743 212.422 137.237C212.153 138.313 211.504 140.758 211.257 141.857C211.167 142.215 211.054 142.709 211.054 143.069C211.054 143.584 211.302 143.763 211.683 143.763C212.222 143.763 212.713 143.337 213.163 142.732L213.634 143.114C213.029 143.987 212.198 144.639 210.941 144.639C209.506 144.639 208.654 143.942 208.654 142.575Z" fill="#614731"/>
<path fill-rule="evenodd" clip-rule="evenodd" d="M215.294 148.004C215.136 148.228 215.047 148.475 215.047 148.675C215.047 149.035 215.317 149.303 215.877 149.303C217.111 149.303 218.659 148.228 220.655 145.199C219.892 142.351 218.862 138.649 218.052 136.046C217.784 135.129 217.56 134.881 217.155 134.881C216.685 134.881 216.324 135.352 215.854 136.585L215.204 136.317C215.809 134.747 216.482 133.601 218.209 133.601C219.377 133.601 220.095 134.229 220.542 135.733C221.215 137.931 221.888 140.421 222.472 142.754C223.571 141.094 225.254 138.2 225.254 136.698C225.254 136.115 224.962 135.71 224.536 135.689L223.818 136.585C223.121 136.362 222.651 135.802 222.651 135.084C222.651 134.14 223.302 133.446 224.357 133.446C225.656 133.446 226.374 134.455 226.374 135.823C226.374 137.908 224.58 140.96 223.145 143.069C221.036 146.164 218.883 150 215.699 150C214.037 150 213.027 149.08 213.027 147.62C213.027 146.477 213.79 145.714 214.844 145.714C215.854 145.714 216.616 146.5 216.28 147.847L215.294 148.004Z" fill="#614731"/>
<path fill-rule="evenodd" clip-rule="evenodd" d="M333.136 50C293.136 50 256.832 80.1533 256.832 126.304C256.832 158.303 275.602 183.534 311.906 185.997C320.525 160.151 342.059 148.456 362.977 148.456C380.411 148.456 394.127 156.259 402.553 168.601C403.53 171.432 403.811 173.728 404.1 175.447C404.606 178.422 404.966 181.405 405.182 184.409C406.452 202.009 402.822 220.268 395.06 241.486C384.923 269.183 370.783 296.909 341.012 347.45C321.669 380.302 287.582 437.216 266.457 472.429L211.368 277.328C196.599 225.02 198.757 174.871 255.065 174.871L255.37 173.33H0.304165L0 174.871C43.0715 174.871 61.5349 210.251 83.072 282.864L188.295 625L256.689 510.929C257.212 510.508 257.692 510.026 258.057 509.417C258.689 508.362 321.882 403.273 351.222 353.463C352.936 350.553 354.583 347.736 356.197 344.97L363.366 333.014C366.709 327.442 375.795 311.149 381.3 300.898C384.014 295.844 385.704 292.141 385.704 292.141C388.705 286.263 391.513 280.343 394.183 274.398C398.886 264.264 402.755 254.913 406.18 245.557C412.196 229.115 416.258 213.48 417.674 198.406C419.853 185.257 421.128 172.078 421.128 158.92C421.128 84.4584 376.214 50 333.136 50Z" fill="#F5E0BC"/>
</svg>
